<svg width="66" height="112" viewBox="0 0 66 112" fill="none" xmlns="http://www.w3.org/2000/svg">
<path d="M35.9436 66.1587L35.9436 66.1587C33.1047 67.3582 30.8594 68.6347 29.5861 69.9973C28.9483 70.6798 28.5483 71.3903 28.4459 72.1294C28.3433 72.8708 28.542 73.6274 29.076 74.3962C29.7198 75.3258 30.8566 76.278 32.5537 77.2549C33.0149 77.5202 33.8948 77.7959 35.0618 78.0591C36.2328 78.3232 37.7043 78.5769 39.3572 78.7941C42.6629 79.2286 46.6994 79.5178 50.5178 79.4511C54.3332 79.3845 57.9427 78.9625 60.3873 77.9677C61.6096 77.4703 62.553 76.8248 63.08 75.9969C63.6106 75.1635 63.7103 74.1595 63.2731 72.9707C62.985 72.1852 62.6051 71.4625 62.1468 70.7975L62.1331 70.7775L62.1314 70.7767C59.6128 67.1392 54.7599 65.2727 49.7083 64.6679C44.6447 64.0617 39.3517 64.7193 35.9436 66.1587Z" fill="white" stroke="#575959" stroke-width="0.2"/>
<path d="M29.0763 74.3961L29.1357 74.4817L29.2187 74.4188C41.2416 65.3232 54.6155 68.1535 62.0278 70.9467L62.3265 71.0593L62.1454 70.7964C59.6307 67.1459 54.7694 65.2736 49.7085 64.6677C44.6449 64.0615 39.3519 64.7191 35.9438 66.1585L35.9438 66.1585C33.1049 67.358 30.8596 68.6345 29.5863 69.9971C28.9485 70.6796 28.5485 71.3901 28.4462 72.1292C28.3435 72.8706 28.5423 73.6272 29.0763 74.3961Z" fill="#E1E3E5" stroke="#575959" stroke-width="0.2"/>
<path d="M54.6156 77.2104C52.2757 77.2154 48.4073 76.8581 48.348 76.0541C48.286 75.2322 52.1946 73.9229 56.0078 74.0884C58.6106 74.2019 61.6494 75.0258 61.6292 75.7522C61.6045 76.5748 57.6663 77.2048 54.6156 77.2104Z" fill="#FAFBFB"/>
<path d="M26.7701 95.8987C20.3274 95.8987 15.0829 92.5031 11.4525 87.6738C7.82304 82.8456 5.80085 76.5775 5.80085 70.8109C5.80085 69.6863 5.91453 68.6749 6.13295 67.7702C6.63223 65.6692 7.6777 64.133 9.10685 63.0135C10.5341 61.8955 12.3394 61.1967 14.3546 60.7605C17.8171 60.0112 21.9233 60.033 25.8405 60.0538C26.479 60.0572 27.1124 60.0606 27.7373 60.0606C28.0846 60.0606 28.4408 60.0596 28.8044 60.0585C32.6943 60.0472 37.4309 60.0335 41.316 61.2562C43.4425 61.9255 45.3221 62.9675 46.67 64.5898C48.0191 66.2135 48.8279 68.4095 48.8279 71.3719C48.8279 75.8683 47.498 80.4913 45.1421 84.4943C41.3105 91.012 34.7512 95.8987 26.7701 95.8987Z" fill="white" stroke="#575959" stroke-width="0.2"/>
<path d="M45.0128 84.3534L45.3057 84.2155L45.1416 84.4946C41.31 91.0123 34.7507 95.8989 26.7695 95.8989C20.3269 95.8989 15.0824 92.5034 11.452 87.674C7.82253 82.8458 5.80034 76.5777 5.80034 70.8111C5.80034 69.6865 5.91404 68.675 6.13249 67.7702L6.22057 67.4054L6.32569 67.7657C8.37527 74.79 11.3235 79.5661 14.7109 82.7241C18.0977 85.8815 21.929 87.4264 25.7542 87.9799C33.41 89.0876 41.0408 86.2234 45.0128 84.3534Z" fill="#E1E3E5" stroke="#575959" stroke-width="0.2"/>
<path d="M21.5846 65.519C23.2482 68.2322 22.0717 72.0926 19.2148 73.6082C16.1946 75.2105 12.0871 73.7743 10.9636 70.5894C9.89734 67.565 11.9517 64.1736 14.8966 63.2232C17.2594 62.4597 20.2015 63.2622 21.5846 65.519Z" fill="#FAFBFB"/>
<path d="M14.3075 67.9157L14.3075 67.9157C14.7734 68.0363 15.5147 68.4144 16.4316 68.9808C17.3519 69.5493 18.459 70.3138 19.6596 71.2161C22.0609 73.0207 24.8406 75.3793 27.2557 77.8296C29.6686 80.2776 31.7258 82.8255 32.6721 85.0084C33.1452 86.0998 33.346 87.1121 33.1625 87.98C32.9777 88.8542 32.4065 89.5655 31.3734 90.0561L31.3733 90.0561C29.2595 91.0585 26.9604 91.1262 24.6693 90.5662L24.6693 90.5662C21.3834 89.7614 18.1056 87.6616 15.3928 85.1478C12.68 82.634 10.5224 79.6973 9.48271 77.2071C8.29382 74.3604 7.63344 71.9095 7.8511 70.1784C7.96048 69.3085 8.29276 68.6114 8.89902 68.1416C9.50352 67.6733 10.366 67.4422 11.5134 67.4727C12.3022 67.4937 13.2304 67.6375 14.3075 67.9157Z" fill="white" stroke="#575959" stroke-width="0.2"/>
<path d="M11.5139 67.4731L11.608 67.4756L11.6112 67.5697C11.7296 71.054 13.7074 78.381 24.7672 90.4018L24.9913 90.6454L24.6698 90.5666C21.3839 89.7618 18.1061 87.662 15.3933 85.1482C12.6805 82.6344 10.523 79.6977 9.48323 77.2075C8.29434 74.3608 7.63396 71.9099 7.85162 70.1788C7.961 69.3089 8.29328 68.6118 8.89954 68.1421C9.50404 67.6737 10.3665 67.4426 11.5139 67.4731Z" fill="#E1E3E5" stroke="#575959" stroke-width="0.2"/>
<path d="M24.1871 80.3363C21.1147 77.5114 16.1465 72.4233 16.6598 71.8358C17.1227 71.3056 22.1063 74.3628 26.0013 78.7269C28.1707 81.1577 30.2294 84.2493 29.8301 84.6139C29.334 85.069 25.1436 81.2148 24.1871 80.3363Z" fill="#FAFBFB"/>
<path d="M39.8111 54.3324C33.6784 57.7888 24.0739 58.5673 15.9055 57.0615C11.8197 56.3083 8.08415 54.982 5.31589 53.1258C2.54753 51.2696 0.736176 48.8754 0.528023 45.9874C-0.397861 33.1858 3.81795 24.6695 9.56547 19.6651C14.0471 15.758 19.4605 13.9923 24.0748 13.9923C30.4479 13.9923 36.3961 17.8268 40.5123 23.7363C44.6294 29.647 46.9219 37.6432 45.9813 45.9914C45.569 49.6519 43.2222 52.41 39.8111 54.3324Z" fill="white" stroke="#575959" stroke-width="0.2"/>
<path d="M33.6228 45.2041C31.8202 45.0899 30.6472 44.8654 29.9249 44.6264C28.6282 44.1972 28.7873 43.72 29.3881 43.7475C30.3225 43.7904 31.7385 44.3603 34.1861 44.5152C37.0004 44.6934 39.5363 44.462 41.0053 44.541C41.0716 44.5444 41.1335 44.5479 41.1975 44.5522C42.6643 44.6449 39.152 45.5538 33.6228 45.2041Z" fill="#006D41"/>
<path d="M0.627644 45.98C1.44829 57.3657 27.5513 61.127 39.7618 54.245C32.3021 55.483 10.0944 58.2017 6.09864 47.5026C2.66254 38.301 6.91088 26.0249 9.63102 19.7402C3.91022 24.7213 -0.29628 33.2055 0.627644 45.98Z" fill="#E1E3E5"/>
<path d="M17.883 35.0503C17.9539 37.3341 20.2249 38.6707 23.1207 39.4172C26.1709 40.2043 29.9157 40.3359 32.5172 40.2262C36.2404 40.0702 43.4014 39.1192 45.9104 36.3827C46.499 35.7419 46.8305 35.0007 46.8043 34.1519C46.728 31.6786 45.9409 29.0266 44.4112 27.45C42.8797 25.8758 40.6054 25.3783 38.3444 25.4491L25.786 25.8383C23.1586 25.9193 20.8629 27.3469 19.4327 29.5003C18.4021 31.0538 17.8186 32.9805 17.883 35.0503Z" fill="#006D41"/>
<path d="M37.2557 31.2034C36.8881 33.2303 38.2338 35.1722 40.2607 35.5398C41.8276 35.8239 43.343 35.086 44.1208 33.8001C44.3497 33.4218 44.5148 32.9964 44.5985 32.535C44.9661 30.508 43.6204 28.5662 41.5921 28.1983C40.0993 27.9276 38.6537 28.586 37.8492 29.7607C37.5589 30.1804 37.3528 30.6678 37.2557 31.2034Z" fill="#002D2D"/>
<path d="M41.5936 28.1971C40.1008 27.9264 38.6552 28.5848 37.8507 29.7594C37.5602 30.1805 37.3527 30.6677 37.2555 31.2033C36.8877 33.2316 38.2337 35.1721 40.2606 35.5396C41.8275 35.8238 43.3428 35.0859 44.1207 33.8C44.3496 33.4216 44.5147 32.9963 44.5983 32.5348C44.9675 30.5068 43.6219 28.5649 41.5936 28.1971ZM41.7177 27.5047C44.125 27.9413 45.727 30.253 45.2907 32.659C45.1938 33.1932 45.0026 33.7003 44.723 34.1631C43.7784 35.7265 41.9343 36.5566 40.1353 36.2304C37.7294 35.7941 36.1274 33.4823 36.5637 31.0764C36.6765 30.4543 36.9146 29.8762 37.2708 29.3592C38.2548 27.9221 40.0011 27.1934 41.7177 27.5047Z" fill="white"/>
<path d="M41.28 30.9881C41.2441 30.3046 41.7691 29.7214 42.4526 29.6855C43.1361 29.6496 43.7193 30.1746 43.7552 30.8581C43.7911 31.5416 43.2661 32.1248 42.5826 32.1607C41.8991 32.1966 41.3159 31.6716 41.28 30.9881Z" fill="#FAFBFB"/>
<path d="M37.9183 32.0592C37.6948 32.1577 37.7349 33.4855 38.5539 34.139C39.2824 34.7207 40.41 34.5961 40.4775 34.3644C40.5268 34.1946 39.9818 34.0476 39.1553 33.3176C38.2874 32.5503 38.0739 31.991 37.9183 32.0592Z" fill="#FAFBFB"/>
<path d="M22.7656 32.3672C22.398 34.3941 23.7437 36.336 25.7706 36.7036C27.3375 36.9877 28.8529 36.2498 29.6307 34.9639C29.8596 34.5856 30.0247 34.1602 30.1084 33.6988C30.476 31.6719 29.1303 29.73 27.102 29.3622C25.6092 29.0915 24.1636 29.7498 23.3591 30.9245C23.07 31.3458 22.8624 31.833 22.7656 32.3672Z" fill="#002D2D"/>
<path d="M27.1035 29.3621C25.6108 29.0914 24.1652 29.7498 23.3607 30.9245C23.0702 31.3455 22.8626 31.8327 22.7655 32.3683C22.3977 34.3966 23.7436 36.3371 25.7706 36.7047C27.3375 36.9888 28.8528 36.2509 29.6307 34.965C29.8596 34.5867 30.0247 34.1613 30.1083 33.6999C30.4775 31.6718 29.1332 29.7302 27.1035 29.3621ZM27.229 28.67C29.6364 29.1066 31.2384 31.4183 30.8021 33.8243C30.7052 34.3585 30.5139 34.8656 30.2343 35.3284C29.2898 36.8918 27.4456 37.7219 25.6467 37.3957C23.2407 36.9594 21.6387 34.6476 22.075 32.2416C22.1878 31.6196 22.426 31.0415 22.7822 30.5245C23.7662 29.0874 25.5111 28.3584 27.229 28.67Z" fill="white"/>
<path d="M26.7898 32.1527C26.7539 31.4692 27.2788 30.886 27.9623 30.8501C28.6458 30.8142 29.229 31.3392 29.2649 32.0227C29.3008 32.7062 28.7759 33.2894 28.0924 33.3253C27.4089 33.3612 26.8257 32.8362 26.7898 32.1527Z" fill="#FAFBFB"/>
<path d="M23.4281 33.2232C23.2046 33.3217 23.2446 34.6495 24.0637 35.303C24.7922 35.8848 25.9198 35.7602 25.9873 35.5284C26.0366 35.3587 25.4916 35.2116 24.6652 34.4816C23.7972 33.7143 23.5835 33.1564 23.4281 33.2232Z" fill="#FAFBFB"/>
<path d="M22.0659 18.3031L22.0513 18.4024L21.9521 18.3875L20.7337 18.2047L20.6311 18.1893L20.6502 18.0874C20.6502 18.0874 20.6503 18.0872 20.6503 18.0866C20.6519 18.075 20.6711 17.9345 20.6833 17.6872C20.6961 17.4297 20.7013 17.0589 20.6718 16.6025C20.6126 15.6897 20.4145 14.4357 19.8603 13.0616L19.8603 13.0616C18.3762 9.37991 15.1664 6.60491 10.2998 4.82373L10.2059 4.78936L10.2402 4.69546L10.6631 3.53985L10.6975 3.44594L10.7914 3.48031C17.3661 5.8868 20.0902 9.76017 21.2141 12.5937C22.4416 15.6855 22.0825 18.1896 22.0659 18.3031ZM19.953 13.0242C21.0457 15.7334 20.7664 17.9799 20.7493 18.1008L21.1212 12.6306C20.0128 9.83602 17.3299 6.00745 10.8509 3.60876L10.8509 3.60858L10.757 3.57422L10.7227 3.66813L10.3685 4.63592L10.3341 4.72983C15.2189 6.51766 18.4555 9.30898 19.953 13.0242Z" fill="white" stroke="#575959" stroke-width="0.2"/>
<path d="M6.30887 4.08727C6.08337 2.52096 7.17031 1.06841 8.73662 0.842907C10.3029 0.617407 11.7555 1.70435 11.981 3.27066C12.2065 4.83697 11.1195 6.28949 9.55322 6.51499C7.98691 6.74049 6.53437 5.65358 6.30887 4.08727Z" fill="#006D41"/>
<path d="M16.7876 18.9198C16.3828 21.3538 20.8364 24.6043 25.1099 24.9993C28.9047 25.351 33.5354 23.5408 33.7741 21.2115C34.0281 18.744 29.3261 15.8926 25.1099 15.5842C21.6793 15.3344 17.163 16.6617 16.7876 18.9198Z" fill="#FAFBFB"/>
<path d="M10.9334 105.796C10.9334 106.316 11.3488 106.945 12.4432 107.615C13.509 108.269 15.0845 108.875 17.0756 109.391C21.0504 110.422 26.5686 111.065 32.683 111.065C38.7973 111.065 44.3156 110.422 48.2903 109.391C50.2814 108.875 51.8569 108.269 52.9227 107.615C54.0171 106.945 54.4325 106.316 54.4325 105.796C54.4325 105.277 54.0171 104.648 52.9227 103.977C51.8569 103.324 50.2814 102.718 48.2903 102.202C44.3156 101.171 38.7973 100.528 32.683 100.528C26.5686 100.528 21.0504 101.171 17.0756 102.202C15.0845 102.718 13.509 103.324 12.4432 103.977C11.3488 104.648 10.9334 105.277 10.9334 105.796Z" stroke="#C9CCCF"/>
</svg>
