<svg width="66" height="111" viewBox="0 0 66 111" fill="none" xmlns="http://www.w3.org/2000/svg">
<g clip-path="url(#clip0_150_60261)">
<path d="M45.8498 10.0624C48.419 12.2964 49.7716 15.8511 49.3439 19.2296C49.1358 20.8711 48.5896 22.7294 49.5982 24.0386C50.5981 25.3362 52.6818 25.4026 53.6355 26.7321C54.7598 28.2984 53.6471 30.4949 53.9823 32.3907C54.2973 34.1739 56.0921 35.5611 57.8983 35.4223C55.7135 37.035 53.0749 38.0291 50.3669 38.2604C49.7224 37.3442 49.078 36.4281 48.4335 35.509C49.1705 36.4743 48.8901 37.9424 48.0867 38.8528C47.2833 39.7632 46.0897 40.2227 44.9135 40.5319C39.3039 42.0145 33.021 40.6735 28.5039 37.035" fill="#16162F"/>
<path d="M14.1693 23.1022C14.6432 21.8595 15.3947 20.7237 15.7357 19.4376C16.4697 16.6748 15.2617 13.464 16.7414 11.019C17.7934 9.27632 19.8915 8.50179 21.8625 7.99893C23.8335 7.49606 25.9432 7.09146 27.4605 5.73604C28.5732 4.74187 29.2494 3.33154 30.3592 2.33449C31.94 0.912595 34.1942 0.516662 36.3184 0.490651C38.5033 0.464641 40.743 0.782544 42.6533 1.84029C44.5636 2.89804 46.1011 4.77944 46.3468 6.94985C46.4653 8.0076 46.2832 9.10292 46.5635 10.1289C46.8728 11.2589 47.7051 12.1663 48.1906 13.2299C49.2195 15.4783 48.4594 18.403 46.4624 19.8654L30.5702 38.4395C27.3709 39.4713 19.8337 37.665 17.5217 35.2287C15.2097 32.7895 12.9699 26.2407 14.1693 23.1022Z" fill="#16162F"/>
<path d="M46.1878 17.3915C45.7861 12.9784 42.7053 7.63479 38.3125 8.22435L24.6542 12.0825C23.3191 12.2617 22.3451 13.4322 22.4087 14.776L24.8016 47.9072C24.7699 47.9159 24.741 47.9217 24.7063 47.9304C24.7063 47.9304 28.0789 57.2073 37.0987 54.115C38.8876 53.5023 39.6592 51.5082 39.9656 49.4707L39.9887 44.2282C39.9454 41.5492 39.9136 40.451 39.9165 40.477C39.9165 40.477 45.5404 39.3817 46.5057 31.9803C46.9854 28.2984 46.6358 22.2959 46.1878 17.3915Z" fill="#FFE9C7"/>
<path d="M34.1303 24.1715C34.1621 24.6715 33.7661 25.1079 33.2459 25.1512C32.7257 25.1946 32.2806 24.8246 32.2489 24.3247C32.2171 23.8276 32.613 23.3883 33.1332 23.3449C33.6505 23.3016 34.0985 23.6715 34.1303 24.1715Z" fill="#16162F"/>
<path d="M43.9159 23.8478C43.9477 24.3478 43.5518 24.7842 43.0316 24.8275C42.5114 24.8709 42.0663 24.501 42.0345 24.0039C42.0027 23.5039 42.3986 23.0675 42.9188 23.0242C43.4362 22.9808 43.8841 23.3507 43.9159 23.8478Z" fill="#16162F"/>
<path d="M45.3608 20.6688C45.251 20.8364 44.4013 20.2382 43.2973 20.3451C42.1934 20.4318 41.4506 21.1688 41.3148 21.0214C41.2483 20.9578 41.3495 20.663 41.6703 20.3336C41.9853 20.0041 42.5488 19.6602 43.2367 19.5995C43.9245 19.5388 44.5343 19.7816 44.9013 20.0503C45.2712 20.322 45.4157 20.5937 45.3608 20.6688Z" fill="#16162F"/>
<path d="M35.1248 21.3451C34.989 21.4982 34.1567 20.8306 32.9747 20.822C31.7927 20.796 30.9228 21.4404 30.7956 21.2844C30.732 21.215 30.8707 20.9405 31.2522 20.6486C31.625 20.3567 32.2608 20.0792 32.9978 20.0879C33.7347 20.0995 34.3532 20.3942 34.7087 20.6948C35.0699 20.9983 35.1913 21.2757 35.1248 21.3451Z" fill="#16162F"/>
<path d="M38.8814 28.4632C38.8756 28.4054 39.5057 28.2782 40.5258 28.1193C40.7859 28.0846 41.0287 28.0268 41.0692 27.8476C41.1241 27.6569 41.0085 27.3823 40.8755 27.0817C40.6125 26.4604 40.3409 25.8073 40.0519 25.1252C38.9074 22.3392 38.0693 20.0445 38.182 20.0012C38.2947 19.955 39.3149 22.1774 40.4594 24.9634C40.7339 25.6512 40.9998 26.3043 41.2512 26.9315C41.3582 27.2234 41.5374 27.5528 41.4131 27.9459C41.3495 28.1424 41.1616 28.2869 40.9969 28.3389C40.8322 28.3938 40.6848 28.4025 40.5576 28.4112C39.5259 28.4979 38.8872 28.521 38.8814 28.4632Z" fill="#16162F"/>
<path d="M39.9192 40.477C39.9192 40.477 34.9686 40.9336 29.9746 38.1187C29.9746 38.1187 32.5987 43.2225 39.9567 42.3266L39.9192 40.477Z" fill="#FFD28F"/>
<path d="M38.5173 30.9255C38.1387 30.4515 37.4885 30.203 36.8556 30.2897C36.4163 30.3504 35.977 30.5758 35.7169 30.9428C35.4597 31.3099 35.4163 31.8214 35.6707 32.1566C35.9568 32.5352 36.5319 32.6075 37.0145 32.4572C37.4972 32.3069 37.9046 31.9746 38.2919 31.6451C38.3988 31.5526 38.5087 31.4601 38.5751 31.3359C38.6416 31.2145 38.6503 31.0555 38.5636 30.9573" fill="#F2416A"/>
<path d="M35.908 29.2493C36.0727 29.2348 36.1045 30.3388 37.0726 31.096C38.0379 31.8561 39.2112 31.7 39.2228 31.8532C39.2401 31.9226 38.9656 32.0757 38.4714 32.1017C37.9859 32.1306 37.2692 31.9948 36.6767 31.5324C36.0871 31.0671 35.8213 30.4342 35.7721 29.9805C35.7172 29.5209 35.8328 29.2435 35.908 29.2493Z" fill="#16162F"/>
<path d="M35.1968 18.6024C35.1043 18.8828 34.0842 18.7787 32.8964 18.955C31.7028 19.1082 30.752 19.4839 30.5843 19.2411C30.5092 19.1255 30.671 18.8596 31.0525 18.5822C31.4311 18.3048 32.038 18.0331 32.7519 17.9348C33.4657 17.8366 34.1246 17.9319 34.5639 18.0967C35.009 18.2585 35.2373 18.4695 35.1968 18.6024Z" fill="#16162F"/>
<path d="M44.5116 16.539C44.3122 16.7759 43.5059 16.5592 42.5435 16.5736C41.5812 16.5592 40.7691 16.7788 40.5754 16.5418C40.4887 16.4262 40.613 16.1922 40.9627 15.9638C41.3066 15.7355 41.8904 15.5419 42.5522 15.5419C43.214 15.5419 43.792 15.7355 44.1359 15.9638C44.4827 16.1893 44.6012 16.4234 44.5116 16.539Z" fill="#16162F"/>
<path d="M21.6314 12.9929C22.3596 11.9814 23.6052 11.5045 24.7873 11.1144C29.8881 9.4266 35.1913 8.34862 40.5465 7.91223C41.1563 9.03645 40.4714 10.493 39.431 11.2386C38.3935 11.9843 37.093 12.2357 35.8734 12.6259C34.6538 13.016 33.3937 13.6431 32.8446 14.7992C32.258 16.0274 32.6279 17.5331 32.1048 18.7903C31.206 20.952 28.0992 21.5098 27.212 23.6744C26.5415 25.313 27.4201 27.1338 27.5761 28.8967C27.7524 30.8937 26.9143 32.9572 25.3942 34.2663C24.1948 35.2981 22.5966 35.8327 21.0187 35.7865C20.9638 29.4573 20.9089 23.1282 20.8539 16.799C20.8424 15.4812 20.8597 14.0622 21.6314 12.9929Z" fill="#16162F"/>
<path d="M8.13498 28.3158C9.17539 27.4719 10.4643 26.761 10.9239 25.5009C11.5943 23.6686 10.2042 21.4058 11.2504 19.7584C12.2041 18.2556 14.7878 18.4608 15.6808 16.9204C16.3773 15.7182 15.7011 14.5911 15.9958 13.5189C16.2906 12.4467 17.8744 11.571 18.9726 11.756L26.9808 24.6686C27.5762 28.8996 28.2727 31.1682 27.2525 33.5756C26.6918 34.8964 25.9866 36.1766 25.7237 37.5841C25.4607 38.9944 25.7439 40.6186 26.8652 41.5145C21.6921 41.6648 16.9958 38.7314 12.6608 35.905C11.1319 34.9079 9.60311 33.9109 8.0714 32.9138C7.59455 32.6017 7.09746 32.2693 6.8258 31.7694C6.18711 30.5931 7.09457 29.1597 8.13498 28.3158Z" fill="#16162F"/>
<path d="M12.5889 34.6391C12.5889 34.6391 12.768 34.7172 13.1351 34.7721C13.4992 34.827 14.0512 34.8703 14.7448 34.7374C15.4326 34.6045 16.2736 34.2981 17.0424 33.6421C17.8111 32.9947 18.4585 31.9601 18.6637 30.7029C18.7648 30.0758 18.7562 29.3966 18.5914 28.7175C18.4267 28.0354 18.0828 27.3939 17.7273 26.7552C17.3776 26.1165 16.9933 25.4575 16.8372 24.7206C16.684 23.9952 16.7245 23.1426 17.2216 22.5502C17.7215 21.9462 18.6001 21.8335 19.4238 21.5473C19.837 21.4057 20.2705 21.1716 20.5624 20.7873C20.8543 20.4029 20.9699 19.9174 20.9844 19.4521C21.0191 18.507 20.6607 17.6256 20.5306 16.7383C20.4642 16.2933 20.4555 15.8367 20.5856 15.4205C20.7156 15.0043 20.9988 14.6489 21.3803 14.4119C22.1491 13.9177 23.1028 13.8801 24.0218 13.8425C24.9437 13.8223 25.9148 13.6605 26.7153 13.1923C27.5245 12.7472 28.1863 12.0825 28.6285 11.3109C29.0678 10.5306 29.2527 9.67802 29.4204 8.87459C29.5851 8.06828 29.7354 7.28219 30.0388 6.58281C30.3423 5.88631 30.8076 5.29097 31.3393 4.81411C32.426 3.87486 33.7669 3.41534 34.9836 3.37488C36.209 3.33153 37.3014 3.71013 38.1424 4.19565C38.9892 4.68406 39.6135 5.27652 40.0527 5.80539C40.9313 6.88048 41.1538 7.64634 41.1943 7.62322C41.2001 7.62033 41.1856 7.57408 41.1509 7.48738C41.1163 7.40068 41.0729 7.26485 40.992 7.10012C40.8417 6.76488 40.5787 6.28514 40.1452 5.73025C39.7117 5.18115 39.0904 4.56268 38.2291 4.05115C37.3766 3.53961 36.2553 3.13212 34.9779 3.16391C33.712 3.19281 32.3219 3.65522 31.1746 4.62915C30.6139 5.12335 30.1197 5.7447 29.7961 6.47877C29.4724 7.21283 29.3163 8.01626 29.1487 8.81968C28.9811 9.62022 28.7932 10.441 28.3799 11.1722C27.9609 11.8947 27.3338 12.5189 26.5737 12.938C25.8136 13.3801 24.9293 13.5246 24.0073 13.5478C23.0999 13.5853 22.0797 13.6113 21.2185 14.1633C20.7907 14.4263 20.4468 14.8512 20.2994 15.3338C20.1463 15.8164 20.1636 16.3193 20.233 16.7846C20.3775 17.7238 20.7243 18.5764 20.6896 19.4463C20.678 19.874 20.574 20.2902 20.3312 20.6139C20.0885 20.9375 19.7214 21.1427 19.3284 21.2786C18.9354 21.4231 18.5163 21.5127 18.1088 21.6629C17.7042 21.8074 17.2938 22.0271 17.0135 22.3739C16.4384 23.0762 16.4181 24.0096 16.5829 24.7784C16.7563 25.5731 17.1609 26.2436 17.5135 26.8794C17.8718 27.5152 18.2071 28.1337 18.3689 28.7753C18.5308 29.4198 18.5452 30.0671 18.4556 30.6711C18.2706 31.8821 17.6637 32.8849 16.9326 33.5178C16.2014 34.1623 15.3893 34.4802 14.7217 34.6247C13.3605 34.8963 12.5889 34.5842 12.5889 34.6391Z" fill="#57B386"/>
<path d="M6.14966 25.42C6.14966 25.42 6.03984 25.5414 5.95892 25.8333C5.87799 26.1194 5.86065 26.5991 6.11787 27.1222C6.25081 27.3765 6.44733 27.6453 6.74211 27.8476C7.034 28.047 7.41549 28.1799 7.82876 28.1944C8.64953 28.2435 9.6408 27.7956 10.1552 26.8708C10.4153 26.4199 10.5714 25.8824 10.6003 25.3188C10.6263 24.7495 10.5078 24.1657 10.32 23.5993C9.96448 22.4635 9.27666 21.3422 9.3229 20.0359C9.34024 19.403 9.52231 18.7238 10.0078 18.2932C10.4905 17.851 11.2043 17.7701 11.9095 17.799C12.6175 17.8106 13.3834 17.9377 14.1521 17.6776C14.5307 17.5447 14.8775 17.2875 15.1058 16.9493C15.3399 16.6141 15.47 16.2239 15.5393 15.8309C15.6752 15.0304 15.522 14.2616 15.4642 13.5304C15.3862 12.7964 15.4671 12.0825 15.6867 11.412C16.1318 10.074 17.0942 8.98154 18.2386 8.3833C19.3888 7.76484 20.6836 7.75617 21.8511 7.74172C23.0274 7.73594 24.1632 7.7186 25.1371 7.38624C26.111 7.07412 26.9087 6.57415 27.5185 6.04527C28.1341 5.52218 28.5618 4.96152 28.8623 4.48177C29.4577 3.51073 29.5559 2.87781 29.5559 2.87781C29.5213 2.86336 29.3796 3.48471 28.7641 4.42108C28.4548 4.8806 28.0213 5.41814 27.4087 5.91811C26.8046 6.42098 26.0214 6.89494 25.0735 7.18394C24.1285 7.49028 23.0274 7.49895 21.8483 7.49317C20.6807 7.49606 19.3368 7.48739 18.1086 8.13765C16.8976 8.76478 15.8804 9.90923 15.4035 11.3196C15.1665 12.0218 15.0827 12.7993 15.1607 13.5536C15.2214 14.305 15.3602 15.0535 15.2359 15.7789C15.1261 16.5014 14.7186 17.1747 14.0423 17.3944C13.3776 17.6256 12.6349 17.5187 11.9095 17.5042C11.1927 17.4782 10.3778 17.5533 9.80842 18.0793C9.23909 18.5937 9.05413 19.3538 9.03968 20.0272C9.01945 20.715 9.19285 21.3797 9.41827 21.9693C9.6408 22.5646 9.89223 23.1224 10.0772 23.6744C10.265 24.2235 10.3806 24.7784 10.3604 25.3073C10.3402 25.8361 10.2015 26.3419 9.96449 26.7638C9.4963 27.628 8.59461 28.0528 7.82587 28.0239C7.4415 28.0181 7.08891 27.9025 6.81436 27.7262C6.53981 27.547 6.34618 27.3014 6.21324 27.0644C5.95603 26.5789 5.95024 26.1223 6.01094 25.8419C6.07741 25.5616 6.167 25.4286 6.14966 25.42Z" fill="#16162F"/>
<path d="M60.3146 31.1596C60.2654 31.1538 60.5689 31.6682 60.2308 32.5063C60.0631 32.8994 59.7019 33.3733 59.1066 33.541C58.5257 33.7086 57.7396 33.5178 57.2396 32.9312C56.9911 32.6422 56.8552 32.252 56.8494 31.8301C56.8408 31.4081 56.9477 30.9688 57.1095 30.5353C57.4274 29.677 58.0315 28.7551 57.9997 27.6135C57.991 26.5066 57.4881 25.3506 56.5778 24.5588C56.1269 24.1599 55.5952 23.8449 55.0143 23.634C54.4334 23.4143 53.8034 23.3421 53.1907 23.2814C52.578 23.2207 51.974 23.1744 51.4191 23.0068C50.8671 22.845 50.3729 22.5357 50.0752 22.0762C49.7747 21.6196 49.6591 21.0647 49.6475 20.5272C49.6359 19.9839 49.7255 19.455 49.8585 18.9435C50.1186 17.9233 50.4769 16.9378 50.4683 15.9523C50.4654 14.9726 50.1359 14.0824 49.6706 13.4033C49.2053 12.7097 48.5811 12.2704 48.0609 11.9034C47.5349 11.5363 47.0841 11.2184 46.7633 10.9092C46.1043 10.2936 46.009 9.76185 45.9714 9.78208C45.9656 9.78497 45.9714 9.81387 45.9887 9.87457C46.009 9.93237 46.0263 10.0248 46.0783 10.1318C46.1679 10.3543 46.3558 10.6664 46.6795 10.993C46.9974 11.3254 47.4453 11.6606 47.9597 12.0392C48.4713 12.4207 49.0608 12.8571 49.4915 13.5218C49.925 14.1778 50.2255 15.0275 50.2168 15.9523C50.2168 16.8829 49.8643 17.8395 49.5868 18.877C49.4481 19.3972 49.3469 19.9579 49.3556 20.533C49.3643 21.1052 49.4828 21.7179 49.8238 22.2381C50.1648 22.7641 50.7313 23.1195 51.3266 23.2929C51.9248 23.4721 52.5462 23.5155 53.156 23.579C53.7658 23.6397 54.3611 23.7091 54.9074 23.9143C55.4536 24.1137 55.9564 24.4085 56.3784 24.7784C57.2309 25.5154 57.702 26.5876 57.7193 27.6164C57.7598 28.6597 57.1991 29.5469 56.8726 30.4486C56.7078 30.9024 56.598 31.3734 56.6125 31.8358C56.624 32.2954 56.7859 32.7491 57.072 33.067C57.6413 33.7144 58.5054 33.8993 59.147 33.6999C59.8059 33.4947 60.1701 32.9716 60.3319 32.5497C60.4995 32.1133 60.4793 31.7376 60.4331 31.5035C60.3868 31.2665 60.3146 31.1596 60.3146 31.1596Z" fill="#16162F"/>
<path d="M19.9582 10.1606C19.464 11.7964 18.0161 12.9351 17.0682 14.357C15.7301 16.3626 15.4238 18.877 15.392 21.2872C15.4614 20.1515 15.0047 19.059 14.7822 17.9435C14.3921 15.984 14.7446 13.8859 15.7562 12.1605C16.7677 10.4352 18.4236 9.1029 20.3253 8.48444" fill="#16162F"/>
<path d="M23.1172 45.8727C24.0853 45.601 18.3226 47.8032 18.207 47.8408L23.3542 56.2218L43.3069 60.4673L50.8123 48.2714L35.6425 43.7456L23.1172 45.8727Z" fill="#FFE9C7"/>
<path d="M51.8844 74.2122L64.0427 68.9842C64.0427 68.9842 59.4215 52.9359 58.2077 51.2337C56.991 49.5314 44.4426 45.6386 44.4426 45.6386C44.4426 45.6386 40.1046 52.8723 32.6888 53.3607C25.273 53.8462 22.4611 53.0775 21.0016 46.6327C21.0016 46.6327 8.58317 49.4996 7.60923 50.5921C6.63529 51.6874 0.0922852 69.7125 0.0922852 69.7125C0.0922852 69.7125 12.9818 73.3597 13.4673 73.6024C13.9528 73.8452 14.8054 92.9338 14.8054 92.9338C14.8054 92.9338 9.04846 107.809 8.81726 110.485L56.0315 110.364L51.1561 82.2349L51.8844 74.2122Z" fill="#57B386"/>
<path d="M9.84012 59.7361C9.85168 59.7332 9.92104 59.9384 10.0338 60.3083C10.1522 60.71 10.3083 61.2418 10.499 61.8863C10.8834 63.2215 11.4036 65.0682 11.9672 67.1085C12.2446 68.1287 12.5105 69.1026 12.7533 69.9899C12.8689 70.4321 12.9931 70.854 13.0914 71.2528C13.1897 71.6516 13.2677 72.0245 13.3342 72.3655C13.4671 73.0475 13.5567 73.6024 13.6203 73.9868C13.681 74.3712 13.7128 74.5821 13.7012 74.585C13.6954 74.585 13.6781 74.5359 13.655 74.4347C13.626 74.3162 13.5943 74.1717 13.5538 73.9983C13.4671 73.5908 13.3515 73.0475 13.2128 72.3886C13.1376 72.0505 13.0538 71.6805 12.9527 71.2875C12.8429 70.8945 12.7244 70.4754 12.6001 70.0361C12.3544 69.1489 12.0828 68.1778 11.7996 67.1577C11.236 65.1144 10.736 63.2619 10.3806 61.9181C10.2129 61.2678 10.0742 60.7302 9.97017 60.3256C9.8748 59.9499 9.82856 59.739 9.84012 59.7361Z" fill="#16162F"/>
<path d="M38.6971 84.7955C38.7 84.8013 38.6537 84.8475 38.5584 84.9313C38.4485 85.0267 38.3098 85.1452 38.1393 85.2926C37.7752 85.6047 37.2318 86.0382 36.5469 86.5613C35.1828 87.6075 33.2321 88.9687 30.9663 90.2952C28.6976 91.6188 26.5532 92.6477 24.9753 93.3239C24.1863 93.6621 23.5389 93.9222 23.0881 94.0869C22.8771 94.1649 22.7066 94.2256 22.5679 94.2747C22.4494 94.3152 22.3858 94.3354 22.3829 94.3297C22.38 94.3239 22.4407 94.295 22.5563 94.243C22.6893 94.1852 22.8569 94.1129 23.065 94.0233C23.5071 93.8383 24.1458 93.5609 24.9261 93.2083C26.4896 92.506 28.6196 91.4599 30.8796 90.142C33.1367 88.8213 35.0932 87.4774 36.4718 86.4601C37.1625 85.9515 37.7174 85.5324 38.0931 85.2376C38.2722 85.1018 38.4168 84.992 38.5324 84.9024C38.6393 84.8302 38.6942 84.7926 38.6971 84.7955Z" fill="#16162F"/>
<g opacity="0.2">
<path d="M48.2487 78.4172C45.9511 75.6861 42.7432 73.8683 39.4399 72.5129C36.0904 71.1343 32.4143 70.1604 28.8596 70.8569C25.5823 71.4985 22.7501 73.4897 20.0479 75.4549C19.1635 76.0994 18.2647 76.7583 17.6087 77.634C16.8978 78.579 16.5105 79.7235 16.155 80.8535C15.2331 83.7782 15.3169 87.1797 14.6782 90.1796L14.7042 90.7142C15.3227 90.9021 15.6001 90.616 16.1666 90.3067C19.5537 88.4687 20.9264 83.6626 24.669 82.7291C25.3482 82.5586 26.0533 82.5384 26.7498 82.4517C28.5532 82.2234 30.2901 81.5298 31.8016 80.5182C32.4143 80.1079 33.0356 79.6281 33.7726 79.5761C34.55 79.5212 35.2638 79.9547 35.9401 80.3362C37.9024 81.4431 40.0353 82.2523 42.2375 82.7204C42.5322 82.784 42.8386 82.8447 43.0785 83.0297C43.379 83.2609 43.512 83.6424 43.6391 84.0007C44.4657 86.3763 45.5148 88.7086 47.0898 90.668C48.6678 92.6274 50.8179 94.1996 53.2773 94.7256C52.7803 88.96 51.9711 82.8418 48.2487 78.4172Z" fill="#000007"/>
</g>
<g opacity="0.2">
<path d="M25.2617 95.9567C27.8714 96.8642 32.2151 95.6764 34.6283 94.3325C37.0414 92.9887 39.1367 90.0842 39.7378 87.3878C35.6716 90.0264 29.6921 93.9857 25.2617 95.9567Z" fill="#000007"/>
</g>
<g opacity="0.2">
<path d="M11.7939 66.7126C11.2332 64.9584 10.8142 63.0856 10.2506 61.3314H10.1871C9.78534 63.47 9.79401 65.6838 10.2044 67.8224C10.6148 69.961 11.8459 71.9262 13.4672 73.3799C13.1262 71.3366 12.502 68.9177 11.7939 66.7126Z" fill="#000007"/>
</g>
<path d="M9.61199 54.9878C9.56864 55.0051 9.15537 54.1295 8.80856 52.985C8.45887 51.8406 8.31726 50.8811 8.36061 50.8724C8.40974 50.8637 8.62938 51.8001 8.97619 52.933C9.3201 54.0659 9.65823 54.9676 9.61199 54.9878Z" fill="#16162F"/>
<path d="M55.1528 54.8462C55.2019 54.8548 54.6037 59.0049 53.8176 64.1203C53.0315 69.2356 52.3581 73.3741 52.309 73.3683C52.2598 73.3597 52.8581 69.2096 53.6442 64.0942C54.4302 58.9789 55.1065 54.8375 55.1528 54.8462Z" fill="#16162F"/>
<path d="M43.0499 47.0749C37.3565 43.7514 26.7993 45.4305 26.7993 45.4305C24.5046 42.5809 21.4412 42.7341 20.0626 42.9855C19.6407 43.0636 19.3401 43.4393 19.3459 43.867L19.4182 48.1991C15.0918 49.9794 14.0745 55.5456 14.0745 55.5456L12.1266 56.0918C11.4215 56.2883 10.9388 56.9386 10.9504 57.6697L11.0198 61.8632C11.0313 62.6117 11.5602 63.2533 12.2914 63.4122L14.2103 63.8255C16.4906 67.3744 18.7246 69.2905 21.7331 70.2962L21.8053 74.0302L27.9524 73.929L29.3743 71.3395L36.3074 71.1575L37.4432 73.9752L43.8273 73.666L43.8938 69.2732C48.275 65.7011 49.4628 63.4122 49.564 58.6263C49.668 53.8462 48.5611 50.2886 43.0499 47.0749Z" fill="#F2416A"/>
<path d="M17.6842 54.3722C17.1033 54.6294 16.9674 55.5369 17.4472 55.9531C17.9269 56.3692 18.8055 56.1062 18.9789 55.4964C19.1523 54.8866 18.5425 54.2017 17.9154 54.3029" fill="#16162F"/>
<path d="M21.1234 48.465C21.1003 48.465 21.0858 48.1731 21.0338 47.702C20.9818 47.2339 20.8806 46.5894 20.6928 45.8958C20.5021 45.2022 20.2622 44.5953 20.0686 44.1647C19.8749 43.734 19.7391 43.4739 19.7593 43.4624C19.7738 43.4537 19.9443 43.6936 20.1639 44.1184C20.3836 44.5404 20.6437 45.1502 20.8373 45.8553C21.028 46.5605 21.1147 47.2165 21.1407 47.6934C21.1639 48.1702 21.1407 48.465 21.1234 48.465Z" fill="#16162F"/>
<g opacity="0.3">
<path d="M28.6982 47.598L29.1 48.3321C31.6229 47.8465 34.2471 47.8176 36.9695 48.202L36.2065 47.3668C33.6488 46.9391 31.2155 47.0229 28.6982 47.598Z" fill="#000007"/>
</g>
<path d="M12.6875 59.7159C12.6933 60.1523 12.5343 60.5078 12.332 60.5106C12.1297 60.5135 11.9563 60.1638 11.9505 59.7275C11.9419 59.2911 12.1037 58.9356 12.306 58.9327C12.5083 58.9298 12.6817 59.2795 12.6875 59.7159Z" fill="#16162F"/>
<path d="M11.8635 62.7966C11.8693 62.7822 11.9849 62.8458 12.2132 62.8544C12.4299 62.8544 12.7941 62.8255 13.0657 62.525C13.2045 62.3805 13.3403 62.2013 13.4501 61.9932C13.5628 61.788 13.6148 61.5366 13.6871 61.2707C13.82 60.7447 13.9067 60.1523 13.8981 59.528C13.8807 58.9038 13.8316 58.2998 13.6726 57.7911C13.5137 57.2796 13.2131 56.8779 12.8692 56.6698C12.5282 56.453 12.1872 56.4068 11.9646 56.4212C11.7392 56.4357 11.6207 56.4935 11.6149 56.479C11.6121 56.4733 11.641 56.4588 11.6959 56.4328C11.7537 56.4097 11.8404 56.3808 11.9589 56.3634C12.1901 56.3288 12.5542 56.3606 12.9241 56.5802C13.2998 56.7883 13.6322 57.2189 13.8056 57.7507C13.9819 58.2853 14.031 58.8951 14.0512 59.5309C14.0599 60.1696 13.9645 60.7765 13.8229 61.3083C13.7478 61.5713 13.69 61.8314 13.5628 62.0539C13.4414 62.2735 13.2969 62.4556 13.1438 62.603C12.9964 62.7562 12.8056 62.8515 12.6438 62.8862C12.4791 62.9267 12.3317 62.9267 12.2132 62.9151C12.0947 62.9007 12.0051 62.8747 11.9502 62.8487C11.8866 62.8198 11.8606 62.7995 11.8635 62.7966Z" fill="#16162F"/>
<path d="M42.1394 69.909C42.1394 69.9148 42.0729 69.9321 41.9457 69.9639C41.8012 69.9957 41.6163 70.039 41.3851 70.0939C40.8967 70.2067 40.1857 70.3483 39.3014 70.4957C38.417 70.6488 37.3622 70.7933 36.183 70.9176C35.0039 71.0332 33.7034 71.1257 32.3364 71.1632C30.9694 71.195 29.666 71.1661 28.4811 71.1083C27.2991 71.0419 26.2356 70.9494 25.3455 70.8396C24.4553 70.7326 23.7386 70.6286 23.2444 70.539C23.0103 70.4957 22.8225 70.4639 22.678 70.4379C22.5479 70.4118 22.4814 70.3974 22.4814 70.3916C22.4814 70.3858 22.5508 70.3916 22.6837 70.4061C22.8282 70.4263 23.019 70.4494 23.256 70.4812C23.7502 70.5535 24.4698 70.6402 25.3599 70.7326C26.25 70.828 27.3107 70.9089 28.4927 70.9667C29.6747 71.0159 30.9723 71.039 32.3364 71.0101C33.7005 70.9725 34.9952 70.8858 36.1744 70.7789C37.3506 70.6633 38.4055 70.5274 39.2898 70.3887C40.1742 70.2529 40.888 70.1286 41.3793 70.0332C41.6134 69.9899 41.8012 69.9581 41.9457 69.9292C42.07 69.9119 42.1394 69.9032 42.1394 69.909Z" fill="#16162F"/>
<path d="M26.7299 45.3987C26.7385 45.4016 26.7299 45.5114 26.6894 45.7079C26.6489 45.9045 26.5709 46.1848 26.438 46.5171C26.1779 47.1818 25.6432 48.0604 24.7849 48.7569C23.9265 49.4534 22.9555 49.7944 22.2532 49.91C21.9006 49.9707 21.6087 49.9909 21.4093 49.9881C21.2099 49.9881 21.1001 49.9736 21.1001 49.9649C21.1001 49.936 21.5423 49.9534 22.233 49.806C22.9208 49.6644 23.8572 49.3176 24.6924 48.6384C25.5276 47.9622 26.0623 47.1183 26.3426 46.4738C26.6258 45.8293 26.701 45.3929 26.7299 45.3987Z" fill="#16162F"/>
<path d="M19.112 48.7309C19.1265 48.754 18.771 48.9939 18.2479 49.4447C17.7219 49.8927 17.0427 50.5719 16.4214 51.4215C15.8 52.2741 15.3636 53.1266 15.0949 53.7653C14.8261 54.4011 14.7018 54.8144 14.6787 54.8086C14.67 54.8057 14.6903 54.7017 14.7394 54.511C14.7856 54.3202 14.8723 54.0514 14.9966 53.7249C15.2423 53.0717 15.67 52.1989 16.3 51.3348C16.93 50.4736 17.6323 49.7973 18.1814 49.3667C18.456 49.15 18.6843 48.9852 18.8519 48.8841C19.0109 48.7743 19.1062 48.7222 19.112 48.7309Z" fill="white"/>
<path d="M12.2105 56.2045C12.2047 56.1612 12.5544 56.0831 12.9822 55.9762C13.4099 55.8722 13.7567 55.7768 13.7711 55.8172C13.7856 55.8548 13.4561 56.0138 13.0197 56.1207C12.5804 56.2305 12.2134 56.245 12.2105 56.2045Z" fill="white"/>
<path d="M11.2854 61.5106C11.2652 61.5135 11.2103 61.2649 11.1554 60.8545C11.1005 60.4442 11.0571 59.8748 11.0571 59.2448C11.0571 58.6148 11.1034 58.0425 11.1583 57.6322C11.2132 57.2218 11.2681 56.9732 11.2883 56.9761C11.3346 56.9819 11.2045 57.9934 11.2074 59.2448C11.2045 60.4933 11.3317 61.5019 11.2854 61.5106Z" fill="white"/>
<path d="M19.6117 43.6271C19.6579 43.6329 19.5568 44.6213 19.577 45.8409C19.5943 47.0605 19.7273 48.046 19.6839 48.0518C19.6637 48.0546 19.6059 47.8119 19.5481 47.4131C19.4903 47.0142 19.4383 46.4594 19.4267 45.8438C19.4181 45.2282 19.4498 44.6704 19.4961 44.2716C19.5423 43.8699 19.5915 43.6271 19.6117 43.6271Z" fill="white"/>
<path d="M24.9556 44.1791C24.9354 44.2253 23.9557 43.6184 22.5858 43.367C21.2188 43.0982 20.0859 43.3034 20.083 43.2543C20.0801 43.237 20.3576 43.1647 20.8171 43.1242C21.2766 43.0838 21.9211 43.0896 22.6147 43.2196C23.3083 43.3526 23.9094 43.5809 24.3227 43.789C24.736 43.9941 24.9643 44.1647 24.9556 44.1791Z" fill="white"/>
<path d="M36.9866 48.6182C36.9808 48.6413 36.5444 48.5633 35.8335 48.4737C35.1226 48.3841 34.1371 48.3003 33.0446 48.3032C31.9522 48.309 30.9667 48.4043 30.2558 48.4997C29.5448 48.5951 29.1084 48.6789 29.1055 48.6558C29.1026 48.6442 29.2096 48.6153 29.4061 48.5662C29.5997 48.5171 29.8858 48.4564 30.2413 48.3957C30.9494 48.2714 31.9435 48.1587 33.0446 48.1529C34.1457 48.1471 35.1399 48.2512 35.8479 48.3668C36.2034 48.4246 36.4895 48.4824 36.6861 48.5286C36.8826 48.5777 36.9895 48.6095 36.9866 48.6182Z" fill="white"/>
<path d="M38.784 46.0316C38.7811 46.0403 38.625 46.0143 38.3447 45.9565C38.0673 45.8958 37.6598 45.8178 37.1598 45.7311C36.157 45.5548 34.7582 45.3756 33.2063 45.3293C31.6514 45.2889 30.2469 45.39 29.2354 45.5085C28.7296 45.5692 28.3192 45.6241 28.0389 45.6675C27.7557 45.7108 27.5996 45.7282 27.5967 45.7195C27.5938 45.7079 27.747 45.6704 28.0273 45.6097C28.3077 45.5461 28.7152 45.4738 29.2209 45.4016C30.2324 45.2542 31.6485 45.1328 33.2091 45.1762C34.7726 45.2224 36.1772 45.4189 37.18 45.6241C37.6829 45.7253 38.0846 45.8206 38.3592 45.8987C38.6366 45.9738 38.7869 46.0201 38.784 46.0316Z" fill="white"/>
<path d="M22.395 68.99C22.3921 69.0015 22.291 68.9871 22.1089 68.9553C21.9268 68.9264 21.6667 68.8628 21.3488 68.7703C20.713 68.5854 19.8576 68.2357 19.0021 67.6952C18.1467 67.149 17.4704 66.5219 17.034 66.0248C16.8144 65.7763 16.6468 65.5682 16.5427 65.415C16.4358 65.2647 16.3809 65.178 16.3896 65.1722C16.4098 65.1578 16.6583 65.4815 17.1121 65.9526C17.5658 66.4236 18.2421 67.0305 19.0831 67.5681C19.9269 68.1027 20.7622 68.4611 21.3806 68.6692C22.002 68.8801 22.4008 68.964 22.395 68.99Z" fill="white"/>
<path d="M47.4079 64.2359C47.4165 64.2416 47.3298 64.3861 47.1622 64.6434C47.0813 64.7734 46.9773 64.9295 46.8385 65.1C46.7027 65.2705 46.5582 65.4757 46.3703 65.6751C46.1883 65.8803 45.986 66.1057 45.749 66.3254C45.5236 66.5566 45.2519 66.7733 44.9745 67.0103C44.4022 67.4582 43.7347 67.9062 42.9861 68.2906C42.2318 68.6663 41.4775 68.9408 40.7782 69.1373C40.4256 69.224 40.0903 69.3107 39.7695 69.357C39.4516 69.4206 39.1511 69.4495 38.8765 69.4755C38.602 69.5102 38.3534 69.5044 38.1367 69.513C37.917 69.5246 37.7292 69.5159 37.576 69.5044C37.2697 69.487 37.1021 69.4726 37.1021 69.461C37.1021 69.4495 37.2726 69.4466 37.5789 69.4466C37.7321 69.4495 37.917 69.4495 38.1338 69.4292C38.3505 69.4148 38.5962 69.4119 38.8679 69.3685C39.1395 69.3368 39.4343 69.3021 39.7493 69.2356C40.0672 69.1865 40.3967 69.094 40.7435 69.0044C41.4342 68.8021 42.1769 68.5275 42.9226 68.1576C43.6624 67.779 44.3242 67.3398 44.8935 66.9034C45.171 66.675 45.4398 66.4641 45.6681 66.2387C45.9079 66.0248 46.1102 65.808 46.2981 65.6086C46.4917 65.415 46.6391 65.2185 46.7807 65.0537C46.9223 64.889 47.0351 64.7387 47.1218 64.6145C47.2952 64.3659 47.3992 64.2301 47.4079 64.2359Z" fill="white"/>
<path d="M2.72228 70.4581C2.71361 70.4552 0.378468 84.0238 0.0750162 86.3301C-0.228436 88.6363 0.395809 93.8904 2.27721 95.4683C4.15862 97.0463 5.74235 97.4451 7.07754 97.2023C8.41273 96.9596 12.6004 92.5899 14.1812 90.8269C15.7592 89.0669 23.6836 74.8104 23.6836 74.8104L16.3661 71.5563L12.0888 76.7439L13.0541 73.4579L2.72228 70.4581Z" fill="#FFE9C7"/>
<path d="M12.222 76.582C12.2306 76.5907 12.1295 76.7381 11.9358 76.9982C11.722 77.2843 11.4445 77.6542 11.1151 78.0993C10.7625 78.5617 10.3405 79.1079 9.84925 79.6975C9.35794 80.287 8.80017 80.9257 8.14413 81.5297C7.4881 82.1424 6.74536 82.573 6.09222 82.969C5.43329 83.362 4.84373 83.7146 4.37843 84.0556C3.43629 84.7261 3.02879 85.333 2.99989 85.307C2.99411 85.3041 3.01723 85.2636 3.06636 85.1943C3.11549 85.1249 3.18774 85.018 3.29468 84.8966C3.50276 84.6452 3.838 84.3099 4.30329 83.9545C4.7657 83.5961 5.35237 83.2291 6.00841 82.8274C6.65866 82.4228 7.38406 81.995 8.02564 81.3968C8.67012 80.8015 9.22789 80.1714 9.72497 79.5876C10.2192 79.0039 10.6527 78.4663 11.0168 78.0155C11.3665 77.5849 11.6584 77.2265 11.8838 76.9491C12.089 76.7092 12.2104 76.5762 12.222 76.582Z" fill="#FFD28F"/>
<path d="M18.0105 69.672C18.0105 69.672 20.2936 67.753 21.0133 68.3108C21.7329 68.8686 21.7762 69.383 21.4757 69.7703C21.1751 70.1575 19.4498 72.3482 19.4498 72.3482L20.7242 73.5533L22.9929 72.8135L23.9669 72.5823C23.9669 72.5823 26.302 72.6372 25.8049 74.2064C25.8049 74.2064 28.2181 73.4377 28.6545 73.4001C29.3221 73.3452 31.0012 73.1776 30.7613 74.0475C30.5185 74.9289 29.5879 75.2266 29.5879 75.2266C29.5879 75.2266 30.663 75.5705 30.0186 76.5156C29.3741 77.4606 28.4868 77.6658 28.4868 77.6658L24.6836 79.1888C24.2183 79.3738 23.701 79.3854 23.2299 79.2177L22.0305 78.79L19.6694 79.8218C19.6694 79.8218 14.9037 78.449 14.2159 74.2816L14.8373 72.9897L15.2419 72.2268C15.2419 72.2268 14.6783 68.672 14.6725 68.1923C14.6668 67.8571 13.9905 66.3196 13.5801 65.4208C13.4009 65.0248 13.7304 64.5884 14.161 64.6549C14.5887 64.7214 15.1667 64.9497 15.869 65.5422C17.5077 66.9294 17.71 68.3513 17.71 68.3513L18.0568 69.75" fill="#FFE9C7"/>
<path d="M16.3979 71.2731C16.3892 71.2615 16.5568 71.143 16.8285 70.8945C17.1059 70.6517 17.4672 70.2587 17.9354 69.7905C18.1694 69.5535 18.4498 69.3165 18.7503 69.0709C19.0538 68.8252 19.3861 68.5622 19.7965 68.3744C20.0017 68.2819 20.2271 68.2097 20.4699 68.1981C20.5913 68.1923 20.7156 68.201 20.834 68.2299C20.8918 68.2443 20.9583 68.2559 21.019 68.2877C21.0768 68.3166 21.1288 68.3513 21.1808 68.386C21.282 68.4611 21.3803 68.542 21.4583 68.6605C21.4987 68.7212 21.5161 68.8079 21.5276 68.8541L21.5797 69.0275C21.6086 69.146 21.6606 69.2819 21.6143 69.4379C21.5797 69.5622 21.5363 69.6836 21.4843 69.8021C21.282 70.2818 20.9757 70.6835 20.6809 71.0563C20.3832 71.432 20.0682 71.7731 19.7532 72.0794C19.1145 72.6805 18.496 73.1978 17.8602 73.4493C17.2244 73.7094 16.632 73.6053 16.3025 73.4261C16.1349 73.3394 16.0222 73.2383 15.9586 73.166C15.8921 73.0938 15.8661 73.0476 15.8719 73.0447C15.8863 73.0302 16.0019 73.2152 16.3314 73.3683C16.6551 73.5215 17.2157 73.6024 17.8169 73.3394C18.4151 73.088 19.0249 72.5707 19.6462 71.9696C19.9555 71.6632 20.2618 71.3251 20.5537 70.9552C20.8427 70.5824 21.1404 70.1893 21.3311 69.7356C21.3803 69.6229 21.4207 69.5073 21.4525 69.3917C21.4843 69.305 21.4496 69.1894 21.4178 69.0738L21.3658 68.8946C21.3456 68.8195 21.3456 68.7848 21.3167 68.7443C21.2647 68.6605 21.1751 68.5796 21.0855 68.516C21.0392 68.4842 20.993 68.4524 20.9439 68.4293C20.9005 68.4033 20.8514 68.3975 20.7965 68.3831C20.6895 68.3571 20.5826 68.3484 20.4728 68.3542C20.256 68.3628 20.048 68.4264 19.8543 68.5131C19.4671 68.6894 19.1347 68.9379 18.8313 69.1778C18.5278 69.4206 18.2504 69.646 18.0134 69.8743C17.5365 70.3309 17.1579 70.7124 16.866 70.9436C16.7215 71.0621 16.6031 71.1459 16.5221 71.1979C16.4441 71.25 16.4008 71.276 16.3979 71.2731Z" fill="#FFD28F"/>
<path d="M18.0594 69.7529C18.0594 69.7992 17.6346 69.8368 17.1115 69.8368C16.5884 69.8368 16.1636 69.7992 16.1636 69.7529C16.1636 69.7067 16.5884 69.6691 17.1115 69.6691C17.6346 69.6691 18.0594 69.7067 18.0594 69.7529Z" fill="#FFD28F"/>
<path d="M19.2186 74.244C19.2157 74.2382 19.2735 74.2093 19.3891 74.1602C19.5192 74.1053 19.6839 74.0359 19.8862 73.9492C20.34 73.7643 20.9642 73.5128 21.7272 73.2036C22.1173 73.0504 22.5422 72.8713 23.019 72.7325C23.4959 72.5967 24.0392 72.5042 24.6056 72.5967C24.886 72.6429 25.1721 72.7354 25.4293 72.8915C25.6778 73.0447 25.9495 73.2759 25.9928 73.6284C26.0275 73.9724 25.8368 74.2903 25.5825 74.4954C25.3224 74.7035 25.0131 74.8162 24.7183 74.9318C23.5277 75.3971 22.3948 75.8393 21.3601 76.2439C20.8457 76.4462 20.3457 76.637 19.8573 76.741C19.3689 76.8421 18.8892 76.8624 18.4701 76.7526C18.0482 76.6514 17.7129 76.3826 17.5511 76.0792C17.3835 75.7786 17.3343 75.4838 17.3112 75.2497C17.2881 75.0128 17.2939 74.8307 17.2968 74.7064C17.3025 74.5822 17.3112 74.5186 17.3141 74.5186C17.3314 74.5186 17.317 74.7787 17.3748 75.2411C17.4095 75.4694 17.4644 75.7526 17.632 76.0329C17.7939 76.3133 18.1002 76.5503 18.499 76.6398C18.8949 76.7381 19.3574 76.7121 19.8284 76.6081C20.3024 76.5011 20.7908 76.3104 21.3052 76.1052C22.337 75.6977 23.4699 75.2497 24.6577 74.7816C24.9553 74.666 25.2501 74.5561 25.4784 74.3712C25.7038 74.192 25.8599 73.9146 25.831 73.6487C25.8021 73.3828 25.5796 73.1718 25.3455 73.0302C25.1085 72.8857 24.8426 72.7961 24.5796 72.7499C24.045 72.6574 23.5248 72.7383 23.0566 72.8655C22.5855 72.9955 22.1607 73.166 21.7705 73.3134C21.0018 73.6024 20.3718 73.8365 19.9122 74.0099C19.7042 74.0851 19.5365 74.1429 19.4036 74.192C19.2822 74.2325 19.2215 74.2498 19.2186 74.244Z" fill="#FFD28F"/>
<path d="M25.8598 74.2267C25.8569 74.2209 25.9147 74.1949 26.0217 74.1487C26.1488 74.0995 26.3049 74.0359 26.4956 73.9579C26.9118 73.8019 27.5129 73.562 28.299 73.3973C28.692 73.3192 29.1313 73.2614 29.6053 73.2759C29.8423 73.2874 30.0821 73.2961 30.3394 73.3568C30.4665 73.3915 30.6023 73.4551 30.6977 73.5707C30.7931 73.6863 30.8364 73.8337 30.8393 73.9782C30.8509 74.2729 30.6804 74.5504 30.4665 74.7353C30.2498 74.929 30.0041 75.0677 29.7585 75.218C29.2614 75.5099 28.7267 75.7729 28.1603 76.0041C27.0303 76.4665 25.9147 76.7786 24.9061 77.0705C24.4033 77.215 23.9235 77.3537 23.4727 77.4809C23.0247 77.608 22.6057 77.7381 22.2068 77.8045C21.8109 77.871 21.4323 77.8681 21.1202 77.7727C20.8081 77.6774 20.574 77.5127 20.4208 77.345C20.2647 77.1803 20.1925 77.0098 20.1607 76.8971C20.1289 76.7815 20.1347 76.7179 20.1347 76.7179C20.1578 76.7063 20.1549 76.9867 20.4642 77.2988C20.6173 77.452 20.8485 77.5993 21.1433 77.6832C21.4381 77.7641 21.7993 77.7612 22.1837 77.6889C22.5681 77.6167 22.9814 77.4809 23.4293 77.3479C23.8773 77.215 24.357 77.0705 24.8599 76.9231C25.8656 76.6225 26.9783 76.3075 28.0938 75.848C28.6516 75.6226 29.1805 75.3625 29.6718 75.0764C29.9116 74.929 30.1602 74.7902 30.3567 74.6168C30.5561 74.4463 30.6919 74.218 30.6833 73.9782C30.689 73.7354 30.5272 73.5446 30.2989 73.4926C30.0735 73.4377 29.8249 73.4233 29.5966 73.4088C29.1371 73.3886 28.7065 73.4406 28.3192 73.51C27.5447 73.6574 26.9378 73.877 26.5159 74.0157C26.3193 74.0822 26.1575 74.1342 26.0303 74.1776C25.9205 74.218 25.8627 74.2325 25.8598 74.2267Z" fill="#FFD28F"/>
<path d="M43.0469 76.3248C43.0469 76.3248 51.3904 97.3815 56.104 97.9335C61.124 98.5202 65.9936 94.0724 65.0804 86.3937C64.7307 83.4458 62.6759 69.5737 62.6759 69.5737L52.2285 74.0648L55.0058 79.8189L50.8904 73.3915L43.0469 76.3248Z" fill="#FFE9C7"/>
<path d="M61.9503 90.5379C61.933 90.5379 61.9446 90.2692 61.9186 89.7836C61.8897 89.301 61.8463 88.5958 61.5949 87.7693C61.3521 86.9485 60.8695 86.0035 60.0083 85.2579C59.5921 84.8822 59.0517 84.5816 58.5921 84.1481C58.1153 83.7348 57.6673 83.2609 57.2281 82.7638C55.4883 80.7437 54.2051 78.7033 53.2658 77.2409C52.8034 76.5069 52.4364 75.9058 52.185 75.4896C52.0694 75.2931 51.974 75.1341 51.8989 75.0099C51.8353 74.9 51.8035 74.8393 51.8093 74.8364C51.815 74.8336 51.8555 74.8856 51.9278 74.9925C52.0116 75.1139 52.1156 75.2671 52.2428 75.4549C52.5231 75.8826 52.9046 76.4635 53.3728 77.1745C54.3351 78.6166 55.6356 80.6425 57.361 82.6482C57.7974 83.1424 58.2396 83.6134 58.7077 84.0209C59.1557 84.4487 59.6817 84.7434 60.1181 85.1394C60.9995 85.9139 61.4851 86.8965 61.7163 87.7375C61.9532 88.5843 61.9792 89.2981 61.9879 89.7836C61.9908 90.0264 61.9821 90.2171 61.9735 90.3443C61.9648 90.4686 61.9561 90.5379 61.9503 90.5379Z" fill="#FFD28F"/>
<path d="M47.7692 65.3456C48.2142 66.0883 49.2286 68.3772 49.2286 68.3772C49.2286 68.3772 51.9424 72.2672 51.8123 74.8336C51.7863 75.3306 50.2199 76.3508 50.2199 76.3508C50.2199 76.3508 45.2664 80.0674 44.0786 80.313C42.8908 80.5616 41.1077 79.42 40.9083 79.3709C40.7089 79.3218 34.0213 75.059 33.9867 74.4579C33.9318 73.4579 34.7092 73.1631 34.7092 73.1631L42.2955 72.7325L45.9022 69.909L45.7433 67.8137" fill="#FFE9C7"/>
<path d="M47.3878 72.799C47.3936 72.8077 47.2491 72.9175 46.9803 73.1025C46.6855 73.3019 46.3011 73.562 45.8358 73.877C45.3445 74.2007 44.7839 74.585 44.1163 75.0099C43.9169 75.1168 43.6943 75.0908 43.5007 75.0995C43.2984 75.1023 43.0932 75.111 42.8851 75.1226C42.4661 75.1457 42.0355 75.1804 41.5904 75.2179C40.7032 75.296 39.8506 75.3509 39.0732 75.3307C38.6801 75.3191 38.3044 75.2555 37.9779 75.0937C37.6571 74.9347 37.423 74.6168 37.4201 74.296C37.4056 73.9839 37.5299 73.7151 37.6802 73.5302C37.8334 73.3452 38.0097 73.2296 38.1542 73.1545C38.3015 73.0764 38.4229 73.036 38.5067 73.01C38.5906 72.9868 38.6339 72.9782 38.6368 72.984C38.6426 72.9984 38.4663 73.0475 38.1859 73.2094C38.0501 73.2932 37.8883 73.4088 37.7524 73.588C37.6195 73.7643 37.5155 74.0128 37.5357 74.2874C37.5501 74.5648 37.7467 74.8278 38.0414 74.9694C38.3333 75.111 38.7004 75.1717 39.0761 75.1775C39.8448 75.189 40.6887 75.1284 41.5759 75.0532C42.021 75.0156 42.4545 74.981 42.8765 74.9607C43.0874 74.9492 43.2955 74.9434 43.4978 74.9405C43.7059 74.9347 43.8966 74.955 44.0469 74.874C44.6885 74.4665 45.2723 74.0966 45.7723 73.7816C46.2491 73.4839 46.645 73.2383 46.9456 73.0504C47.223 72.877 47.382 72.7874 47.3878 72.799Z" fill="#FFD28F"/>
<path d="M47.6418 76.4491C47.6418 76.4549 47.5898 76.4693 47.4915 76.4924C47.373 76.5156 47.2314 76.5473 47.058 76.582C46.6534 76.6572 46.113 76.7612 45.4541 76.8826C44.7691 77.0069 43.9628 77.1485 43.0727 77.3103C42.6247 77.3883 42.1536 77.4722 41.6652 77.556C41.4196 77.5964 41.1768 77.6484 40.9109 77.6745C40.6508 77.7034 40.3532 77.6629 40.1133 77.5184C39.8734 77.3797 39.6798 77.2121 39.4688 77.0704C39.2607 76.9231 39.0527 76.7872 38.8417 76.6572C38.4226 76.4 38.0036 76.1803 37.5845 76.0098C37.1684 75.8393 36.7464 75.7353 36.3678 75.5734C35.9834 75.4174 35.6684 75.1804 35.4112 74.9521C35.154 74.718 34.9344 74.5012 34.7436 74.296C34.5587 74.0908 34.4373 73.8567 34.4431 73.6515C34.4431 73.4492 34.524 73.3019 34.602 73.2296C34.6801 73.1574 34.7379 73.1487 34.7379 73.1487C34.7407 73.1574 34.6916 73.1776 34.628 73.2527C34.5644 73.325 34.5009 73.4666 34.5095 73.6515C34.5153 74.0417 34.9922 74.4145 35.4893 74.8654C35.7494 75.0879 36.0499 75.3046 36.4227 75.4491C36.7898 75.5994 37.2146 75.6977 37.6452 75.8682C38.0729 76.0358 38.5036 76.2583 38.9313 76.5184C39.1451 76.6485 39.3561 76.7872 39.5671 76.9346C39.7809 77.0791 39.9832 77.2496 40.2 77.3739C40.6335 77.6427 41.1595 77.4635 41.6421 77.397C42.1305 77.3161 42.6016 77.2352 43.0496 77.16C43.9426 77.0126 44.7489 76.8826 45.4367 76.767C46.0985 76.6658 46.6419 76.5791 47.0493 76.5184C47.2256 76.4953 47.3701 76.4751 47.4886 76.4578C47.5869 76.4462 47.6389 76.4433 47.6418 76.4491Z" fill="#FFD28F"/>
<path d="M45.5698 78.8131C45.5756 78.8333 45.3155 78.9172 44.8849 79.0183C44.4542 79.1166 43.856 79.2293 43.1884 79.3015C42.5179 79.3738 41.911 79.4056 41.466 79.394C41.0122 79.3825 40.7579 79.2177 40.7752 79.2004C40.7839 79.1801 41.0325 79.2958 41.4689 79.2784C41.9024 79.2582 42.5093 79.2119 43.1711 79.1368C43.8358 79.0645 44.4311 78.9721 44.8646 78.9027C45.2952 78.8333 45.564 78.79 45.5698 78.8131Z" fill="#FFD28F"/>
<path d="M50.6332 75.5387C50.639 75.5387 50.6332 75.5792 50.6187 75.6543C50.6014 75.7295 50.5667 75.8364 50.5031 75.9664C50.3731 76.2237 50.0985 76.5647 49.6564 76.8392C49.4367 76.9751 49.1766 77.0993 48.8934 77.1976C48.7547 77.2467 48.6304 77.3074 48.5928 77.4317C48.5524 77.556 48.5466 77.7438 48.4859 77.9085C48.3761 78.2438 48.1593 78.5617 47.8472 78.79C47.5322 79.0183 47.1478 79.131 46.7692 79.2148C46.3906 79.3015 46.0207 79.3738 45.7057 79.5298C45.3994 79.6975 45.093 79.8969 44.8098 80.0674C44.6653 80.1541 44.5324 80.2408 44.3763 80.3188C44.2231 80.3853 44.0613 80.4315 43.9052 80.4402C43.5931 80.4662 43.307 80.4142 43.0585 80.3477C42.5614 80.209 42.1886 80.024 41.9313 79.9055C41.6741 79.7813 41.5354 79.709 41.5412 79.6975C41.547 79.6859 41.6944 79.7379 41.9602 79.8449C42.2261 79.946 42.6047 80.1107 43.0902 80.2292C43.333 80.287 43.6047 80.3275 43.8908 80.2986C44.0324 80.287 44.174 80.2437 44.3098 80.183C44.437 80.1165 44.5786 80.0211 44.7231 79.9344C45.0121 79.7582 45.2953 79.5674 45.6306 79.3796C45.9716 79.2062 46.356 79.1339 46.7317 79.0472C47.1074 78.9634 47.4657 78.8594 47.7461 78.6542C48.0264 78.4519 48.2287 78.1629 48.3327 77.8594C48.3905 77.7062 48.3934 77.5617 48.4483 77.3826C48.5119 77.1889 48.7084 77.1051 48.8443 77.0618C49.1275 76.9722 49.376 76.8595 49.5928 76.7352C50.0263 76.4838 50.3008 76.1745 50.4425 75.9375C50.5841 75.6919 50.6159 75.5329 50.6332 75.5387Z" fill="#FFD28F"/>
<path d="M46.7923 69.1489C46.8212 69.1865 45.8386 70.0217 44.5959 71.0101C43.3532 72.0014 42.3215 72.773 42.2897 72.7354C42.2608 72.6978 43.2434 71.8626 44.4861 70.8742C45.7288 69.883 46.7605 69.1113 46.7923 69.1489Z" fill="#FFD28F"/>
</g>
<defs>
<clipPath id="clip0_150_60261">
<rect width="65.1902" height="110" fill="white" transform="translate(0 0.484863)"/>
</clipPath>
</defs>
</svg>
