<svg width="20" height="24" viewBox="0 0 20 24" fill="none" xmlns="http://www.w3.org/2000/svg">
                            <path d="M9.75219 22.5924H5.38536C5.38536 22.5924 3.21676 22.5924 0 22.5924V24H20V22.5924H11.1584V19.6555H15.9948C18.1086 19.6555 19.8284 17.9341 19.8284 15.8183C19.8284 14.2518 18.8915 12.8569 17.4417 12.2647L16.7544 11.984L17.0717 11.3123C17.3295 10.7665 17.4602 10.1819 17.4602 9.57472C17.4602 8.03511 16.6071 6.644 15.2339 5.94425L14.7755 5.71064L14.8592 5.2025C14.8996 4.9573 14.9201 4.71051 14.9201 4.46901C14.9201 2.00481 12.9172 0 10.4553 0C7.99344 0 5.99052 2.00481 5.99052 4.46901C5.99052 4.71046 6.01105 4.95721 6.05145 5.2025L6.13522 5.71064L5.67673 5.94425C4.30353 6.644 3.45045 8.03511 3.45045 9.57472C3.45045 10.1818 3.58119 10.7664 3.83895 11.3123L4.15616 11.984L3.46892 12.2647C2.01908 12.857 1.08223 14.2518 1.08223 15.8183C1.08223 17.9342 2.80198 19.6556 4.91581 19.6556H9.75219V22.5924ZM6.44436 13.1431L7.43872 12.1478L9.75219 14.4634V11.7891L7.22014 9.25464L8.2145 8.25934L9.75219 9.79848V7.3293V7.26765H11.1584V7.3293V9.77169L12.6694 8.25934L13.6637 9.25464L11.1584 11.7623V14.4366L13.4451 12.1478L14.4395 13.1431L11.1584 16.4272V19.6545H9.75219V16.454L6.44436 13.1431Z" fill="#0A855C"/>
                            </svg>