         <svg
                  width="20"
                  height="20"
                  viewBox="0 0 20 20"
                  fill="none"
                  xmlns="http://www.w3.org/2000/svg"
                >
                  <path
                    d="M9.80469 7.52604C9.98436 7.52604 10.1302 7.38019 10.1302 7.20052C10.1302 7.02085 9.98436 6.875 9.80469 6.875C9.62502 6.875 9.47917 7.02085 9.47917 7.20052C9.47917 7.38019 9.62502 7.52604 9.80469 7.52604Z"
                    fill="#0A855C"
                  />
                  <path
                    d="M9.80469 8.8281C9.98436 8.8281 10.1302 8.68226 10.1302 8.50258C10.1302 8.32291 9.98436 8.17706 9.80469 8.17706C9.62502 8.17706 9.47917 8.32291 9.47917 8.50258C9.47917 8.68226 9.62502 8.8281 9.80469 8.8281Z"
                    fill="#0A855C"
                  />
                  <path
                    d="M18.238 5.01726L14.9828 1.76205C14.9252 1.70433 14.8415 1.66669 14.7526 1.66669H6.54948C6.01097 1.66669 5.57292 2.10474 5.57292 2.64325V3.63482C5.46483 3.62503 5.35611 3.61981 5.2474 3.61981C3.27304 3.61981 1.66667 5.22618 1.66667 7.20054C1.66667 9.1749 3.27304 10.7813 5.2474 10.7813C5.35611 10.7813 5.46483 10.7761 5.57292 10.7663V17.3568C5.57292 17.8953 6.01097 18.3334 6.54948 18.3334H17.3568C17.8953 18.3334 18.3333 17.8953 18.3333 17.3568V5.24742C18.3333 5.15853 18.2963 5.07563 18.238 5.01726ZM15.0781 2.77804L17.222 4.9219H15.0781V2.77804ZM5.57292 4.28904C6.94748 4.44074 8.00797 5.5367 8.15826 6.87502H5.57292V4.28904ZM2.31771 7.20054C2.31771 5.69513 3.45907 4.45154 4.92188 4.28904V7.20054C4.92188 7.38034 5.0676 7.52568 5.2474 7.52568H8.15826C7.99474 8.98188 6.76272 10.1302 5.2474 10.1302C3.632 10.1302 2.31771 8.81594 2.31771 7.20054ZM17.3568 17.6823H6.54948C6.36993 17.6823 6.22396 17.5363 6.22396 17.3568V10.6457C7.7478 10.2144 8.82813 8.80678 8.82813 7.20054C8.82813 5.5943 7.7478 4.18668 6.22396 3.75536V2.64325C6.22396 2.4637 6.36993 2.31773 6.54948 2.31773H14.4271V5.24742C14.4271 5.42722 14.5728 5.57294 14.7526 5.57294H17.6823V17.3568C17.6823 17.5363 17.5363 17.6823 17.3568 17.6823Z"
                    fill="#0A855C"
                  />
                  <path
                    d="M10 4.27085H13.4505C13.6303 4.27085 13.776 4.12513 13.776 3.94533C13.776 3.76553 13.6303 3.61981 13.4505 3.61981H10C9.8202 3.61981 9.67448 3.76553 9.67448 3.94533C9.67448 4.12513 9.8202 4.27085 10 4.27085Z"
                    fill="#0A855C"
                  />
                  <path
                    d="M10 5.57292H13.4505C13.6303 5.57292 13.776 5.4272 13.776 5.2474C13.776 5.0676 13.6303 4.92188 13.4505 4.92188H10C9.8202 4.92188 9.67448 5.0676 9.67448 5.2474C9.67448 5.4272 9.8202 5.57292 10 5.57292Z"
                    fill="#0A855C"
                  />
                  <path
                    d="M5.2474 8.82813C4.34992 8.82813 3.61979 8.09799 3.61979 7.20052C3.61979 7.02072 3.47407 6.875 3.29427 6.875C3.11447 6.875 2.96875 7.02072 2.96875 7.20052C2.96875 8.45696 3.99096 9.47917 5.2474 9.47917C5.4272 9.47917 5.57292 9.33345 5.57292 9.15365C5.57292 8.97385 5.4272 8.82813 5.2474 8.82813Z"
                    fill="#0A855C"
                  />
                  <path
                    d="M15.957 10.3255C15.4185 10.3255 14.9805 10.7636 14.9805 11.3021C14.9805 11.5039 15.042 11.6917 15.1473 11.8474L12.8868 14.2736C12.7973 14.2465 12.7025 14.2318 12.6042 14.2318C12.4668 14.2318 12.334 14.2602 12.2119 14.3138L11.1937 13.0516C11.2644 12.9149 11.3021 12.7625 11.3021 12.6041C11.3021 12.0656 10.864 11.6276 10.3255 11.6276C9.78701 11.6276 9.34896 12.0656 9.34896 12.6041C9.34896 12.7562 9.3838 12.9028 9.44916 13.0353L8.26215 14.3219C8.13512 14.2629 7.99576 14.2318 7.85156 14.2318C7.31305 14.2318 6.875 14.6698 6.875 15.2083C6.875 15.7468 7.31305 16.1849 7.85156 16.1849C8.39007 16.1849 8.82812 15.7468 8.82812 15.2083C8.82812 15.0562 8.79341 14.9096 8.72793 14.7771L9.91493 13.4906C10.042 13.5496 10.1813 13.5807 10.3255 13.5807C10.4628 13.5807 10.5957 13.5522 10.7178 13.4987L11.7359 14.7608C11.6652 14.8975 11.6276 15.05 11.6276 15.2083C11.6276 15.7468 12.0657 16.1849 12.6042 16.1849C13.1427 16.1849 13.5807 15.7468 13.5807 15.2083C13.5807 15.0065 13.5192 14.8187 13.4139 14.6629L15.6744 12.2368C15.7639 12.2639 15.8587 12.2786 15.957 12.2786C16.4955 12.2786 16.9336 11.8406 16.9336 11.3021C16.9336 10.7636 16.4955 10.3255 15.957 10.3255ZM7.85156 15.5338C7.67202 15.5338 7.52604 15.3879 7.52604 15.2083C7.52604 15.0288 7.67202 14.8828 7.85156 14.8828C8.03123 14.8828 8.17708 15.0285 8.17708 15.2083C8.17708 15.3879 8.03111 15.5338 7.85156 15.5338ZM10 12.6041C10 12.4246 10.146 12.2786 10.3255 12.2786C10.5051 12.2786 10.651 12.4246 10.651 12.6041C10.651 12.7838 10.5053 12.9297 10.3255 12.9297C10.1457 12.9297 10 12.7838 10 12.6041ZM12.6042 15.5338C12.4246 15.5338 12.2786 15.3879 12.2786 15.2083C12.2786 15.0286 12.4244 14.8828 12.6042 14.8828C12.7837 14.8828 12.9297 15.0288 12.9297 15.2083C12.9297 15.3879 12.7837 15.5338 12.6042 15.5338ZM15.957 11.6276C15.7775 11.6276 15.6315 11.4816 15.6315 11.3021C15.6315 11.1225 15.7775 10.9765 15.957 10.9765C16.1366 10.9765 16.2826 11.1225 16.2826 11.3021C16.2826 11.4816 16.1366 11.6276 15.957 11.6276Z"
                    fill="#0A855C"
                  />
                  <path
                    d="M10.7812 7.20052C10.7812 7.38032 10.927 7.52604 11.1068 7.52604H16.0547C16.2345 7.52604 16.3802 7.38032 16.3802 7.20052C16.3802 7.02072 16.2345 6.875 16.0547 6.875H11.1068C10.927 6.875 10.7812 7.02072 10.7812 7.20052Z"
                    fill="#0A855C"
                  />
                  <path
                    d="M16.0547 8.17706H11.1068C10.927 8.17706 10.7812 8.32278 10.7812 8.50258C10.7812 8.68238 10.927 8.8281 11.1068 8.8281H16.0547C16.2345 8.8281 16.3802 8.68238 16.3802 8.50258C16.3802 8.32278 16.2345 8.17706 16.0547 8.17706Z"
                    fill="#0A855C"
                  />
                </svg>