  <svg
                                    width="24"
                                    height="24"
                                    viewBox="0 0 24 24"
                                    fill="none"
                                    xmlns="http://www.w3.org/2000/svg"
                                >
                                    <path
                                        d="M13.25 8.00821H14V9.46698C12.8221 9.59254 11.7072 9.99241 10.7629 10.6407C11.9688 10.9473 13.109 11.461 14.0879 12.2131H15.4941C17.1436 12.2131 18.4867 13.4615 18.5 15L20.6018 12.893C20.6016 12.8932 20.6016 12.8932 20.6016 12.8933L20.6066 12.8882C20.6064 12.8886 20.6061 12.8888 20.6059 12.889L20.715 12.7795C19.6791 10.9334 17.7381 9.68945 15.5 9.45822V8.00821H16.25C19.9721 8.00821 23 5.17901 23 1.70082C23 1.31354 22.6645 1 22.25 1H20.75C18.0473 1 15.7275 2.50129 14.6504 4.64975C13.7139 3.30066 12.0951 2.40164 10.25 2.40164H8.75C8.33555 2.40164 8 2.71519 8 3.10246C8 5.8072 10.3555 8.00821 13.25 8.00821Z"
                                        fill="#007F5F"
                                    />
                                    <path
                                        d="M23.1844 13.497C22.6782 13.2874 22.1157 13.4221 21.75 13.8415L18.2296 17.8091C17.8922 18.1985 17.4282 18.4406 16.936 18.4857H16.9219C16.8375 18.5155 16.7672 18.5155 16.6827 18.5155H10.5234C10.1296 18.5155 9.82031 18.1712 9.82031 17.7668C9.82031 17.3477 10.1296 17.0082 10.5234 17.0082C10.569 17.0082 13.3145 17.018 15.5193 17.0057C16.2968 17.0014 16.9219 16.352 16.9219 15.5246C16.9219 14.6942 16.2896 14.021 15.5098 14.021H14.1094V14.036H13.9406C13.7719 14.036 13.6031 13.961 13.4766 13.8413C11.3672 11.8649 8.37177 11.4456 5.85461 12.7483L3.39368 14.0261H0.703125C0.314758 14.0261 0 14.3712 0 14.7847V20.7739C0 21.1781 0.309265 21.5027 0.703125 21.5027H3.5625C4.65948 21.5027 5.71417 21.7472 6.71246 22.2112C7.89386 22.7354 9.1452 23 10.4249 23H18.3281C18.5495 23 18.7579 22.909 18.8906 22.7204L23.5781 16.1323C23.8594 15.7279 24 15.2637 24 14.7847C24 14.2158 23.6766 13.7065 23.1844 13.497Z"
                                        fill="#007F5F"
                                    />
                                </svg>