   <svg
                  width="18"
                  height="16"
                  viewBox="0 0 18 16"
                  fill="none"
                  xmlns="http://www.w3.org/2000/svg"
                >
                  <path
                    d="M16.2275 9.05446C16.768 8.03788 17.3301 6.58309 17.3301 4.92824C17.3301 2.42246 15.2896 0.383863 12.7814 0.383863C11.2797 0.371167 9.81568 1.16152 8.9939 2.40973C8.17275 1.16198 6.70783 0.371199 5.20775 0.383863C2.63249 0.337375 0.640159 2.66737 0.669327 5.20759C0.529896 9.85227 5.88345 13.9847 8.77416 15.469C8.86486 15.4991 8.89321 15.5328 9.06878 15.5172C9.13597 15.5072 9.20551 15.4968 9.79601 15.1635C10.0401 15.0257 10.3943 14.8178 10.8075 14.5518C13.2159 16.8797 17.3428 15.1412 17.3333 11.7569C17.3333 10.7058 16.9111 9.75158 16.2275 9.05446ZM9.00491 14.4837C6.20317 12.9756 1.55445 9.23162 1.64531 5.25932C1.64059 4.14931 2.05807 3.08618 2.7938 2.35367C3.44756 1.70144 4.28242 1.35783 5.20648 1.36047C5.94153 1.36047 6.64734 1.58161 7.24758 2C7.83477 2.40927 8.28122 2.97654 8.53863 3.64045C8.61149 3.82839 8.79236 3.95226 8.9939 3.95226C9.19545 3.95226 9.37632 3.82839 9.44918 3.64045C11.3996 -0.888074 18.931 1.63171 15.4467 8.43944C11.9671 6.40853 8.09823 10.3483 10.1875 13.7891C9.6697 14.1184 9.24223 14.3574 9.00491 14.4837ZM13.4708 14.6428C11.8795 14.6428 10.585 13.3482 10.585 11.757C10.73 7.93374 16.2122 7.93481 16.3567 11.757C16.3567 13.3482 15.0621 14.6428 13.4708 14.6428Z"
                    fill="#0A855C"
                  />
                  <path
                    d="M14.4415 10.516L12.9955 11.9621L12.5001 11.4667C12.3095 11.276 12.0003 11.276 11.8095 11.4667C11.6188 11.6574 11.6188 11.9666 11.8095 12.1573L12.6502 12.9979C12.832 13.1871 13.1589 13.1871 13.3407 12.9979L15.1321 11.2066C15.3228 11.0159 15.3228 10.7067 15.1321 10.516C14.9414 10.3253 14.6322 10.3253 14.4415 10.516Z"
                    fill="#0A855C"
                  />
                </svg>