       <svg
                    width="20"
                    height="20"
                    viewBox="0 0 20 20"
                    fill="none"
                    xmlns="http://www.w3.org/2000/svg"
                  >
                    <path
                      fillRule="evenodd"
                      clipRule="evenodd"
                      d="M12.1988 3.70642C10.8198 3.22467 9.32076 3.20915 7.93211 3.66225H7.93294C6.72023 4.05764 5.6464 4.79264 4.83888 5.78002C4.03136 6.7674 3.52405 7.96571 3.37715 9.23277C3.23025 10.4998 3.44993 11.7824 4.01011 12.9284C4.5703 14.0743 5.44747 15.0355 6.53755 15.6979C7.62763 16.3603 8.88485 16.696 10.16 16.6653C11.4352 16.6346 12.6748 16.2387 13.7317 15.5246C14.7886 14.8105 15.6185 13.8082 16.1228 12.6366C16.6272 11.465 16.7849 10.1733 16.5771 8.91475C16.5593 8.80674 16.5629 8.69627 16.5877 8.58966C16.6126 8.48304 16.6582 8.38236 16.722 8.29337C16.7857 8.20438 16.8664 8.12883 16.9594 8.07101C17.0523 8.0132 17.1558 7.97426 17.2638 7.95642C17.3718 7.93858 17.4823 7.94219 17.5889 7.96705C17.6955 7.9919 17.7962 8.03751 17.8852 8.10128C17.9741 8.16504 18.0497 8.24571 18.1075 8.33867C18.1653 8.43163 18.2043 8.53507 18.2221 8.64309C18.5194 10.4446 18.2168 12.294 17.3608 13.9068C16.5048 15.5197 15.1427 16.8067 13.484 17.5701C11.8253 18.3335 9.9618 18.531 8.17995 18.1322C6.3981 17.7334 4.79655 16.7604 3.6215 15.3628C2.44646 13.9652 1.76296 12.2203 1.6761 10.3965C1.58923 8.5726 2.1038 6.77069 3.1407 5.26774C4.1776 3.76479 5.67943 2.64399 7.41531 2.07766C9.15119 1.51132 11.025 1.5308 12.7488 2.13309C12.9574 2.20602 13.1285 2.35885 13.2245 2.55795C13.3204 2.75705 13.3334 2.98612 13.2604 3.19475C13.1875 3.40339 13.0347 3.57451 12.8356 3.67047C12.6365 3.76642 12.4074 3.77935 12.1988 3.70642ZM16.754 4.94195C16.7731 5.18626 16.6959 5.42836 16.5388 5.61642V5.61726L10.7054 12.2839C10.6209 12.3805 10.5174 12.4586 10.4014 12.5135C10.2854 12.5685 10.1593 12.599 10.031 12.6032C9.90275 12.6074 9.77497 12.5853 9.6556 12.5381C9.53624 12.4909 9.42783 12.4197 9.3371 12.3289L6.8371 9.82892C6.66843 9.65177 6.57567 9.41571 6.57863 9.17111C6.58159 8.92652 6.68003 8.69277 6.85294 8.51975C7.02585 8.34673 7.25954 8.24814 7.50413 8.24503C7.74872 8.24192 7.98484 8.33453 8.1621 8.50309L9.95377 10.2948L15.1271 4.38309C15.2924 4.20214 15.5219 4.0931 15.7666 4.07932C16.0113 4.06553 16.2516 4.14809 16.4361 4.30933C16.6207 4.47056 16.7348 4.69764 16.754 4.94195Z"
                      fill="#007F5F"
                    />
                  </svg>
