         <svg
                  width="20"
                  height="20"
                  viewBox="0 0 20 20"
                  fill="none"
                  xmlns="http://www.w3.org/2000/svg"
                >
                  <path
                    fillRule="evenodd"
                    clipRule="evenodd"
                    d="M11.4648 2.15497C11.4648 1.88531 11.6835 1.66669 11.9531 1.66669C12.2228 1.66669 12.4414 1.88531 12.4414 2.15497V3.16408C12.4414 3.43374 12.2228 3.65236 11.9531 3.65236C11.6835 3.65236 11.4648 3.43374 11.4648 3.16408V2.15497ZM16.9502 11.9857C17.1826 11.7263 17.3242 11.3838 17.3242 11.0091C17.3242 10.2015 16.667 9.54429 15.8594 9.54429H13.0163C13.2979 8.6898 13.418 7.55601 13.418 7.07001V6.58205C13.418 5.50523 12.5417 4.62893 11.4648 4.62893H10.9766C10.7526 4.62893 10.5573 4.78127 10.5029 4.99872L10.237 6.06285C9.86426 7.55308 8.68099 9.19729 7.45638 9.49611C7.24186 8.95315 6.71224 8.56773 6.09375 8.56773H3.16406C2.89453 8.56773 2.67578 8.78648 2.67578 9.05601V17.8451C2.67578 18.1146 2.89453 18.3334 3.16406 18.3334H6.09375C6.67611 18.3334 7.18001 17.9919 7.41602 17.4984L9.09375 18.0576C9.64225 18.2406 10.2139 18.3334 10.7923 18.3334H14.8828C15.6904 18.3334 16.3477 17.6761 16.3477 16.8685C16.3477 16.6781 16.3112 16.4958 16.2448 16.3288C16.8659 16.1592 17.3242 15.5899 17.3242 14.9154C17.3242 14.5407 17.1826 14.1983 16.9502 13.9388C17.1826 13.6794 17.3242 13.3369 17.3242 12.9623C17.3242 12.5876 17.1826 12.2451 16.9502 11.9857ZM6.58203 16.8685C6.58203 17.1377 6.36296 17.3568 6.09375 17.3568H3.65234V9.54429H6.09375C6.36296 9.54429 6.58203 9.76337 6.58203 10.0326V16.8685ZM14.8828 12.474H15.8594C16.1286 12.474 16.3477 12.6931 16.3477 12.9623C16.3477 13.2315 16.1286 13.4505 15.8594 13.4505H14.8828C14.6133 13.4505 14.3945 13.6693 14.3945 13.9388C14.3945 14.2084 14.6133 14.4271 14.8828 14.4271H15.8594C16.1286 14.4271 16.3477 14.6462 16.3477 14.9154C16.3477 15.1846 16.1286 15.4037 15.8594 15.4037H14.8828C14.6133 15.4037 14.3945 15.6224 14.3945 15.8919C14.3945 16.1615 14.6133 16.3802 14.8828 16.3802C15.152 16.3802 15.3711 16.5993 15.3711 16.8685C15.3711 17.1377 15.152 17.3568 14.8828 17.3568H10.7923C10.319 17.3568 9.85124 17.2809 9.40234 17.1312L7.55859 16.5166V10.4746C8.32454 10.3291 9.07422 9.8441 9.75098 9.05015C10.4118 8.27476 10.9476 7.24677 11.1842 6.29983L11.3577 5.60549H11.4648C12.0033 5.60549 12.4414 6.04364 12.4414 6.58205V7.07001C12.4414 7.72561 12.2363 8.98309 11.974 9.54429H10.9766C10.707 9.54429 10.4883 9.76304 10.4883 10.0326C10.4883 10.3021 10.707 10.5209 10.9766 10.5209H15.8594C16.1286 10.5209 16.3477 10.7399 16.3477 11.0091C16.3477 11.2783 16.1286 11.4974 15.8594 11.4974H14.8828C14.6133 11.4974 14.3945 11.7162 14.3945 11.9857C14.3945 12.2552 14.6133 12.474 14.8828 12.474ZM5.11719 16.3802C5.38686 16.3802 5.60547 16.1616 5.60547 15.8919C5.60547 15.6223 5.38686 15.4037 5.11719 15.4037C4.84752 15.4037 4.62891 15.6223 4.62891 15.8919C4.62891 16.1616 4.84752 16.3802 5.11719 16.3802ZM9.88151 3.81994L9.19099 3.12941C9.00033 2.93872 8.69115 2.93872 8.50046 3.12941C8.30977 3.3201 8.30977 3.62925 8.50046 3.81994L9.19099 4.51047C9.38164 4.70112 9.69086 4.70116 9.88151 4.51047C10.0722 4.31978 10.0722 4.01063 9.88151 3.81994ZM14.7153 3.12941C14.906 2.93872 15.2151 2.93872 15.4058 3.12941C15.5965 3.3201 15.5965 3.62925 15.4058 3.81994L14.7153 4.51047C14.5246 4.70116 14.2154 4.70112 14.0247 4.51043C13.834 4.31974 13.834 4.0106 14.0247 3.81991L14.7153 3.12941Z"
                    fill="#0A855C"
                  />
                </svg>