     <svg
                                    width="30"
                                    height="32"
                                    viewBox="0 0 30 32"
                                    fill="none"
                                    xmlns="http://www.w3.org/2000/svg"
                                >
                                    <path
                                        d="M18.6686 16.4686L13.3998 21.7374L11.331 19.6686C11.1824 19.52 11.0061 19.4022 10.812 19.3218C10.6179 19.2414 10.4098 19.2 10.1998 19.2C9.98968 19.2 9.78166 19.2414 9.58756 19.3218C9.39347 19.4022 9.21712 19.52 9.06856 19.6686C8.92001 19.8171 8.80218 19.9935 8.72178 20.1876C8.64138 20.3817 8.60001 20.5897 8.60001 20.7998C8.60001 21.0098 8.64138 21.2179 8.72178 21.412C8.80218 21.6061 8.92001 21.7824 9.06856 21.931L12.2686 25.131C12.4168 25.2801 12.5931 25.3984 12.7872 25.4791C12.9813 25.5599 13.1895 25.6014 13.3998 25.6014C13.61 25.6014 13.8182 25.5599 14.0123 25.4791C14.2065 25.3984 14.3827 25.2801 14.531 25.131L20.931 18.731C21.0795 18.5824 21.1974 18.4061 21.2777 18.212C21.3581 18.0179 21.3995 17.8098 21.3995 17.5998C21.3995 17.3897 21.3581 17.1817 21.2777 16.9876C21.1974 16.7935 21.0795 16.6171 20.931 16.4686C20.7824 16.32 20.6061 16.2022 20.412 16.1218C20.2179 16.0414 20.0098 16 19.7998 16C19.5897 16 19.3817 16.0414 19.1876 16.1218C18.9935 16.2022 18.8171 16.32 18.6686 16.4686Z"
                                        fill="#081362"
                                    />
                                    <path
                                        fillRule="evenodd"
                                        clipRule="evenodd"
                                        d="M23 3.2H27C28.28 3.2 29.4 4.32 29.4 5.6V29.6C29.4 30.88 28.28 32 27 32H3.00001C1.72001 32 0.600006 30.88 0.600006 29.6V5.6C0.600006 4.32 1.72001 3.2 3.00001 3.2H5.40001V1.6C5.40001 0.716344 6.11635 0 7.00001 0C7.88366 0 8.60001 0.716344 8.60001 1.6V3.2H19.8V1.6C19.8 0.716344 20.5163 0 21.4 0C22.2837 0 23 0.716344 23 1.6V3.2ZM26.2 28.8H3.80001V12.8H26.2V28.8Z"
                                        fill="#081362"
                                    />
                                </svg>