           <svg
                  width="20"
                  height="20"
                  viewBox="0 0 20 20"
                  fill="none"
                  xmlns="http://www.w3.org/2000/svg"
                >
                  <path
                    d="M16.091 12.4308L14.8549 11.4478C14.8913 11.1655 14.9102 10.8993 14.9102 10.6562C14.9102 9.89947 14.7373 9.23686 14.413 8.67976L16.0112 7.78049C16.1235 7.7174 16.193 7.59871 16.193 7.47004V5.44908C16.193 5.25197 16.0337 5.09265 15.8366 5.09265C15.6394 5.09265 15.4801 5.25197 15.4801 5.44908V7.26153L13.9849 8.10306C13.6374 7.72453 13.1965 7.41764 12.6711 7.18739C12.4865 6.58894 12.1044 6.06749 11.59 5.71355C11.5911 5.68575 11.5968 5.65902 11.5968 5.63122C11.5968 5.23629 11.4956 4.86917 11.3224 4.56478L12.5838 2.11218C12.6736 1.93717 12.6048 1.72225 12.4294 1.63207C12.2559 1.54189 12.0395 1.61104 11.9493 1.7864L10.8112 3.99912C10.5724 3.82946 10.2969 3.72538 9.9993 3.72538C9.70168 3.72538 9.42616 3.82946 9.18735 3.99912L8.04927 1.7864C7.95909 1.61175 7.74381 1.54154 7.56916 1.63207C7.39415 1.72225 7.325 1.93682 7.41482 2.11218L8.67623 4.56478C8.50336 4.86917 8.40178 5.23629 8.40178 5.63122C8.40178 5.65902 8.40748 5.68575 8.40855 5.7132C7.89387 6.0682 7.51213 6.58859 7.32786 7.18561C6.80141 7.41586 6.35979 7.7231 6.01192 8.10163L4.51847 7.26117V5.44872C4.51847 5.25162 4.35915 5.09229 4.16204 5.09229C3.96494 5.09229 3.80561 5.25162 3.80561 5.44872V7.46968C3.80561 7.59835 3.87476 7.71704 3.98739 7.78013L5.58349 8.67834C5.25878 9.23579 5.08591 9.89875 5.08591 10.6562C5.08591 10.9 5.1048 11.1666 5.14151 11.4499L3.90862 12.4308C3.54328 12.7217 3.33334 13.1569 3.33334 13.6242V14.9839C3.33334 15.1811 3.49267 15.3404 3.68977 15.3404C3.88688 15.3404 4.0462 15.1811 4.0462 14.9839V13.6242C4.0462 13.3754 4.15777 13.1437 4.35238 12.9886L5.28337 12.248C5.46943 13.0977 5.78095 14.028 6.19405 14.903L6.09496 15.0025C5.28052 15.8166 4.83213 16.8994 4.83213 18.051C4.83213 18.2481 4.99146 18.4075 5.18856 18.4075C5.38567 18.4075 5.54499 18.2481 5.54499 18.051C5.54499 17.1204 5.89857 16.2457 6.53836 15.5738C7.41482 17.1542 8.62597 18.4075 9.99859 18.4075C11.3719 18.4075 12.5834 17.1528 13.4602 15.5717C14.1007 16.2439 14.455 17.1193 14.455 18.051C14.455 18.2481 14.6144 18.4075 14.8115 18.4075C15.0086 18.4075 15.1679 18.2481 15.1679 18.051C15.1679 16.8998 14.7195 15.8166 13.9054 15.0025L13.8042 14.9009C14.2173 14.0259 14.5285 13.0956 14.7142 12.2462L15.6473 12.9886C15.8423 13.144 15.9538 13.3754 15.9538 13.6242V14.9839C15.9538 15.1811 16.1131 15.3404 16.3102 15.3404C16.5074 15.3404 16.6667 15.1811 16.6667 14.9839V13.6242C16.6667 13.1569 16.4567 12.722 16.091 12.4308ZM9.35986 4.8125C9.36272 4.80893 9.36414 4.80466 9.36664 4.80145C9.52739 4.57797 9.75122 4.43824 10 4.43824C10.2488 4.43824 10.4726 4.57832 10.6334 4.80145C10.6362 4.80501 10.6373 4.80929 10.6402 4.8125C10.746 4.96291 10.8223 5.14968 10.8587 5.35819C10.3051 5.18497 9.69313 5.18532 9.14137 5.35783C9.17808 5.14968 9.25436 4.96291 9.35986 4.8125ZM8.96244 6.20436C9.578 5.84365 10.4192 5.84151 11.0408 6.20649C11.3313 6.37295 11.5733 6.60748 11.7519 6.88407C11.2236 6.75967 10.6398 6.6916 9.99859 6.6916C9.35879 6.6916 8.77639 6.75932 8.24923 6.88336C8.4278 6.60677 8.67017 6.37152 8.96244 6.20436ZM9.99859 7.4041C11.0975 7.4041 13.4627 7.64576 14.0576 9.64391C13.4642 11.6838 11.0301 11.9101 9.99966 11.9101C7.83185 11.9101 6.35944 11.0853 5.93813 9.64676C6.53195 7.64576 8.89936 7.4041 9.99859 7.4041ZM9.99859 17.6946C7.84005 17.6946 5.96772 13.3704 5.8116 10.9677C6.57151 11.966 7.90135 12.5442 9.64358 12.6137V15.9887C9.64358 16.1858 9.80291 16.3451 10 16.3451C10.1971 16.3451 10.3564 16.1858 10.3564 15.9887V12.6137C12.0972 12.5442 13.4264 11.966 14.1856 10.9677C14.0295 13.37 12.1575 17.6946 9.99859 17.6946Z"
                    fill="#007F5F"
                  />
                  <path
                    d="M4.1289 11.8656C4.30868 11.8656 4.45442 11.7198 4.45442 11.5401C4.45442 11.3603 4.30868 11.2145 4.1289 11.2145C3.94912 11.2145 3.80338 11.3603 3.80338 11.5401C3.80338 11.7198 3.94912 11.8656 4.1289 11.8656Z"
                    fill="#007F5F"
                  />
                  <line
                    y1="-1"
                    x2="20.5818"
                    y2="-1"
                    transform="matrix(0.850265 0.526355 -0.686697 0.726943 0.833344 6.66669)"
                    stroke="white"
                    strokeWidth="2"
                  />
                  <line
                    y1="-0.5"
                    x2="20.5818"
                    y2="-0.5"
                    transform="matrix(0.850265 0.526355 -0.686697 0.726943 0.833344 5)"
                    stroke="#007F5F"
                  />
                </svg>