        <svg
                  width="16"
                  height="16"
                  viewBox="0 0 16 16"
                  fill="none"
                  xmlns="http://www.w3.org/2000/svg"
                >
                  <path
                    d="M0.668915 11.6667V11.6682C0.668915 11.6688 0.669233 11.6692 0.669233 11.6697C0.670665 12.5298 1.2587 13.2481 2.05171 13.4633C2.23456 14.7865 3.36136 15.8125 4.73411 15.8125H8C8.28763 15.8125 8.52083 15.5793 8.52083 15.2917C8.52083 15.004 8.28763 14.7708 8 14.7708H4.73411C3.92835 14.7708 3.25455 14.1998 3.09344 13.4414C3.85129 13.203 4.40604 12.5022 4.40604 11.6667V8.68334C4.40604 7.65311 3.56782 6.8149 2.53735 6.8149C2.24975 6.8149 1.98034 6.8856 1.73674 7.0022C2.00088 3.77541 4.70623 1.22917 8 1.22917C9.67567 1.22917 11.2555 1.88352 12.4469 3.0704C13.5121 4.13997 14.144 5.52105 14.2642 7.00274C14.0204 6.88585 13.7507 6.8149 13.4627 6.8149C12.4322 6.8149 11.594 7.65312 11.594 8.68334V11.6667C11.594 12.6972 12.4322 13.5354 13.4627 13.5354C14.4918 13.5354 15.3291 12.6988 15.3308 11.6697C15.3308 11.6692 15.3311 11.6688 15.3311 11.6682V11.6667V7.51858C15.3311 5.56546 14.5689 3.72474 13.1834 2.3339C11.7938 0.949677 9.95312 0.1875 8 0.1875C3.95769 0.1875 0.668915 3.47628 0.668915 7.51858V11.6667ZM13.4626 12.4937C13.0067 12.4937 12.6356 12.1227 12.6356 11.6667V8.68334C12.6356 8.22735 13.0067 7.85657 13.4626 7.85657C13.9186 7.85657 14.2894 8.22735 14.2894 8.68334V11.6667C14.2894 12.1227 13.9186 12.4937 13.4626 12.4937ZM2.53735 7.85657C2.99334 7.85657 3.36438 8.22735 3.36438 8.68334V11.6667C3.36438 12.1227 2.99334 12.4937 2.53735 12.4937C2.08137 12.4937 1.71058 12.1227 1.71058 11.6667V8.68334C1.71058 8.22735 2.08137 7.85657 2.53735 7.85657Z"
                    fill="#0A855C"
                  />
                </svg>