  <svg width="24" height="24" viewBox="0 0 24 24" fill="none" xmlns="http://www.w3.org/2000/svg">
                            <g clipPath="url(#clip0_16386_1230)">
                            <path d="M3.50726 16.1929C3.50726 14.266 4.51224 12.5272 6.11733 11.5911C5.94201 11.0414 5.85349 10.4684 5.85349 9.8802C5.85349 7.95531 6.81338 6.20125 8.38888 5.19099C8.37635 5.03259 8.37008 4.87452 8.37008 4.71788C8.37008 3.75126 8.59736 2.83787 9 2.03036C8.82469 2.01044 8.64705 2 8.46714 2C5.88549 2 3.78516 4.14548 3.78516 6.78262C3.78516 6.87745 3.78804 6.97294 3.79375 7.06872C2.56901 7.89108 1.82629 9.27986 1.82629 10.8009C1.82629 11.2325 1.88536 11.6539 2.00244 12.0603C0.76762 12.8302 0 14.2006 0 15.7146C0 18.0776 1.88197 20 4.19523 20H5.08871C4.11415 19.0354 3.50726 17.6853 3.50726 16.1929V16.1929Z" fill="#0A855C"/>
                            <path d="M13.7522 22.5924H9.38536V21.0631H8.91581C8.59612 21.0631 8.28309 21.0342 7.97911 20.979V22.5924H0V24H24V22.5924H15.1584V19.6555H19.9948C22.1086 19.6555 23.8284 17.9341 23.8284 15.8183C23.8284 14.2518 22.8915 12.8569 21.4417 12.2647L20.7544 11.984L21.0717 11.3123C21.3295 10.7665 21.4602 10.1819 21.4602 9.57472C21.4602 8.03511 20.6071 6.644 19.2339 5.94425L18.7755 5.71064L18.8592 5.2025C18.8996 4.9573 18.9201 4.71051 18.9201 4.46901C18.9201 2.00481 16.9172 0 14.4553 0C11.9934 0 9.99052 2.00481 9.99052 4.46901C9.99052 4.71046 10.011 4.95721 10.0515 5.2025L10.1352 5.71064L9.67673 5.94425C8.30353 6.644 7.45045 8.03511 7.45045 9.57472C7.45045 10.1818 7.58119 10.7664 7.83895 11.3123L8.15616 11.984L7.46892 12.2647C6.01908 12.857 5.08223 14.2518 5.08223 15.8183C5.08223 17.9342 6.80198 19.6556 8.91581 19.6556H13.7522V22.5924ZM10.4444 13.1431L11.4387 12.1478L13.7522 14.4634V11.7891L11.2201 9.25464L12.2145 8.25934L13.7522 9.79848V7.3293V7.26765H15.1584V7.3293V9.77169L16.6694 8.25934L17.6637 9.25464L15.1584 11.7623V14.4366L17.4451 12.1478L18.4395 13.1431L15.1584 16.4272V19.6545H13.7522V16.454L10.4444 13.1431Z" fill="#0A855C"/>
                            </g>
                            <defs>
                            <clipPath id="clip0_16386_1230">
                            <rect width="24" height="24" fill="white"/>
                            </clipPath>
                            </defs>
                            </svg>