         <svg
                  width="20"
                  height="20"
                  viewBox="0 0 20 20"
                  fill="none"
                  xmlns="http://www.w3.org/2000/svg"
                >
                  <path
                    d="M17.5651 17.6823H16.8511V7.31562C16.8511 6.8331 16.4585 6.44055 15.976 6.44055H14.3802C13.8977 6.44055 13.5051 6.83313 13.5051 7.31562V17.6823H11.6922V12.0125C11.6922 11.53 11.2997 11.1375 10.8172 11.1375H9.22135C8.73883 11.1375 8.34629 11.53 8.34629 12.0125V17.6823H6.5334V14.746C6.5334 14.2634 6.14082 13.8709 5.65833 13.8709H4.06247C3.57995 13.8709 3.1874 14.2635 3.1874 14.746V17.6823H2.43493C2.25514 17.6823 2.10941 17.828 2.10941 18.0078C2.10941 18.1876 2.25514 18.3333 2.43493 18.3333H17.5651C17.7449 18.3333 17.8906 18.1876 17.8906 18.0078C17.8906 17.828 17.7449 17.6823 17.5651 17.6823ZM5.88229 17.6823H3.83841V14.746C3.83841 14.6224 3.9389 14.5219 4.06243 14.5219H5.65827C5.7818 14.5219 5.88229 14.6224 5.88229 14.746V17.6823ZM11.0412 17.6823H8.9973V12.0125C8.9973 11.889 9.09778 11.7885 9.22132 11.7885H10.8172C10.9407 11.7885 11.0412 11.889 11.0412 12.0125V17.6823ZM16.2001 17.6823H14.1562V7.31562C14.1562 7.19208 14.2567 7.09159 14.3802 7.09159H15.976C16.0996 7.09159 16.2001 7.19208 16.2001 7.31562V17.6823Z"
                    fill="#007F5F"
                  />
                  <path
                    d="M16.8503 2.009C16.8549 1.92017 16.8236 1.82984 16.7558 1.762C16.688 1.69416 16.5976 1.66288 16.5088 1.66747C16.5036 1.66724 16.4984 1.66669 16.493 1.66669H14.5236C14.3439 1.66669 14.1981 1.81242 14.1981 1.99221C14.1981 2.17199 14.3439 2.31773 14.5236 2.31773H15.7397L12.5217 5.53576L11.3081 4.32222C11.2471 4.26119 11.1643 4.22688 11.078 4.22688C10.9916 4.22688 10.9088 4.26119 10.8478 4.32222L4.99594 10.1741C4.86883 10.3012 4.86883 10.5073 4.99594 10.6345C5.05952 10.698 5.14282 10.7298 5.22612 10.7298C5.30942 10.7298 5.39275 10.698 5.45629 10.6344L11.078 5.01272L12.2915 6.22626C12.4186 6.35337 12.6247 6.35337 12.7519 6.22626L16.2001 2.77811V3.8787C16.2001 4.05848 16.3458 4.20422 16.5256 4.20422C16.7054 4.20422 16.8511 4.05848 16.8511 3.8787V2.02476C16.8511 2.01945 16.8506 2.01428 16.8503 2.009Z"
                    fill="#007F5F"
                  />
                  <path
                    d="M4.1289 11.8656C4.30868 11.8656 4.45442 11.7198 4.45442 11.5401C4.45442 11.3603 4.30868 11.2145 4.1289 11.2145C3.94912 11.2145 3.80338 11.3603 3.80338 11.5401C3.80338 11.7198 3.94912 11.8656 4.1289 11.8656Z"
                    fill="#007F5F"
                  />
                </svg>