<svg width="148" height="100" viewBox="0 0 148 100" fill="none" xmlns="http://www.w3.org/2000/svg">
<path d="M46.6562 75.4069V28.7616H90.6208L98.663 37.6975V75.4069L94.5525 73.2623L90.6208 75.4069L85.9741 73.2623L81.6849 75.4069L77.3956 73.2623L72.9277 75.4069L67.9236 73.2623L63.6344 75.4069L59.7026 73.2623L55.5921 75.4069L51.6603 73.2623L46.6562 75.4069Z" fill="white"/>
<path d="M51.6603 77.5515L46.6562 80.2323V98.4629H98.663V80.2323L94.5525 77.5515L90.6208 80.2323L85.9741 77.5515L81.6849 80.2323L77.3956 77.5515L72.9277 80.2323L67.9236 77.5515L63.6344 80.2323L59.7026 77.5515L55.5921 80.2323L51.6603 77.5515Z" fill="white"/>
<path fill-rule="evenodd" clip-rule="evenodd" d="M42.9048 11.1223C43.5666 10.9259 44.2624 11.3031 44.4589 11.9649L47.8545 23.4028C48.051 24.0646 47.6737 24.7604 47.0119 24.9569C46.3501 25.1534 45.6543 24.7761 45.4579 24.1143L42.0622 12.6764C41.8658 12.0146 42.243 11.3188 42.9048 11.1223ZM34.2942 17.7344C34.7592 17.2241 35.5498 17.1873 36.0601 17.6523L44.1024 24.9798C44.6127 25.4447 44.6495 26.2353 44.1845 26.7456C43.7196 27.2559 42.929 27.2927 42.4187 26.8277L34.3764 19.5003C33.8661 19.0353 33.8293 18.2447 34.2942 17.7344ZM28.3273 25.469C28.5674 24.8217 29.2868 24.4917 29.934 24.7318L41.0145 28.8423C41.6618 29.0824 41.9918 29.8018 41.7517 30.449C41.5116 31.0963 40.7923 31.4263 40.145 31.1862L29.0645 27.0757C28.4173 26.8356 28.0872 26.1162 28.3273 25.469ZM45.4062 28.7619C45.4062 28.0716 45.9658 27.5119 46.6562 27.5119H90.6208C90.9751 27.5119 91.3128 27.6623 91.5499 27.9257L99.5922 36.8616C99.7987 37.0911 99.913 37.389 99.913 37.6978V75.4072C99.913 75.8443 99.6848 76.2496 99.311 76.4762C98.9373 76.7027 98.4723 76.7176 98.0848 76.5155L94.5656 74.6794L91.2193 76.5046C90.8722 76.694 90.4559 76.7079 90.0969 76.5422L85.9958 74.6493L82.2439 76.5253C81.892 76.7012 81.4778 76.7012 81.1258 76.5253L77.3844 74.6546L73.4686 76.5341C73.1435 76.6902 72.7668 76.6982 72.4353 76.5562L67.9641 74.6399L64.1934 76.5253C63.8274 76.7083 63.395 76.7006 63.0358 76.5046L59.6895 74.6794L56.1703 76.5155C55.8007 76.7083 55.3594 76.7042 54.9935 76.5046L51.5947 74.6507L47.1486 76.5562C46.7624 76.7217 46.3188 76.6821 45.9681 76.4508C45.6173 76.2195 45.4062 75.8274 45.4062 75.4072V28.7619ZM47.9062 30.0119V73.5116L51.1679 72.1137C51.5202 71.9627 51.9223 71.9817 52.2588 72.1653L55.6051 73.9905L59.1244 72.1544C59.4939 71.9616 59.9352 71.9657 60.3011 72.1653L63.6595 73.9971L67.3646 72.1446C67.6934 71.9802 68.078 71.9689 68.416 72.1137L72.8984 74.0347L76.8547 72.1357C77.203 71.9685 77.6091 71.9718 77.9546 72.1446L81.6849 74.0097L85.4151 72.1446C85.7547 71.9748 86.1531 71.9686 86.4979 72.1277L90.5739 74.0089L93.954 72.1653C94.3199 71.9657 94.7612 71.9616 95.1308 72.1544L97.413 73.3452V38.9478H90.6208C89.9304 38.9478 89.3708 38.3882 89.3708 37.6978V30.0119H47.9062ZM91.8708 32.0194L95.8563 36.4478H91.8708V32.0194ZM71.771 60.6572C69.5492 61.0867 67.6305 62.592 66.5605 63.876C66.1186 64.4063 65.3304 64.478 64.8 64.036C64.2697 63.594 64.198 62.8058 64.64 62.2755C65.9529 60.7 68.3413 58.7739 71.2964 58.2026C74.3714 57.6081 77.8344 58.5264 81.0269 62.2639C81.4752 62.7888 81.4132 63.5778 80.8883 64.0262C80.3633 64.4746 79.5743 64.4125 79.1259 63.8876C76.4564 60.7623 73.8729 60.2508 71.771 60.6572ZM51.07 76.45C51.4806 76.23 51.9795 76.2567 52.3644 76.5191L55.6075 78.7302L59.0197 76.5049C59.4425 76.2291 59.9897 76.2347 60.4067 76.5191L63.6641 78.74L67.2611 76.4919C67.641 76.2544 68.1189 76.2384 68.5139 76.45L72.8928 78.7958L76.7525 76.48C77.1554 76.2383 77.6597 76.2429 78.0581 76.4919L81.6849 78.7586L85.3116 76.4919C85.7035 76.2469 86.1985 76.2382 86.5987 76.4691L90.5653 78.7575L93.8484 76.5191C94.2654 76.2347 94.8126 76.2291 95.2354 76.5049L99.3459 79.1856C99.6997 79.4164 99.913 79.8102 99.913 80.2326V98.4632C99.913 99.1536 99.3534 99.7132 98.663 99.7132H46.6562C46.2009 99.7132 45.4062 99.7132 45.4062 99.7132C45.4062 99.7132 44.9669 99.7132 44.5116 99.7132H26.9972C26.3069 99.7132 25.7472 99.1536 25.7472 98.4632C25.7472 97.7729 26.3069 97.2132 26.9972 97.2132H44.5116C44.8622 97.2132 45.4062 97.2132 45.4062 97.2132V80.2326C45.4062 79.7718 45.6597 79.3484 46.0659 79.1308L51.07 76.45ZM47.9062 80.9811V97.2132H97.413V80.9098L94.568 79.0543L91.3249 81.2654C90.9283 81.5358 90.4119 81.5552 89.9961 81.3154L85.9998 79.0098L82.3474 81.2926C81.942 81.546 81.4277 81.546 81.0224 81.2926L77.3823 79.0176L73.5708 81.3045C73.1936 81.5308 72.7252 81.5422 72.3374 81.3345L67.9718 78.9958L64.2969 81.2926C63.8763 81.5555 63.34 81.5448 62.9302 81.2654L59.6872 79.0543L56.2749 81.2796C55.8521 81.5554 55.305 81.5498 54.8879 81.2654L51.5824 79.0117L47.9062 80.9811ZM16.8113 93.817C16.8113 93.1267 17.371 92.567 18.0613 92.567H40.5798C41.2701 92.567 41.8298 93.1267 41.8298 93.817C41.8298 94.5074 41.2701 95.067 40.5798 95.067H18.0613C17.371 95.067 16.8113 94.5074 16.8113 93.817ZM105.455 93.817C105.455 93.1267 106.015 92.567 106.705 92.567H133.692C134.382 92.567 134.942 93.1267 134.942 93.817C134.942 94.5074 134.382 95.067 133.692 95.067H106.705C106.015 95.067 105.455 94.5074 105.455 93.817ZM0.369293 98.4632C0.369293 97.7729 0.928937 97.2132 1.61929 97.2132H23.7804C24.4707 97.2132 25.0304 97.7729 25.0304 98.4632C25.0304 99.1536 24.4707 99.7132 23.7804 99.7132H1.61929C0.928937 99.7132 0.369293 99.1536 0.369293 98.4632ZM101.166 98.4632C101.166 97.7729 101.726 97.2132 102.416 97.2132H108.135C108.662 97.2132 109.297 97.2132 109.297 97.2132C109.297 97.2132 109.931 97.2132 110.458 97.2132H146.381C147.071 97.2132 147.631 97.7729 147.631 98.4632C147.631 99.1536 147.071 99.7132 146.381 99.7132H110.458C109.931 99.7132 109.297 99.7132 109.297 99.7132C109.297 99.7132 108.662 99.7132 108.135 99.7132H102.416C101.726 99.7132 101.166 99.1536 101.166 98.4632Z" fill="#16162F"/>
<path fill-rule="evenodd" clip-rule="evenodd" d="M69.4047 19.7482C68.9212 19.7482 68.5353 20.1539 68.5428 20.6375C68.5428 21.2445 68.2834 21.5199 67.681 21.5199C66.4967 21.4919 66.4967 23.2881 67.681 23.271C68.261 23.271 68.5428 23.4308 68.5428 24.116C68.526 25.2999 70.3107 25.2999 70.294 24.116C70.294 23.4947 70.5847 23.271 71.1593 23.271C72.3436 23.299 72.3436 21.5031 71.1593 21.5199C70.3786 21.5199 70.294 21.0734 70.294 20.6375C70.2996 20.1433 69.899 19.7406 69.4047 19.7482Z" fill="#16162F"/>
<path fill-rule="evenodd" clip-rule="evenodd" d="M34.5085 58.3639C33.8448 58.3639 33.3152 58.9205 33.3256 59.5844C33.3256 60.4176 32.9695 60.7955 32.1427 60.7955C30.5173 60.7675 30.5173 63.2222 32.1427 63.1989C32.9388 63.1989 33.3256 63.4202 33.3256 64.3584C33.3032 65.9835 35.752 65.9835 35.729 64.3584C35.729 63.5056 36.128 63.1989 36.9166 63.1989C38.542 63.2269 38.542 60.7723 36.9166 60.7955C35.8451 60.7955 35.729 60.1823 35.729 59.5844C35.7374 58.9059 35.1869 58.3533 34.5085 58.3639Z" fill="#16162F"/>
<path fill-rule="evenodd" clip-rule="evenodd" d="M33.5356 5.81457C33.052 5.81457 32.6661 6.22017 32.6737 6.7037C32.6737 7.31078 32.4143 7.58617 31.8118 7.58617C30.6275 7.55815 30.6275 9.35406 31.8118 9.33725C32.3919 9.33725 32.6737 9.49703 32.6737 10.1823C32.6569 11.3662 34.4416 11.3662 34.4248 10.1823C34.4248 9.56091 34.7155 9.33725 35.2902 9.33725C36.4744 9.36526 36.4744 7.56936 35.2902 7.58617C34.5094 7.58617 34.4248 7.13961 34.4248 6.7037C34.4304 6.20952 34.0299 5.80672 33.5356 5.81457Z" fill="#16162F"/>
<path fill-rule="evenodd" clip-rule="evenodd" d="M85.3112 0.704184C84.9468 0.709787 84.656 1.00993 84.6617 1.37428C84.6617 1.83173 84.4662 2.03925 84.0123 2.03925C83.12 2.02525 83.12 3.37148 84.0123 3.35859C84.4494 3.35859 84.6617 3.47915 84.6617 3.99518C84.6477 4.88745 85.9938 4.88745 85.9812 3.99518C85.9812 3.52706 86.2003 3.35859 86.6332 3.35859C87.5256 3.38661 87.5256 2.02651 86.6332 2.03925C86.0449 2.03925 85.9812 1.70262 85.9812 1.37428C85.9868 1.00186 85.6836 0.698357 85.3112 0.704184Z" fill="#16162F"/>
<path fill-rule="evenodd" clip-rule="evenodd" d="M111.538 32.4659C111.054 32.4659 110.668 32.8717 110.676 33.3552C110.676 33.9623 110.417 34.2377 109.814 34.2377C108.63 34.2097 108.63 36.0056 109.814 35.9888C110.394 35.9888 110.676 36.1485 110.676 36.8335C110.659 38.0176 112.444 38.0176 112.427 36.8335C112.427 36.2124 112.718 35.9888 113.292 35.9888C114.477 36.0168 114.477 34.2206 113.292 34.2377C112.512 34.2377 112.427 33.7909 112.427 33.3552C112.433 32.8611 112.032 32.4581 111.538 32.4659Z" fill="#0A855C"/>
<path fill-rule="evenodd" clip-rule="evenodd" d="M25.1499 40.9689C24.6663 40.9689 24.2804 41.3746 24.288 41.8582C24.288 42.4652 24.0286 42.7406 23.4261 42.7406C22.2419 42.7126 22.2419 44.5085 23.4261 44.4917C24.0062 44.4917 24.288 44.6514 24.288 45.3364C24.2712 46.5206 26.0559 46.5206 26.0392 45.3364C26.0392 44.7153 26.3299 44.4917 26.9045 44.4917C28.0887 44.5197 28.0887 42.7235 26.9045 42.7406C26.1237 42.7406 26.0392 42.2938 26.0392 41.8582C26.0448 41.364 25.6442 40.961 25.1499 40.9689Z" fill="#0A855C"/>
<path fill-rule="evenodd" clip-rule="evenodd" d="M106.935 58.3634C106.57 58.3634 106.279 58.6689 106.285 59.0331C106.285 59.4906 106.09 59.6981 105.636 59.6981C104.743 59.6701 104.743 61.0302 105.636 61.0176C106.073 61.0176 106.285 61.1382 106.285 61.6542C106.271 62.5465 107.617 62.5465 107.605 61.6542C107.605 61.1861 107.824 61.0176 108.257 61.0176C109.149 61.0456 109.149 59.6852 108.257 59.6981C107.668 59.6981 107.605 59.3615 107.605 59.0331C107.61 58.6608 107.307 58.3575 106.935 58.3634Z" fill="#0A855C"/>
<path fill-rule="evenodd" clip-rule="evenodd" d="M102.324 16.4396C101.84 16.4396 101.454 16.8452 101.462 17.3287C101.462 17.9358 101.202 18.2112 100.6 18.2112C99.4156 18.1832 99.4156 19.9791 100.6 19.9623C101.18 19.9623 101.462 20.122 101.462 20.8073C101.445 21.9912 103.23 21.9912 103.213 20.8073C103.213 20.1859 103.504 19.9623 104.078 19.9623C105.263 19.9903 105.263 18.1944 104.078 18.2112C103.298 18.2112 103.213 17.7646 103.213 17.3287C103.219 16.8345 102.818 16.4317 102.324 16.4396Z" fill="#16162F"/>
<path fill-rule="evenodd" clip-rule="evenodd" d="M57.5634 1.22372C57.1897 1.22932 56.8914 1.53717 56.8973 1.91092C56.8973 2.37999 56.6967 2.59299 56.2312 2.59299C55.3159 2.59299 55.3159 3.95952 56.2312 3.94635C56.6795 3.94635 56.8973 4.0696 56.8973 4.59935C56.8861 5.51431 58.2637 5.51431 58.2507 4.59935C58.2507 4.11918 58.4756 3.94635 58.9195 3.94635C59.8347 3.94635 59.8347 2.57982 58.9195 2.59299C58.3161 2.59299 58.2507 2.24771 58.2507 1.91092C58.2535 1.52888 57.9454 1.21772 57.5634 1.22372Z" fill="#0A855C"/>
<path fill-rule="evenodd" clip-rule="evenodd" d="M59.632 46.2248C61.0138 46.2248 62.134 45.1046 62.134 43.7228C62.134 42.3409 61.0138 41.2207 59.632 41.2207C58.2501 41.2207 57.1299 42.3409 57.1299 43.7228C57.1299 45.1046 58.2501 46.2248 59.632 46.2248ZM84.1164 46.225C85.4983 46.225 86.6185 45.1048 86.6185 43.7229C86.6185 42.3411 85.4983 41.2209 84.1164 41.2209C82.7346 41.2209 81.6144 42.3411 81.6144 43.7229C81.6144 45.1048 82.7346 46.225 84.1164 46.225Z" fill="#16162F"/>
</svg>
