<svg width="265" height="73" viewBox="0 0 265 73" fill="none" xmlns="http://www.w3.org/2000/svg">
<path fill-rule="evenodd" clip-rule="evenodd" d="M13.1206 25.332L0.565989 21.9875C0 25.1262 0.360175 29.3968 0 36.7547C0 57.4905 0.823256 55.6896 13.1721 63.2533V48.2803C12.709 45.4503 12.8119 39.6361 12.8119 37.0634C12.9663 34.0277 13.0177 30.9919 13.0692 27.9047C13.0692 27.2358 13.0177 26.2067 13.1206 25.332ZM26.6529 2.58957C24.1832 3.87591 21.0959 5.77969 16.4651 8.14655C15.2817 8.8669 14.1497 9.48434 13.1206 10.1018L9.05582 12.5715L26.6529 17.3053V56.4099V70.8684C32.3643 73.544 34.8855 73.1838 39.259 70.8684V56.2041V17.0995V2.64102C33.5477 -0.0345616 31.0779 0.274159 26.6529 2.58957ZM52.7398 10.2047V25.2291C53.2544 28.0076 53.1 33.8733 53.1 36.3945C52.9457 39.4817 52.8942 42.5175 52.8942 45.5532C52.8942 46.2736 52.8942 47.3027 52.8428 48.1774V63.3562C68.4332 54.146 65.0372 54.0945 65.9634 36.7547C65.9634 15.9675 65.1401 17.7684 52.7398 10.2047Z" fill="#0A855C"/>
<path d="M169.488 35.807V31.1761H153.249V51.8605H169.488V47.2914H158.374V43.6485H168.5V39.0177H158.374V35.807H169.488ZM187.641 51.8605L182.022 43.8955L187.332 36.3009H182.022L179.367 40.1291L176.712 36.3009H171.278L176.65 43.9572L170.97 51.8605H176.341L179.243 47.7236L182.207 51.8605H187.641ZM199.804 35.9305C197.767 35.9305 195.976 36.8566 194.741 38.2767V36.3009H189.616V57.047H194.741V49.8846C195.976 51.3665 197.767 52.2309 199.804 52.2309C204.003 52.2309 206.966 48.835 206.966 44.0807C206.966 39.3264 204.003 35.9305 199.804 35.9305ZM198.261 47.9706C196.161 47.9706 194.741 46.3652 194.741 44.0807C194.741 41.7962 196.161 40.1908 198.261 40.1908C200.483 40.1908 202.027 41.7962 202.027 44.0807C202.027 46.3652 200.483 47.9706 198.261 47.9706ZM217.093 48.0941C215.487 48.0941 214.252 47.0444 213.758 45.5008H224.872C224.872 39.5734 221.97 35.9305 217.031 35.9305C212.338 35.9305 208.881 39.3264 208.881 44.0189C208.881 48.835 212.462 52.2309 217.278 52.2309C219.562 52.2309 222.279 51.243 223.637 49.8229L220.612 46.7974C219.686 47.6001 218.327 48.0941 217.093 48.0941ZM217.093 40.0673C218.636 40.0673 219.686 40.9935 220.118 42.4136H213.82C214.314 40.9317 215.549 40.0673 217.093 40.0673ZM232.59 39.2029V36.3009H227.466V51.8605H232.59V44.8216V44.8834C232.59 41.9814 234.504 40.1908 237.715 40.1908V35.9305C235.431 35.9305 233.578 37.1653 232.59 39.2029ZM248.644 47.4766C248.397 47.7853 247.779 47.9706 247.224 47.9706C246.421 47.9706 245.804 47.2914 245.804 46.3035V40.376H249.014V36.3009H245.804V32.0406H240.926V36.3009H238.888V40.376H240.926V47.2296C240.926 50.1316 242.963 52.2309 245.927 52.2309C247.224 52.2309 248.767 51.6135 249.693 50.7491L248.644 47.4766ZM258.214 52.2309C262.228 52.2309 264.759 50.1934 264.759 47.1062C264.759 43.525 261.672 42.6606 258.893 41.9814C257.041 41.4874 256.424 41.3639 256.424 40.623C256.424 40.1908 257.041 39.7586 257.967 39.7586C259.387 39.7586 261.116 40.4378 262.475 41.3022L264.327 37.968C262.536 36.7949 260.313 35.9305 257.967 35.9305C254.139 35.9305 251.731 38.1532 251.731 41.1787C251.731 44.5129 254.51 45.3156 257.535 45.9948C259.079 46.3652 260.128 46.6739 260.128 47.4149C260.128 48.0323 259.449 48.4028 258.338 48.4028C256.485 48.4028 254.51 47.6001 253.089 46.6122L250.99 49.8846C252.904 51.3665 255.621 52.2309 258.214 52.2309Z" fill="#000007"/>
<path fill-rule="evenodd" clip-rule="evenodd" d="M101.507 52.2309C107.558 52.2309 112.683 47.3531 112.683 41.5492C112.683 35.6835 107.558 30.8674 101.507 30.8674C95.5181 30.8674 90.4551 35.6835 90.4551 41.5492C90.4551 47.3531 95.5181 52.2309 101.507 52.2309ZM133.367 44.0189C133.367 48.835 136.887 52.2309 141.703 52.2309C144.049 52.2309 146.704 51.243 148.124 49.8229L145.099 46.7974C144.173 47.6001 142.752 48.0941 141.579 48.0941C139.912 48.0941 138.677 47.0444 138.183 45.5008H149.297C149.297 39.5734 146.395 35.9305 141.456 35.9305C136.763 35.9305 133.367 39.3264 133.367 44.0189ZM144.605 42.4136H138.245C138.801 40.9317 140.036 40.0673 141.579 40.0673C143.123 40.0673 144.173 40.9935 144.605 42.4136ZM115.4 36.3009V51.8605H120.525V42.7841V42.9076C120.525 41.3639 121.698 40.1908 123.303 40.1908C124.847 40.1908 125.896 41.4257 125.896 43.0928V51.8605H130.774V41.9814C130.774 38.462 128.428 35.9305 125.094 35.9305C123.118 35.9305 121.451 36.7949 120.525 38.0915V36.3009H115.4ZM107.373 41.5492C107.373 44.8216 104.718 47.5384 101.507 47.5384C98.3583 47.5384 95.7033 44.8216 95.7033 41.5492C95.7033 38.2767 98.3583 35.4982 101.507 35.4982C104.718 35.4982 107.373 38.2767 107.373 41.5492Z" fill="#0A855C"/>
</svg>
