<svg width="20" height="20" viewBox="0 0 20 20" fill="none" xmlns="http://www.w3.org/2000/svg">
<g clip-path="url(#clip0_10501_2948)">
<path d="M17.639 10.6792C18.9409 10.6792 20 9.62004 20 8.31822V7.19053H18.5037C18.0445 7.19053 17.6005 7.32451 17.22 7.57231C17.1777 7.33865 17.1243 7.10741 17.0594 6.87925L17.5099 6.61996C18.0561 6.30466 18.4467 5.79554 18.6099 5.18639C18.7732 4.57723 18.6894 3.94097 18.3741 3.39482L17.8102 2.41821L16.5144 3.16635C16.0031 3.46157 15.6236 3.93561 15.4459 4.50114C15.271 5.05788 15.3059 5.65543 15.5441 6.18482L15.8099 6.81781C16.0462 7.47911 16.1661 8.17631 16.1661 8.89046C16.1661 12.2904 13.4001 15.0564 10.0002 15.0564C6.60021 15.0564 3.83419 12.2904 3.83419 8.89046C3.83419 8.17459 3.95399 7.47735 4.19011 6.81785L4.45592 6.18482C4.69411 5.65539 4.72899 5.05788 4.55408 4.50114C4.37639 3.93561 3.99691 3.46157 3.48557 3.16635L2.18972 2.41821L1.62591 3.39482C1.31057 3.94097 1.22683 4.57723 1.39002 5.18639C1.55322 5.79554 1.94391 6.30466 2.49076 6.62035L2.94047 6.87917C2.87559 7.10721 2.82216 7.33841 2.77993 7.57227C2.3994 7.32451 1.95539 7.19053 1.49627 7.19053H0V8.31822C0 9.62008 1.05914 10.6792 2.36178 10.6792L2.88305 10.6785C2.94129 10.9103 3.01066 11.1377 3.09043 11.3602C2.63591 11.3349 2.18355 11.4404 1.78559 11.6702L0.489825 12.4183L1.05367 13.3949C1.49045 14.1515 2.28538 14.5748 3.10214 14.5748C3.50256 14.5748 3.9084 14.473 4.27956 14.2587L4.73446 13.9952C4.89989 14.1658 5.07351 14.3284 5.25472 14.4824C4.84805 14.6875 4.50846 15.0057 4.27804 15.4048L3.5299 16.7005L4.5065 17.2644C4.87032 17.4744 5.27401 17.5818 5.68318 17.5818C5.88825 17.5818 6.09472 17.5548 6.29807 17.5003C6.90723 17.3371 7.41635 16.9464 7.73208 16.3995L7.99148 15.9488C8.63009 16.1308 9.30393 16.2283 10.0002 16.2283C10.6963 16.2283 11.3701 16.1308 12.0086 15.9489L12.2684 16.4002C12.7052 17.1569 13.5004 17.5803 14.317 17.5803C14.7173 17.5803 15.1227 17.4785 15.4935 17.2644L16.4701 16.7006L15.722 15.4048C15.4917 15.0058 15.1521 14.6877 14.7455 14.4825C14.9267 14.3285 15.1003 14.1659 15.2658 13.9953L15.7212 14.2592C16.0921 14.4733 16.4974 14.575 16.8977 14.575C17.7143 14.575 18.5096 14.1515 18.9464 13.395L19.5102 12.4184L18.2144 11.6703C17.8165 11.4406 17.3643 11.335 16.9098 11.3602C16.9896 11.1378 17.0589 10.9103 17.1172 10.6786L17.639 10.6792Z" fill="#36CA98"/>
<path d="M10 3.92236C7.28593 3.92236 5.07789 6.1304 5.07789 8.84448C5.07789 11.5585 7.28593 13.7666 10 13.7666C12.7141 13.7666 14.9221 11.5585 14.9221 8.84448C14.9221 6.1304 12.7141 3.92236 10 3.92236V3.92236ZM10.5858 10.7976H9.41397V8.75846C9.17121 8.866 8.90282 8.92576 8.62064 8.92576V7.75393C9.05808 7.75393 9.41397 7.39805 9.41397 6.9606V6.89143H10.5858V10.7976Z" fill="#36CA98"/>
</g>
<defs>
<clipPath id="clip0_10501_2948">
<rect width="20" height="20" fill="white"/>
</clipPath>
</defs>
</svg>
