<svg width="130" height="102" viewBox="0 0 130 102" fill="none" xmlns="http://www.w3.org/2000/svg">
<path d="M98.9082 78.4447H96.3757C95.3914 73.1932 90.7751 69.2057 85.2422 69.2057H75.8916C75.5266 68.7121 75.1212 68.2431 74.6722 67.8056L56.4248 49.5593C54.2702 47.3338 51.3808 46.1083 48.2867 46.1083H22.6607V45.811C22.6607 43.4277 20.7219 41.4889 18.3386 41.4889H4.32212C1.93882 41.4889 0 43.4277 0 45.811V82.9249C0 85.3082 1.93882 87.247 4.32212 87.247H18.3386C20.7219 87.247 22.6607 85.3082 22.6607 82.9249V82.6276H25.9815C27.8905 82.6276 29.6854 83.371 31.0356 84.7212L42.7485 96.4342C45.7606 99.4463 49.7663 101.105 54.0265 101.105H81.7773C82.9322 101.105 83.8686 100.169 83.8686 99.014C83.8686 97.8588 82.9322 96.9227 81.7773 96.9227H54.0265C50.8836 96.9227 47.9284 95.6986 45.706 93.4762L33.993 81.7632C31.8529 79.6234 29.0075 78.4449 25.9815 78.4449H22.6607V50.2912H48.2861C50.2414 50.2912 52.0673 51.0678 53.4281 52.4779C53.4367 52.4869 53.4454 52.4958 53.4543 52.5047L71.7243 70.7736C71.7313 70.7803 71.7382 70.7873 71.7452 70.794C73.1425 72.1525 73.9118 73.972 73.9118 75.9169C73.9118 79.8581 70.7054 83.0646 66.7642 83.0646C64.8189 83.0646 62.9997 82.295 61.6409 80.898C61.6342 80.891 61.6273 80.884 61.6203 80.877L49.7649 69.0227C48.9478 68.2063 47.6239 68.206 46.8071 69.023C45.9904 69.8398 45.9907 71.164 46.8071 71.9805L58.6528 83.825C60.8044 86.0321 63.6843 87.2473 66.7639 87.2473C70.5015 87.2473 73.8209 85.4273 75.8858 82.6279H98.9079C102.849 82.6279 106.14 85.7438 106.245 89.5734C106.298 91.5228 105.58 93.3646 104.224 94.7594C102.866 96.1548 101.046 96.9233 99.1 96.9233H91.5363C90.3813 96.9233 89.445 97.8593 89.445 99.0146C89.445 100.17 90.3813 101.106 91.5363 101.106H99.1C102.185 101.106 105.07 99.8879 107.221 97.6761C109.372 95.4652 110.51 92.5468 110.426 89.4588C110.26 83.3853 105.093 78.4447 98.9082 78.4447ZM4.18269 82.9249V45.811C4.18269 45.7343 4.24516 45.6716 4.32212 45.6716H9.23901V83.0643H4.32212C4.24516 83.0643 4.18269 83.0016 4.18269 82.9249ZM18.478 82.9249C18.478 83.0016 18.4156 83.0643 18.3386 83.0643H13.4217V45.6716H18.3386C18.4156 45.6716 18.478 45.7343 18.478 45.811V82.9249ZM77.8098 73.3886H85.2419C88.4556 73.3886 91.1802 75.521 92.0767 78.4449H77.8065C77.9928 77.6313 78.0943 76.7861 78.0943 75.9169C78.0943 75.0542 77.9955 74.2082 77.8098 73.3886Z" fill="#0A855C"/>
<path d="M84.1505 9.60105L78.4196 8.76813L75.8568 3.57518C75.0102 1.86027 73.2964 0.7948 71.3838 0.7948C69.4712 0.7948 67.7574 1.85999 66.9108 3.57518L64.348 8.76813L58.6171 9.60105C56.7243 9.87599 55.1814 11.1768 54.5906 12.996C53.9997 14.8149 54.4832 16.7741 55.8526 18.1089L59.9996 22.1514L59.0206 27.8593C58.6971 29.7443 59.4575 31.6135 61.0049 32.7378C61.879 33.373 62.9021 33.6959 63.9319 33.6959C64.7247 33.6959 65.5216 33.5043 66.2578 33.1175L71.3838 30.4225L76.5096 33.1173C78.2027 34.0076 80.2154 33.8618 81.7625 32.7378C83.3098 31.6135 84.0702 29.7443 83.7467 27.8593L82.7677 22.1514L86.9147 18.1092C88.2844 16.7741 88.7679 14.8152 88.177 12.996C87.5862 11.1771 86.0433 9.87627 84.1505 9.60105ZM83.9955 15.1141L79.6064 19.3925C78.7721 20.2059 78.3915 21.377 78.5886 22.5253L79.6245 28.5662C79.6982 28.9956 79.4556 29.2441 79.3041 29.3537C79.153 29.4638 78.8413 29.6172 78.4562 29.415L73.0304 26.5624C71.9998 26.0212 70.7684 26.0209 69.7367 26.5627L64.3114 29.415C63.9261 29.6175 63.6146 29.4638 63.4634 29.3537C63.312 29.2441 63.0694 28.9956 63.1431 28.5662L64.179 22.5253C64.3758 21.377 63.9955 20.2059 63.1612 19.3925L58.7721 15.1138C58.4604 14.8099 58.5106 14.4664 58.5683 14.2885C58.626 14.1105 58.7875 13.803 59.2186 13.7402L65.2832 12.8591C66.4365 12.6918 67.4331 11.9682 67.9492 10.9228L70.6619 5.42644C70.8545 5.03605 71.197 4.97777 71.3841 4.97777C71.5709 4.97777 71.9133 5.03605 72.1063 5.42644L74.8189 10.9228C75.3348 11.9682 76.3314 12.6921 77.4838 12.8588L83.5493 13.7402C83.9804 13.803 84.1416 14.1105 84.1993 14.2885C84.257 14.4664 84.3072 14.8099 83.9955 15.1141Z" fill="#0A855C"/>
<path d="M42.5759 9.60104L36.8447 8.76813L34.2819 3.57518C33.4353 1.86027 31.7215 0.7948 29.8089 0.7948C27.8963 0.7948 26.1825 1.85999 25.3359 3.57518L22.773 8.76813L17.0422 9.60104C15.1494 9.87599 13.6065 11.1768 13.0154 12.996C12.4245 14.8149 12.908 16.7741 14.2774 18.1089L18.4244 22.1514L17.4454 27.8593C17.1219 29.7443 17.8823 31.6134 19.4297 32.7378C20.3038 33.373 21.3269 33.6959 22.3567 33.6959C23.1495 33.6959 23.9464 33.5043 24.6826 33.1175L29.8083 30.4228L34.9341 33.1175C36.6272 34.0079 38.6397 33.8621 40.187 32.738C41.7343 31.6137 42.4947 29.7446 42.1712 27.8596L41.1922 22.1516L45.3392 18.1095C46.7089 16.7744 47.1924 14.8152 46.6016 12.9963C46.0112 11.1771 44.4687 9.87627 42.5759 9.60104ZM42.4205 15.1141L38.0315 19.3925C37.1972 20.2058 36.8166 21.377 37.0137 22.5253L38.0496 28.5662C38.1232 28.9956 37.8804 29.2441 37.7292 29.3537C37.5781 29.4638 37.2663 29.6172 36.8813 29.415L31.4555 26.5624C30.4249 26.0212 29.1935 26.0209 28.1617 26.5627L22.7368 29.415C22.3514 29.6175 22.0399 29.4638 21.8888 29.3537C21.7377 29.2441 21.4948 28.9956 21.5684 28.5662L22.6043 22.5253C22.8015 21.377 22.4209 20.2058 21.5865 19.3925L17.1975 15.1138C16.8858 14.8099 16.9359 14.4664 16.9939 14.2885C17.0517 14.1105 17.2131 13.803 17.6442 13.7402L23.7088 12.8591C24.8624 12.6918 25.859 11.9679 26.3749 10.9228L29.0872 5.42644C29.2799 5.03605 29.6223 4.97777 29.8094 4.97777C29.9965 4.97777 30.3387 5.03605 30.5317 5.42644L33.2443 10.9228C33.7601 11.9682 34.7567 12.6921 35.9092 12.8588L41.9749 13.7402C42.4058 13.803 42.5672 14.1105 42.6249 14.2885C42.6821 14.4664 42.7326 14.8099 42.4205 15.1141Z" fill="#0A855C"/>
<path d="M125.726 9.60104L119.995 8.76813L117.432 3.57518C116.586 1.86027 114.872 0.7948 112.959 0.7948C111.047 0.7948 109.333 1.85999 108.486 3.57518L105.923 8.76813L100.192 9.60104C98.2995 9.87599 96.7569 11.1768 96.1658 12.996C95.5749 14.8146 96.0584 16.7741 97.4278 18.1089L101.575 22.1514L100.596 27.8593C100.273 29.7443 101.033 31.6137 102.58 32.7378C104.128 33.8618 106.14 34.0068 107.833 33.1173L112.959 30.4225L118.085 33.1173C118.821 33.5046 119.618 33.6956 120.411 33.6956C121.44 33.6953 122.463 33.3727 123.338 32.7375C124.885 31.6132 125.645 29.7441 125.322 27.8591L124.343 22.1511L128.49 18.1089C129.86 16.7738 130.343 14.8149 129.752 12.9957C129.162 11.1771 127.619 9.87627 125.726 9.60104ZM125.571 15.1141L121.182 19.3925C120.348 20.2056 119.967 21.3764 120.164 22.5253L121.2 28.5662C121.273 28.9956 121.03 29.2441 120.879 29.3537C120.728 29.4638 120.416 29.6172 120.031 29.415L114.606 26.5624C113.575 26.0212 112.344 26.0209 111.312 26.5627L105.887 29.415C105.501 29.6175 105.19 29.4638 105.038 29.3537C104.887 29.2441 104.644 28.9954 104.718 28.5662L105.754 22.5253C105.951 21.377 105.571 20.2058 104.736 19.3925L100.347 15.1138C100.036 14.8099 100.086 14.4664 100.144 14.2884C100.202 14.1105 100.363 13.803 100.794 13.7402L106.858 12.8591C108.012 12.6918 109.009 11.9682 109.524 10.9228L112.237 5.42644C112.429 5.03605 112.772 4.97777 112.959 4.97777C113.146 4.97777 113.488 5.03605 113.681 5.42644L116.394 10.9225C116.909 11.9679 117.906 12.6921 119.059 12.8588L125.124 13.7402C125.555 13.803 125.716 14.1105 125.774 14.2884C125.832 14.4664 125.883 14.8099 125.571 15.1141Z" fill="#0A855C"/>
</svg>
