<svg width="100" height="100" viewBox="0 0 100 100" fill="none" xmlns="http://www.w3.org/2000/svg">
  <path d="M15.7748 76.5392C15.651 76.5374 15.5282 76.5603 15.4133 76.6064C15.2985 76.6526 15.194 76.7211 15.1059 76.8079C15.0177 76.8948 14.9478 76.9984 14.9 77.1125C14.8522 77.2267 14.8276 77.3492 14.8276 77.473C14.8276 77.5967 14.8522 77.7193 14.9 77.8334C14.9478 77.9476 15.0177 78.0511 15.1059 78.138C15.194 78.2249 15.2985 78.2934 15.4133 78.3395C15.5282 78.3857 15.651 78.4085 15.7748 78.4068H90.1374C90.2612 78.4085 90.384 78.3857 90.4989 78.3395C90.6137 78.2934 90.7182 78.2249 90.8063 78.138C90.8944 78.0511 90.9644 77.9476 91.0122 77.8334C91.06 77.7193 91.0845 77.5967 91.0845 77.473C91.0845 77.3492 91.06 77.2267 91.0122 77.1125C90.9644 76.9984 90.8944 76.8948 90.8063 76.8079C90.7182 76.7211 90.6137 76.6526 90.4989 76.6064C90.384 76.5603 90.2612 76.5374 90.1374 76.5392H15.7748Z" fill="#16162F"/>
  <path d="M95.1971 76.5392C95.0734 76.5374 94.9505 76.5603 94.8357 76.6064C94.7209 76.6526 94.6163 76.7211 94.5282 76.8079C94.4401 76.8948 94.3701 76.9984 94.3224 77.1125C94.2746 77.2267 94.25 77.3492 94.25 77.473C94.25 77.5967 94.2746 77.7193 94.3224 77.8334C94.3701 77.9476 94.4401 78.0511 94.5282 78.138C94.6163 78.2249 94.7209 78.2934 94.8357 78.3395C94.9505 78.3857 95.0734 78.4085 95.1971 78.4068H99.0528C99.1765 78.4085 99.2994 78.3857 99.4142 78.3395C99.529 78.2934 99.6335 78.2249 99.7217 78.138C99.8098 78.0511 99.8798 77.9476 99.9275 77.8334C99.9753 77.7193 99.9999 77.5967 99.9999 77.473C99.9999 77.3492 99.9753 77.2267 99.9275 77.1125C99.8798 76.9984 99.8098 76.8948 99.7217 76.8079C99.6335 76.7211 99.529 76.6526 99.4142 76.6064C99.2994 76.5603 99.1765 76.5374 99.0528 76.5392H95.1971Z" fill="#16162F"/>
  <path d="M0.94712 76.5392C0.823377 76.5374 0.700521 76.5603 0.585691 76.6064C0.470861 76.6526 0.366347 76.7211 0.278223 76.8079C0.190099 76.8948 0.120122 76.9984 0.0723589 77.1125C0.0245961 77.2267 0 77.3492 0 77.473C0 77.5967 0.0245961 77.7193 0.0723589 77.8334C0.120122 77.9476 0.190099 78.0511 0.278223 78.138C0.366347 78.2249 0.470861 78.2934 0.585691 78.3395C0.700521 78.3857 0.823377 78.4085 0.94712 78.4068H11.5985C11.7222 78.4085 11.8451 78.3857 11.9599 78.3395C12.0748 78.2934 12.1793 78.2249 12.2674 78.138C12.3555 78.0511 12.4255 77.9476 12.4733 77.8334C12.521 77.7193 12.5456 77.5967 12.5456 77.473C12.5456 77.3492 12.521 77.2267 12.4733 77.1125C12.4255 76.9984 12.3555 76.8948 12.2674 76.8079C12.1793 76.7211 12.0748 76.6526 11.9599 76.6064C11.8451 76.5603 11.7222 76.5374 11.5985 76.5392H0.94712Z" fill="#16162F"/>
  <path fill-rule="evenodd" clip-rule="evenodd" d="M38.3001 82.1079C38.1764 82.1061 38.0536 82.129 37.9387 82.1751C37.8239 82.2212 37.7194 82.2898 37.6312 82.3766C37.5431 82.4635 37.4731 82.5671 37.4254 82.6812C37.3776 82.7954 37.353 82.9179 37.353 83.0417C37.353 83.1654 37.3776 83.2879 37.4254 83.4021C37.4731 83.5163 37.5431 83.6198 37.6312 83.7067C37.7194 83.7936 37.8239 83.8621 37.9387 83.9082C38.0536 83.9544 38.1764 83.9772 38.3001 83.9755H48.1271C48.2509 83.9772 48.3737 83.9544 48.4886 83.9082C48.6034 83.8621 48.7079 83.7936 48.796 83.7067C48.8842 83.6198 48.9541 83.5163 49.0019 83.4021C49.0497 83.2879 49.0743 83.1654 49.0743 83.0417C49.0743 82.9179 49.0497 82.7954 49.0019 82.6812C48.9541 82.5671 48.8842 82.4635 48.796 82.3766C48.7079 82.2898 48.6034 82.2212 48.4886 82.1751C48.3737 82.129 48.2509 82.1061 48.1271 82.1079H38.3001Z" fill="#0A855C"/>
  <path fill-rule="evenodd" clip-rule="evenodd" d="M53.2411 82.1079C53.1173 82.1061 52.9945 82.129 52.8796 82.1751C52.7648 82.2212 52.6603 82.2898 52.5722 82.3766C52.484 82.4635 52.4141 82.5671 52.3663 82.6812C52.3185 82.7954 52.2939 82.9179 52.2939 83.0417C52.2939 83.1654 52.3185 83.2879 52.3663 83.4021C52.4141 83.5163 52.484 83.6198 52.5722 83.7067C52.6603 83.7936 52.7648 83.8621 52.8796 83.9082C52.9945 83.9544 53.1173 83.9772 53.2411 83.9755H63.0681C63.1918 83.9772 63.3146 83.9544 63.4295 83.9082C63.5443 83.8621 63.6488 83.7936 63.7369 83.7067C63.8251 83.6198 63.895 83.5163 63.9428 83.4021C63.9906 83.2879 64.0152 83.1654 64.0152 83.0417C64.0152 82.9179 63.9906 82.7954 63.9428 82.6812C63.895 82.5671 63.8251 82.4635 63.7369 82.3766C63.6488 82.2898 63.5443 82.2212 63.4295 82.1751C63.3146 82.129 63.1918 82.1061 63.0681 82.1079H53.2411Z" fill="#0A855C"/>
  <path fill-rule="evenodd" clip-rule="evenodd" d="M45.6136 85.4314C45.4899 85.4296 45.367 85.4525 45.2522 85.4987C45.1374 85.5448 45.0328 85.6133 44.9447 85.7002C44.8566 85.7871 44.7866 85.8906 44.7389 86.0048C44.6911 86.1189 44.6665 86.2415 44.6665 86.3652C44.6665 86.489 44.6911 86.6115 44.7389 86.7257C44.7866 86.8398 44.8566 86.9434 44.9447 87.0302C45.0328 87.1171 45.1374 87.1856 45.2522 87.2318C45.367 87.2779 45.4899 87.3008 45.6136 87.299H55.4406C55.5644 87.3008 55.6872 87.2779 55.802 87.2318C55.9169 87.1856 56.0214 87.1171 56.1095 87.0302C56.1976 86.9434 56.2676 86.8398 56.3154 86.7257C56.3631 86.6115 56.3877 86.489 56.3877 86.3652C56.3877 86.2415 56.3631 86.1189 56.3154 86.0048C56.2676 85.8906 56.1976 85.7871 56.1095 85.7002C56.0214 85.6133 55.9169 85.5448 55.802 85.4987C55.6872 85.4525 55.5644 85.4296 55.4406 85.4314H45.6136Z" fill="#0A855C"/>
  <path fill-rule="evenodd" clip-rule="evenodd" d="M56.0895 49.4047C56.664 50.414 57.948 50.7665 58.9573 50.192L74.3279 41.4434C75.3372 40.8689 75.6898 39.5849 75.1153 38.5755L67.7771 25.6832C67.2026 24.6738 65.9187 24.3213 64.9093 24.8958L49.5388 33.6445C48.5294 34.219 48.1769 35.5029 48.7514 36.5123L50.227 39.1048C50.4882 39.5636 50.3279 40.1472 49.8691 40.4084C49.4103 40.6695 48.8267 40.5093 48.5656 40.0505L47.09 37.458C45.9932 35.531 46.6661 33.0798 48.5931 31.983L63.9637 23.2344C65.8906 22.1376 68.3418 22.8106 69.4386 24.7375L76.7767 37.6299C77.8735 39.5568 77.2005 42.008 75.2736 43.1048L59.903 51.8535C57.976 52.9503 55.5248 52.2773 54.4281 50.3503L53.0194 47.8755C52.7583 47.4167 52.9185 46.8331 53.3773 46.5719C53.8361 46.3108 54.4197 46.471 54.6809 46.9298L56.0895 49.4047ZM38.9252 45.0453C38.1083 44.2199 36.7768 44.2129 35.9513 45.0299L23.3806 57.4706C22.5551 58.2875 22.5482 59.619 23.3652 60.4445L33.8 70.9884C34.617 71.8139 35.9484 71.8208 36.7739 71.0039L49.3446 58.5632C50.1701 57.7462 50.1771 56.4148 49.3601 55.5893L47.2618 53.469C46.8904 53.0938 46.8936 52.4886 47.2688 52.1172C47.644 51.7459 48.2492 51.749 48.6206 52.1243L50.7189 54.2445C52.2785 55.8205 52.2653 58.3624 50.6894 59.922L38.1187 72.3627C36.5427 73.9223 34.0008 73.9091 32.4412 72.3332L22.0063 61.7892C20.4467 60.2133 20.4599 57.6714 22.0359 56.1118L34.6066 43.6711C36.1825 42.1114 38.7244 42.1247 40.284 43.7006L42.2871 45.7246C42.6585 46.0998 42.6553 46.7051 42.2801 47.0764C41.9049 47.4477 41.2997 47.4446 40.9283 47.0694L38.9252 45.0453ZM38.2569 57.548L48.3469 47.1041L46.9721 45.7758L36.882 56.2197C36.5152 56.5994 36.5257 57.2045 36.9053 57.5713C37.285 57.9381 37.8901 57.9277 38.2569 57.548ZM62.7673 36.9584C63.0253 37.419 62.8611 38.0015 62.4005 38.2595L49.6603 45.3968L48.726 43.729L61.4662 36.5917C61.9267 36.3337 62.5093 36.4979 62.7673 36.9584ZM46.0176 24.0123C46.068 23.4868 45.6829 23.0199 45.1574 22.9695C44.6319 22.919 44.165 23.3041 44.1146 23.8296L43.4531 30.7198C43.4027 31.2453 43.7878 31.7122 44.3133 31.7627C44.8388 31.8131 45.3056 31.428 45.3561 30.9025L46.0176 24.0123ZM34.7779 26.5086C34.4411 26.1021 33.8385 26.0455 33.432 26.3822C33.0254 26.719 32.9688 27.3215 33.3056 27.7281L37.8256 33.1851C38.1623 33.5917 38.7649 33.6483 39.1714 33.3115C39.578 32.9748 39.6346 32.3722 39.2978 31.9657L34.7779 26.5086ZM28.8414 36.3643C28.3159 36.3138 27.849 36.6989 27.7985 37.2244C27.7481 37.7499 28.1332 38.2168 28.6587 38.2673L35.5489 38.9289C36.0744 38.9794 36.5413 38.5943 36.5918 38.0688C36.6422 37.5433 36.2571 37.0764 35.7316 37.0259L28.8414 36.3643ZM64.386 54.9947C63.8601 54.9491 63.3968 55.3385 63.3513 55.8645C63.3057 56.3904 63.6951 56.8537 64.2211 56.8993L71.2215 57.5056C71.7475 57.5511 72.2108 57.1617 72.2563 56.6358C72.3019 56.1098 71.9124 55.6466 71.3865 55.601L64.386 54.9947ZM62.2598 60.8769C61.9078 60.4835 61.3035 60.4499 60.9101 60.8019C60.5167 61.1539 60.4831 61.7582 60.8351 62.1516L65.5205 67.3882C65.8725 67.7816 66.4768 67.8152 66.8702 67.4632C67.2636 67.1112 67.2972 66.5069 66.9452 66.1135L62.2598 60.8769ZM56.6046 63.3709C56.6253 62.8434 56.2145 62.3989 55.687 62.3782C55.1595 62.3574 54.7151 62.7682 54.6943 63.2957L54.4187 70.2961C54.3979 70.8236 54.8087 71.2681 55.3362 71.2889C55.8637 71.3096 56.3082 70.8988 56.329 70.3713L56.6046 63.3709Z" fill="#16162F"/>
</svg>