<svg width="100" height="66" viewBox="0 0 100 66" fill="none" xmlns="http://www.w3.org/2000/svg">
  <path d="M15.7748 55.0392C15.651 55.0374 15.5282 55.0603 15.4133 55.1064C15.2985 55.1526 15.194 55.2211 15.1059 55.3079C15.0177 55.3948 14.9478 55.4984 14.9 55.6125C14.8522 55.7267 14.8276 55.8492 14.8276 55.973C14.8276 56.0967 14.8522 56.2193 14.9 56.3334C14.9478 56.4476 15.0177 56.5511 15.1059 56.638C15.194 56.7249 15.2985 56.7934 15.4133 56.8395C15.5282 56.8857 15.651 56.9085 15.7748 56.9068H90.1374C90.2612 56.9085 90.384 56.8857 90.4989 56.8395C90.6137 56.7934 90.7182 56.7249 90.8063 56.638C90.8944 56.5511 90.9644 56.4476 91.0122 56.3334C91.06 56.2193 91.0845 56.0967 91.0845 55.973C91.0845 55.8492 91.06 55.7267 91.0122 55.6125C90.9644 55.4984 90.8944 55.3948 90.8063 55.3079C90.7182 55.2211 90.6137 55.1526 90.4989 55.1064C90.384 55.0603 90.2612 55.0374 90.1374 55.0392H15.7748Z" fill="#16162F"/>
  <path d="M55.8185 1.90253L65.0148 11.0988C65.3239 11.4077 65.5235 11.8043 65.5945 12.2298H56.7708C55.6202 12.2298 54.6875 11.2971 54.6875 10.1465V1.32285C55.1129 1.39378 55.5095 1.59347 55.8185 1.90253Z" fill="#16162F"/>
  <path fill-rule="evenodd" clip-rule="evenodd" d="M27.2915 4.41732C27.2915 2.23114 29.0637 0.458984 31.2498 0.458984H54.3453C55.1188 0.458984 55.8606 0.766264 56.4076 1.31327L65.6039 10.5095C66.1509 11.0565 66.4582 11.7984 66.4582 12.5719V23.2715C66.4582 23.5788 66.289 23.8612 66.0181 24.0062C65.7471 24.1512 65.4183 24.1353 65.1626 23.9649L59.3748 20.1064L53.5871 23.9649C53.3072 24.1515 52.9425 24.1515 52.6626 23.9649L46.8748 20.1064L41.0871 23.9649C40.8072 24.1515 40.4425 24.1515 40.1626 23.9649L34.3748 20.1064L28.5871 23.9649C28.3314 24.1353 28.0026 24.1512 27.7316 24.0062C27.4607 23.8612 27.2915 23.5788 27.2915 23.2715V4.41732ZM31.2498 2.12565C29.9841 2.12565 28.9582 3.15162 28.9582 4.41732V21.7144L33.9126 18.4114C34.1925 18.2248 34.5572 18.2248 34.8371 18.4114L40.6248 22.2699L46.4126 18.4114C46.6925 18.2248 47.0572 18.2248 47.3371 18.4114L53.1248 22.2699L58.9126 18.4114C59.1925 18.2248 59.5572 18.2248 59.8371 18.4114L64.7915 21.7144V12.5719C64.7915 12.2404 64.6598 11.9225 64.4254 11.688L55.2291 2.49178C54.9947 2.25733 54.6767 2.12565 54.3453 2.12565H31.2498Z" fill="#16162F"/>
  <path fill-rule="evenodd" clip-rule="evenodd" d="M33.9126 24.6614C34.1925 24.4748 34.5572 24.4748 34.8371 24.6614L40.6248 28.5199L46.4126 24.6614C46.6925 24.4748 47.0572 24.4748 47.3371 24.6614L53.1248 28.5199L58.9126 24.6614C59.1925 24.4748 59.5572 24.4748 59.8371 24.6614L66.0871 28.8281C66.3189 28.9827 66.4582 29.2429 66.4582 29.5215V32.334C66.4582 32.7942 66.0851 33.1673 65.6248 33.1673C65.1646 33.1673 64.7915 32.7942 64.7915 32.334V29.9675L59.3748 26.3564L53.5871 30.2149C53.3072 30.4015 52.9425 30.4015 52.6626 30.2149L46.8748 26.3564L41.0871 30.2149C40.8072 30.4015 40.4425 30.4015 40.1626 30.2149L34.3748 26.3564L28.9582 29.9675V49.4173C28.9582 50.683 29.9841 51.709 31.2498 51.709H61.4582C61.9184 51.709 62.2915 52.0821 62.2915 52.5423C62.2915 53.0026 61.9184 53.3756 61.4582 53.3756H31.2498C29.0637 53.3756 27.2915 51.6035 27.2915 49.4173V29.5215C27.2915 29.2429 27.4308 28.9827 27.6626 28.8281L33.9126 24.6614Z" fill="#16162F"/>
  <path fill-rule="evenodd" clip-rule="evenodd" d="M61.458 32.5423C56.1653 32.5423 51.8747 36.8329 51.8747 42.1256C51.8747 47.4184 56.1653 51.709 61.458 51.709C66.7507 51.709 71.0413 47.4184 71.0413 42.1256C71.0413 36.8329 66.7507 32.5423 61.458 32.5423ZM50.208 42.1256C50.208 35.9124 55.2448 30.8756 61.458 30.8756C67.6712 30.8756 72.708 35.9124 72.708 42.1256C72.708 48.3388 67.6712 53.3756 61.458 53.3756C55.2448 53.3756 50.208 48.3388 50.208 42.1256Z" fill="#D72C0D"/>
  <path d="M61.458 43.6882C62.3209 43.6882 63.0205 42.9886 63.0205 42.1257V36.9173C63.0205 36.0544 62.3209 35.3548 61.458 35.3548C60.5951 35.3548 59.8955 36.0544 59.8955 36.9173V42.1257C59.8955 42.9886 60.5951 43.6882 61.458 43.6882Z" fill="#D72C0D"/>
  <path d="M61.458 48.8965C62.321 48.8965 63.0205 48.1969 63.0205 47.334C63.0205 46.471 62.321 45.7715 61.458 45.7715C60.5951 45.7715 59.8955 46.471 59.8955 47.334C59.8955 48.1969 60.5951 48.8965 61.458 48.8965Z" fill="#D72C0D"/>
  <path d="M95.1971 55.0392C95.0734 55.0374 94.9505 55.0603 94.8357 55.1064C94.7209 55.1526 94.6163 55.2211 94.5282 55.3079C94.4401 55.3948 94.3701 55.4984 94.3224 55.6125C94.2746 55.7267 94.25 55.8492 94.25 55.973C94.25 56.0967 94.2746 56.2193 94.3224 56.3334C94.3701 56.4476 94.4401 56.5511 94.5282 56.638C94.6163 56.7249 94.7209 56.7934 94.8357 56.8395C94.9505 56.8857 95.0734 56.9085 95.1971 56.9068H99.0528C99.1765 56.9085 99.2994 56.8857 99.4142 56.8395C99.529 56.7934 99.6335 56.7249 99.7217 56.638C99.8098 56.5511 99.8798 56.4476 99.9275 56.3334C99.9753 56.2193 99.9999 56.0967 99.9999 55.973C99.9999 55.8492 99.9753 55.7267 99.9275 55.6125C99.8798 55.4984 99.8098 55.3948 99.7217 55.3079C99.6335 55.2211 99.529 55.1526 99.4142 55.1064C99.2994 55.0603 99.1765 55.0374 99.0528 55.0392H95.1971Z" fill="#16162F"/>
  <path d="M0.94712 55.0392C0.823377 55.0374 0.700521 55.0603 0.585691 55.1064C0.470861 55.1526 0.366347 55.2211 0.278223 55.3079C0.190099 55.3948 0.120122 55.4984 0.0723589 55.6125C0.0245961 55.7267 0 55.8492 0 55.973C0 56.0967 0.0245961 56.2193 0.0723589 56.3334C0.120122 56.4476 0.190099 56.5511 0.278223 56.638C0.366347 56.7249 0.470861 56.7934 0.585691 56.8395C0.700521 56.8857 0.823377 56.9085 0.94712 56.9068H11.5985C11.7222 56.9085 11.8451 56.8857 11.9599 56.8395C12.0748 56.7934 12.1793 56.7249 12.2674 56.638C12.3555 56.5511 12.4255 56.4476 12.4733 56.3334C12.521 56.2193 12.5456 56.0967 12.5456 55.973C12.5456 55.8492 12.521 55.7267 12.4733 55.6125C12.4255 55.4984 12.3555 55.3948 12.2674 55.3079C12.1793 55.2211 12.0748 55.1526 11.9599 55.1064C11.8451 55.0603 11.7222 55.0374 11.5985 55.0392H0.94712Z" fill="#16162F"/>
  <path fill-rule="evenodd" clip-rule="evenodd" d="M38.3001 60.6079C38.1764 60.6061 38.0536 60.629 37.9387 60.6751C37.8239 60.7212 37.7194 60.7898 37.6312 60.8766C37.5431 60.9635 37.4731 61.0671 37.4254 61.1812C37.3776 61.2954 37.353 61.4179 37.353 61.5417C37.353 61.6654 37.3776 61.7879 37.4254 61.9021C37.4731 62.0163 37.5431 62.1198 37.6312 62.2067C37.7194 62.2936 37.8239 62.3621 37.9387 62.4082C38.0536 62.4544 38.1764 62.4772 38.3001 62.4755H48.1271C48.2509 62.4772 48.3737 62.4544 48.4886 62.4082C48.6034 62.3621 48.7079 62.2936 48.796 62.2067C48.8842 62.1198 48.9541 62.0163 49.0019 61.9021C49.0497 61.7879 49.0743 61.6654 49.0743 61.5417C49.0743 61.4179 49.0497 61.2954 49.0019 61.1812C48.9541 61.0671 48.8842 60.9635 48.796 60.8766C48.7079 60.7898 48.6034 60.7212 48.4886 60.6751C48.3737 60.629 48.2509 60.6061 48.1271 60.6079H38.3001Z" fill="#0A855C"/>
  <path fill-rule="evenodd" clip-rule="evenodd" d="M53.2411 60.6079C53.1173 60.6061 52.9945 60.629 52.8796 60.6751C52.7648 60.7212 52.6603 60.7898 52.5722 60.8766C52.484 60.9635 52.4141 61.0671 52.3663 61.1812C52.3185 61.2954 52.2939 61.4179 52.2939 61.5417C52.2939 61.6654 52.3185 61.7879 52.3663 61.9021C52.4141 62.0163 52.484 62.1198 52.5722 62.2067C52.6603 62.2936 52.7648 62.3621 52.8796 62.4082C52.9945 62.4544 53.1173 62.4772 53.2411 62.4755H63.0681C63.1918 62.4772 63.3146 62.4544 63.4295 62.4082C63.5443 62.3621 63.6488 62.2936 63.7369 62.2067C63.8251 62.1198 63.895 62.0163 63.9428 61.9021C63.9906 61.7879 64.0152 61.6654 64.0152 61.5417C64.0152 61.4179 63.9906 61.2954 63.9428 61.1812C63.895 61.0671 63.8251 60.9635 63.7369 60.8766C63.6488 60.7898 63.5443 60.7212 63.4295 60.6751C63.3146 60.629 63.1918 60.6061 63.0681 60.6079H53.2411Z" fill="#0A855C"/>
  <path fill-rule="evenodd" clip-rule="evenodd" d="M45.6136 63.9314C45.4899 63.9296 45.367 63.9525 45.2522 63.9987C45.1374 64.0448 45.0328 64.1133 44.9447 64.2002C44.8566 64.2871 44.7866 64.3906 44.7389 64.5048C44.6911 64.6189 44.6665 64.7415 44.6665 64.8652C44.6665 64.989 44.6911 65.1115 44.7389 65.2257C44.7866 65.3398 44.8566 65.4434 44.9447 65.5302C45.0328 65.6171 45.1374 65.6856 45.2522 65.7318C45.367 65.7779 45.4899 65.8008 45.6136 65.799H55.4406C55.5644 65.8008 55.6872 65.7779 55.802 65.7318C55.9169 65.6856 56.0214 65.6171 56.1095 65.5302C56.1976 65.4434 56.2676 65.3398 56.3154 65.2257C56.3631 65.1115 56.3877 64.989 56.3877 64.8652C56.3877 64.7415 56.3631 64.6189 56.3154 64.5048C56.2676 64.3906 56.1976 64.2871 56.1095 64.2002C56.0214 64.1133 55.9169 64.0448 55.802 63.9987C55.6872 63.9525 55.5644 63.9296 55.4406 63.9314H45.6136Z" fill="#0A855C"/>
</svg>