<svg width="21" height="20" viewBox="0 0 21 20" fill="none" xmlns="http://www.w3.org/2000/svg">
<g clip-path="url(#clip0_293_16546)">
<path d="M10.5 0C11.0523 0 11.5 0.447715 11.5 1V2C11.5 2.55228 11.0523 3 10.5 3C9.94771 3 9.5 2.55228 9.5 2V1C9.5 0.447715 9.94771 0 10.5 0Z" fill="#FFC453"/>
<path d="M12.5 17V18.5C12.5 19.3284 11.8284 20 11 20H10C9.17157 20 8.5 19.3284 8.5 18.5V17H12.5Z" fill="#FFC453"/>
<path d="M18.5 9C17.9477 9 17.5 9.44771 17.5 10C17.5 10.5523 17.9477 11 18.5 11H19.5C20.0523 11 20.5 10.5523 20.5 10C20.5 9.44771 20.0523 9 19.5 9H18.5Z" fill="#FFC453"/>
<path d="M0.5 10C0.5 9.44771 0.947715 9 1.5 9H2.5C3.05228 9 3.5 9.44771 3.5 10C3.5 10.5523 3.05228 11 2.5 11H1.5C0.947715 11 0.5 10.5523 0.5 10Z" fill="#FFC453"/>
<path d="M4.84315 2.92894C4.45262 2.53842 3.81946 2.53842 3.42893 2.92894C3.03841 3.31946 3.03841 3.95263 3.42893 4.34315L4.13604 5.05026C4.52656 5.44078 5.15973 5.44079 5.55025 5.05026C5.94078 4.65974 5.94078 4.02657 5.55025 3.63605L4.84315 2.92894Z" fill="#FFC453"/>
<path d="M15.4497 5.05025C15.0592 4.65972 15.0592 4.02656 15.4497 3.63603L16.1569 2.92893C16.5474 2.5384 17.1805 2.5384 17.5711 2.92893C17.9616 3.31945 17.9616 3.95262 17.5711 4.34314L16.864 5.05025C16.4734 5.44077 15.8403 5.44077 15.4497 5.05025Z" fill="#FFC453"/>
<path d="M13.7681 11.3071C13.1497 12.1814 12.5 13.1244 12.5 14.1953V15H8.5V14.1953C8.5 13.1244 7.8503 12.1814 7.23194 11.3071C6.7709 10.6552 6.5 9.85921 6.5 9C6.5 6.79083 8.29086 5 10.5 5C12.7091 5 14.5 6.79083 14.5 9C14.5 9.85921 14.2291 10.6552 13.7681 11.3071Z" fill="#FFC453"/>
</g>
<defs>
<clipPath id="clip0_293_16546">
<rect width="20" height="20" fill="white" transform="translate(0.5)"/>
</clipPath>
</defs>
</svg>
