<svg width="17" height="16" viewBox="0 0 17 16" fill="none" xmlns="http://www.w3.org/2000/svg">
<path fill-rule="evenodd" clip-rule="evenodd" d="M8.50002 5.79999C7.94774 5.79999 7.50002 6.24771 7.50002 6.79999C7.50002 7.13137 7.2314 7.39999 6.90002 7.39999C6.56865 7.39999 6.30002 7.13137 6.30002 6.79999C6.30002 5.58497 7.285 4.59999 8.50002 4.59999C9.71505 4.59999 10.7 5.58497 10.7 6.79999C10.7 7.73144 10.1214 8.52628 9.30615 8.84744C9.22406 8.87978 9.16074 8.9255 9.12527 8.96527C9.10772 8.98494 9.10178 8.99706 9.10002 9.00209C9.09889 9.33249 8.8307 9.59999 8.50002 9.59999C8.16865 9.59999 7.90002 9.33137 7.90002 8.99999C7.90002 8.30821 8.45719 7.89213 8.86631 7.73096C9.2384 7.58437 9.50002 7.222 9.50002 6.79999C9.50002 6.24771 9.05231 5.79999 8.50002 5.79999Z" fill="#5C5F62"/>
<path d="M8.50002 11.6C8.94185 11.6 9.30002 11.2418 9.30002 10.8C9.30002 10.3582 8.94185 9.99999 8.50002 9.99999C8.0582 9.99999 7.70002 10.3582 7.70002 10.8C7.70002 11.2418 8.0582 11.6 8.50002 11.6Z" fill="#5C5F62"/>
<path fill-rule="evenodd" clip-rule="evenodd" d="M8.50002 13.6C11.5928 13.6 14.1 11.0928 14.1 7.99999C14.1 4.9072 11.5928 2.39999 8.50002 2.39999C5.40723 2.39999 2.90002 4.9072 2.90002 7.99999C2.90002 11.0928 5.40723 13.6 8.50002 13.6ZM8.50002 12.4C10.9301 12.4 12.9 10.43 12.9 7.99999C12.9 5.56994 10.9301 3.59999 8.50002 3.59999C6.06997 3.59999 4.10002 5.56994 4.10002 7.99999C4.10002 10.43 6.06997 12.4 8.50002 12.4Z" fill="#5C5F62"/>
</svg>
