<svg width="21" height="20" viewBox="0 0 21 20" fill="none" xmlns="http://www.w3.org/2000/svg">
<circle cx="10.5" cy="10" r="10" fill="#0A855C"/>
<path fill-rule="evenodd" clip-rule="evenodd" d="M7.42321 4H12.9615C13.2162 4 13.423 4.20676 13.423 4.46152C13.423 4.71628 13.2162 4.92304 12.9615 4.92304H7.42321C6.89277 4.92304 6.38387 5.1335 6.00911 5.50887C5.63374 5.88362 5.42329 6.39253 5.42329 6.92297V9.69259L6.33261 9.01091C6.98182 8.52354 7.88579 8.56661 8.48638 9.11244C9.36816 9.9142 10.7492 11.1695 11.0564 11.4487L11.8401 10.5672C12.4383 9.89397 13.4591 9.80721 14.1619 10.3703L15.5768 11.5017V8.76906C15.5768 8.5143 15.7835 8.30754 16.0383 8.30754C16.293 8.30754 16.4998 8.5143 16.4998 8.76906V13.0766C16.4998 13.8519 16.1921 14.5953 15.6438 15.1436C15.0956 15.6919 14.3522 15.9996 13.5768 15.9996H8.06487C8.04706 16.0006 8.02919 16.0006 8.01136 15.9996H7.42321C6.64786 15.9996 5.9045 15.6919 5.35621 15.1436C4.80793 14.5953 4.50024 13.8519 4.50024 13.0766V10.6162V10.6161V6.92297C4.50024 6.14761 4.80793 5.40426 5.35621 4.85597C5.9045 4.30768 6.64786 4 7.42321 4ZM5.42329 13.0766V10.8464C5.73078 10.6157 6.36521 10.1399 6.88644 9.74934C7.1812 9.52781 7.59226 9.54689 7.86548 9.79549L10.4428 12.1389L7.8316 15.0765H7.42321C6.89277 15.0765 6.38387 14.8661 6.00911 14.4907C5.63374 14.1159 5.42329 13.607 5.42329 13.0766ZM9.06678 15.0765H13.5768C14.1073 15.0765 14.6162 14.8661 14.9909 14.4907C15.3663 14.1159 15.5768 13.607 15.5768 13.0766V12.6843L13.5853 11.0909C13.2659 10.8349 12.8019 10.8742 12.5299 11.1801L9.06678 15.0765ZM14.7737 7.54103C14.8582 7.63387 14.9799 7.69217 15.1152 7.69217C15.252 7.69217 15.3749 7.63259 15.4594 7.53798L16.3642 6.63317C16.5445 6.45349 16.5445 6.16057 16.3642 5.98089C16.1846 5.80059 15.8916 5.80059 15.712 5.98089L15.5767 6.11598V4.46152C15.5767 4.20676 15.37 4 15.1152 4C14.8604 4 14.6537 4.20676 14.6537 4.46152V6.11628L14.5182 5.98089C14.3385 5.80059 14.0456 5.80059 13.8659 5.98089C13.6856 6.16057 13.6856 6.45349 13.8659 6.63317L14.7737 7.54103ZM8.96143 7.53857C9.47122 7.53857 9.88448 7.12531 9.88448 6.61553C9.88448 6.10575 9.47122 5.69248 8.96143 5.69248C8.45165 5.69248 8.03839 6.10575 8.03839 6.61553C8.03839 7.12531 8.45165 7.53857 8.96143 7.53857Z" fill="white"/>
</svg>
