<svg width="20" height="21" viewBox="0 0 20 21" fill="none" xmlns="http://www.w3.org/2000/svg">
<path fill-rule="evenodd" clip-rule="evenodd" d="M12.3226 13.6023C11.3996 14.3031 10.2484 14.719 9 14.719C5.96243 14.719 3.5 12.2566 3.5 9.21899C3.5 6.18143 5.96243 3.71899 9 3.71899C12.0376 3.71899 14.5 6.18143 14.5 9.21899C14.5 10.4673 14.0841 11.6186 13.3833 12.5416L16.2803 15.4387C16.5732 15.7316 16.5732 16.2064 16.2803 16.4993C15.9874 16.7922 15.5126 16.7922 15.2197 16.4993L12.3226 13.6023ZM13 9.21899C13 11.4281 11.2091 13.219 9 13.219C6.79086 13.219 5 11.4281 5 9.21899C5 7.00986 6.79086 5.21899 9 5.21899C11.2091 5.21899 13 7.00986 13 9.21899Z" fill="#5C5F62"/>
</svg>
