<svg width="20" height="21" viewBox="0 0 20 21" fill="none" xmlns="http://www.w3.org/2000/svg">
<g clip-path="url(#clip0_13899_5126)">
<path d="M17.6556 20.1372H2.33315C1.0544 20.1372 0 19.0828 0 17.7928V2.47035C0 1.19161 1.0544 0.137207 2.33315 0.137207H17.6556C18.9456 0.137207 19.9888 1.19161 19.9888 2.47035V17.7928C20 19.0828 18.9456 20.1372 17.6556 20.1372Z" fill="url(#paint0_linear_13899_5126)"/>
<path d="M10.1179 6.08224C10.1067 6.09345 10.1067 6.09345 10.0955 6.10467C9.98333 6.21684 9.92725 6.37388 9.92725 6.5197C9.92725 6.66552 9.98333 6.82256 10.0955 6.93473C10.1067 6.94595 10.1067 6.94595 10.1179 6.95717C10.1292 6.96838 10.1516 6.9796 10.1628 7.00203L12.137 8.97624C12.3613 9.20058 12.7315 9.20058 12.9558 8.97624C13.1802 8.75189 13.1802 8.38173 12.9558 8.15739L11.8678 7.06934C11.5649 6.76648 11.5649 6.28414 11.8678 5.98128L12.9558 4.89323C13.1802 4.66889 13.1802 4.29872 12.9558 4.07438C12.7315 3.85004 12.3613 3.85004 12.137 4.07438L10.1628 6.03737C10.1516 6.04858 10.1292 6.07102 10.1179 6.08224Z" fill="white"/>
<path d="M9.87093 14.1922C9.88214 14.1809 9.88214 14.1809 9.89336 14.1697C10.0055 14.0575 10.0616 13.9005 10.0616 13.7547C10.0616 13.6089 10.0055 13.4518 9.89336 13.3397C9.88214 13.3284 9.88214 13.3284 9.87093 13.3172C9.85971 13.306 9.83728 13.2948 9.82606 13.2724L7.86308 11.3094C7.63874 11.085 7.26857 11.085 7.04423 11.3094C6.81989 11.5337 6.81989 11.9039 7.04423 12.1282L8.13229 13.2163C8.43515 13.5191 8.43515 14.0015 8.13229 14.3043L7.04423 15.3924C6.81989 15.6167 6.81989 15.9869 7.04423 16.2112C7.26857 16.4356 7.63874 16.4356 7.86308 16.2112L9.83728 14.237C9.84849 14.2146 9.85971 14.2034 9.87093 14.1922Z" fill="white"/>
<path d="M14.3466 13.0256C14.3354 13.0144 14.3242 13.0032 14.3018 12.992C14.2793 12.9696 14.2457 12.9471 14.2233 12.9135L10.746 9.43619C10.746 9.43619 10.746 9.43619 10.7348 9.43619C10.7235 9.41375 10.7011 9.40253 10.6899 9.3801L8.78299 7.4732C8.25579 6.946 8.25579 6.09351 8.78299 5.5663L10.6899 3.65941C11.0937 3.25559 11.0937 2.605 10.6899 2.21241C10.2861 1.80859 9.63548 1.80859 9.24289 2.21241L5.7656 5.68969C5.74317 5.71213 5.70952 5.73456 5.68708 5.76821C5.67587 5.77943 5.66465 5.79065 5.64222 5.80186C5.44031 6.00377 5.33936 6.27298 5.33936 6.53097C5.33936 6.80018 5.44031 7.05817 5.64222 7.26008C5.65343 7.2713 5.66465 7.28251 5.68708 7.29373C5.70952 7.31616 5.74317 7.3386 5.7656 7.37225L9.24289 10.8495C9.24289 10.8495 9.24289 10.8495 9.2541 10.8495C9.26532 10.872 9.28775 10.8832 9.29897 10.9056L11.2059 12.8125C11.7331 13.3397 11.7331 14.1922 11.2059 14.7194L9.29897 16.6263C8.89516 17.0301 8.89516 17.6807 9.29897 18.0733C9.70279 18.4771 10.3534 18.4771 10.746 18.0733L14.2233 14.596C14.2457 14.5736 14.2793 14.5512 14.3018 14.5175C14.313 14.5063 14.3242 14.4951 14.3466 14.4839C14.5485 14.282 14.6495 14.0127 14.6495 13.7548C14.6495 13.4855 14.5485 13.2275 14.3466 13.0256Z" fill="white"/>
</g>
<defs>
<linearGradient id="paint0_linear_13899_5126" x1="0.455311" y1="1.06492" x2="19.348" y2="19.0224" gradientUnits="userSpaceOnUse">
<stop stop-color="#01B9E6"/>
<stop offset="1" stop-color="#0032AB"/>
</linearGradient>
<clipPath id="clip0_13899_5126">
<rect width="20" height="20" fill="white" transform="translate(0 0.137207)"/>
</clipPath>
</defs>
</svg>
