<svg width="17" height="17" viewBox="0 0 17 17" fill="none" xmlns="http://www.w3.org/2000/svg">
<path d="M11.2778 0.555664C11.692 0.555664 12.0278 0.932687 12.0278 1.39777V2.80128C12.0278 3.26636 11.692 3.64338 11.2778 3.64338C10.8636 3.64338 10.5278 3.26636 10.5278 2.80128V1.39777C10.5278 0.932687 10.8636 0.555664 11.2778 0.555664Z" fill="#5C5F62"/>
<path d="M13.8082 3.95814L14.8082 2.83533C15.1011 2.50647 15.1011 1.97328 14.8082 1.64442C14.5153 1.31555 14.0404 1.31555 13.7475 1.64442L12.7475 2.76722C12.4546 3.09609 12.4546 3.62928 12.7475 3.95814C13.0404 4.287 13.5153 4.287 13.8082 3.95814Z" fill="#5C5F62"/>
<path d="M1.52783 7.57321C1.52783 5.55785 2.98291 3.92408 4.77783 3.92408H8.77783C9.19205 3.92408 9.52783 3.54706 9.52783 3.08198C9.52783 2.6169 9.19205 2.23987 8.77783 2.23987H4.77783C2.15448 2.23987 0.027832 4.62769 0.027832 7.57321V8.41531C0.027832 10.7728 1.38955 12.7718 3.27783 13.477V15.7136C3.27783 16.0316 3.4374 16.3225 3.69035 16.4656C3.9433 16.6087 4.24647 16.5796 4.47411 16.3903L7.65188 13.7486H9.27783C11.9012 13.7486 14.0278 11.3608 14.0278 8.41531C14.0278 7.95023 13.692 7.57321 13.2778 7.57321C12.8636 7.57321 12.5278 7.95023 12.5278 8.41531C12.5278 10.4307 11.0728 12.0644 9.27783 12.0644H7.40446C7.24376 12.0644 7.08732 12.1224 6.95817 12.2297L4.77783 14.0423V12.8277C4.77783 12.4232 4.52161 12.0758 4.16761 12.0004C2.66438 11.6802 1.52783 10.1959 1.52783 8.41531V7.57321Z" fill="#5C5F62"/>
<path d="M3.77783 5.889C3.36362 5.889 3.02783 6.26602 3.02783 6.7311C3.02783 7.19618 3.36362 7.57321 3.77783 7.57321H9.27783C9.69205 7.57321 10.0278 7.19618 10.0278 6.7311C10.0278 6.26602 9.69205 5.889 9.27783 5.889H3.77783Z" fill="#5C5F62"/>
<path d="M3.02783 9.25742C3.02783 8.79233 3.36362 8.41531 3.77783 8.41531H7.27783C7.69205 8.41531 8.02783 8.79233 8.02783 9.25742C8.02783 9.7225 7.69205 10.0995 7.27783 10.0995H3.77783C3.36362 10.0995 3.02783 9.7225 3.02783 9.25742Z" fill="#5C5F62"/>
<path d="M15.2778 6.4504C15.692 6.4504 16.0278 6.07338 16.0278 5.60829C16.0278 5.14321 15.692 4.76619 15.2778 4.76619H14.0278C13.6136 4.76619 13.2778 5.14321 13.2778 5.60829C13.2778 6.07338 13.6136 6.4504 14.0278 6.4504H15.2778Z" fill="#5C5F62"/>
</svg>
