<svg width="100" height="100" viewBox="0 0 100 100" fill="none" xmlns="http://www.w3.org/2000/svg">
<path d="M74.2956 70.5327L74.2957 70.5328C75.0355 70.8869 75.6696 70.9893 76.2067 70.8583C76.746 70.7267 77.1696 70.3643 77.4958 69.8264C78.1435 68.7583 78.4252 66.9682 78.4786 64.7743C78.5254 62.8501 77.9747 60.3131 76.9408 57.8914C75.9069 55.4697 74.3846 53.1511 72.4783 51.672L72.4783 51.672C71.1489 50.6413 69.6306 50.0148 67.9588 50.0537L67.9588 50.0537C67.1382 50.0728 66.5519 50.3723 66.1723 50.8949C65.7964 51.4122 65.6328 52.1347 65.6236 52.9834C65.605 54.6809 66.2038 56.9362 67.0612 59.2263C67.9196 61.5193 69.0414 63.8583 70.0781 65.7275C70.5964 66.6621 71.0941 67.4804 71.5275 68.1174C71.9587 68.751 72.3326 69.2148 72.6039 69.4311L72.604 69.4312C73.2246 69.9247 73.7874 70.2886 74.2956 70.5327Z" fill="white" stroke="#575959" stroke-width="0.2"/>
<path d="M74.2462 70.4049L74.2108 70.4921L74.2957 70.5327C75.0354 70.8868 75.6695 70.9893 76.2067 70.8583C76.746 70.7267 77.1696 70.3643 77.4957 69.8264C78.1434 68.7582 78.4252 66.9682 78.4785 64.7743C78.5253 62.8501 77.9746 60.3131 76.9408 57.8914C75.9071 55.4697 74.3851 53.1511 72.4794 51.672L72.218 51.4691L72.3233 51.7828C76.0172 62.7928 75.1759 68.1166 74.2462 70.4049Z" fill="#E1E3E5" stroke="#575959" stroke-width="0.2"/>
<path d="M69.8076 58.4767C70.983 61.2019 72.7345 65.9463 72.2314 66.1805C71.777 66.3903 69.4274 62.9603 68.1639 58.996C67.4603 56.7878 67.0198 54.1843 67.385 54.0626C67.8382 53.9119 69.4425 57.6293 69.8076 58.4767Z" fill="#FAFBFB"/>
<path d="M31.0264 69.1542L31.0263 69.1543C30.4057 69.6478 29.8429 70.0117 29.3347 70.2558L29.3346 70.2559C28.4973 70.6565 27.795 70.7349 27.2167 70.5178C26.6387 70.3008 26.2088 69.7975 25.8963 69.0886C25.4174 68.0034 25.1982 66.4059 25.1517 64.4975L31.0264 69.1542ZM31.0264 69.1542C31.2561 68.9711 31.5578 68.6119 31.904 68.1259C32.2521 67.6373 32.6505 67.0126 33.0731 66.2911C33.9183 64.848 34.8626 63.0136 35.6966 61.0977C36.5305 59.1822 37.2556 57.1822 37.6609 55.4083C38.0648 53.6408 38.1569 52.0748 37.6987 51.0431C37.5287 50.6577 37.2807 50.3451 36.9423 50.1265C36.6041 49.908 36.1821 49.7876 35.6703 49.7756L35.6702 49.7756C33.9997 49.7379 32.4803 50.3632 31.1508 51.3951L31.1508 51.3951M31.0264 69.1542L31.1508 51.3951M31.1508 51.3951C29.2451 52.8748 27.7229 55.1934 26.689 57.6149M31.1508 51.3951L26.689 57.6149M26.689 57.6149C25.6551 60.0365 25.1043 62.5732 25.1517 64.4975L26.689 57.6149Z" fill="white" stroke="#575959" stroke-width="0.2"/>
<path d="M28.8208 56.4723C28.6399 56.7494 26.6578 59.7852 27.3498 60.4413C28.0464 61.102 31.4497 59.332 33.236 56.4723C34.2422 54.8622 35.0293 52.4361 34.3616 51.9597C33.5362 51.372 30.5688 53.7935 28.8208 56.4723Z" fill="#FAFBFB"/>
<path d="M31.0264 69.1542L31.0266 69.1541C31.2562 68.9709 31.5579 68.6118 31.9042 68.1257C32.2522 67.6371 32.6506 67.0125 33.0732 66.291C33.9185 64.8479 34.8628 63.0136 35.6969 61.0977C36.5309 59.1823 37.2561 57.1823 37.6616 55.4086C38.0656 53.6412 38.1579 52.0753 37.7 51.0439L37.6013 50.8217L37.5151 51.049C32.5758 64.066 28.4315 67.9285 25.9497 68.9557L25.8551 68.9948L25.8964 69.0884C26.2089 69.7974 26.6388 70.3006 27.2168 70.5176C27.7951 70.7347 28.4974 70.6564 29.3347 70.2557L29.3348 70.2557C29.843 70.0116 30.4058 69.6477 31.0264 69.1542Z" fill="#E1E3E5" stroke="#575959" stroke-width="0.2"/>
<path d="M51.9043 77.1186C57.2618 77.1186 61.6222 74.2948 64.6399 70.2806L68.9637 53.7588L69.061 53.7356C69.061 53.7356 69.061 53.7355 69.061 53.7355C68.6454 51.9869 67.775 50.7076 66.585 49.7754C65.3969 48.8447 63.8948 48.2636 62.2196 47.901C59.3418 47.2782 55.9293 47.2963 52.676 47.3137C52.1458 47.3165 51.6197 47.3193 51.101 47.3193C50.8124 47.3193 50.5165 47.3184 50.2144 47.3176C46.9841 47.3082 43.0474 47.2967 39.8181 48.3131C38.0499 48.8696 36.4855 49.7364 35.3633 51.0871C34.2398 52.4392 33.5671 54.2672 33.5671 56.7309C33.5671 60.4686 34.6726 64.3112 36.6307 67.6383C39.8153 73.0554 45.268 77.1186 51.9043 77.1186Z" fill="white" stroke="#575959" stroke-width="0.2"/>
<path d="M36.7594 67.4972L36.4666 67.3593L36.6306 67.6383C39.8152 73.0554 45.268 77.1186 51.9042 77.1186C57.2617 77.1186 61.6222 74.2949 64.6398 70.2806C67.6565 66.2676 69.3372 61.058 69.3372 56.2649C69.3372 55.3297 69.2427 54.4883 69.0609 53.7353L68.9728 53.3705L68.8677 53.7308C67.166 59.5626 64.7187 63.5266 61.908 66.1469C59.0979 68.7666 55.9191 70.0485 52.7451 70.5077C46.3916 71.427 40.0575 69.0499 36.7594 67.4972Z" fill="#E1E3E5" stroke="#575959" stroke-width="0.2"/>
<path d="M37.3508 52.9405C35.9691 55.194 36.9463 58.4002 39.3191 59.6591C41.8275 60.9898 45.239 59.797 46.1721 57.1518C47.0577 54.6399 45.3514 51.8231 42.9056 51.0337C40.9431 50.3996 38.4996 51.0673 37.3508 52.9405Z" fill="#FAFBFB"/>
<path d="M32.7088 28.9853L32.7657 29.0418L32.8332 28.9985L32.7792 28.9143C32.8332 28.9985 32.8333 28.9985 32.8334 28.9984L32.8337 28.9982L32.8347 28.9976L32.8383 28.9952L32.8521 28.9861C32.8641 28.9781 32.8817 28.9663 32.9045 28.9507C32.9501 28.9193 33.0163 28.8727 33.0999 28.8107C33.2671 28.6868 33.5038 28.5017 33.7833 28.256C34.3421 27.7647 35.0729 27.0305 35.7614 26.0578C37.1391 24.1115 38.3477 21.2095 37.6685 17.3956L37.654 17.3141L37.5713 17.3131C36.9821 17.306 36.4023 17.3742 35.8472 17.5095C33.8825 17.9822 32.1964 19.2888 31.3064 21.1204C30.4294 22.9251 30.4335 25.0168 31.2283 26.8263C31.5729 27.6155 32.0692 28.3504 32.7088 28.9853Z" fill="white" stroke="#575959" stroke-width="0.2"/>
<path d="M32.7792 28.9143C32.1486 28.2884 31.6595 27.5639 31.3198 26.7861C32.0884 25.4357 32.8592 23.9983 33.6196 22.474C34.4577 20.7944 35.2042 19.1669 35.8696 17.6067C36.4167 17.4734 36.9881 17.4061 37.5689 17.4131C35.9727 21.2465 34.3754 25.081 32.7792 28.9143Z" fill="#E1E3E5"/>
<path d="M37.658 43.4784C42.7648 46.3354 50.7481 46.9565 57.5306 45.684C60.9235 45.0475 64.025 43.9357 66.3219 42.3851C68.6189 40.8346 70.1216 38.8374 70.2876 36.4314C71.0232 25.7922 67.4981 18.725 62.7072 14.5787C58.9725 11.3414 54.4677 9.88853 50.6312 9.90019C45.3315 9.91655 40.3965 13.1212 36.9908 18.0434C33.5844 22.9667 31.6998 29.6182 32.5037 36.5531C32.8562 39.6004 34.8171 41.8894 37.658 43.4784Z" fill="white" stroke="#575959" stroke-width="0.2"/>
<path d="M70.1878 36.4247C69.5352 45.8823 47.8657 49.0747 37.7068 43.3913C43.906 44.3997 62.3576 46.601 65.6485 37.7044C68.4792 30.0539 64.9182 19.8683 62.6428 14.6555C67.4058 18.7775 70.9215 25.8125 70.1878 36.4247Z" fill="#E1E3E5"/>
<path d="M38.5426 19.3431C39.1048 20.0803 42.5452 18.5224 44.8531 16.8138C47.0648 15.1747 49.3205 12.5944 48.8198 11.8676C48.3747 11.2219 45.8338 12.1516 44.2364 13.0071C40.6616 14.9208 37.9306 18.5398 38.5426 19.3431Z" fill="#FAFBFB"/>
<path d="M33.5698 34.0725C33.6602 36.5984 35.2112 38.992 35.8348 38.8263C36.4897 38.6524 36.2139 35.6362 35.9067 33.9786C35.8186 33.5034 35.2784 30.5927 34.598 30.6066C34.0613 30.6182 33.5107 32.4369 33.5698 34.0725Z" fill="#FAFBFB"/>
<path d="M64.5496 32.6203C64.5554 34.5178 62.4758 35.692 59.7935 36.3945C56.9686 37.1352 53.4737 37.352 51.0395 37.3357C47.5562 37.3126 40.8353 36.7295 38.4057 34.5294C37.8354 34.0136 37.5027 33.4085 37.5004 32.7037C37.4935 30.6485 38.3443 28.7857 39.7248 27.433C41.1054 26.0825 43.0157 25.2433 45.13 25.2364L56.8747 25.1993C59.331 25.1911 61.5218 26.3109 62.9267 28.0566C63.9398 29.3166 64.5449 30.9 64.5496 32.6203Z" fill="#006D41"/>
<path d="M62.1443 31.0276C62.1501 32.9159 60.6246 34.4506 58.7363 34.4564C57.2769 34.461 56.0285 33.5523 55.5335 32.2668C55.3875 31.8889 55.3064 31.4774 55.3052 31.0485C55.2994 29.1602 56.8249 27.6254 58.7143 27.6196C60.1041 27.615 61.3027 28.4415 61.8394 29.6297C62.0342 30.0574 62.142 30.5303 62.1443 31.0276Z" fill="#002D2D"/>
<path d="M58.7908 27.6823C60.176 27.6823 61.3038 28.445 61.8394 29.6308C62.0341 30.0574 62.1419 30.5304 62.1442 31.0288C62.15 32.9171 60.6245 34.4518 58.7363 34.4576C58.7328 34.4576 58.7293 34.4576 58.7258 34.4576C57.2711 34.4576 56.0273 33.55 55.5346 32.2679C55.3886 31.8901 55.3075 31.4786 55.3063 31.0497C55.3005 29.1614 56.7819 27.7437 58.6714 27.7379L58.7908 27.6823ZM58.7258 27.0366H58.7131C57.6432 27.0401 56.6393 27.4597 55.8859 28.2178C55.1324 28.9759 54.7186 29.9821 54.7221 31.052C54.7232 31.5423 54.8136 32.0222 54.9887 32.4789C55.5787 34.0125 57.081 35.043 58.7258 35.043H58.7386C59.8073 35.0395 60.8112 34.6199 61.5658 33.8618C62.3193 33.1037 62.7331 32.0975 62.7296 31.0276C62.7273 30.4573 62.6079 29.9056 62.3726 29.3897C61.7258 27.9605 60.2953 27.0366 58.7258 27.0366Z" fill="white"/>
<path d="M57.6441 31.014C58.2602 30.8986 58.6661 30.3058 58.5507 29.6897C58.4354 29.0737 57.8425 28.6678 57.2265 28.7831C56.6105 28.8985 56.2046 29.4913 56.3199 30.1074C56.4352 30.7234 57.0281 31.1293 57.6441 31.014Z" fill="#FAFBFB"/>
<path d="M61.4083 31.6941C61.5949 31.8182 61.3457 33.0098 60.5006 33.4677C59.7495 33.8745 58.7526 33.5812 58.7294 33.3622C58.712 33.201 59.2279 33.1558 60.0903 32.6296C60.9968 32.0778 61.2784 31.6072 61.4083 31.6941Z" fill="#FAFBFB"/>
<path d="M46.9778 31.0752C46.9836 32.9635 45.4581 34.4982 43.5698 34.504C42.1104 34.5087 40.862 33.5999 40.367 32.3144C40.221 31.9365 40.1398 31.525 40.1387 31.0961C40.1329 29.2078 41.6584 27.6731 43.5478 27.6673C44.9376 27.6626 46.1362 28.4891 46.6729 29.6772C46.8676 30.1038 46.9766 30.5768 46.9778 31.0752Z" fill="#002D2D"/>
<path d="M43.6579 27.7032C45.0431 27.7032 46.1385 28.4914 46.6741 29.6772C46.8688 30.1038 46.9766 30.5767 46.9789 31.0752C46.9847 32.9635 45.4593 34.4982 43.571 34.504C43.5675 34.504 43.564 34.504 43.5605 34.504C42.1058 34.504 40.862 33.5964 40.3694 32.3143C40.2233 31.9364 40.1422 31.5249 40.141 31.096C40.1352 29.2078 41.6386 27.709 43.5281 27.7032H43.6579ZM43.5605 27.083H43.5478C42.4779 27.0865 41.4741 27.5061 40.7206 28.2642C39.9671 29.0223 39.5533 30.0285 39.5568 31.0984C39.5579 31.5887 39.6484 32.0686 39.8234 32.5253C40.4134 34.0589 41.9157 35.0894 43.5605 35.0894H43.5733C45.7804 35.0824 47.5701 33.2811 47.5631 31.074C47.5608 30.5037 47.4414 29.952 47.2061 29.4361C46.5605 28.0069 45.1301 27.083 43.5605 27.083Z" fill="white"/>
<path d="M42.7393 31.5266C43.3414 31.3526 43.6885 30.7234 43.5145 30.1213C43.3405 29.5192 42.7114 29.1721 42.1093 29.3461C41.5072 29.5201 41.1601 30.1492 41.3341 30.7514C41.5081 31.3535 42.1372 31.7005 42.7393 31.5266Z" fill="#FAFBFB"/>
<path d="M46.243 31.7417C46.4296 31.8658 46.1804 33.0574 45.3354 33.5153C44.5842 33.9221 43.5873 33.6289 43.5641 33.4098C43.5468 33.2487 44.0626 33.2035 44.925 32.6772C45.8315 32.1243 46.1132 31.6548 46.243 31.7417Z" fill="#FAFBFB"/>
<path d="M38.7511 31.1006C38.7511 31.1006 44.2803 30.7574 46.6659 27.6578C46.6659 27.6578 43.9824 26.5219 41.8542 26.9774C39.7248 27.4341 38.7511 31.1006 38.7511 31.1006Z" fill="#006D41"/>
<path d="M63.4239 31.0241C63.4239 31.0241 61.6168 30.9232 59.6195 30.2602C58.1219 29.7641 56.5188 28.9515 55.4883 27.6289C55.4883 27.6289 58.1648 26.4767 60.2953 26.9206C61.1473 27.098 61.8173 27.7889 62.3146 28.5551C63.0646 29.705 63.4239 31.0241 63.4239 31.0241Z" fill="#006D41"/>
<path d="M31.601 21.1116L31.6602 21.1885L31.7388 21.1317L32.5676 20.5336L32.6481 20.4755L32.5907 20.3946C32.5336 20.3143 31.2887 18.6172 28.7604 17.4933L28.7604 17.4933C26.4425 16.4633 22.5713 15.7473 17.2655 18.1404L17.1743 18.1815L17.2155 18.2727L17.6363 19.2047L17.6774 19.2958L17.7686 19.2547C21.6886 17.4856 25.2005 17.2689 28.2148 18.5886C30.44 19.5633 31.568 21.0675 31.6004 21.1107L31.601 21.1116Z" fill="white" stroke="#575959" stroke-width="0.2"/>
<path d="M16.84 21.5772C18.1315 21.3334 18.9807 20.0888 18.7369 18.7974C18.4931 17.5059 17.2486 16.6567 15.9571 16.9005C14.6657 17.1443 13.8164 18.3888 14.0602 19.6803C14.304 20.9717 15.5486 21.821 16.84 21.5772Z" fill="#006D41"/>
<path d="M51.079 40.3587C52.2347 40.3552 53.1342 40.5754 53.7868 40.8618C54.9576 41.3753 55.332 42.0998 54.9576 42.1171C54.3745 42.1438 52.9823 41.7682 51.4117 41.7729C49.6069 41.7787 48.3781 42.0302 47.4496 42.0534C47.4079 42.0545 47.3673 42.0557 47.3279 42.0557C46.3844 42.0592 47.5331 40.3691 51.079 40.3587Z" fill="#006D41"/>
<path d="M55.4884 27.6299C56.0958 28.0901 56.7055 28.4749 57.3326 28.825C57.9574 29.1739 58.5984 29.4741 59.2545 29.7454L59.753 29.932C59.8364 29.9633 59.9176 30.0015 60.0022 30.027C60.0868 30.0537 60.1726 30.0792 60.2572 30.1093C60.4264 30.165 60.5945 30.2264 60.7661 30.2809C60.9388 30.3284 61.1115 30.3794 61.2842 30.4327L61.5439 30.5139C61.632 30.5359 61.7201 30.5568 61.8082 30.58C61.9844 30.6252 62.1606 30.675 62.3391 30.7272C62.6961 30.8211 63.0578 30.8999 63.4252 31.0251C63.2386 31.0645 63.0508 31.0969 62.8619 31.1224C62.6729 31.1456 62.4816 31.1769 62.2915 31.1804C62.1014 31.1839 61.9102 31.185 61.7189 31.1827C61.6227 31.1827 61.5276 31.1792 61.4314 31.1769C61.3364 31.17 61.2413 31.1595 61.1463 31.148C60.9562 31.1259 60.7649 31.1027 60.5748 31.0749C60.3847 31.0459 60.1992 30.9938 60.0115 30.9532C59.6336 30.8755 59.2719 30.7318 58.9079 30.6043C58.1927 30.3087 57.5146 29.9158 56.9188 29.422C56.8435 29.3605 56.7704 29.2979 56.6986 29.2342C56.629 29.1669 56.5583 29.1009 56.4899 29.0325C56.3497 28.9003 56.2245 28.7519 56.0993 28.6059C55.8582 28.3057 55.6345 27.9869 55.4884 27.6299Z" fill="#002D2D"/>
<path d="M46.6764 27.6299C46.5304 27.9869 46.3067 28.3057 46.0656 28.6059C45.9404 28.7519 45.8152 28.9003 45.6749 29.0325C45.6065 29.1009 45.537 29.1681 45.4663 29.2342C45.3932 29.2979 45.3202 29.3605 45.246 29.422C44.6502 29.9158 43.9721 30.3087 43.2569 30.6043C42.8929 30.7318 42.5313 30.8755 42.1534 30.9532C41.9656 30.9938 41.7801 31.0459 41.59 31.0749C41.3999 31.1027 41.2087 31.1259 41.0185 31.148C40.9235 31.1595 40.8285 31.17 40.7334 31.1769C40.6372 31.1792 40.5421 31.1827 40.4459 31.1827C40.2547 31.185 40.0634 31.1839 39.8733 31.1804C39.6832 31.1758 39.4919 31.1456 39.303 31.1224C39.114 31.0969 38.9262 31.0656 38.7396 31.0251C39.1071 30.8999 39.4699 30.8211 39.8258 30.7272C40.0031 30.675 40.1805 30.6252 40.3567 30.58C40.4448 30.5556 40.5329 30.5347 40.621 30.5139L40.8806 30.4327C41.0533 30.3794 41.226 30.3284 41.3988 30.2809C41.5692 30.2264 41.7384 30.165 41.9076 30.1093C41.9923 30.0803 42.0769 30.0549 42.1615 30.027C42.2461 30.0004 42.3272 29.9633 42.4107 29.932L42.9092 29.7454C43.5652 29.4753 44.2051 29.1739 44.8311 28.825C45.4593 28.4749 46.069 28.0901 46.6764 27.6299Z" fill="#002D2D"/>
<path d="M69.3319 85.2093C69.3319 85.5938 69.022 86.094 68.1184 86.6478C67.2434 87.1842 65.9439 87.6852 64.2939 88.1129C61.0015 88.9665 56.4258 89.5001 51.3525 89.5001C46.2792 89.5001 41.7035 88.9665 38.411 88.1129C36.761 87.6852 35.4616 87.1842 34.5865 86.6478C33.683 86.094 33.373 85.5938 33.373 85.2093C33.373 84.8248 33.683 84.3246 34.5865 83.7708C35.4616 83.2344 36.761 82.7334 38.411 82.3057C41.7035 81.4521 46.2792 80.9185 51.3525 80.9185C56.4258 80.9185 61.0015 81.4521 64.2939 82.3057C65.9439 82.7334 67.2434 83.2344 68.1184 83.7708C69.022 84.3246 69.3319 84.8248 69.3319 85.2093Z" stroke="#C9CCCF"/>
</svg>
