<svg width="24" height="24" viewBox="0 0 24 24" fill="none" xmlns="http://www.w3.org/2000/svg">
<g clip-path="url(#clip0_14131_12613)">
<path d="M20.0532 22.7127V14.2445C20.0532 13.5855 19.519 13.0513 18.86 13.0513H5.14003C4.48101 13.0513 3.94678 13.5855 3.94678 14.2445V22.7127C3.94678 23.3717 4.48101 23.906 5.14003 23.906H18.86C19.519 23.906 20.0532 23.3717 20.0532 22.7127Z" fill="url(#paint0_linear_14131_12613)"/>
<path d="M13.8047 13.0513H18.8602C19.5192 13.0513 20.0534 13.5855 20.0534 14.2445V22.7127C20.0534 23.3717 19.5192 23.906 18.8602 23.906H13.8047V13.0513Z" fill="url(#paint1_linear_14131_12613)"/>
<path d="M20.0531 14.2445C20.0531 13.5855 19.5188 13.0513 18.8598 13.0513H16.3501V17.3712L20.0531 21.0742V14.2445Z" fill="url(#paint2_linear_14131_12613)"/>
<path d="M13.8046 14.1945V22.7629C13.8046 23.3943 13.2928 23.9061 12.6614 23.9061H5.13975C4.48087 23.9061 3.94678 23.372 3.94678 22.7131V14.2447C3.94678 13.5856 4.48111 13.0513 5.14022 13.0513H12.6614C13.2928 13.0513 13.8046 13.5631 13.8046 14.1945Z" fill="url(#paint3_linear_14131_12613)"/>
<path d="M13.8046 14.1945V22.7629C13.8046 23.3943 13.2928 23.9061 12.6614 23.9061H5.13975C4.48087 23.9061 3.94678 23.372 3.94678 22.7131V14.2447C3.94678 13.5856 4.48111 13.0513 5.14022 13.0513H12.6614C13.2928 13.0513 13.8046 13.5631 13.8046 14.1945Z" fill="url(#paint4_linear_14131_12613)"/>
<path d="M13.8047 14.1946V22.7628C13.8047 23.3942 13.2928 23.9061 12.6614 23.9061H9.34033V13.0513H12.6614C13.2928 13.0513 13.8047 13.5631 13.8047 14.1946Z" fill="url(#paint5_linear_14131_12613)"/>
<path d="M3.94678 22.7131V18.0669H20.0532V22.7131C20.0532 23.3722 19.519 23.9064 18.86 23.9064H5.14003C4.48101 23.9064 3.94678 23.3722 3.94678 22.7131Z" fill="url(#paint6_linear_14131_12613)"/>
<path d="M9.73891 23.9997H8.01241C7.885 23.9997 7.78174 23.8965 7.78174 23.7691V13.1838C7.78174 13.0564 7.885 12.9531 8.01241 12.9531H9.73891C9.86632 12.9531 9.96958 13.0564 9.96958 13.1838V23.7691C9.96958 23.8965 9.86632 23.9997 9.73891 23.9997Z" fill="url(#paint7_linear_14131_12613)"/>
<path d="M9.73891 12.9531H8.01241C7.885 12.9531 7.78174 13.0564 7.78174 13.1838V17.5278H9.96953V13.1838C9.96958 13.0564 9.86632 12.9531 9.73891 12.9531Z" fill="url(#paint8_linear_14131_12613)"/>
<path d="M7.78174 22.0098V23.7691C7.78174 23.8965 7.885 23.9998 8.01241 23.9998H9.73891C9.86632 23.9998 9.96958 23.8965 9.96958 23.7691V22.0098H7.78174Z" fill="url(#paint9_linear_14131_12613)"/>
<path d="M6.0723 9.45312L6.78414 10.9797C7.13191 11.7255 7.02058 12.6047 6.49792 13.2403C5.82953 14.0532 4.53714 13.8667 4.12577 12.8981C3.79581 12.1212 4.00745 11.2201 4.64875 10.6714L6.0723 9.45312Z" fill="url(#paint10_linear_14131_12613)"/>
<path d="M6.0723 9.45312L6.78414 10.9797C7.13191 11.7255 7.02058 12.6047 6.49792 13.2403C5.82953 14.0532 4.53714 13.8667 4.12577 12.8981C3.79581 12.1212 4.00745 11.2201 4.64875 10.6714L6.0723 9.45312Z" fill="url(#paint11_linear_14131_12613)"/>
<path d="M6.42885 10.2173C6.40354 10.2278 6.37827 10.2386 6.35319 10.2503C5.36254 10.7122 4.93391 11.8898 5.39586 12.8805C5.53804 13.1854 5.74813 13.4368 5.99957 13.6256C6.18435 13.5411 6.35544 13.4136 6.49804 13.2402C7.02069 12.6046 7.13202 11.7253 6.78425 10.9795L6.42885 10.2173Z" fill="url(#paint12_linear_14131_12613)"/>
<path d="M4.03662 12.637C4.06001 12.7252 4.08945 12.8125 4.12587 12.8983C4.53725 13.8668 5.82964 14.0534 6.49803 13.2405C6.94747 12.694 7.09245 11.9674 6.90322 11.3003L4.03662 12.637Z" fill="url(#paint13_linear_14131_12613)"/>
<path d="M6.70742 10.8149L5.87276 9.02496C5.465 8.15046 4.59134 7.58777 3.62647 7.57821C2.39262 7.56598 1.58604 8.86737 2.14601 9.96691C2.59512 10.8488 3.56403 11.3379 4.54025 11.1754L6.70742 10.8149Z" fill="url(#paint14_linear_14131_12613)"/>
<path d="M3.2367 8.99116C2.76256 9.21227 2.39614 9.57016 2.16162 9.99578C2.61711 10.8593 3.575 11.336 4.54043 11.1754L6.59553 10.8335C6.56459 10.5992 6.49807 10.3655 6.39289 10.1399C5.8385 8.95113 4.42545 8.43681 3.2367 8.99116Z" fill="url(#paint15_linear_14131_12613)"/>
<path d="M6.59534 10.8338C6.5644 10.5994 6.49788 10.3657 6.3927 10.1402C6.37399 10.1 6.35412 10.0608 6.33349 10.0222C5.81084 9.60198 5.0748 9.48812 4.42591 9.7907C3.88282 10.044 3.52395 10.5315 3.41309 11.0769C3.76629 11.2017 4.15263 11.2401 4.54029 11.1757L6.59534 10.8338Z" fill="url(#paint16_linear_14131_12613)"/>
<path d="M6.48877 9.25909L7.20061 10.7857C7.54838 11.5314 8.29346 12.0114 9.11635 12.0195C10.1686 12.03 10.8565 10.9201 10.3789 9.98232C9.99591 9.23021 9.1696 8.81312 8.337 8.95164L6.48877 9.25909Z" fill="url(#paint17_linear_14131_12613)"/>
<path d="M6.48877 9.25909L7.20061 10.7857C7.54838 11.5314 8.29346 12.0114 9.11635 12.0195C10.1686 12.03 10.8565 10.9201 10.3789 9.98232C9.99591 9.23021 9.1696 8.81312 8.337 8.95164L6.48877 9.25909Z" fill="url(#paint18_linear_14131_12613)"/>
<path d="M6.84521 10.0234C6.86959 10.0108 6.89401 9.99836 6.91909 9.98668C7.90975 9.52473 9.08734 9.95336 9.54929 10.944C9.69146 11.2489 9.74898 11.5714 9.73201 11.8854C9.5485 11.9726 9.34079 12.0217 9.11631 12.0195C8.29346 12.0114 7.54834 11.5315 7.20057 10.7857L6.84521 10.0234Z" fill="url(#paint19_linear_14131_12613)"/>
<path d="M10.2362 9.74609C10.2887 9.82067 10.3367 9.89938 10.379 9.98239C10.8565 10.9201 10.1686 12.03 9.11638 12.0196C8.4088 12.0125 7.75902 11.6565 7.36963 11.0828L10.2362 9.74609Z" fill="url(#paint20_linear_14131_12613)"/>
<path d="M7.12366 10.621L6.28901 8.83103C5.88124 7.95653 6.01174 6.92561 6.62463 6.18034C7.40838 5.22728 8.92376 5.44595 9.40615 6.58169C9.79301 7.49261 9.54485 8.54917 8.79293 9.19263L7.12366 10.621Z" fill="url(#paint21_linear_14131_12613)"/>
<path d="M7.95779 6.79009C8.43193 6.56898 8.94165 6.5184 9.41842 6.61229C9.78709 7.51623 9.53664 8.55648 8.79301 9.19281L7.21014 10.5474C7.05048 10.373 6.91426 10.1719 6.80903 9.94627C6.25468 8.75748 6.769 7.34443 7.95779 6.79009Z" fill="url(#paint22_linear_14131_12613)"/>
<path d="M7.21021 10.5469C7.05055 10.3726 6.91434 10.1714 6.8091 9.94582C6.7904 9.9057 6.7731 9.86525 6.75684 9.82465C6.77085 9.15415 7.15677 8.51712 7.80566 8.21454C8.34876 7.96128 8.95293 7.99976 9.44198 8.2654C9.31059 8.61617 9.09168 8.93689 8.79313 9.1924L7.21021 10.5469Z" fill="url(#paint23_linear_14131_12613)"/>
<path d="M7.48811 8.96231C7.20906 8.64628 6.72245 8.62181 6.40792 8.9025C6.331 8.97112 6.24442 9.02887 6.14856 9.07355C6.05275 9.11822 5.95286 9.14747 5.85081 9.16228C5.43358 9.2228 5.13953 9.61134 5.20229 10.0282C5.23215 10.2266 5.2922 10.4289 5.3844 10.6266C5.47375 10.8182 5.58583 10.9895 5.71351 11.1367C5.99448 11.4607 6.48611 11.4959 6.80617 11.2104C6.88304 11.1418 6.96958 11.0842 7.06534 11.0395C7.16115 10.9948 7.26104 10.9656 7.36309 10.9507C7.78033 10.8902 8.07437 10.5017 8.01161 10.0848C7.98175 9.88645 7.9217 9.68409 7.8295 9.48642C7.73729 9.28875 7.6209 9.11269 7.48811 8.96231Z" fill="url(#paint24_linear_14131_12613)"/>
<path d="M6.1457 10.6201C5.87481 10.0391 5.98942 9.37763 6.38401 8.92285C6.31319 8.98248 6.23462 9.03319 6.14856 9.07332C6.05275 9.11799 5.95286 9.14724 5.85081 9.16205C5.43358 9.22257 5.13953 9.61107 5.20229 10.028C5.23215 10.2264 5.2922 10.4287 5.3844 10.6264C5.47375 10.818 5.58583 10.9892 5.71351 11.1365C5.97006 11.4324 6.4022 11.4872 6.71908 11.2772C6.47781 11.122 6.27592 10.8993 6.1457 10.6201Z" fill="url(#paint25_linear_14131_12613)"/>
<path d="M5.38414 10.6268C5.47348 10.8184 5.58556 10.9897 5.71325 11.1369C5.99422 11.461 6.48584 11.4961 6.80591 11.2106C6.88278 11.142 6.96931 11.0844 7.06508 11.0397C7.16089 10.995 7.26078 10.9658 7.36283 10.951C7.78006 10.8905 8.07411 10.502 8.01134 10.0851C7.98148 9.88669 7.92144 9.68433 7.82923 9.48666C7.78588 9.39366 7.73698 9.30567 7.68369 9.22266L5.27539 10.3456C5.30483 10.4398 5.34078 10.5338 5.38414 10.6268Z" fill="url(#paint26_linear_14131_12613)"/>
<path d="M15.1394 9.29889L14.7095 8.37676C14.4309 7.77948 13.721 7.52106 13.1237 7.79959L0.689243 13.5979C0.0919622 13.8764 -0.166413 14.5864 0.112072 15.1837L0.542056 16.1058C0.820587 16.7031 1.53056 16.9615 2.12779 16.683L14.5623 10.8847C15.1596 10.6061 15.418 9.89617 15.1394 9.29889Z" fill="url(#paint27_linear_14131_12613)"/>
<path d="M8.54199 9.93611L13.1238 7.79959C13.7211 7.52106 14.431 7.77948 14.7095 8.37676L15.1395 9.29889C15.418 9.89617 15.1596 10.6061 14.5623 10.8846L9.98054 13.0211L8.54199 9.93611Z" fill="url(#paint28_linear_14131_12613)"/>
<path d="M8.83166 13.5571L12.0419 12.0601L10.6033 8.9751L7.39307 10.4721L8.83166 13.5571Z" fill="url(#paint29_linear_14131_12613)"/>
<path d="M0.542238 16.1059L0.273926 15.5305L14.8713 8.72363L15.1396 9.29907C15.4182 9.89635 15.1597 10.6063 14.5625 10.8848L2.12802 16.6831C1.53074 16.9616 0.82077 16.7032 0.542238 16.1059Z" fill="url(#paint30_linear_14131_12613)"/>
<path d="M9.17204 13.5149L7.60731 14.2445C7.49185 14.2984 7.3546 14.2484 7.30079 14.1329L5.96748 11.2737C5.91362 11.1582 5.96359 11.021 6.07904 10.9672L7.64377 10.2375C7.75923 10.1836 7.89648 10.2336 7.95029 10.3491L9.2836 13.2083C9.33746 13.3238 9.28749 13.461 9.17204 13.5149Z" fill="url(#paint31_linear_14131_12613)"/>
<path d="M6.55713 12.5384L7.30066 14.1329C7.35452 14.2483 7.49172 14.2983 7.60718 14.2444L9.17191 13.5148C9.28736 13.4609 9.33733 13.3237 9.28347 13.2083L8.53994 11.6138L6.55713 12.5384Z" fill="url(#paint32_linear_14131_12613)"/>
<path d="M16.5036 3.29041C16.1969 2.68637 15.6905 2.20094 15.071 1.92128C15.0024 1.8903 15.0024 1.79209 15.071 1.76111C15.6905 1.48145 16.1968 0.996016 16.5036 0.391984C16.5363 0.327672 16.6279 0.327672 16.6605 0.391984C16.9672 0.996016 17.4736 1.48145 18.0931 1.76111C18.1617 1.79209 18.1617 1.8903 18.0931 1.92128C17.4736 2.20094 16.9672 2.68637 16.6605 3.29041C16.6279 3.35467 16.5362 3.35467 16.5036 3.29041Z" fill="url(#paint33_linear_14131_12613)"/>
<path d="M22.0505 16.5565C21.7438 15.9525 21.2373 15.4671 20.6179 15.1874C20.5493 15.1564 20.5493 15.0582 20.6179 15.0272C21.2373 14.7476 21.7437 14.2621 22.0505 13.6581C22.0831 13.5938 22.1747 13.5938 22.2074 13.6581C22.5141 14.2621 23.0205 14.7476 23.64 15.0272C23.7086 15.0582 23.7086 15.1564 23.64 15.1874C23.0205 15.4671 22.5141 15.9525 22.2074 16.5565C22.1747 16.6208 22.0831 16.6208 22.0505 16.5565Z" fill="url(#paint34_linear_14131_12613)"/>
<path d="M16.9975 9.72983L16.0703 8.8026C15.9238 8.65611 15.9238 8.4186 16.0703 8.27211L17.337 7.00541C17.8789 6.46349 18.1774 5.74297 18.1774 4.97657C18.1774 3.65952 18.6903 2.42127 19.6216 1.48996L21.0017 0.109863C21.1481 -0.0366211 21.3857 -0.0366211 21.5321 0.109863L22.4594 1.0371C22.6059 1.18358 22.6059 1.4211 22.4594 1.56758L21.0793 2.94768C20.5374 3.4896 20.2389 4.21011 20.2389 4.97652C20.2389 6.29361 19.726 7.53182 18.7947 8.46313L17.528 9.72983C17.3815 9.87632 17.144 9.87632 16.9975 9.72983Z" fill="url(#paint35_linear_14131_12613)"/>
<path d="M18.1774 4.97656C18.1774 5.74297 17.8789 6.46348 17.337 7.00541L16.0703 8.27211C15.9238 8.41859 15.9238 8.65611 16.0703 8.80259L16.9975 9.72983C17.144 9.87631 17.3815 9.87631 17.528 9.72983C17.9438 9.31405 18.1774 8.75014 18.1774 8.16214V4.97656Z" fill="url(#paint36_linear_14131_12613)"/>
<path d="M18.1774 4.97656C18.1774 5.74297 17.8789 6.46348 17.337 7.00541L16.0703 8.27211C15.9238 8.41859 15.9238 8.65611 16.0703 8.80259L16.9975 9.72983C17.144 9.87631 17.3815 9.87631 17.528 9.72983C17.9438 9.31405 18.1774 8.75014 18.1774 8.16214V4.97656Z" fill="url(#paint37_linear_14131_12613)"/>
<path d="M17.5278 9.72983C17.9436 9.31405 18.1772 8.75014 18.1772 8.16214V4.97656" fill="url(#paint38_linear_14131_12613)"/>
<path d="M20.2388 4.97652C20.2387 4.21011 20.5372 3.4896 21.0791 2.94768L22.4592 1.56758C22.6057 1.4211 22.6057 1.18358 22.4592 1.0371L21.532 0.109863C21.3855 -0.0366211 21.148 -0.0366211 21.0015 0.109863L20.7745 0.336879C20.4315 0.679863 20.2388 1.14505 20.2388 1.63011V4.97652Z" fill="url(#paint39_linear_14131_12613)"/>
<path d="M13.6088 6.25846L12.8363 7.03096C12.7143 7.15298 12.5164 7.15298 12.3944 7.03096L11.3391 5.97566C10.8876 5.52421 10.2873 5.27554 9.64885 5.27554C8.5516 5.27554 7.52002 4.84827 6.74419 4.0724L5.59444 2.92265C5.47243 2.80063 5.47243 2.60273 5.59444 2.48071L6.36694 1.70821C6.48896 1.5862 6.68686 1.5862 6.80888 1.70821L7.95863 2.85796C8.41008 3.30941 9.01036 3.55809 9.64885 3.55804C10.7461 3.55804 11.7777 3.98535 12.5535 4.76118L13.6088 5.81648C13.7308 5.93859 13.7308 6.13645 13.6088 6.25846Z" fill="url(#paint40_linear_14131_12613)"/>
<path d="M9.64893 5.27539C10.2874 5.27539 10.8877 5.52402 11.3391 5.97552L12.3944 7.03081C12.5165 7.15283 12.7143 7.15283 12.8364 7.03081L13.6089 6.25831C13.7309 6.1363 13.7309 5.93839 13.6089 5.81638C13.2625 5.47002 12.7927 5.27539 12.3028 5.27539H9.64893Z" fill="url(#paint41_linear_14131_12613)"/>
<path d="M9.64893 5.27539C10.2874 5.27539 10.8877 5.52402 11.3391 5.97552L12.3944 7.03081C12.5165 7.15283 12.7143 7.15283 12.8364 7.03081L13.6089 6.25831C13.7309 6.1363 13.7309 5.93839 13.6089 5.81638C13.2625 5.47002 12.7927 5.27539 12.3028 5.27539H9.64893Z" fill="url(#paint42_linear_14131_12613)"/>
<path d="M13.6088 5.81638C13.2625 5.47002 12.7926 5.27539 12.3028 5.27539H9.64893" fill="url(#paint43_linear_14131_12613)"/>
<path d="M9.64885 3.55804C9.01036 3.55804 8.41008 3.30941 7.95863 2.85796L6.80888 1.70821C6.68686 1.5862 6.489 1.5862 6.36694 1.70821L5.59444 2.48071C5.47243 2.60273 5.47243 2.80063 5.59444 2.92265L5.78358 3.11179C6.06933 3.39754 6.45689 3.55804 6.86096 3.55804H9.64885Z" fill="url(#paint44_linear_14131_12613)"/>
<path d="M10.3294 0.726609V0.282562C10.3294 0.126516 10.2029 0 10.0468 0H9.06186C8.90581 0 8.7793 0.126516 8.7793 0.282562V0.670078C8.7793 2.0122 9.86731 3.10022 11.2094 3.10022H11.597C11.753 3.10022 11.8795 2.9737 11.8795 2.81766V1.83272C11.8795 1.67667 11.753 1.55016 11.597 1.55016H11.1529C10.6981 1.55011 10.3294 1.18144 10.3294 0.726609Z" fill="url(#paint45_linear_14131_12613)"/>
<path d="M11.2096 3.10017H11.5971C11.7532 3.10017 11.8797 2.97366 11.8797 2.81761V1.83263C11.8797 1.67658 11.7532 1.55006 11.5971 1.55006H11.1531C10.6983 1.55006 10.3296 1.18139 10.3296 0.726562V2.21545C10.3296 2.69859 10.7172 3.09834 11.2003 3.10017H11.2096Z" fill="url(#paint46_linear_14131_12613)"/>
<path d="M22.2877 6.20149L22.6478 6.56163C22.7744 6.68819 22.9796 6.68819 23.1061 6.56163L23.9049 5.76283C24.0315 5.63627 24.0315 5.43105 23.9049 5.30449L23.5906 4.99019C22.5022 3.90171 20.7374 3.90171 19.649 4.99019L19.3347 5.30449C19.2081 5.43105 19.2081 5.63627 19.3347 5.76283L20.1335 6.56163C20.26 6.68819 20.4652 6.68819 20.5918 6.56163L20.9519 6.20149C21.3208 5.83268 21.9188 5.83268 22.2877 6.20149Z" fill="url(#paint47_linear_14131_12613)"/>
<path d="M19.649 4.99008L19.3347 5.30438C19.2081 5.43094 19.2081 5.63616 19.3347 5.76272L20.1335 6.56152C20.26 6.68808 20.4652 6.68808 20.5918 6.56152L20.9519 6.20138C21.3208 5.83252 21.9188 5.83252 22.2877 6.20138L21.0802 4.99388C20.6883 4.60205 20.0498 4.59216 19.6565 4.98253C19.654 4.98506 19.6515 4.98755 19.649 4.99008Z" fill="url(#paint48_linear_14131_12613)"/>
<path d="M15.8227 15.4261L15.3896 15.8593C15.2373 16.0115 15.2373 16.2584 15.3896 16.4106L16.3505 17.3715C16.5027 17.5238 16.7496 17.5238 16.9018 17.3715L17.2799 16.9935C18.5892 15.6841 18.5892 13.5613 17.2799 12.252L16.9018 11.874C16.7496 11.7217 16.5027 11.7217 16.3505 11.874L15.3896 12.8348C15.2373 12.9871 15.2373 13.2339 15.3896 13.3862L15.8227 13.8194C16.2664 14.263 16.2664 14.9824 15.8227 15.4261Z" fill="url(#paint49_linear_14131_12613)"/>
<path d="M17.2799 12.252L16.9018 11.874C16.7496 11.7217 16.5027 11.7217 16.3505 11.874L15.3896 12.8348C15.2373 12.9871 15.2373 13.2339 15.3896 13.3862L15.8227 13.8194C16.2664 14.263 16.2664 14.9824 15.8227 15.4261L17.2753 13.9736C17.7466 13.5022 17.7585 12.7342 17.2889 12.2611C17.2859 12.258 17.2829 12.255 17.2799 12.252Z" fill="url(#paint50_linear_14131_12613)"/>
<path d="M22.8077 8.52862C22.8786 8.84873 22.6835 9.16992 22.3652 9.24867C21.4243 9.48154 20.5119 9.83606 19.631 10.3111C18.7351 10.7943 17.9236 11.2376 17.3199 11.5686C17.0039 11.742 16.6728 11.3617 16.8902 11.074C17.3223 10.5009 17.9991 9.80559 18.9996 9.26062C19.81 8.81896 20.8401 8.37262 22.0673 8.07014C22.3991 7.98834 22.7338 8.19492 22.8077 8.52862Z" fill="url(#paint51_linear_14131_12613)"/>
<path d="M12.7152 1.03727C12.4557 1.23771 12.3999 1.60934 12.5938 1.87367C13.1673 2.65517 13.641 3.51171 14.0132 4.44068C14.3918 5.38559 14.7312 6.24579 14.9828 6.88667C15.1144 7.2222 15.6123 7.14213 15.6296 6.78199C15.6647 6.06513 15.5902 5.09763 15.1709 4.03835C14.8313 3.18012 14.3261 2.1776 13.5774 1.15938C13.3749 0.884041 12.9857 0.828353 12.7152 1.03727Z" fill="url(#paint52_linear_14131_12613)"/>
</g>
<defs>
<linearGradient id="paint0_linear_14131_12613" x1="9.42482" y1="13.1542" x2="14.347" y2="23.3311" gradientUnits="userSpaceOnUse">
<stop stop-color="#C8EFFE"/>
<stop offset="1" stop-color="#62DBFB"/>
</linearGradient>
<linearGradient id="paint1_linear_14131_12613" x1="16.5942" y1="18.4972" x2="21.1053" y2="18.8481" gradientUnits="userSpaceOnUse">
<stop stop-color="#07B2CD" stop-opacity="0"/>
<stop offset="0.4553" stop-color="#05A5CE" stop-opacity="0.455"/>
<stop offset="1" stop-color="#0290CF"/>
</linearGradient>
<linearGradient id="paint2_linear_14131_12613" x1="20.3744" y1="17.41" x2="16.4091" y2="15.6724" gradientUnits="userSpaceOnUse">
<stop stop-color="#07B2CD" stop-opacity="0"/>
<stop offset="0.4553" stop-color="#05A5CE" stop-opacity="0.455"/>
<stop offset="1" stop-color="#0290CF"/>
</linearGradient>
<linearGradient id="paint3_linear_14131_12613" x1="7.19597" y1="17.024" x2="15.316" y2="23.9912" gradientUnits="userSpaceOnUse">
<stop stop-color="#07B2CD" stop-opacity="0"/>
<stop offset="0.4553" stop-color="#05A5CE" stop-opacity="0.455"/>
<stop offset="1" stop-color="#0290CF"/>
</linearGradient>
<linearGradient id="paint4_linear_14131_12613" x1="7.83998" y1="16.0661" x2="6.87089" y2="13.8272" gradientUnits="userSpaceOnUse">
<stop stop-color="#07B2CD" stop-opacity="0"/>
<stop offset="0.4553" stop-color="#05A5CE" stop-opacity="0.455"/>
<stop offset="1" stop-color="#0290CF"/>
</linearGradient>
<linearGradient id="paint5_linear_14131_12613" x1="11.167" y1="18.4787" x2="9.77697" y2="18.4787" gradientUnits="userSpaceOnUse">
<stop stop-color="#07B2CD" stop-opacity="0"/>
<stop offset="0.4553" stop-color="#05A5CE" stop-opacity="0.455"/>
<stop offset="1" stop-color="#0290CF"/>
</linearGradient>
<linearGradient id="paint6_linear_14131_12613" x1="12" y1="20.8516" x2="12" y2="23.8241" gradientUnits="userSpaceOnUse">
<stop stop-color="#07B2CD" stop-opacity="0"/>
<stop offset="0.4553" stop-color="#05A5CE" stop-opacity="0.455"/>
<stop offset="1" stop-color="#0290CF"/>
</linearGradient>
<linearGradient id="paint7_linear_14131_12613" x1="8.13171" y1="18.3679" x2="10.2703" y2="18.6798" gradientUnits="userSpaceOnUse">
<stop stop-color="#FDB4BA"/>
<stop offset="1" stop-color="#FE5694"/>
</linearGradient>
<linearGradient id="paint8_linear_14131_12613" x1="9.36649" y1="16.4728" x2="8.13011" y2="13.599" gradientUnits="userSpaceOnUse">
<stop stop-color="#FD3581" stop-opacity="0"/>
<stop offset="0.2815" stop-color="#FA317D" stop-opacity="0.282"/>
<stop offset="0.5604" stop-color="#F02571" stop-opacity="0.56"/>
<stop offset="0.8375" stop-color="#DF115E" stop-opacity="0.838"/>
<stop offset="1" stop-color="#D2024E"/>
</linearGradient>
<linearGradient id="paint9_linear_14131_12613" x1="8.87561" y1="23.2128" x2="8.87561" y2="23.8708" gradientUnits="userSpaceOnUse">
<stop stop-color="#FD3581" stop-opacity="0"/>
<stop offset="0.2815" stop-color="#FA317D" stop-opacity="0.282"/>
<stop offset="0.5604" stop-color="#F02571" stop-opacity="0.56"/>
<stop offset="0.8375" stop-color="#DF115E" stop-opacity="0.838"/>
<stop offset="1" stop-color="#D2024E"/>
</linearGradient>
<linearGradient id="paint10_linear_14131_12613" x1="4.36032" y1="11.1513" x2="6.36429" y2="11.8568" gradientUnits="userSpaceOnUse">
<stop stop-color="#FDB4BA"/>
<stop offset="1" stop-color="#FE5694"/>
</linearGradient>
<linearGradient id="paint11_linear_14131_12613" x1="5.40375" y1="12.6187" x2="5.60147" y2="11.0695" gradientUnits="userSpaceOnUse">
<stop stop-color="#FD3581" stop-opacity="0"/>
<stop offset="0.2815" stop-color="#FA317D" stop-opacity="0.282"/>
<stop offset="0.5604" stop-color="#F02571" stop-opacity="0.56"/>
<stop offset="0.8375" stop-color="#DF115E" stop-opacity="0.838"/>
<stop offset="1" stop-color="#D2024E"/>
</linearGradient>
<linearGradient id="paint12_linear_14131_12613" x1="6.61354" y1="12.5474" x2="5.36382" y2="10.8032" gradientUnits="userSpaceOnUse">
<stop stop-color="#FD3581" stop-opacity="0"/>
<stop offset="0.2815" stop-color="#FA317D" stop-opacity="0.282"/>
<stop offset="0.5604" stop-color="#F02571" stop-opacity="0.56"/>
<stop offset="0.8375" stop-color="#DF115E" stop-opacity="0.838"/>
<stop offset="1" stop-color="#D2024E"/>
</linearGradient>
<linearGradient id="paint13_linear_14131_12613" x1="5.63235" y1="12.3409" x2="6.22989" y2="13.6207" gradientUnits="userSpaceOnUse">
<stop stop-color="#FD3581" stop-opacity="0"/>
<stop offset="0.2815" stop-color="#FA317D" stop-opacity="0.282"/>
<stop offset="0.5604" stop-color="#F02571" stop-opacity="0.56"/>
<stop offset="0.8375" stop-color="#DF115E" stop-opacity="0.838"/>
<stop offset="1" stop-color="#D2024E"/>
</linearGradient>
<linearGradient id="paint14_linear_14131_12613" x1="3.0544" y1="9.14501" x2="5.41219" y2="9.81928" gradientUnits="userSpaceOnUse">
<stop stop-color="#FDB4BA"/>
<stop offset="1" stop-color="#FE5694"/>
</linearGradient>
<linearGradient id="paint15_linear_14131_12613" x1="4.84031" y1="9.92322" x2="5.97866" y2="8.98983" gradientUnits="userSpaceOnUse">
<stop stop-color="#FD3581" stop-opacity="0"/>
<stop offset="0.2815" stop-color="#FA317D" stop-opacity="0.282"/>
<stop offset="0.5604" stop-color="#F02571" stop-opacity="0.56"/>
<stop offset="0.8375" stop-color="#DF115E" stop-opacity="0.838"/>
<stop offset="1" stop-color="#D2024E"/>
</linearGradient>
<linearGradient id="paint16_linear_14131_12613" x1="5.00197" y1="10.754" x2="5.91021" y2="9.79412" gradientUnits="userSpaceOnUse">
<stop stop-color="#FD3581" stop-opacity="0"/>
<stop offset="0.2815" stop-color="#FA317D" stop-opacity="0.282"/>
<stop offset="0.5604" stop-color="#F02571" stop-opacity="0.56"/>
<stop offset="0.8375" stop-color="#DF115E" stop-opacity="0.838"/>
<stop offset="1" stop-color="#D2024E"/>
</linearGradient>
<linearGradient id="paint17_linear_14131_12613" x1="8.96345" y1="9.1164" x2="8.21762" y2="11.1057" gradientUnits="userSpaceOnUse">
<stop stop-color="#FDB4BA"/>
<stop offset="1" stop-color="#FE5694"/>
</linearGradient>
<linearGradient id="paint18_linear_14131_12613" x1="9.41852" y1="10.8585" x2="8.10384" y2="10.0154" gradientUnits="userSpaceOnUse">
<stop stop-color="#FD3581" stop-opacity="0"/>
<stop offset="0.2815" stop-color="#FA317D" stop-opacity="0.282"/>
<stop offset="0.5604" stop-color="#F02571" stop-opacity="0.56"/>
<stop offset="0.8375" stop-color="#DF115E" stop-opacity="0.838"/>
<stop offset="1" stop-color="#D2024E"/>
</linearGradient>
<linearGradient id="paint19_linear_14131_12613" x1="8.58733" y1="11.7402" x2="8.05253" y2="9.66225" gradientUnits="userSpaceOnUse">
<stop stop-color="#FD3581" stop-opacity="0"/>
<stop offset="0.2815" stop-color="#FA317D" stop-opacity="0.282"/>
<stop offset="0.5604" stop-color="#F02571" stop-opacity="0.56"/>
<stop offset="0.8375" stop-color="#DF115E" stop-opacity="0.838"/>
<stop offset="1" stop-color="#D2024E"/>
</linearGradient>
<linearGradient id="paint20_linear_14131_12613" x1="9.05864" y1="10.8553" x2="9.65618" y2="12.1351" gradientUnits="userSpaceOnUse">
<stop stop-color="#FD3581" stop-opacity="0"/>
<stop offset="0.2815" stop-color="#FA317D" stop-opacity="0.282"/>
<stop offset="0.5604" stop-color="#F02571" stop-opacity="0.56"/>
<stop offset="0.8375" stop-color="#DF115E" stop-opacity="0.838"/>
<stop offset="1" stop-color="#D2024E"/>
</linearGradient>
<linearGradient id="paint21_linear_14131_12613" x1="8.2638" y1="6.82706" x2="7.26685" y2="9.06762" gradientUnits="userSpaceOnUse">
<stop stop-color="#FDB4BA"/>
<stop offset="1" stop-color="#FE5694"/>
</linearGradient>
<linearGradient id="paint22_linear_14131_12613" x1="7.71396" y1="8.69604" x2="6.26748" y2="8.96947" gradientUnits="userSpaceOnUse">
<stop stop-color="#FD3581" stop-opacity="0"/>
<stop offset="0.2815" stop-color="#FA317D" stop-opacity="0.282"/>
<stop offset="0.5604" stop-color="#F02571" stop-opacity="0.56"/>
<stop offset="0.8375" stop-color="#DF115E" stop-opacity="0.838"/>
<stop offset="1" stop-color="#D2024E"/>
</linearGradient>
<linearGradient id="paint23_linear_14131_12613" x1="8.24693" y1="9.35298" x2="6.92785" y2="9.43295" gradientUnits="userSpaceOnUse">
<stop stop-color="#FD3581" stop-opacity="0"/>
<stop offset="0.2815" stop-color="#FA317D" stop-opacity="0.282"/>
<stop offset="0.5604" stop-color="#F02571" stop-opacity="0.56"/>
<stop offset="0.8375" stop-color="#DF115E" stop-opacity="0.838"/>
<stop offset="1" stop-color="#D2024E"/>
</linearGradient>
<linearGradient id="paint24_linear_14131_12613" x1="5.91682" y1="9.85241" x2="7.19639" y2="10.1803" gradientUnits="userSpaceOnUse">
<stop stop-color="#FDB4BA"/>
<stop offset="1" stop-color="#FE5694"/>
</linearGradient>
<linearGradient id="paint25_linear_14131_12613" x1="6.08636" y1="9.85884" x2="6.32953" y2="9.00101" gradientUnits="userSpaceOnUse">
<stop stop-color="#FD3581" stop-opacity="0"/>
<stop offset="0.2815" stop-color="#FA317D" stop-opacity="0.282"/>
<stop offset="0.5604" stop-color="#F02571" stop-opacity="0.56"/>
<stop offset="0.8375" stop-color="#DF115E" stop-opacity="0.838"/>
<stop offset="1" stop-color="#D2024E"/>
</linearGradient>
<linearGradient id="paint26_linear_14131_12613" x1="6.68425" y1="10.2978" x2="7.07257" y2="11.1295" gradientUnits="userSpaceOnUse">
<stop stop-color="#FD3581" stop-opacity="0"/>
<stop offset="0.2815" stop-color="#FA317D" stop-opacity="0.282"/>
<stop offset="0.5604" stop-color="#F02571" stop-opacity="0.56"/>
<stop offset="0.8375" stop-color="#DF115E" stop-opacity="0.838"/>
<stop offset="1" stop-color="#D2024E"/>
</linearGradient>
<linearGradient id="paint27_linear_14131_12613" x1="4.98094" y1="10.0688" x2="10.0675" y2="14.2116" gradientUnits="userSpaceOnUse">
<stop stop-color="#C8EFFE"/>
<stop offset="1" stop-color="#62DBFB"/>
</linearGradient>
<linearGradient id="paint28_linear_14131_12613" x1="11.8209" y1="10.2999" x2="15.706" y2="8.84116" gradientUnits="userSpaceOnUse">
<stop stop-color="#07B2CD" stop-opacity="0"/>
<stop offset="0.4553" stop-color="#05A5CE" stop-opacity="0.455"/>
<stop offset="1" stop-color="#0290CF"/>
</linearGradient>
<linearGradient id="paint29_linear_14131_12613" x1="9.95172" y1="11.1504" x2="8.22757" y2="11.9553" gradientUnits="userSpaceOnUse">
<stop stop-color="#07B2CD" stop-opacity="0"/>
<stop offset="0.4553" stop-color="#05A5CE" stop-opacity="0.455"/>
<stop offset="1" stop-color="#0290CF"/>
</linearGradient>
<linearGradient id="paint30_linear_14131_12613" x1="7.94417" y1="12.9104" x2="8.33782" y2="13.7536" gradientUnits="userSpaceOnUse">
<stop stop-color="#07B2CD" stop-opacity="0"/>
<stop offset="0.4553" stop-color="#05A5CE" stop-opacity="0.455"/>
<stop offset="1" stop-color="#0290CF"/>
</linearGradient>
<linearGradient id="paint31_linear_14131_12613" x1="6.51432" y1="11.937" x2="8.77511" y2="12.5408" gradientUnits="userSpaceOnUse">
<stop stop-color="#FDB4BA"/>
<stop offset="1" stop-color="#FE5694"/>
</linearGradient>
<linearGradient id="paint32_linear_14131_12613" x1="8.06017" y1="13.1595" x2="8.33851" y2="13.7557" gradientUnits="userSpaceOnUse">
<stop stop-color="#FD3581" stop-opacity="0"/>
<stop offset="0.2815" stop-color="#FA317D" stop-opacity="0.282"/>
<stop offset="0.5604" stop-color="#F02571" stop-opacity="0.56"/>
<stop offset="0.8375" stop-color="#DF115E" stop-opacity="0.838"/>
<stop offset="1" stop-color="#D2024E"/>
</linearGradient>
<linearGradient id="paint33_linear_14131_12613" x1="16.014" y1="1.27314" x2="17.7299" y2="2.98909" gradientUnits="userSpaceOnUse">
<stop stop-color="#8BC727"/>
<stop offset="0.1318" stop-color="#83C528"/>
<stop offset="0.343" stop-color="#6BBD2B"/>
<stop offset="0.6071" stop-color="#45B131"/>
<stop offset="0.9112" stop-color="#11A038"/>
<stop offset="1" stop-color="#009B3A"/>
</linearGradient>
<linearGradient id="paint34_linear_14131_12613" x1="21.5609" y1="14.5393" x2="23.2769" y2="16.2552" gradientUnits="userSpaceOnUse">
<stop stop-color="#FD4755"/>
<stop offset="1" stop-color="#A72B2B"/>
</linearGradient>
<linearGradient id="paint35_linear_14131_12613" x1="17.7232" y1="3.37726" x2="20.7959" y2="6.44999" gradientUnits="userSpaceOnUse">
<stop stop-color="#FDB4BA"/>
<stop offset="1" stop-color="#FE5694"/>
</linearGradient>
<linearGradient id="paint36_linear_14131_12613" x1="16.2828" y1="7.38363" x2="18.2979" y2="7.40881" gradientUnits="userSpaceOnUse">
<stop stop-color="#FD3581" stop-opacity="0"/>
<stop offset="0.2815" stop-color="#FA317D" stop-opacity="0.282"/>
<stop offset="0.5604" stop-color="#F02571" stop-opacity="0.56"/>
<stop offset="0.8375" stop-color="#DF115E" stop-opacity="0.838"/>
<stop offset="1" stop-color="#D2024E"/>
</linearGradient>
<linearGradient id="paint37_linear_14131_12613" x1="16.6546" y1="8.53964" x2="16.2005" y2="8.99373" gradientUnits="userSpaceOnUse">
<stop stop-color="#FD3581" stop-opacity="0"/>
<stop offset="0.2815" stop-color="#FA317D" stop-opacity="0.282"/>
<stop offset="0.5604" stop-color="#F02571" stop-opacity="0.56"/>
<stop offset="0.8375" stop-color="#DF115E" stop-opacity="0.838"/>
<stop offset="1" stop-color="#D2024E"/>
</linearGradient>
<linearGradient id="paint38_linear_14131_12613" x1="16.8811" y1="8.31296" x2="16.2996" y2="8.89444" gradientUnits="userSpaceOnUse">
<stop stop-color="#FD3581" stop-opacity="0"/>
<stop offset="0.2815" stop-color="#FA317D" stop-opacity="0.282"/>
<stop offset="0.5604" stop-color="#F02571" stop-opacity="0.56"/>
<stop offset="0.8375" stop-color="#DF115E" stop-opacity="0.838"/>
<stop offset="1" stop-color="#D2024E"/>
</linearGradient>
<linearGradient id="paint39_linear_14131_12613" x1="22.249" y1="2.09359" x2="19.6797" y2="2.74848" gradientUnits="userSpaceOnUse">
<stop stop-color="#FD3581" stop-opacity="0"/>
<stop offset="0.2815" stop-color="#FA317D" stop-opacity="0.282"/>
<stop offset="0.5604" stop-color="#F02571" stop-opacity="0.56"/>
<stop offset="0.8375" stop-color="#DF115E" stop-opacity="0.838"/>
<stop offset="1" stop-color="#D2024E"/>
</linearGradient>
<linearGradient id="paint40_linear_14131_12613" x1="8.32133" y1="5.65026" x2="10.8812" y2="3.09038" gradientUnits="userSpaceOnUse">
<stop stop-color="#8BC727"/>
<stop offset="0.1318" stop-color="#83C528"/>
<stop offset="0.343" stop-color="#6BBD2B"/>
<stop offset="0.6071" stop-color="#45B131"/>
<stop offset="0.9112" stop-color="#11A038"/>
<stop offset="1" stop-color="#009B3A"/>
</linearGradient>
<linearGradient id="paint41_linear_14131_12613" x1="11.6591" y1="6.8501" x2="11.6801" y2="5.17136" gradientUnits="userSpaceOnUse">
<stop stop-color="#026841" stop-opacity="0"/>
<stop offset="0.2376" stop-color="#026441" stop-opacity="0.238"/>
<stop offset="0.4745" stop-color="#015840" stop-opacity="0.475"/>
<stop offset="0.7111" stop-color="#01443F" stop-opacity="0.711"/>
<stop offset="0.9463" stop-color="#00283D" stop-opacity="0.946"/>
<stop offset="1" stop-color="#00213D"/>
</linearGradient>
<linearGradient id="paint42_linear_14131_12613" x1="12.6221" y1="6.54033" x2="13.0004" y2="6.91863" gradientUnits="userSpaceOnUse">
<stop stop-color="#026841" stop-opacity="0"/>
<stop offset="0.2376" stop-color="#026441" stop-opacity="0.238"/>
<stop offset="0.4745" stop-color="#015840" stop-opacity="0.475"/>
<stop offset="0.7111" stop-color="#01443F" stop-opacity="0.711"/>
<stop offset="0.9463" stop-color="#00283D" stop-opacity="0.946"/>
<stop offset="1" stop-color="#00213D"/>
</linearGradient>
<linearGradient id="paint43_linear_14131_12613" x1="12.4332" y1="6.35146" x2="12.9177" y2="6.83595" gradientUnits="userSpaceOnUse">
<stop stop-color="#026841" stop-opacity="0"/>
<stop offset="0.2376" stop-color="#026441" stop-opacity="0.238"/>
<stop offset="0.4745" stop-color="#015840" stop-opacity="0.475"/>
<stop offset="0.7111" stop-color="#01443F" stop-opacity="0.711"/>
<stop offset="0.9463" stop-color="#00283D" stop-opacity="0.946"/>
<stop offset="1" stop-color="#00213D"/>
</linearGradient>
<linearGradient id="paint44_linear_14131_12613" x1="7.25193" y1="1.87967" x2="7.79752" y2="4.02006" gradientUnits="userSpaceOnUse">
<stop stop-color="#026841" stop-opacity="0"/>
<stop offset="0.2376" stop-color="#026441" stop-opacity="0.238"/>
<stop offset="0.4745" stop-color="#015840" stop-opacity="0.475"/>
<stop offset="0.7111" stop-color="#01443F" stop-opacity="0.711"/>
<stop offset="0.9463" stop-color="#00283D" stop-opacity="0.946"/>
<stop offset="1" stop-color="#00213D"/>
</linearGradient>
<linearGradient id="paint45_linear_14131_12613" x1="10.6695" y1="0.924422" x2="9.86211" y2="2.40998" gradientUnits="userSpaceOnUse">
<stop stop-color="#C8EFFE"/>
<stop offset="1" stop-color="#62DBFB"/>
</linearGradient>
<linearGradient id="paint46_linear_14131_12613" x1="11.7709" y1="1.61564" x2="10.0755" y2="2.26153" gradientUnits="userSpaceOnUse">
<stop stop-color="#07B2CD" stop-opacity="0"/>
<stop offset="0.4553" stop-color="#05A5CE" stop-opacity="0.455"/>
<stop offset="1" stop-color="#0290CF"/>
</linearGradient>
<linearGradient id="paint47_linear_14131_12613" x1="21.6198" y1="4.51971" x2="21.6198" y2="6.38093" gradientUnits="userSpaceOnUse">
<stop stop-color="#C8EFFE"/>
<stop offset="1" stop-color="#62DBFB"/>
</linearGradient>
<linearGradient id="paint48_linear_14131_12613" x1="20.4013" y1="6.63152" x2="21.2524" y2="4.73296" gradientUnits="userSpaceOnUse">
<stop stop-color="#07B2CD" stop-opacity="0"/>
<stop offset="0.4553" stop-color="#05A5CE" stop-opacity="0.455"/>
<stop offset="1" stop-color="#0290CF"/>
</linearGradient>
<linearGradient id="paint49_linear_14131_12613" x1="17.8458" y1="14.6228" x2="15.6069" y2="14.6228" gradientUnits="userSpaceOnUse">
<stop stop-color="#FDB4BA"/>
<stop offset="1" stop-color="#FE5694"/>
</linearGradient>
<linearGradient id="paint50_linear_14131_12613" x1="15.2994" y1="13.1457" x2="17.5832" y2="14.1695" gradientUnits="userSpaceOnUse">
<stop stop-color="#FD3581" stop-opacity="0"/>
<stop offset="0.2815" stop-color="#FA317D" stop-opacity="0.282"/>
<stop offset="0.5604" stop-color="#F02571" stop-opacity="0.56"/>
<stop offset="0.8375" stop-color="#DF115E" stop-opacity="0.838"/>
<stop offset="1" stop-color="#D2024E"/>
</linearGradient>
<linearGradient id="paint51_linear_14131_12613" x1="19.4597" y1="8.89823" x2="19.9108" y2="10.2014" gradientUnits="userSpaceOnUse">
<stop stop-color="#FEF0AE"/>
<stop offset="1" stop-color="#FAC600"/>
</linearGradient>
<linearGradient id="paint52_linear_14131_12613" x1="15.0493" y1="3.46107" x2="13.8674" y2="4.17277" gradientUnits="userSpaceOnUse">
<stop stop-color="#FEF0AE"/>
<stop offset="1" stop-color="#FAC600"/>
</linearGradient>
<clipPath id="clip0_14131_12613">
<rect width="24" height="24" fill="white"/>
</clipPath>
</defs>
</svg>
