 <svg
    width="21"
    height="20"
    viewBox="0 0 21 20"
    fill="none"
    xmlns="http://www.w3.org/2000/svg"
  >
    <rect x="0.5" width="20" height="20" rx="10" fill="#A4E8F2" />
    <path
      d="M5.96141 5.30977L6.04873 5.70079H6.44939H14.4169L13.0714 7.9427L12.8925 8.24084L13.1097 8.51235L14.8599 10.7001L7.78254 10.7008L7.15939 10.7009L7.29448 11.3092L8.19808 15.3784L8.19817 15.3788C8.20103 15.3916 8.20134 15.4049 8.19906 15.4178C8.19679 15.4308 8.19199 15.4432 8.18493 15.4543C8.17787 15.4653 8.16869 15.4749 8.15792 15.4825C8.14752 15.4898 8.13582 15.495 8.12345 15.4979C8.0972 15.5032 8.06988 15.4982 8.04726 15.4837C8.02448 15.4692 8.00828 15.4464 8.00208 15.4201C8.00202 15.4199 8.00197 15.4196 8.00191 15.4194L5.60248 4.62193C5.59963 4.60908 5.59933 4.5958 5.60161 4.58284C5.60389 4.56989 5.6087 4.5575 5.61576 4.5464L5.19393 4.27796L5.61576 4.5464C5.62283 4.5353 5.63201 4.5257 5.64278 4.51815C5.65355 4.5106 5.66571 4.50524 5.67856 4.50239C5.6914 4.49953 5.70468 4.49924 5.71764 4.50151C5.7306 4.50379 5.74298 4.5086 5.75408 4.51566C5.76518 4.52273 5.77478 4.53191 5.78233 4.54268L5.78233 4.54268C5.78989 4.55346 5.79524 4.56561 5.7981 4.57846L5.79821 4.57897L5.96141 5.30977ZM15.1198 11.025C15.1197 11.0249 15.1196 11.0248 15.1196 11.0247L15.1198 11.025Z"
      fill="white"
      stroke="#575959"
    />
  </svg>