<svg width="32" height="32" viewBox="0 0 32 32" fill="none" xmlns="http://www.w3.org/2000/svg">
<path d="M31.5313 5.2688C31.68 5.41726 31.798 5.59359 31.8785 5.78769C31.959 5.9818 32.0004 6.18987 32.0004 6.4C32.0004 6.61014 31.959 6.81821 31.8785 7.01231C31.798 7.20642 31.68 7.38274 31.5313 7.5312L26.7313 12.3312C26.583 12.4803 26.4068 12.5986 26.2126 12.6794C26.0185 12.7601 25.8103 12.8017 25.6001 12.8017C25.3898 12.8017 25.1816 12.7601 24.9875 12.6794C24.7934 12.5986 24.6171 12.4803 24.4689 12.3312C24.3202 12.1827 24.2022 12.0064 24.1217 11.8123C24.0412 11.6182 23.9998 11.4101 23.9998 11.2C23.9998 10.9899 24.0412 10.7818 24.1217 10.5877C24.2022 10.3936 24.3202 10.2173 24.4689 10.0688L26.5377 8H11.2001C7.67048 8 4.80008 10.8704 4.80008 14.4C4.80008 14.8243 4.63151 15.2313 4.33145 15.5314C4.03139 15.8314 3.62442 16 3.20008 16C2.77573 16 2.36876 15.8314 2.06871 15.5314C1.76865 15.2313 1.60008 14.8243 1.60008 14.4C1.60008 9.1056 5.90568 4.8 11.2001 4.8H26.5377L24.4689 2.7312C24.3203 2.58265 24.2025 2.4063 24.1221 2.2122C24.0417 2.01811 24.0003 1.81009 24.0003 1.6C24.0003 1.38992 24.0417 1.18189 24.1221 0.987801C24.2025 0.79371 24.3203 0.617354 24.4689 0.468803C24.6174 0.320251 24.7938 0.202414 24.9879 0.122018C25.182 0.0416231 25.39 0.000244136 25.6001 0.000244141C25.8102 0.000244145 26.0182 0.0416231 26.2123 0.122019C26.4064 0.202414 26.5827 0.320251 26.7313 0.468803L31.5313 5.2688ZM27.2001 16C27.6244 16 28.0314 16.1686 28.3314 16.4686C28.6315 16.7687 28.8001 17.1757 28.8001 17.6C28.8001 22.896 24.4961 27.2 19.2001 27.2H5.46248L7.53128 29.2688C7.83129 29.5688 7.99984 29.9757 7.99984 30.4C7.99984 30.8243 7.83129 31.2312 7.53128 31.5312C7.23126 31.8312 6.82436 31.9998 6.40008 31.9998C5.9758 31.9998 5.56889 31.8312 5.26888 31.5312L0.468878 26.7312C0.320165 26.5827 0.202184 26.4064 0.121687 26.2123C0.0411898 26.0182 -0.000244141 25.8101 -0.000244141 25.6C-0.000244141 25.3899 0.0411898 25.1818 0.121687 24.9877C0.202184 24.7936 0.320165 24.6173 0.468878 24.4688L5.26888 19.6688C5.41743 19.5203 5.59379 19.4024 5.78788 19.322C5.98197 19.2416 6.18999 19.2002 6.40008 19.2002C6.61016 19.2002 6.81819 19.2416 7.01228 19.322C7.20637 19.4024 7.38273 19.5203 7.53128 19.6688C7.67983 19.8174 7.79767 19.9937 7.87806 20.1878C7.95846 20.3819 7.99984 20.5899 7.99984 20.8C7.99984 21.0101 7.95846 21.2181 7.87806 21.4122C7.79767 21.6063 7.67983 21.7826 7.53128 21.9312L5.46248 24H19.2001C22.7297 24 25.6001 21.1296 25.6001 17.6C25.6001 17.1757 25.7686 16.7687 26.0687 16.4686C26.3688 16.1686 26.7757 16 27.2001 16Z" fill="#00A0AC"/>
</svg>
