<svg width="100" height="100" viewBox="0 0 100 100" fill="none" xmlns="http://www.w3.org/2000/svg">
  <path d="M79.0839 13.8925C79.2538 13.8925 79.4257 13.83 79.5565 13.7011L83.2245 10.1776C83.496 9.91592 83.5058 9.48428 83.244 9.21084C82.9823 8.93936 82.5487 8.92959 82.2773 9.19131L78.6093 12.7147C78.3378 12.9765 78.328 13.4081 78.5897 13.6815C78.7245 13.8222 78.9042 13.8925 79.0839 13.8925Z" fill="#16162F"/>
  <path d="M82.793 27.9571C82.7364 28.3301 82.9922 28.6797 83.3672 28.7344L88.3965 29.4961C88.4317 29.502 88.4649 29.5039 88.5 29.5039C88.8321 29.5039 89.1231 29.2618 89.1758 28.9219C89.2325 28.5489 88.9766 28.1993 88.6016 28.1446L83.5723 27.3828C83.1993 27.3282 82.8496 27.584 82.793 27.9571Z" fill="#16162F"/>
  <path d="M11.127 33.1112C11.2247 33.1112 11.3262 33.0897 11.42 33.0448L16.0118 30.8573C16.3536 30.6952 16.4981 30.287 16.336 29.9452C16.1739 29.6053 15.7657 29.4608 15.4239 29.6209L10.8321 31.8084C10.4903 31.9706 10.3458 32.3788 10.5079 32.7206C10.625 32.9666 10.8711 33.1112 11.127 33.1112Z" fill="#16162F"/>
  <path d="M11.3965 13.0665L15.9278 15.3751C16.0274 15.4258 16.1329 15.4493 16.2383 15.4493C16.4864 15.4493 16.7266 15.3126 16.8477 15.0762C17.0196 14.7403 16.8848 14.3282 16.5489 14.1563L12.0176 11.8477C11.6817 11.6758 11.2696 11.8106 11.0977 12.1465C10.9258 12.4825 11.0606 12.8946 11.3965 13.0665Z" fill="#16162F"/>
  <path d="M73.4787 72.5738L63.7859 70.7663C63.316 70.6786 62.863 70.9885 62.7753 71.4599L61.9062 76.1152C61.8185 76.5851 62.1284 77.0381 62.5998 77.1258L72.2926 78.9333C72.7625 79.0211 73.2154 78.7111 73.3032 78.2398L74.1723 73.5844C74.26 73.1145 73.9501 72.6616 73.4787 72.5738ZM72.5332 75.7231C72.4214 76.3204 71.8467 76.7139 71.2494 76.6035C70.6521 76.4917 70.2586 75.917 70.369 75.3197C70.4794 74.7224 71.0555 74.3289 71.6528 74.4393C72.2501 74.5512 72.645 75.1258 72.5332 75.7231Z" fill="#16162F"/>
  <path d="M41.2592 72.7592C41.0908 72.3105 40.5912 72.084 40.1439 72.2525L30.9125 75.716C30.4638 75.8844 30.2373 76.3841 30.4058 76.8314L32.0689 81.2659C32.2373 81.7146 32.737 81.941 33.1843 81.7726L42.4156 78.3091C42.8643 78.1406 43.0908 77.641 42.9224 77.1937L41.2592 72.7592ZM33.8056 79.2956C33.2366 79.5093 32.6025 79.2206 32.3888 78.6516C32.1751 78.0826 32.4638 77.4485 33.0328 77.2348C33.6018 77.021 34.2359 77.3098 34.4496 77.8788C34.6634 78.4478 34.3746 79.0819 33.8056 79.2956Z" fill="#16162F"/>
  <path d="M85.8494 38.5812C85.6017 38.2769 85.2507 38.0858 84.8614 38.0447C83.4913 37.9018 82.2018 38.7043 81.7234 39.9952L81.4418 40.7581C81.4248 40.7623 81.4078 40.7638 81.3908 40.7694L79.8395 41.279C79.0978 41.5224 78.4991 42.0759 78.199 42.7963L77.1927 45.2054C77.1544 45.2082 77.1148 45.2153 77.0766 45.228L75.6343 45.7022C74.9351 45.9315 74.3717 46.4538 74.0886 47.1303L70.669 55.1926L69.3413 55.688C67.9089 56.223 66.8459 57.4318 66.4991 58.9208L64.6095 67.0156C64.5473 67.2817 64.7129 67.5478 64.979 67.6101C65.0172 67.6186 65.0554 67.6228 65.0922 67.6228C65.3173 67.6228 65.5211 67.4686 65.5749 67.2393L67.4645 59.1444C67.7362 57.9796 68.5685 57.0341 69.6895 56.6151L77.5267 53.6866C78.3406 53.3823 79.2394 53.7786 79.5706 54.5868L79.5904 54.6335C79.899 55.3851 79.5861 56.2329 78.8657 56.6052L73.5055 59.3752C73.262 59.5011 73.1672 59.7998 73.2932 60.0432C73.4191 60.2867 73.7178 60.3815 73.9613 60.2556L79.3215 57.4856C80.5019 56.8755 81.0129 55.4884 80.509 54.2584L80.4892 54.2117C80.0787 53.2096 79.1304 52.6038 78.1155 52.5953L82.6548 40.3391C82.9761 39.4729 83.8423 38.935 84.7609 39.0299C84.8883 39.0426 85.0016 39.1049 85.0822 39.204C85.1629 39.303 85.1997 39.4276 85.1856 39.555L83.1389 59.0397C83.0568 59.8267 82.5953 60.5273 81.906 60.9151L75.5706 64.4792C73.9499 65.3907 72.9025 67.0425 72.7666 68.8967L72.6081 71.0623C72.5883 71.3355 72.7935 71.5719 73.0667 71.5931C73.0794 71.5945 73.0908 71.5945 73.1035 71.5945C73.3611 71.5945 73.5777 71.3964 73.5975 71.1345L73.756 68.9689C73.8664 67.4473 74.727 66.0913 76.0575 65.3426L82.3929 61.7786C83.3611 61.2336 84.0093 60.2485 84.1254 59.143L86.1693 39.6597C86.2103 39.2691 86.0957 38.8855 85.8494 38.5812ZM76.9662 52.8387L71.9471 54.7142L75.0002 47.5139C75.1729 47.1006 75.5168 46.7821 75.9428 46.6434L76.693 46.3971L74.0759 52.659C73.9697 52.9109 74.0901 53.2011 74.342 53.3072C74.4043 53.3327 74.4694 53.3455 74.5331 53.3455C74.727 53.3455 74.911 53.2308 74.9903 53.0411L79.1106 43.1799C79.3002 42.7255 79.6781 42.3759 80.1466 42.2216L81.0016 41.94L76.9662 52.8387Z" fill="#16162F"/>
  <path d="M31.0244 74.6925C31.0641 74.6925 31.1051 74.6882 31.1462 74.6769C31.4108 74.6104 31.5722 74.34 31.5057 74.0754L30.9735 71.9692C30.5177 70.166 29.1999 68.7222 27.4448 68.1051L20.5871 65.6946C19.8412 65.4328 19.2651 64.8213 19.0471 64.0612L13.6515 45.2304C13.6161 45.1073 13.6317 44.9785 13.6926 44.8667C13.7548 44.7549 13.8568 44.6742 13.9785 44.6388C14.8674 44.3854 15.8129 44.7648 16.28 45.5616L22.8787 56.844C21.8822 57.028 21.0528 57.7909 20.8221 58.8482L20.8107 58.8963C20.5276 60.1957 21.2707 61.4724 22.5404 61.8687L28.2997 63.6663C28.5616 63.747 28.839 63.6026 28.9197 63.3408C29.0018 63.0789 28.856 62.8015 28.5941 62.7208L22.8348 60.9232C22.0591 60.6812 21.6062 59.9013 21.7789 59.1073L21.7902 59.0591C21.977 58.2042 22.7923 57.6593 23.6472 57.8164L31.8737 59.3394C33.0499 59.5574 34.0336 60.3443 34.5035 61.4441L37.7703 69.0888C37.851 69.2771 38.0336 69.3903 38.2261 69.3903C38.2912 69.3903 38.3577 69.3776 38.42 69.3507C38.672 69.2431 38.788 68.9515 38.6805 68.701L35.4137 61.0563C34.8121 59.6508 33.5566 58.6444 32.0534 58.367L30.6607 58.1094L25.8949 50.7647C25.4972 50.1448 24.8518 49.7301 24.1228 49.6253L22.6196 49.4088C22.58 49.4031 22.5404 49.4031 22.5022 49.4074L21.0924 47.2106C20.6706 46.5539 19.9855 46.1122 19.2127 46.0018L17.5963 45.7683C17.5793 45.7655 17.5609 45.7669 17.5439 45.7655L17.1335 45.0634C16.4385 43.8745 15.0287 43.3097 13.7053 43.6876C13.3274 43.7952 13.0146 44.0443 12.8249 44.3868C12.6338 44.7294 12.5885 45.1271 12.6975 45.5036L18.0945 64.3358C18.4003 65.4045 19.2099 66.2622 20.2587 66.6302L27.1164 69.0407C28.5559 69.5474 29.6387 70.7321 30.0124 72.2127L30.5446 74.3188C30.6012 74.5424 30.8036 74.6925 31.0244 74.6925ZM23.9813 50.6048C24.4243 50.6685 24.8178 50.9219 25.0613 51.3012L29.3174 57.8603L27.7378 57.5673L23.1986 50.4916L23.9813 50.6048ZM19.0726 46.9799C19.5609 47.0507 19.9926 47.3281 20.2587 47.7442L26.4017 57.321L24.0492 56.885L18.1823 46.8525L19.0726 46.9799Z" fill="#16162F"/>
  <path d="M24.7617 22.703C24.8105 23.2733 25.0801 23.7889 25.5195 24.1561C25.5644 24.1951 25.6113 24.2303 25.6601 24.2635L27.9804 50.7752C28.041 51.4608 28.3633 52.0819 28.8906 52.5233C29.3594 52.9158 29.9375 53.1268 30.5429 53.1268C30.6191 53.1268 30.6953 53.1229 30.7715 53.117L70.4199 49.6483C71.834 49.5252 72.8847 48.2733 72.7617 46.8573L70.4414 20.3416C70.8672 19.91 71.1113 19.3006 71.0547 18.6502L70.5195 12.5389C70.416 11.3631 69.375 10.4901 68.1992 10.5916L66.5332 10.742C66.1562 10.7752 65.8789 11.1073 65.9121 11.4823C65.9453 11.8592 66.2773 12.1366 66.6523 12.1033L68.3144 11.9588C68.7383 11.9217 69.1172 12.2381 69.1543 12.6619L69.6894 18.7733C69.7265 19.1991 69.4101 19.5741 68.9863 19.6131L58.4004 20.5389C57.207 18.6912 55.8437 17.0018 54.3164 15.4901C54.0488 15.2244 53.6152 15.2264 53.3496 15.494C53.084 15.7616 53.0859 16.1951 53.3535 16.4608C55.707 18.7908 57.6601 21.5643 59.1679 24.7147C58.5586 24.2518 57.9804 23.8787 57.416 23.5819C57.0879 23.41 56.7109 23.4041 56.3808 23.5662C56.0527 23.7264 55.8203 24.0369 55.7539 24.3983C55.5976 25.2694 55.2578 26.1209 54.7246 26.9881C53.7363 23.1151 52.1133 20.7049 49.6035 17.3651C50.1738 17.076 50.6855 16.6737 51.1074 16.1698C51.7793 15.369 52.164 14.3905 52.2187 13.3651L63.0097 12.4217C63.3867 12.3885 63.664 12.0565 63.6308 11.6815C63.5976 11.3045 63.2695 11.0272 62.8906 11.0604L60.623 11.2596C61.1035 10.7323 61.4804 10.1014 61.7129 9.39632L61.7734 9.21468C62.3789 7.37483 61.9101 5.37092 60.5547 3.98811C58.6406 2.03694 55.5293 1.91975 53.4726 3.71858L48.1543 8.36897C47.7871 8.31428 47.4101 8.30257 47.0293 8.33577C46.6465 8.36897 46.2793 8.44905 45.9297 8.56624L39.8828 4.90803C37.5449 3.49397 34.5019 4.15022 32.9551 6.40413C31.8594 8.00178 31.7461 10.0545 32.6621 11.7616C32.8398 12.0936 33.2539 12.2186 33.5879 12.0408C33.9199 11.8631 34.0449 11.449 33.8672 11.1151C33.1953 9.85921 33.2773 8.35139 34.082 7.17561C35.2187 5.51936 37.4551 5.03694 39.1738 6.076L44.5273 9.31428C44.1875 9.57796 43.8828 9.8846 43.625 10.2264L38.8691 7.34944C37.75 6.67171 36.291 6.98616 35.5508 8.06624C35.0254 8.83186 34.9726 9.81428 35.4101 10.6326L35.4453 10.699C35.8789 11.5076 36.7168 12.0037 37.623 12.0037C37.6953 12.0037 37.7676 11.9998 37.8398 11.994L42.9199 11.5487C42.7812 11.9549 42.6933 12.3826 42.6699 12.826L37.6289 13.2674L26.1719 14.2694C24.9961 14.3729 24.123 15.4139 24.2246 16.5897L24.7617 22.703ZM37.7226 10.6346C37.2832 10.6737 36.8613 10.4451 36.6523 10.0545L36.6172 9.98811C36.4219 9.62288 36.4453 9.18343 36.6797 8.84163C36.8926 8.53108 37.2383 8.36116 37.5918 8.36116C37.7871 8.36116 37.9844 8.41194 38.1621 8.52132L41.1601 10.3338L37.7226 10.6346ZM57.041 24.9354C57.666 25.2908 58.3222 25.7596 59.0371 26.3631C59.4472 26.7088 60.0312 26.7264 60.4609 26.4061C60.8886 26.0858 61.0371 25.5194 60.8183 25.0311C60.3281 23.9256 59.7871 22.8631 59.1953 21.8436L69.1035 20.9764C69.1094 20.9764 69.1152 20.9744 69.1211 20.9744L71.3965 46.9823C71.455 47.6463 70.9609 48.2342 70.2969 48.2908L30.6484 51.7596C30.3261 51.7869 30.0136 51.6893 29.7656 51.4823C29.5176 51.2752 29.3672 50.9842 29.3379 50.6619L27.0625 24.6541H27.0801L37.3926 23.7518C36.9883 24.8573 36.6367 25.9979 36.3457 27.1737C36.2168 27.6932 36.4609 28.2244 36.9375 28.4666C37.416 28.7088 37.9883 28.5897 38.332 28.1776C38.9297 27.4608 39.4961 26.8826 40.0488 26.4256C40.3222 27.0916 40.6933 27.7283 41.166 28.3475C39.7148 29.3006 38.7383 30.9158 38.6679 32.7655C38.5898 34.8045 39.3242 36.7948 40.7168 38.2869C43.4531 41.2186 46.3047 43.6873 49.2929 45.5975C49.7871 45.9139 50.4336 45.8573 50.8652 45.4608C53.4765 43.0604 55.8554 40.1346 58.041 36.7733C59.1543 35.0623 59.5312 32.9744 59.0996 30.9803C58.7344 29.2869 57.625 27.9334 56.1777 27.203C56.584 26.4491 56.873 25.6932 57.041 24.9354ZM53.2109 26.6326C53.1328 26.6385 53.0527 26.6424 52.9746 26.6522C52.0293 26.7752 51.1289 27.1405 50.3652 27.7127L49.0879 28.6698C48.8105 28.8787 48.4375 28.91 48.1289 28.7537L46.7051 28.033C45.9023 27.6268 45.0156 27.4256 44.1191 27.4393C44.291 25.8338 44.623 24.453 45.1172 23.0721L51.4726 22.5155C52.1972 23.7869 52.7636 25.0838 53.2109 26.6326ZM50.6738 21.2147L45.6797 21.6522C46.1758 20.492 46.7812 19.2772 47.4961 17.8787C47.6172 17.8768 47.7402 17.8729 47.8633 17.8631C47.9863 17.8514 48.1094 17.8358 48.2304 17.8162C49.1738 19.0662 49.9824 20.158 50.6738 21.2147ZM54.373 4.74592C55.8847 3.42366 58.1719 3.51155 59.5781 4.94514C60.5761 5.96272 60.9199 7.43343 60.4746 8.78694L60.414 8.96858C59.9394 10.4119 58.6543 11.4315 57.1406 11.5643L52.1015 12.0057C52.0019 11.578 51.8437 11.1698 51.6347 10.7908L56.7109 10.3475C57.6972 10.2615 58.5351 9.59749 58.8437 8.65608L58.8672 8.58382C59.1562 7.70296 58.9336 6.74397 58.2832 6.07991C57.3672 5.14632 55.8769 5.08968 54.8906 5.951L50.709 9.60725C50.6465 9.54866 50.582 9.49202 50.5176 9.43733C50.25 9.21272 49.9648 9.02327 49.664 8.86507L54.373 4.74592ZM53.1562 9.28499L55.7929 6.97835C56.0019 6.79475 56.2617 6.70491 56.5195 6.70491C56.8066 6.70491 57.0937 6.81624 57.3086 7.03499C57.5996 7.33186 57.6992 7.7596 57.5703 8.15413L57.5469 8.22639C57.4082 8.64632 57.0351 8.94319 56.5937 8.98225L53.1562 9.28499ZM47.1484 9.6971C47.25 9.68733 47.3515 9.68343 47.4511 9.68343C48.2519 9.68343 49.0195 9.96272 49.6406 10.4823C50.3398 11.0682 50.7676 11.8924 50.8476 12.8006C50.9277 13.7088 50.6484 14.5936 50.0625 15.2928C49.4765 15.992 48.6523 16.4198 47.7441 16.4998C45.8691 16.6658 44.209 15.2713 44.0449 13.3963C43.8789 11.5194 45.2715 9.86116 47.1484 9.6971ZM43.4883 15.7733C44.1015 16.6776 45.0097 17.3553 46.0644 17.6756C44.1719 21.4061 42.9902 24.0584 42.6894 28.0428C41.8711 27.1209 41.334 26.1658 41.0566 25.1405C41 24.9295 40.8457 24.7576 40.6406 24.6795C40.4375 24.6014 40.207 24.6248 40.0234 24.744C39.3301 25.1951 38.6347 25.7967 37.9179 26.574C39.0547 22.4998 40.9219 18.8807 43.4883 15.7733ZM26.2929 15.6346L42.7949 14.1912C42.8125 14.2655 42.8262 14.3397 42.8476 14.4139C40.8164 16.7694 39.1797 19.4158 37.9531 22.328L26.9629 23.2889C26.7578 23.3065 26.5566 23.244 26.3984 23.1112C26.2402 22.9783 26.1426 22.7908 26.125 22.5858L25.5898 16.4744C25.5508 16.0487 25.8672 15.6717 26.2929 15.6346Z" fill="#0A855C"/>
  <path d="M15.775 81.8287C15.6513 81.827 15.5284 81.8498 15.4136 81.896C15.2987 81.9421 15.1942 82.0106 15.1061 82.0975C15.018 82.1844 14.948 82.2879 14.9002 82.4021C14.8525 82.5162 14.8279 82.6388 14.8279 82.7625C14.8279 82.8863 14.8525 83.0088 14.9002 83.123C14.948 83.2371 15.018 83.3407 15.1061 83.4275C15.1942 83.5144 15.2987 83.5829 15.4136 83.6291C15.5284 83.6752 15.6513 83.6981 15.775 83.6963H90.1377C90.2614 83.6981 90.3843 83.6752 90.4991 83.6291C90.6139 83.5829 90.7184 83.5144 90.8066 83.4275C90.8947 83.3407 90.9647 83.2371 91.0124 83.123C91.0602 83.0088 91.0848 82.8863 91.0848 82.7625C91.0848 82.6388 91.0602 82.5162 91.0124 82.4021C90.9647 82.2879 90.8947 82.1844 90.8066 82.0975C90.7184 82.0106 90.6139 81.9421 90.4991 81.896C90.3843 81.8498 90.2614 81.827 90.1377 81.8287H15.775V81.8287Z" fill="#16162F"/>
  <path d="M95.1971 81.8287C95.0734 81.827 94.9505 81.8498 94.8357 81.896C94.7209 81.9421 94.6163 82.0106 94.5282 82.0975C94.4401 82.1844 94.3701 82.2879 94.3224 82.4021C94.2746 82.5162 94.25 82.6388 94.25 82.7625C94.25 82.8863 94.2746 83.0088 94.3224 83.123C94.3701 83.2371 94.4401 83.3407 94.5282 83.4275C94.6163 83.5144 94.7209 83.5829 94.8357 83.6291C94.9505 83.6752 95.0734 83.6981 95.1971 83.6963H99.0528C99.1765 83.6981 99.2994 83.6752 99.4142 83.6291C99.529 83.5829 99.6335 83.5144 99.7217 83.4275C99.8098 83.3407 99.8798 83.2371 99.9275 83.123C99.9753 83.0088 99.9999 82.8863 99.9999 82.7625C99.9999 82.6388 99.9753 82.5162 99.9275 82.4021C99.8798 82.2879 99.8098 82.1844 99.7217 82.0975C99.6335 82.0106 99.529 81.9421 99.4142 81.896C99.2994 81.8498 99.1765 81.827 99.0528 81.8287H95.1971Z" fill="#16162F"/>
  <path d="M0.94712 81.8287C0.823377 81.827 0.700521 81.8498 0.585691 81.896C0.470861 81.9421 0.366347 82.0106 0.278223 82.0975C0.190099 82.1844 0.120122 82.2879 0.0723589 82.4021C0.0245961 82.5162 0 82.6388 0 82.7625C0 82.8863 0.0245961 83.0088 0.0723589 83.123C0.120122 83.2371 0.190099 83.3407 0.278223 83.4275C0.366347 83.5144 0.470861 83.5829 0.585691 83.6291C0.700521 83.6752 0.823377 83.6981 0.94712 83.6963H11.5985C11.7222 83.6981 11.8451 83.6752 11.9599 83.6291C12.0748 83.5829 12.1793 83.5144 12.2674 83.4275C12.3555 83.3407 12.4255 83.2371 12.4733 83.123C12.521 83.0088 12.5456 82.8863 12.5456 82.7625C12.5456 82.6388 12.521 82.5162 12.4733 82.4021C12.4255 82.2879 12.3555 82.1844 12.2674 82.0975C12.1793 82.0106 12.0748 81.9421 11.9599 81.896C11.8451 81.8498 11.7222 81.827 11.5985 81.8287H0.94712Z" fill="#16162F"/>
  <path fill-rule="evenodd" clip-rule="evenodd" d="M38.2999 87.3976C38.1762 87.3958 38.0533 87.4187 37.9385 87.4648C37.8236 87.511 37.7191 87.5795 37.631 87.6663C37.5429 87.7532 37.4729 87.8568 37.4251 87.9709C37.3774 88.0851 37.3528 88.2076 37.3528 88.3314C37.3528 88.4551 37.3774 88.5777 37.4251 88.6918C37.4729 88.806 37.5429 88.9095 37.631 88.9964C37.7191 89.0833 37.8236 89.1518 37.9385 89.1979C38.0533 89.2441 38.1762 89.2669 38.2999 89.2652H48.1269C48.2506 89.2669 48.3735 89.2441 48.4883 89.1979C48.6032 89.1518 48.7077 89.0833 48.7958 88.9964C48.8839 88.9095 48.9539 88.806 49.0017 88.6918C49.0494 88.5777 49.074 88.4551 49.074 88.3314C49.074 88.2076 49.0494 88.0851 49.0017 87.9709C48.9539 87.8568 48.8839 87.7532 48.7958 87.6663C48.7077 87.5795 48.6032 87.511 48.4883 87.4648C48.3735 87.4187 48.2506 87.3958 48.1269 87.3976H38.2999Z" fill="#0A855C"/>
  <path fill-rule="evenodd" clip-rule="evenodd" d="M53.2411 87.3976C53.1173 87.3958 52.9945 87.4187 52.8796 87.4648C52.7648 87.511 52.6603 87.5795 52.5722 87.6663C52.484 87.7532 52.4141 87.8568 52.3663 87.9709C52.3185 88.0851 52.2939 88.2076 52.2939 88.3314C52.2939 88.4551 52.3185 88.5777 52.3663 88.6918C52.4141 88.806 52.484 88.9095 52.5722 88.9964C52.6603 89.0833 52.7648 89.1518 52.8796 89.1979C52.9945 89.2441 53.1173 89.2669 53.2411 89.2652H63.0681C63.1918 89.2669 63.3146 89.2441 63.4295 89.1979C63.5443 89.1518 63.6488 89.0833 63.7369 88.9964C63.8251 88.9095 63.895 88.806 63.9428 88.6918C63.9906 88.5777 64.0152 88.4551 64.0152 88.3314C64.0152 88.2076 63.9906 88.0851 63.9428 87.9709C63.895 87.8568 63.8251 87.7532 63.7369 87.6663C63.6488 87.5795 63.5443 87.511 63.4295 87.4648C63.3146 87.4187 63.1918 87.3958 63.0681 87.3976H53.2411Z" fill="#0A855C"/>
  <path fill-rule="evenodd" clip-rule="evenodd" d="M45.6139 90.7208C45.4901 90.719 45.3673 90.7419 45.2524 90.7881C45.1376 90.8342 45.0331 90.9027 44.945 90.9896C44.8568 91.0765 44.7869 91.18 44.7391 91.2942C44.6913 91.4083 44.6667 91.5309 44.6667 91.6546C44.6667 91.7784 44.6913 91.9009 44.7391 92.0151C44.7869 92.1292 44.8568 92.2328 44.945 92.3196C45.0331 92.4065 45.1376 92.475 45.2524 92.5212C45.3673 92.5673 45.4901 92.5902 45.6139 92.5884H55.4409C55.5646 92.5902 55.6875 92.5673 55.8023 92.5212C55.9171 92.475 56.0216 92.4065 56.1098 92.3196C56.1979 92.2328 56.2679 92.1292 56.3156 92.0151C56.3634 91.9009 56.388 91.7784 56.388 91.6546C56.388 91.5309 56.3634 91.4083 56.3156 91.2942C56.2679 91.18 56.1979 91.0765 56.1098 90.9896C56.0216 90.9027 55.9171 90.8342 55.8023 90.7881C55.6875 90.7419 55.5646 90.719 55.4409 90.7208H45.6139Z" fill="#0A855C"/>
</svg>