<svg xmlns="http://www.w3.org/2000/svg" width="13" height="13" viewBox="0 0 13 13" fill="none">
<mask id="path-1-inside-1_3062_10907" fill="white">
<path d="M2.90852 10.6216C0.350227 8.83027 -0.285267 5.29158 1.66317 2.85082C3.61161 0.410057 7.20315 0.245773 9.51675 2.34362L11.0591 3.74211C13.0488 5.54626 13.186 8.61265 11.5103 10.7117C9.83467 12.8108 6.81408 13.3563 4.61395 11.8158L2.90852 10.6216Z"/>
</mask>
<path d="M2.90852 10.6216C0.350227 8.83027 -0.285267 5.29158 1.66317 2.85082C3.61161 0.410057 7.20315 0.245773 9.51675 2.34362L11.0591 3.74211C13.0488 5.54626 13.186 8.61265 11.5103 10.7117C9.83467 12.8108 6.81408 13.3563 4.61395 11.8158L2.90852 10.6216Z" fill="white" fill-opacity="0.6" stroke="white" stroke-width="3" mask="url(#path-1-inside-1_3062_10907)"/>
</svg>