<svg width="24" height="24" viewBox="0 0 24 24" fill="none" xmlns="http://www.w3.org/2000/svg">
<circle cx="12" cy="12" r="12" fill="#0A855C"/>
<path fill-rule="evenodd" clip-rule="evenodd" d="M8.30786 4.80005H14.9538C15.2595 4.80005 15.5076 5.04816 15.5076 5.35387C15.5076 5.65959 15.2595 5.9077 14.9538 5.9077H8.30786C7.67133 5.9077 7.06064 6.16025 6.61093 6.61069C6.16049 7.0604 5.90794 7.67108 5.90794 8.30761V11.6312L6.99914 10.8131C7.77818 10.2283 8.86294 10.28 9.58366 10.935C10.6418 11.8971 12.299 13.4034 12.6677 13.7385L13.6081 12.6807C14.3259 11.8728 15.551 11.7687 16.3943 12.4444L18.0921 13.8021V10.5229C18.0921 10.2172 18.3402 9.96909 18.6459 9.96909C18.9517 9.96909 19.1998 10.2172 19.1998 10.5229V15.692C19.1998 16.6224 18.8306 17.5144 18.1726 18.1724C17.5147 18.8303 16.6226 19.1995 15.6922 19.1995H9.07786C9.05648 19.2008 9.03503 19.2008 9.01362 19.1995H8.30786C7.37743 19.1995 6.4854 18.8303 5.82746 18.1724C5.16951 17.5144 4.80029 16.6224 4.80029 15.692V12.7396V12.7393V8.30761C4.80029 7.37719 5.16951 6.48516 5.82746 5.82721C6.4854 5.16927 7.37743 4.80005 8.30786 4.80005ZM5.90794 15.692V13.0157C6.27693 12.7389 7.03825 12.168 7.66373 11.6993C8.01744 11.4334 8.51071 11.4563 8.83858 11.7546L11.9313 14.5668L8.79792 18.0919H8.30786C7.67133 18.0919 7.06064 17.8393 6.61093 17.3889C6.16049 16.9392 5.90794 16.3285 5.90794 15.692ZM10.2801 18.0919H15.6922C16.3287 18.0919 16.9394 17.8393 17.3891 17.3889C17.8396 16.9392 18.0921 16.3285 18.0921 15.692V15.2212L15.7023 13.3091C15.3191 13.0019 14.7623 13.0491 14.4359 13.4161L10.2801 18.0919ZM17.1285 9.04929C17.2298 9.16069 17.3759 9.23066 17.5383 9.23066C17.7024 9.23066 17.8499 9.15916 17.9513 9.04563L19.0371 7.95986C19.2535 7.74423 19.2535 7.39274 19.0371 7.17711C18.8215 6.96075 18.47 6.96075 18.2544 7.17711L18.0921 7.33922V5.35387C18.0921 5.04816 17.844 4.80005 17.5383 4.80005C17.2325 4.80005 16.9844 5.04816 16.9844 5.35387V7.33958L16.8218 7.17711C16.6062 6.96075 16.2547 6.96075 16.039 7.17711C15.8227 7.39274 15.8227 7.74423 16.039 7.95986L17.1285 9.04929ZM10.1537 9.04633C10.7655 9.04633 11.2614 8.55042 11.2614 7.93868C11.2614 7.32694 10.7655 6.83103 10.1537 6.83103C9.54198 6.83103 9.04607 7.32694 9.04607 7.93868C9.04607 8.55042 9.54198 9.04633 10.1537 9.04633Z" fill="white"/>
</svg>
