<svg xmlns="http://www.w3.org/2000/svg" width="48" height="48" viewBox="0 0 48 48" fill="none">
  <g clip-path="url(#clip0_1073_35878)">
    <path fill-rule="evenodd" clip-rule="evenodd" d="M15.1861 26.4442H22.5637C21.5415 28.7263 20.8757 31.3225 20.5847 34.0075C15.4247 35.2625 11.3526 39.2975 10.0444 44.4364C9.55384 46.3632 11.2118 48 13.2 48H34.8C36.7882 48 38.4462 46.3632 37.9557 44.4364C36.4806 38.6421 31.4917 34.2513 25.3914 33.6664C25.8054 30.0114 27.4031 26.5918 29.9412 23.9291L37.4624 22.3722C42.0135 21.4141 45.3669 18.0606 46.0855 13.7491L48.0018 2.97024C48.0018 2.28785 47.8803 1.72697 47.6373 1.20105C47.4379 0.769584 47.0879 0.417987 46.6474 0.239616C46.0568 0.000490105 45.4093 -0.0779236 44.8879 0.0958762L33.8695 3.92836C29.3184 5.36554 26.4441 9.43755 26.4441 13.9886V20.6955L25.965 21.2224L24.5278 14.4677C23.5697 9.91661 19.7372 6.56319 14.9466 5.60507L2.73057 3.68883C1.86134 3.57641 1.05386 3.68883 0.574799 4.40742C0.0957387 5.12601 -0.143791 6.08413 0.0957389 6.80272L4.16775 18.7792C5.84446 23.3303 10.156 26.4442 15.1861 26.4442ZM35.0671 8.47943L42.4926 6.08413L41.0554 12.791C40.5763 15.1863 38.6601 17.1025 36.2648 17.5816L30.9951 18.7792V13.9886C30.9951 11.5933 32.6718 9.19802 35.0671 8.47943ZM8.71883 17.342L6.08399 9.19802L14.228 10.3957C17.1024 10.8747 19.4977 13.0305 19.9767 15.6653L20.9349 21.6536H15.1861C12.3118 21.6536 9.67695 19.9769 8.71883 17.342Z" fill="#0A855C"/>
  </g>
  <defs>
    <clipPath id="clip0_1073_35878">
      <rect width="48" height="48" fill="white"/>
    </clipPath>
  </defs>
</svg>