<svg width="25" height="24" viewBox="0 0 25 24" fill="none" xmlns="http://www.w3.org/2000/svg">
<path fill-rule="evenodd" clip-rule="evenodd" d="M18.5 12C18.5 12.6627 17.9628 13.2 17.3 13.2H13.7V16.8C13.7 17.4627 13.1628 18 12.5 18C11.8373 18 11.3 17.4627 11.3 16.8V13.2H7.70002C7.03728 13.2 6.50002 12.6627 6.50002 12C6.50002 11.3373 7.03728 10.8 7.70002 10.8H11.3V7.2C11.3 6.53726 11.8373 6 12.5 6C13.1628 6 13.7 6.53726 13.7 7.2V10.8H17.3C17.9628 10.8 18.5 11.3373 18.5 12ZM12.5 2.4C7.19842 2.4 2.90002 6.6984 2.90002 12C2.90002 17.3016 7.19842 21.6 12.5 21.6C17.8016 21.6 22.1 17.3016 22.1 12C22.1 6.6984 17.8016 2.4 12.5 2.4Z" fill="#5C5F62"/>
</svg>
