<svg width="23" height="40" viewBox="0 0 23 40" fill="none" xmlns="http://www.w3.org/2000/svg">
<path d="M15.865 12.5316C15.1477 11.8143 15.1477 10.6329 15.865 9.91561L18.481 7.29957C19.0295 6.75105 19.0295 5.86498 18.481 5.31645C17.9325 4.76793 17.0464 4.76793 16.4979 5.31645L11.6878 10.0422C11.6456 10.0844 11.6034 10.1266 11.5612 10.1266L11.519 10.1688C11.2236 10.4641 11.097 10.8017 11.097 11.1814C11.097 11.5612 11.2236 11.8987 11.519 12.1941L11.5612 12.2363C11.6034 12.2785 11.6456 12.3207 11.6878 12.3207L16.4979 17.1308C17.0464 17.6793 17.9325 17.6793 18.481 17.1308C19.0295 16.5823 19.0295 15.6962 18.481 15.1477L15.865 12.5316Z" fill="url(#paint0_linear)"/>
<path d="M11.0548 27.7637L11.0127 27.7215C10.9705 27.6793 10.9283 27.6371 10.8861 27.6371L6.07594 22.827C5.52742 22.2785 4.64134 22.2785 4.09282 22.827C3.5443 23.3755 3.5443 24.2616 4.09282 24.8101L6.70885 27.4262C7.42615 28.1434 7.42615 29.3249 6.70885 30.0422L4.09282 32.6582C3.5443 33.2067 3.5443 34.0928 4.09282 34.6413C4.64134 35.1899 5.52742 35.1899 6.07594 34.6413L10.8861 29.9578C10.9283 29.9156 10.9705 29.8734 11.0127 29.8734L11.0548 29.8312C11.3502 29.5359 11.4768 29.1983 11.4768 28.8186C11.4768 28.4388 11.308 28.0591 11.0548 27.7637Z" fill="url(#paint1_linear)"/>
<path d="M21.8565 27.0042C21.8143 26.962 21.7722 26.962 21.7722 26.9198C21.6878 26.8776 21.6456 26.7932 21.5612 26.751L13.1224 18.3122C13.0802 18.27 13.038 18.2278 12.9958 18.1856L8.35443 13.5443C7.08861 12.2785 7.08861 10.1688 8.35443 8.90294L12.9958 4.26159C13.9662 3.29113 13.9662 1.72995 12.9958 0.717289C12.0253 -0.253175 10.4641 -0.253175 9.45148 0.717289L1.01266 9.15611C0.970464 9.24049 0.886076 9.28269 0.843882 9.36708C0.801688 9.40927 0.759494 9.40927 0.759494 9.45146C0.253165 9.9156 0 10.5907 0 11.2236C0 11.8565 0.253165 12.4894 0.7173 12.9958C0.759494 13.038 0.801688 13.038 0.843882 13.0802C0.92827 13.1224 0.970464 13.2067 1.05485 13.2489L9.49367 21.6878C9.53586 21.7299 9.57806 21.7721 9.62025 21.8143L14.2616 26.4557C15.5274 27.7215 15.5274 29.8312 14.2616 31.097L9.62025 35.7384C8.64979 36.7088 8.64979 38.27 9.62025 39.2827C10.5907 40.2531 12.1519 40.2531 13.1646 39.2827L21.6034 30.8439C21.6456 30.8017 21.73 30.7173 21.8143 30.6751C21.8565 30.6329 21.8987 30.6329 21.8987 30.5907C22.4051 30.0844 22.616 29.4515 22.616 28.8186C22.5738 28.1434 22.3207 27.5105 21.8565 27.0042Z" fill="url(#paint2_linear)"/>
<defs>
<linearGradient id="paint0_linear" x1="8.43877" y1="2.17687" x2="29.6321" y2="23.3703" gradientUnits="userSpaceOnUse">
<stop stop-color="#01B8E4"/>
<stop offset="1" stop-color="#0032AB"/>
</linearGradient>
<linearGradient id="paint1_linear" x1="-6.53925" y1="17.1549" x2="14.6541" y2="38.3482" gradientUnits="userSpaceOnUse">
<stop stop-color="#01B8E4"/>
<stop offset="1" stop-color="#0032AB"/>
</linearGradient>
<linearGradient id="paint2_linear" x1="0.949747" y1="9.66589" x2="22.1431" y2="30.8592" gradientUnits="userSpaceOnUse">
<stop stop-color="#01B8E4"/>
<stop offset="1" stop-color="#0032AB"/>
</linearGradient>
</defs>
</svg>
