<svg width="246" height="250" viewBox="0 0 246 250" fill="none" xmlns="http://www.w3.org/2000/svg">
<path opacity="0.05" d="M123 250C190.861 250 245.872 246.364 245.872 241.878C245.872 237.393 190.861 233.757 123 233.757C55.1395 233.757 0.127686 237.393 0.127686 241.878C0.127686 246.364 55.1395 250 123 250Z" fill="#000007"/>
<path d="M185.677 170.731C185.677 170.731 208.444 166.947 208.575 138.735C208.585 136.673 209.174 120.559 217.929 117.249C217.929 117.25 166.041 127.751 185.677 170.731Z" fill="url(#paint0_linear_13575_51942)"/>
<path d="M214.424 118.597C213.818 118.853 213.231 119.152 212.637 119.441C211.468 120.049 210.33 120.724 209.228 121.455C208.136 122.201 207.082 123.001 206.063 123.849C205.053 124.706 204.09 125.62 203.161 126.568C202.33 127.421 201.539 128.315 200.782 129.235C200.772 128.696 200.755 128.157 200.732 127.618C200.708 127.112 200.682 126.606 200.64 126.1C200.623 125.847 200.603 125.594 200.577 125.341C200.554 125.088 200.527 124.835 200.496 124.581C200.456 124.833 200.418 125.086 200.388 125.337C200.354 125.589 200.325 125.842 200.299 126.095C200.241 126.599 200.199 127.104 200.156 127.61C200.089 128.475 200.04 129.34 200.004 130.206C199.361 131.031 198.742 131.877 198.147 132.738C197.39 133.828 196.697 134.959 196.023 136.102C195.668 136.707 195.324 137.319 194.99 137.936C194.853 137.649 194.714 137.363 194.576 137.075C194.269 136.438 193.947 135.809 193.635 135.175C193.308 134.547 192.991 133.916 192.653 133.293C192.487 132.981 192.319 132.669 192.147 132.359C191.977 132.048 191.802 131.739 191.623 131.433C191.736 131.77 191.852 132.104 191.974 132.438C192.093 132.771 192.216 133.103 192.342 133.434C192.587 134.098 192.854 134.754 193.11 135.413C193.379 136.067 193.642 136.724 193.918 137.374C194.123 137.85 194.325 138.327 194.53 138.803C194.394 139.064 194.258 139.328 194.125 139.592C192.941 141.962 191.893 144.399 190.968 146.877C190.833 147.242 190.703 147.607 190.572 147.974L189.678 146.338C189.211 145.487 188.729 144.645 188.255 143.798C187.769 142.957 187.292 142.112 186.795 141.278C186.55 140.86 186.302 140.442 186.05 140.026C185.8 139.609 185.545 139.195 185.287 138.783C185.481 139.228 185.68 139.672 185.882 140.115C186.083 140.558 186.288 140.999 186.494 141.438C186.901 142.32 187.329 143.191 187.748 144.068C188.179 144.938 188.603 145.812 189.04 146.678L190.22 149C190.036 149.542 189.856 150.085 189.682 150.63C189.278 151.888 188.91 153.158 188.57 154.435C188.231 155.711 187.91 156.992 187.629 158.283C187.602 158.405 187.577 158.529 187.55 158.651L186.753 157.199C186.329 156.43 185.889 155.667 185.458 154.9C185.014 154.142 184.58 153.377 184.125 152.624C183.9 152.246 183.675 151.868 183.443 151.492C183.214 151.116 182.982 150.742 182.744 150.371C182.917 150.777 183.094 151.18 183.274 151.581C183.453 151.984 183.637 152.384 183.822 152.783C184.187 153.584 184.571 154.374 184.948 155.171C185.336 155.96 185.717 156.752 186.113 157.538L187.294 159.873C187.139 160.636 186.993 161.4 186.857 162.167C186.633 163.466 186.43 164.77 186.265 166.078C186.183 166.732 186.109 167.386 186.043 168.041C185.981 168.697 185.927 169.354 185.891 170.011C185.982 169.359 186.091 168.71 186.206 168.063C186.318 167.415 186.437 166.769 186.563 166.124C186.816 164.834 187.082 163.549 187.381 162.272C187.552 161.524 187.729 160.778 187.914 160.034C189.111 159.549 190.303 159.053 191.492 158.552L193.322 157.768L195.145 156.969C196.357 156.428 197.568 155.884 198.769 155.317C199.971 154.754 201.169 154.179 202.353 153.568C201.086 153.979 199.836 154.426 198.59 154.885C197.343 155.34 196.104 155.818 194.867 156.299L193.017 157.032L191.173 157.781C190.168 158.195 189.167 158.616 188.168 159.042C188.219 158.845 188.269 158.648 188.321 158.452C188.659 157.186 189.006 155.922 189.387 154.671C189.935 152.882 190.514 151.104 191.147 149.346C192.437 148.822 193.722 148.287 195.004 147.745L197.064 146.865L199.116 145.97C200.481 145.366 201.844 144.757 203.198 144.127C204.554 143.499 205.905 142.861 207.241 142.185C205.822 142.659 204.418 143.171 203.019 143.693C201.619 144.213 200.228 144.754 198.838 145.299L196.758 146.128L194.685 146.973C193.632 147.409 192.581 147.849 191.532 148.294C191.664 147.945 191.796 147.596 191.934 147.248C192.882 144.813 193.918 142.412 195.102 140.089C195.204 139.882 195.31 139.678 195.414 139.474C196.433 139.063 197.448 138.642 198.459 138.214C198.988 137.988 199.517 137.762 200.043 137.532L201.619 136.835C202.667 136.364 203.713 135.886 204.752 135.389C205.791 134.893 206.824 134.387 207.843 133.845C206.741 134.187 205.654 134.567 204.572 134.956C203.489 135.344 202.414 135.753 201.343 136.165L199.739 136.796C199.205 137.008 198.673 137.225 198.141 137.443C197.428 137.736 196.717 138.035 196.008 138.336C196.317 137.769 196.625 137.202 196.95 136.644C197.601 135.515 198.285 134.406 199.007 133.323C199.537 132.526 200.083 131.739 200.652 130.969C201.434 130.577 202.211 130.173 202.983 129.763C203.78 129.337 204.575 128.908 205.362 128.462C206.149 128.018 206.931 127.564 207.706 127.095C208.479 126.624 209.25 126.146 210.001 125.632C209.149 125.952 208.318 126.312 207.489 126.677C206.662 127.043 205.842 127.426 205.027 127.818C204.211 128.209 203.405 128.614 202.599 129.026C202.354 129.152 202.111 129.28 201.866 129.406C201.871 129.399 201.876 129.394 201.881 129.386L202.187 129.007L202.502 128.635C202.712 128.387 202.916 128.133 203.132 127.89L203.78 127.161C204.657 126.201 205.58 125.282 206.533 124.396C207.494 123.517 208.496 122.685 209.536 121.899C210.578 121.114 211.666 120.392 212.782 119.711C213.348 119.383 213.91 119.047 214.493 118.749C215.065 118.427 215.661 118.156 216.25 117.863C215.644 118.103 215.023 118.325 214.424 118.597Z" fill="#0A855C"/>
<path d="M186.945 170.236C186.945 170.236 206.839 181.967 224.964 160.394C226.289 158.817 237.035 146.826 245.871 149.913C245.872 149.913 199.331 124.618 186.945 170.236Z" fill="url(#paint1_linear_13575_51942)"/>
<path d="M242.321 148.694C241.692 148.499 241.05 148.353 240.411 148.193C239.124 147.909 237.82 147.696 236.508 147.548C235.192 147.419 233.871 147.355 232.547 147.351C231.223 147.36 229.902 147.443 228.583 147.572C227.4 147.693 226.222 147.871 225.053 148.091C225.388 147.67 225.72 147.246 226.047 146.818C226.351 146.414 226.655 146.008 226.947 145.593C227.095 145.387 227.242 145.18 227.384 144.969C227.529 144.761 227.669 144.548 227.807 144.334C227.615 144.501 227.426 144.672 227.241 144.846C227.053 145.017 226.871 145.193 226.689 145.37C226.322 145.72 225.967 146.08 225.611 146.441C225.007 147.062 224.416 147.695 223.836 148.337C222.814 148.557 221.8 148.809 220.792 149.087C219.516 149.438 218.26 149.859 217.014 150.305C216.354 150.541 215.698 150.789 215.048 151.048C215.125 150.739 215.202 150.43 215.28 150.121C215.45 149.435 215.606 148.745 215.77 148.057C215.92 147.365 216.081 146.677 216.218 145.981C216.29 145.635 216.362 145.287 216.426 144.939C216.493 144.591 216.556 144.242 216.615 143.891C216.486 144.222 216.363 144.554 216.243 144.887C216.121 145.221 216.003 145.554 215.889 145.889C215.652 146.558 215.439 147.232 215.215 147.903C215.005 148.579 214.787 149.251 214.583 149.928C214.436 150.426 214.287 150.922 214.139 151.419C213.867 151.532 213.594 151.647 213.324 151.764C210.9 152.823 208.54 154.019 206.246 155.327C205.909 155.521 205.576 155.718 205.242 155.917L205.6 154.087C205.785 153.134 205.954 152.176 206.13 151.222C206.293 150.265 206.467 149.309 206.619 148.349C206.698 147.868 206.775 147.39 206.847 146.908C206.921 146.428 206.99 145.947 207.056 145.464C206.92 145.931 206.788 146.399 206.662 146.868C206.533 147.337 206.408 147.807 206.286 148.277C206.035 149.215 205.808 150.16 205.568 151.101C205.343 152.046 205.111 152.989 204.893 153.936L204.316 156.476C203.829 156.773 203.343 157.075 202.861 157.381C201.747 158.087 200.653 158.826 199.577 159.588C198.501 160.35 197.436 161.126 196.396 161.936C196.297 162.013 196.2 162.092 196.101 162.168L196.417 160.541C196.582 159.677 196.733 158.81 196.892 157.945C197.036 157.077 197.191 156.21 197.323 155.34C197.392 154.906 197.461 154.471 197.522 154.034C197.587 153.598 197.647 153.161 197.703 152.724C197.577 153.147 197.453 153.571 197.337 153.995C197.217 154.419 197.102 154.844 196.991 155.27C196.758 156.119 196.549 156.974 196.33 157.827C196.125 158.682 195.91 159.536 195.712 160.393L195.128 162.944C194.522 163.43 193.921 163.923 193.326 164.425C192.325 165.278 191.336 166.148 190.373 167.046C189.893 167.496 189.417 167.951 188.947 168.412C188.481 168.876 188.02 169.345 187.572 169.826C188.057 169.385 188.556 168.957 189.058 168.534C189.558 168.109 190.062 167.689 190.571 167.276C191.588 166.45 192.614 165.633 193.66 164.846C194.269 164.381 194.883 163.923 195.5 163.47C196.728 163.867 197.961 164.254 199.194 164.632L201.1 165.205L203.01 165.763C204.286 166.127 205.564 166.486 206.848 166.825C208.132 167.166 209.419 167.495 210.717 167.785C209.483 167.287 208.237 166.827 206.987 166.377C205.737 165.925 204.482 165.496 203.225 165.07L201.337 164.443L199.442 163.834C198.406 163.506 197.369 163.186 196.33 162.869C196.495 162.751 196.66 162.632 196.824 162.516C197.893 161.761 198.967 161.015 200.06 160.298C201.623 159.276 203.204 158.284 204.812 157.341C206.137 157.767 207.466 158.183 208.795 158.592L210.938 159.24L213.086 159.872C214.52 160.286 215.955 160.695 217.398 161.083C218.839 161.472 220.284 161.85 221.741 162.191C220.348 161.643 218.944 161.133 217.537 160.634C216.129 160.134 214.716 159.654 213.301 159.179L211.174 158.479L209.043 157.795C207.957 157.452 206.869 157.115 205.78 156.783C206.104 156.599 206.43 156.417 206.756 156.237C209.039 154.978 211.369 153.801 213.762 152.777C213.973 152.684 214.183 152.595 214.396 152.506C215.44 152.845 216.489 153.174 217.539 153.496C218.09 153.663 218.639 153.829 219.19 153.99L220.845 154.469C221.952 154.781 223.059 155.087 224.173 155.372C225.286 155.659 226.404 155.935 227.532 156.174C226.467 155.728 225.391 155.321 224.31 154.925C223.231 154.527 222.145 154.149 221.057 153.776L219.422 153.23C218.876 153.049 218.33 152.874 217.783 152.7C217.048 152.467 216.311 152.238 215.575 152.014C216.174 151.778 216.773 151.54 217.379 151.321C218.6 150.873 219.832 150.462 221.079 150.095C221.995 149.823 222.917 149.57 223.846 149.346C224.697 149.547 225.551 149.737 226.407 149.92C227.291 150.105 228.175 150.286 229.063 150.449C229.952 150.614 230.842 150.768 231.736 150.906C232.63 151.041 233.527 151.17 234.431 151.256C233.573 150.956 232.705 150.697 231.836 150.444C230.966 150.194 230.094 149.961 229.218 149.739C228.343 149.514 227.464 149.307 226.584 149.105C226.316 149.044 226.047 148.985 225.778 148.926C225.786 148.925 225.793 148.924 225.802 148.922L226.279 148.827L226.759 148.744C227.079 148.689 227.398 148.625 227.719 148.579L228.682 148.435C229.969 148.262 231.265 148.149 232.561 148.081C233.86 148.025 235.161 148.031 236.462 148.096C237.763 148.163 239.059 148.308 240.351 148.502C240.994 148.614 241.641 148.718 242.278 148.865C242.923 148.985 243.554 149.159 244.193 149.313C243.572 149.097 242.955 148.869 242.321 148.694Z" fill="#0A855C"/>
<path fill-rule="evenodd" clip-rule="evenodd" d="M81.6915 226.196C85.1192 225.233 88.3792 223.868 91.4185 222.151L99.7284 230.487C100.873 231.635 102.745 231.635 103.888 230.487L116.619 217.717C117.764 216.57 117.764 214.692 116.619 213.544L108.308 205.207C110.017 202.16 111.381 198.891 112.34 195.451H124.089C125.707 195.451 127.031 194.123 127.031 192.5V174.44C127.031 172.818 125.707 171.489 124.089 171.489H112.34C111.38 168.051 110.019 164.78 108.308 161.732L116.617 153.397C117.762 152.248 117.762 150.371 116.617 149.224L103.887 136.454C102.742 135.307 100.87 135.307 99.727 136.455L91.4157 144.792C88.3777 143.076 85.1191 141.709 81.69 140.747V128.962C81.69 127.339 80.3674 126.011 78.7495 126.011H60.747C59.1292 126.011 57.8051 127.339 57.8051 128.962V140.747C54.376 141.71 51.1174 143.076 48.0795 144.792L39.7696 136.457C38.6247 135.308 36.7532 135.308 35.6097 136.457L22.8791 149.227C21.7341 150.375 21.7341 152.251 22.8791 153.4L31.1889 161.735C29.478 164.782 28.1152 168.053 27.1551 171.492H15.4089C13.7911 171.492 12.467 172.82 12.467 174.443V192.503C12.467 194.126 13.7911 195.454 15.4089 195.454H27.158C28.1181 198.892 29.4794 202.164 31.1904 205.211L22.8805 213.547C21.7356 214.695 21.7356 216.573 22.8805 217.72L35.6125 230.49C36.7561 231.637 38.6275 231.638 39.7725 230.49L48.0838 222.153C51.1217 223.869 54.3817 225.236 57.808 226.199V237.984C57.808 239.607 59.132 240.935 60.7513 240.935H78.7539C80.3731 240.935 81.6958 239.607 81.6958 237.984V226.196H81.6915ZM69.749 206.581C57.0241 206.581 46.7095 196.235 46.7095 183.47C46.7095 170.706 57.0241 160.361 69.749 160.361C82.4724 160.361 92.787 170.707 92.787 183.47C92.787 196.233 82.4724 206.581 69.749 206.581Z" fill="#FAAD14"/>
<path fill-rule="evenodd" clip-rule="evenodd" d="M81.6915 226.196C85.1192 225.233 88.3792 223.868 91.4185 222.151L99.7284 230.487C100.873 231.635 102.745 231.635 103.888 230.487L116.619 217.717C117.764 216.57 117.764 214.692 116.619 213.544L108.308 205.207C110.017 202.16 111.381 198.891 112.34 195.451H124.089C125.707 195.451 127.031 194.123 127.031 192.5V174.44C127.031 172.818 125.707 171.489 124.089 171.489H112.34C111.38 168.051 110.019 164.78 108.308 161.732L116.617 153.397C117.762 152.248 117.762 150.371 116.617 149.224L103.887 136.454C102.742 135.307 100.87 135.307 99.727 136.455L91.4157 144.792C88.3777 143.076 85.1191 141.709 81.69 140.747V128.962C81.69 127.339 80.3674 126.011 78.7495 126.011H60.747C59.1292 126.011 57.8051 127.339 57.8051 128.962V140.747C54.376 141.71 51.1174 143.076 48.0795 144.792L39.7696 136.457C38.6247 135.308 36.7532 135.308 35.6097 136.457L22.8791 149.227C21.7341 150.375 21.7341 152.251 22.8791 153.4L31.1889 161.735C29.478 164.782 28.1152 168.053 27.1551 171.492H15.4089C13.7911 171.492 12.467 172.82 12.467 174.443V192.503C12.467 194.126 13.7911 195.454 15.4089 195.454H27.158C28.1181 198.892 29.4794 202.164 31.1904 205.211L22.8805 213.547C21.7356 214.695 21.7356 216.573 22.8805 217.72L35.6125 230.49C36.7561 231.637 38.6275 231.638 39.7725 230.49L48.0838 222.153C51.1217 223.869 54.3817 225.236 57.808 226.199V237.984C57.808 239.607 59.132 240.935 60.7513 240.935H78.7539C80.3731 240.935 81.6958 239.607 81.6958 237.984V226.196H81.6915ZM69.749 206.581C57.0241 206.581 46.7095 196.235 46.7095 183.47C46.7095 170.706 57.0241 160.361 69.749 160.361C82.4724 160.361 92.787 170.707 92.787 183.47C92.787 196.233 82.4724 206.581 69.749 206.581Z" fill="url(#paint2_linear_13575_51942)"/>
<path fill-rule="evenodd" clip-rule="evenodd" d="M69.7489 209.827C77.0041 209.827 83.5729 206.877 88.3275 202.108C93.0807 197.339 96.0226 190.749 96.0226 183.47C96.0226 176.193 93.0807 169.602 88.3275 164.834C83.5729 160.065 77.0041 157.115 69.7489 157.115C62.4923 157.115 55.9235 160.065 51.1689 164.834C46.4143 169.604 43.4738 176.193 43.4738 183.47C43.4738 190.748 46.4143 197.339 51.1689 202.108C55.9235 206.876 62.4923 209.827 69.7489 209.827ZM89.4166 203.199C84.384 208.247 77.4297 211.371 69.7489 211.371C62.0682 211.371 55.1153 208.247 50.0813 203.199C45.0472 198.149 41.9333 191.175 41.9333 183.47C41.9333 175.766 45.0472 168.79 50.0813 163.742C55.1139 158.692 62.0682 155.57 69.7489 155.57C77.4297 155.57 84.3825 158.694 89.4166 163.742C94.4492 168.79 97.5631 175.766 97.5631 183.47C97.5631 191.175 94.4492 198.149 89.4166 203.199Z" fill="#EDEFFF"/>
<path fill-rule="evenodd" clip-rule="evenodd" d="M69.749 223.328C80.7213 223.328 90.6561 218.867 97.8454 211.654C105.036 204.441 109.483 194.477 109.483 183.47C109.483 172.464 105.036 162.498 97.8454 155.287C90.6547 148.074 80.7199 143.612 69.749 143.612C58.7766 143.612 48.8418 148.074 41.6511 155.287C34.4618 162.5 30.0138 172.464 30.0138 183.47C30.0138 194.477 34.4618 204.442 41.6511 211.654C48.8418 218.867 58.7766 223.328 69.749 223.328ZM98.9345 212.746C91.4658 220.239 81.1454 224.872 69.749 224.872C58.351 224.872 48.0321 220.238 40.562 212.746C33.0933 205.254 28.4734 194.903 28.4734 183.47C28.4734 172.037 33.0933 161.686 40.562 154.194C48.0307 146.701 58.351 142.067 69.749 142.067C81.1454 142.067 91.4658 146.701 98.9345 154.194C106.403 161.686 111.023 172.037 111.023 183.47C111.025 194.903 106.403 205.254 98.9345 212.746Z" fill="#EDEFFF"/>
<path fill-rule="evenodd" clip-rule="evenodd" d="M190.528 229.406C193.209 228.653 195.759 227.585 198.135 226.242L204.635 232.762C205.531 233.661 206.994 233.661 207.89 232.762L217.847 222.774C218.743 221.877 218.743 220.408 217.847 219.511L211.347 212.989C212.684 210.606 213.752 208.049 214.501 205.359H223.691C224.956 205.359 225.993 204.322 225.993 203.051V188.925C225.993 187.656 224.956 186.618 223.691 186.618H214.501C213.751 183.929 212.686 181.37 211.347 178.987L217.847 172.467C218.743 171.569 218.743 170.101 217.847 169.203L207.89 159.214C206.994 158.317 205.531 158.317 204.635 159.214L198.134 165.734C195.758 164.392 193.209 163.322 190.528 162.57V153.352C190.528 152.083 189.493 151.044 188.228 151.044H174.146C172.881 151.044 171.844 152.082 171.844 153.352V162.57C169.162 163.324 166.613 164.392 164.237 165.734L157.737 159.214C156.841 158.316 155.377 158.316 154.482 159.214L144.525 169.203C143.629 170.101 143.629 171.569 144.525 172.467L151.025 178.987C149.686 181.37 148.62 183.929 147.869 186.618H138.681C137.416 186.618 136.38 187.656 136.38 188.927V203.052C136.38 204.322 137.416 205.361 138.681 205.361H147.871C148.622 208.05 149.686 210.609 151.025 212.992L144.525 219.512C143.629 220.411 143.629 221.878 144.525 222.777L154.482 232.765C155.377 233.662 156.841 233.664 157.735 232.765L164.237 226.245C166.613 227.588 169.162 228.657 171.843 229.41V238.628C171.843 239.898 172.879 240.937 174.144 240.937H188.226C189.493 240.937 190.528 239.899 190.528 238.628V229.406ZM181.186 214.063C171.234 214.063 163.165 205.97 163.165 195.986C163.165 186.003 171.233 177.91 181.186 177.91C191.138 177.91 199.206 186.003 199.206 195.986C199.206 205.97 191.138 214.063 181.186 214.063Z" fill="#FAAD14"/>
<path fill-rule="evenodd" clip-rule="evenodd" d="M190.528 229.406C193.209 228.653 195.759 227.585 198.135 226.242L204.635 232.762C205.531 233.661 206.994 233.661 207.89 232.762L217.847 222.774C218.743 221.877 218.743 220.408 217.847 219.511L211.347 212.989C212.684 210.606 213.752 208.049 214.501 205.359H223.691C224.956 205.359 225.993 204.322 225.993 203.051V188.925C225.993 187.656 224.956 186.618 223.691 186.618H214.501C213.751 183.929 212.686 181.37 211.347 178.987L217.847 172.467C218.743 171.569 218.743 170.101 217.847 169.203L207.89 159.214C206.994 158.317 205.531 158.317 204.635 159.214L198.134 165.734C195.758 164.392 193.209 163.322 190.528 162.57V153.352C190.528 152.083 189.493 151.044 188.228 151.044H174.146C172.881 151.044 171.844 152.082 171.844 153.352V162.57C169.162 163.324 166.613 164.392 164.237 165.734L157.737 159.214C156.841 158.316 155.377 158.316 154.482 159.214L144.525 169.203C143.629 170.101 143.629 171.569 144.525 172.467L151.025 178.987C149.686 181.37 148.62 183.929 147.869 186.618H138.681C137.416 186.618 136.38 187.656 136.38 188.927V203.052C136.38 204.322 137.416 205.361 138.681 205.361H147.871C148.622 208.05 149.686 210.609 151.025 212.992L144.525 219.512C143.629 220.411 143.629 221.878 144.525 222.777L154.482 232.765C155.377 233.662 156.841 233.664 157.735 232.765L164.237 226.245C166.613 227.588 169.162 228.657 171.843 229.41V238.628C171.843 239.898 172.879 240.937 174.144 240.937H188.226C189.493 240.937 190.528 239.899 190.528 238.628V229.406ZM181.186 214.063C171.234 214.063 163.165 205.97 163.165 195.986C163.165 186.003 171.233 177.91 181.186 177.91C191.138 177.91 199.206 186.003 199.206 195.986C199.206 205.97 191.138 214.063 181.186 214.063Z" fill="url(#paint3_linear_13575_51942)"/>
<path fill-rule="evenodd" clip-rule="evenodd" d="M181.186 216.601C186.861 216.601 191.999 214.294 195.718 210.564C199.437 206.834 201.737 201.68 201.737 195.987C201.737 190.294 199.435 185.141 195.718 181.411C191.999 177.68 186.861 175.373 181.186 175.373C175.51 175.373 170.373 177.68 166.653 181.411C162.934 185.141 160.634 190.295 160.634 195.987C160.634 201.68 162.934 206.834 166.653 210.564C170.371 214.294 175.51 216.601 181.186 216.601ZM196.569 211.418C192.633 215.367 187.193 217.81 181.186 217.81C175.178 217.81 169.74 215.368 165.803 211.418C161.865 207.468 159.431 202.013 159.431 195.987C159.431 189.962 161.865 184.505 165.803 180.557C169.74 176.607 175.179 174.165 181.186 174.165C187.193 174.165 192.633 176.607 196.569 180.557C200.506 184.505 202.942 189.962 202.942 195.987C202.942 202.013 200.506 207.47 196.569 211.418Z" fill="#EDEFFF"/>
<path fill-rule="evenodd" clip-rule="evenodd" d="M181.186 227.163C189.768 227.163 197.539 223.673 203.162 218.032C208.787 212.39 212.265 204.596 212.265 195.987C212.265 187.379 208.787 179.583 203.162 173.943C197.538 168.301 189.767 164.813 181.186 164.813C172.604 164.813 164.833 168.303 159.209 173.943C153.586 179.585 150.106 187.379 150.106 195.987C150.106 204.596 153.586 212.391 159.209 218.032C164.833 223.673 172.603 227.163 181.186 227.163ZM204.014 218.885C198.171 224.746 190.099 228.371 181.185 228.371C172.27 228.371 164.198 224.746 158.356 218.885C152.515 213.025 148.901 204.929 148.901 195.986C148.901 187.042 152.515 178.947 158.356 173.088C164.198 167.227 172.27 163.602 181.185 163.602C190.099 163.602 198.171 167.227 204.014 173.088C209.856 178.948 213.47 187.044 213.47 195.986C213.47 204.928 209.856 213.026 204.014 218.885Z" fill="#EDEFFF"/>
<path fill-rule="evenodd" clip-rule="evenodd" d="M153.862 141.604C156.019 140.999 158.071 140.138 159.982 139.059L165.211 144.304C165.932 145.027 167.109 145.027 167.829 144.304L175.841 136.267C176.562 135.545 176.562 134.364 175.841 133.641L170.611 128.394C171.687 126.477 172.545 124.42 173.149 122.255H180.541C181.56 122.255 182.393 121.42 182.393 120.398V109.034C182.393 108.013 181.56 107.177 180.541 107.177H173.149C172.545 105.013 171.688 102.955 170.611 101.037L175.84 95.7922C176.56 95.0692 176.56 93.8877 175.84 93.1661L167.828 85.1295C167.107 84.4079 165.931 84.4079 165.21 85.1295L159.979 90.3761C158.068 89.2966 156.017 88.4356 153.859 87.8304V80.4148C153.859 79.3928 153.027 78.5576 152.009 78.5576H140.68C139.661 78.5576 138.829 79.3928 138.829 80.4148V87.8304C136.671 88.4356 134.62 89.2966 132.708 90.3761L127.478 85.1309C126.757 84.4079 125.579 84.4079 124.86 85.1309L116.848 93.1675C116.127 93.8905 116.127 95.0707 116.848 95.7937L122.077 101.039C121.001 102.956 120.143 105.015 119.538 107.178H112.147C111.128 107.178 110.295 108.013 110.295 109.035V120.399C110.295 121.421 111.128 122.257 112.147 122.257H119.539C120.143 124.421 121 126.478 122.077 128.396L116.848 133.641C116.127 134.364 116.127 135.544 116.848 136.267L124.86 144.304C125.579 145.025 126.757 145.027 127.478 144.304L132.708 139.057C134.62 140.137 136.672 140.998 138.827 141.603V149.018C138.827 150.04 139.66 150.876 140.679 150.876H152.008C153.027 150.876 153.859 150.04 153.859 149.018V141.604H153.862ZM146.346 129.261C138.339 129.261 131.847 122.75 131.847 114.719C131.847 106.686 138.339 100.176 146.346 100.176C154.352 100.176 160.844 106.688 160.844 114.719C160.845 122.75 154.354 129.261 146.346 129.261Z" fill="#FAAD14"/>
<path fill-rule="evenodd" clip-rule="evenodd" d="M153.862 141.604C156.019 140.999 158.071 140.138 159.982 139.059L165.211 144.304C165.932 145.027 167.109 145.027 167.829 144.304L175.841 136.267C176.562 135.545 176.562 134.364 175.841 133.641L170.611 128.394C171.687 126.477 172.545 124.42 173.149 122.255H180.541C181.56 122.255 182.393 121.42 182.393 120.398V109.034C182.393 108.013 181.56 107.177 180.541 107.177H173.149C172.545 105.013 171.688 102.955 170.611 101.037L175.84 95.7922C176.56 95.0692 176.56 93.8877 175.84 93.1661L167.828 85.1295C167.107 84.4079 165.931 84.4079 165.21 85.1295L159.979 90.3761C158.068 89.2966 156.017 88.4356 153.859 87.8304V80.4148C153.859 79.3928 153.027 78.5576 152.009 78.5576H140.68C139.661 78.5576 138.829 79.3928 138.829 80.4148V87.8304C136.671 88.4356 134.62 89.2966 132.708 90.3761L127.478 85.1309C126.757 84.4079 125.579 84.4079 124.86 85.1309L116.848 93.1675C116.127 93.8905 116.127 95.0707 116.848 95.7937L122.077 101.039C121.001 102.956 120.143 105.015 119.538 107.178H112.147C111.128 107.178 110.295 108.013 110.295 109.035V120.399C110.295 121.421 111.128 122.257 112.147 122.257H119.539C120.143 124.421 121 126.478 122.077 128.396L116.848 133.641C116.127 134.364 116.127 135.544 116.848 136.267L124.86 144.304C125.579 145.025 126.757 145.027 127.478 144.304L132.708 139.057C134.62 140.137 136.672 140.998 138.827 141.603V149.018C138.827 150.04 139.66 150.876 140.679 150.876H152.008C153.027 150.876 153.859 150.04 153.859 149.018V141.604H153.862ZM146.346 129.261C138.339 129.261 131.847 122.75 131.847 114.719C131.847 106.686 138.339 100.176 146.346 100.176C154.352 100.176 160.844 106.688 160.844 114.719C160.845 122.75 154.354 129.261 146.346 129.261Z" fill="url(#paint4_linear_13575_51942)"/>
<path fill-rule="evenodd" clip-rule="evenodd" d="M146.346 131.304C150.912 131.304 155.046 129.446 158.038 126.447C161.03 123.445 162.88 119.298 162.88 114.719C162.88 110.139 161.028 105.992 158.038 102.991C155.046 99.9895 150.912 98.1338 146.346 98.1338C141.779 98.1338 137.647 99.9895 134.654 102.991C131.662 105.991 129.812 110.138 129.812 114.717C129.812 119.297 131.662 123.444 134.654 126.445C137.647 129.446 141.781 131.304 146.346 131.304ZM158.723 127.132C155.556 130.309 151.18 132.274 146.346 132.274C141.513 132.274 137.136 130.309 133.969 127.132C130.801 123.954 128.842 119.566 128.842 114.717C128.842 109.869 130.801 105.479 133.969 102.302C137.136 99.1241 141.513 97.1592 146.346 97.1592C151.18 97.1592 155.556 99.1241 158.723 102.302C161.89 105.479 163.849 109.869 163.849 114.717C163.85 119.566 161.89 123.956 158.723 127.132Z" fill="#EDEFFF"/>
<path fill-rule="evenodd" clip-rule="evenodd" d="M146.346 139.8C153.25 139.8 159.502 136.993 164.028 132.454C168.553 127.916 171.352 121.644 171.352 114.717C171.352 107.79 168.553 101.52 164.028 96.9809C159.502 92.4416 153.252 89.6343 146.346 89.6343C139.44 89.6343 133.19 92.4416 128.664 96.9809C124.141 101.52 121.342 107.79 121.342 114.717C121.342 121.644 124.141 127.914 128.664 132.454C133.19 136.993 139.442 139.8 146.346 139.8ZM164.713 133.141C160.012 137.855 153.518 140.772 146.346 140.772C139.174 140.772 132.68 137.855 127.98 133.141C123.279 128.426 120.372 121.913 120.372 114.717C120.372 107.523 123.279 101.009 127.98 96.2938C132.68 91.5791 139.174 88.6626 146.346 88.6626C153.518 88.6626 160.012 91.5791 164.713 96.2938C169.413 101.009 172.32 107.522 172.32 114.717C172.32 121.912 169.413 128.426 164.713 133.141Z" fill="#EDEFFF"/>
<path d="M181.162 6.86495L178.477 2.92067C176.406 -0.120905 172.252 -0.927296 169.195 1.16702L91.0303 54.7108C91.0303 54.7108 63.1159 39.7962 58.3914 75.401L70.384 66.7578L81.5068 72.2545L83.2063 85.5923L71.0718 93.9049C71.0718 93.9049 98.0806 102.144 101.232 69.6959L179.397 16.1521C182.455 14.0578 183.233 9.90652 181.162 6.86495ZM175.719 15.7999C172.335 18.1185 167.907 17.5248 165.83 14.4746C163.754 11.4244 164.815 7.07193 168.199 4.75338C171.584 2.43482 176.012 3.02848 178.088 6.07868C180.165 9.12888 179.104 13.4814 175.719 15.7999Z" fill="url(#paint5_linear_13575_51942)"/>
<path d="M98.6668 104.998C98.6668 104.998 96.7122 108.196 96.1534 108.128C95.5945 108.061 94.7161 107.524 95.0801 106.924C95.3523 106.478 93.862 106.455 93.3032 106.387C92.7443 106.32 90.4558 104.647 89.5774 104.112C88.7004 103.579 88.3823 103.112 88.8695 102.31C89.3524 101.512 92.7414 103.852 93.4436 103.186C94.1486 102.521 95.1947 103.392 95.1947 103.392L98.6668 104.998Z" fill="url(#paint6_linear_13575_51942)"/>
<path d="M111.397 107.799C111.375 108.018 110.956 111.513 110.435 111.68C109.9 111.854 108.88 111.738 108.959 111.038C109.019 110.52 107.659 111.124 107.121 111.298C106.584 111.472 103.808 110.912 102.788 110.797C101.771 110.678 101.288 110.386 101.392 109.455C101.501 108.528 105.55 109.231 105.915 108.331C106.164 107.704 106.875 107.683 107.285 107.73C107.272 107.775 107.266 107.798 107.266 107.798H111.397V107.799Z" fill="url(#paint7_linear_13575_51942)"/>
<path d="M111.4 107.789C111.4 107.789 111.4 107.792 111.397 107.799H107.266C107.266 107.799 107.272 107.776 107.285 107.731C107.467 107.75 107.589 107.783 107.589 107.783L111.4 107.789Z" fill="url(#paint8_linear_13575_51942)"/>
<path d="M155.652 18.5583C152.164 18.0696 151.201 21.0522 151.201 21.0522C150.14 20.7001 149.098 20.5879 148.248 20.6325C148.248 20.6325 149.576 17.1338 154.15 17.8137C154.722 18.015 155.221 18.2665 155.652 18.5583Z" fill="url(#paint9_linear_13575_51942)"/>
<path d="M157.7 26.0256C157.38 26.6739 157.045 27.3222 156.738 27.9072C156.647 27.4832 156.303 26.6897 156.303 26.6897C157.192 26.1248 158.107 25.1488 157.501 24.1556C157.165 23.6065 156.727 23.375 156.283 23.375C156.227 23.375 156.171 23.3794 156.119 23.3865C156.019 23.398 155.924 23.4182 155.828 23.4541C155.777 23.4699 155.728 23.49 155.681 23.5145C155.629 23.5389 155.58 23.5619 155.533 23.5907C155.486 23.618 155.437 23.651 155.39 23.6827C155.345 23.7143 155.298 23.7502 155.254 23.7861C155.209 23.8264 155.166 23.8623 155.122 23.9069C154.044 22.4048 152.607 21.5165 151.203 21.0522C151.203 21.0522 152.164 18.0695 155.653 18.5583C158.706 20.6008 158.451 24.5005 157.7 26.0256Z" fill="url(#paint10_linear_13575_51942)"/>
<path d="M156.738 27.9072C156.647 28.084 156.555 28.2551 156.467 28.4204C156.105 27.4875 155.868 26.9355 155.868 26.9355C156.009 26.868 156.156 26.7832 156.304 26.6912C156.303 26.6897 156.647 27.4832 156.738 27.9072Z" fill="url(#paint11_linear_13575_51942)"/>
<path d="M154.367 34.4979C153.097 36.0115 151.617 38.113 150.727 38.389C150.727 38.389 150.68 38.3603 150.584 38.4091C150.496 38.4005 150.496 38.3286 150.548 38.2007C150.556 38.1849 150.564 38.1648 150.576 38.1447L150.628 38.0483C150.988 37.4274 152.101 36.115 152.392 35.1218C152.819 33.6843 152.048 31.7381 152.048 31.7381C152.191 31.7021 152.332 31.6504 152.479 31.5742C155.52 29.9974 154.639 26.9975 155.046 27.17L155.517 30.1727C155.517 30.1727 155.621 31.6418 155.665 32.3547H155.669C155.669 32.3907 155.674 32.4223 155.674 32.4554C155.712 33.1166 155.397 33.2718 154.367 34.4979Z" fill="url(#paint12_linear_13575_51942)"/>
<path d="M165.451 41.8689C165.451 41.9408 165.447 42.017 165.435 42.0975C165.431 42.1535 165.424 42.2139 165.407 42.2771C165.407 42.2858 165.407 42.2887 165.402 42.2973C165.394 42.3576 165.378 42.4209 165.362 42.4899C165.338 42.5776 165.315 42.6696 165.282 42.7659C165.242 42.8823 165.202 43.0059 165.15 43.1382C165.114 43.2345 165.074 43.3337 165.03 43.4386L161.558 66.7765C161.267 66.8685 160.951 66.9174 160.632 66.9174H140.474C140.501 66.834 141.887 63.3267 142.9 60.5395C143.115 59.9545 143.316 59.3939 143.483 58.8937C143.787 57.9967 144.114 57.0164 144.454 55.9829C146.309 56.5838 147.787 56.9244 148.321 56.7275C148.321 56.7275 154.823 42.1104 159.732 40.3409C162.49 39.3434 164.266 39.8407 165.336 40.8455C165.404 41.2034 165.447 41.5527 165.451 41.8689Z" fill="url(#paint13_linear_13575_51942)"/>
<path d="M161.559 66.7751C161.512 67.008 159.891 74.4898 155.679 78.5706C151.409 82.719 126.482 78.5706 126.482 78.5706L111.4 107.798H107.265C107.265 107.798 107.273 107.777 107.285 107.733C107.468 106.997 109.241 100.117 111.244 92.3712C113.388 84.0831 115.798 74.8074 116.828 71.004L116.833 70.9997C117.052 70.1675 117.212 69.6069 117.288 69.3625C118.062 66.916 123.043 66.916 123.043 66.916H160.633C160.953 66.916 161.268 66.8671 161.559 66.7751Z" fill="url(#paint14_linear_13575_51942)"/>
<path d="M116.828 71.0024C115.797 74.8044 113.388 84.0829 111.245 92.3711L98.6667 104.997L95.1946 103.393L116.828 71.0024Z" fill="url(#paint15_linear_13575_51942)"/>
<path d="M165.335 40.8442C164.266 39.8394 162.489 39.3421 159.73 40.3396C156.701 41.4321 153.064 47.4175 150.725 51.8375C149.684 53.8039 148.901 55.4569 148.542 56.2418C148.394 56.5537 148.318 56.7262 148.318 56.7262C147.784 56.9217 146.306 56.5824 144.45 55.9816C144.761 55.0487 145.077 54.0756 145.401 53.0795C145.839 51.7096 146.283 50.3052 146.697 48.9239C147.041 47.7955 147.364 46.6815 147.663 45.6164C148.385 43.0377 148.964 41.376 149.411 40.308L150.545 38.2022C150.493 38.3301 150.493 38.402 150.581 38.4106C150.677 38.3632 150.724 38.3905 150.724 38.3905C151.614 38.1145 153.094 36.013 154.364 34.4994C155.394 33.2747 155.709 33.118 155.669 32.4568C155.669 32.4252 155.665 32.3921 155.665 32.3562L157.697 33.5608C159.812 34.7739 162.538 36.2918 165.335 40.8442Z" fill="url(#paint16_linear_13575_51942)"/>
<path d="M155.668 32.4279L155.665 32.2842H155.668V32.4279Z" fill="url(#paint17_linear_13575_51942)"/>
<path d="M165.451 41.8689C165.451 41.9408 165.447 42.017 165.435 42.0975C165.431 42.1535 165.424 42.2139 165.406 42.2771C165.406 42.2858 165.406 42.2887 165.402 42.2973C165.394 42.3576 165.378 42.4209 165.362 42.4899C165.338 42.5776 165.315 42.6696 165.282 42.7659C165.242 42.8823 165.202 43.0059 165.15 43.1382C165.114 43.2345 165.074 43.3337 165.03 43.4386C163.154 47.9305 155.466 58.1721 152.045 62.6281C151.294 63.6056 150.074 64.0253 148.929 63.7766C148.625 63.7119 148.33 63.6041 148.05 63.4446L142.897 60.5381L130.939 53.7923L132.383 51.2179C132.383 51.2179 132.636 51.33 133.078 51.5183C135.014 52.3635 140.559 54.7338 144.449 55.9829C146.305 56.5838 147.782 56.9244 148.317 56.7275C148.317 56.7275 154.818 42.1104 159.728 40.3409C162.486 39.3434 164.261 39.8407 165.332 40.8455C165.404 41.2034 165.447 41.5527 165.451 41.8689Z" fill="url(#paint18_linear_13575_51942)"/>
<path d="M146.7 48.9224C146.285 50.3037 145.842 51.7095 145.403 53.0779L138.634 46.2559L140.722 44.1746C140.722 44.1746 140.934 44.3514 141.308 44.6503C142.301 45.4682 144.425 47.1845 146.7 48.9224Z" fill="url(#paint19_linear_13575_51942)"/>
<path d="M132.388 51.2164L130.943 53.7908C130.943 53.7908 128.52 52.5733 127.662 51.6045C127.538 51.4679 127.447 51.3357 127.398 51.2164C126.998 50.2231 126.696 48.3171 127.398 47.5697C128.093 46.8208 129.741 47.1686 130.04 48.2222C130.34 49.2716 130.942 49.3592 130.942 49.3592L131.465 49.0028L132.388 51.2164Z" fill="url(#paint20_linear_13575_51942)"/>
<path d="M140.72 44.1746L138.633 46.256L137.383 44.9422L139.478 43.5091C139.426 43.3567 139.199 42.8206 139.051 42.6165C138.888 42.3807 138.895 41.3559 139.494 41.6879C139.773 41.8446 140.064 42.4052 140.288 42.9528C140.546 43.5695 140.72 44.1746 140.72 44.1746Z" fill="url(#paint21_linear_13575_51942)"/>
<path d="M139.56 43.5493H139.417L139.409 43.5234L139.55 43.4961L139.554 43.5133C139.557 43.5248 139.56 43.5363 139.56 43.5493Z" fill="url(#paint22_linear_13575_51942)"/>
<path d="M156.466 28.4204C155.923 29.4453 155.516 30.1741 155.516 30.1741L155.044 27.1713C155.156 27.2187 155.48 27.1267 155.867 26.9355C155.868 26.9341 156.103 27.4875 156.466 28.4204Z" fill="url(#paint23_linear_13575_51942)"/>
<path d="M147.528 24.9964C147.005 24.8282 145.509 24.2274 145.621 22.9466C145.633 22.8187 145.661 22.6865 145.704 22.5456C145.979 21.6932 146.958 21.2605 148.199 21.2117C147.197 22.6735 147.357 24.2317 147.528 24.9964Z" fill="url(#paint24_linear_13575_51942)"/>
<path d="M150.003 21.3858C149.042 21.2334 148.172 22.1461 147.996 22.9957C147.967 23.1322 147.94 23.2716 147.915 23.4154C147.835 23.8797 147.775 24.3569 147.736 24.7364C147.728 24.7967 147.725 24.8528 147.716 24.9046C147.712 24.9563 147.708 25.0052 147.705 25.0483C147.701 25.0756 147.701 25.1 147.696 25.1245C147.692 25.1446 147.692 25.169 147.688 25.1892C147.672 25.3688 147.663 25.481 147.663 25.481C147.663 25.481 147.596 25.3013 147.527 24.9965C147.355 24.2318 147.196 22.6751 148.198 21.2133C148.758 21.1931 149.373 21.2535 150.003 21.3858Z" fill="url(#paint25_linear_13575_51942)"/>
<path d="M155.119 23.9068C155.083 23.9356 155.052 23.9672 155.023 24.0031C154.987 24.0391 154.959 24.075 154.927 24.1109C154.883 24.1584 154.844 24.2144 154.807 24.2676C154.778 24.3079 154.751 24.3481 154.726 24.3884C153.765 22.8589 151.948 21.8456 150.188 21.4301C150.172 21.4258 150.157 21.4215 150.141 21.4186C150.094 21.4071 150.049 21.3942 150.002 21.387C149.371 21.2548 148.757 21.1944 148.198 21.2145C146.957 21.262 145.978 21.6946 145.703 22.5485C145.659 22.6879 145.631 22.8201 145.62 22.9495C145.62 22.9495 145.528 22.1805 146.378 21.2117C146.642 20.9069 147.337 20.6798 148.246 20.6353C149.096 20.5907 150.138 20.7028 151.2 21.055C152.606 21.5164 154.041 22.4062 155.119 23.9068Z" fill="url(#paint26_linear_13575_51942)"/>
<path d="M154.729 24.3884C154.725 24.3971 154.721 24.3999 154.718 24.4085C154.678 24.4761 154.638 24.5494 154.602 24.6213C154.598 24.6256 154.598 24.6328 154.593 24.6371C154.553 24.7176 154.517 24.801 154.49 24.8858C154.461 24.9576 154.434 25.0338 154.414 25.1143C154.383 25.2221 154.358 25.3342 154.343 25.4464C154.067 27.236 153.48 25.7942 152.782 24.0693C152.758 24.0133 152.738 23.9658 152.718 23.9126C152.673 23.812 152.633 23.72 152.597 23.6367C152.517 23.4642 152.45 23.3247 152.382 23.204C152.331 23.1077 152.279 23.0272 152.23 22.9596C151.935 22.5313 151.667 22.4666 151.153 22.0627C151.148 22.0584 151.148 22.0627 151.148 22.0627C151.061 21.9908 150.969 21.9146 150.869 21.8269C149.827 20.9056 148.222 21.8945 147.996 22.9956C148.172 22.1475 149.042 21.2333 150.003 21.3857C150.051 21.3943 150.095 21.4058 150.142 21.4173C150.158 21.4216 150.174 21.4259 150.19 21.4288C151.951 21.8456 153.766 22.859 154.729 24.3884Z" fill="url(#paint27_linear_13575_51942)"/>
<path d="M156.301 26.6897C156.154 26.7817 156.006 26.8665 155.866 26.9341C155.479 27.1267 155.155 27.2187 155.043 27.1698C154.636 26.9973 155.518 29.9958 152.477 31.574C152.329 31.6502 152.189 31.702 152.045 31.7379C150.158 32.2065 148.813 29.1549 148.146 27.1411C147.831 26.1967 147.663 25.4794 147.663 25.4794C147.663 25.4794 147.672 25.3673 147.688 25.1876C147.692 25.1675 147.692 25.143 147.696 25.1229C147.701 25.0985 147.701 25.0755 147.705 25.0467C147.709 25.0022 147.713 24.9547 147.716 24.903C147.725 24.8512 147.728 24.7952 147.736 24.7348C147.777 24.3539 147.837 23.8781 147.916 23.4138C147.94 23.2701 147.967 23.1292 147.996 22.9941C148.172 22.146 149.042 21.2318 150.003 21.3842C150.051 21.3928 150.095 21.4043 150.142 21.4158C150.158 21.4201 150.174 21.4244 150.19 21.4273C150.418 21.4949 150.645 21.6199 150.867 21.824C150.968 21.916 151.06 21.9922 151.147 22.0598C151.147 22.0598 151.147 22.0555 151.151 22.0598C151.663 22.4723 151.929 22.5399 152.229 22.9567C152.276 23.0243 152.329 23.1048 152.381 23.2011C152.448 23.3218 152.517 23.4613 152.596 23.6338C152.631 23.7171 152.672 23.8106 152.716 23.9097C152.736 23.9615 152.756 24.0104 152.781 24.0664C153.478 25.7913 154.066 27.233 154.341 25.4435C154.357 25.3313 154.381 25.2192 154.413 25.1114C154.433 25.0309 154.46 24.9547 154.489 24.8829C154.517 24.7995 154.553 24.7147 154.592 24.6342C154.596 24.6299 154.596 24.6227 154.6 24.6184C154.636 24.5465 154.676 24.4746 154.716 24.4056C154.721 24.397 154.725 24.3941 154.728 24.3855C154.752 24.3453 154.78 24.305 154.808 24.2648C154.844 24.213 154.884 24.157 154.929 24.1081C154.96 24.0722 154.989 24.0362 155.025 24.0003C155.052 23.9644 155.085 23.9327 155.121 23.904C155.165 23.8594 155.208 23.8235 155.252 23.7832C155.297 23.7473 155.344 23.7114 155.389 23.6798C155.436 23.6481 155.485 23.6151 155.532 23.5878C155.579 23.559 155.628 23.536 155.679 23.5116C155.727 23.4871 155.775 23.467 155.827 23.4512C155.923 23.4153 156.019 23.3951 156.118 23.3836C156.17 23.375 156.225 23.3721 156.281 23.3721C156.724 23.3721 157.164 23.605 157.499 24.1527C158.105 25.1488 157.191 26.1248 156.301 26.6897Z" fill="url(#paint28_linear_13575_51942)"/>
<defs>
<linearGradient id="paint0_linear_13575_51942" x1="174.696" y1="173.529" x2="222.345" y2="112.006" gradientUnits="userSpaceOnUse">
<stop stop-color="#30944C"/>
<stop offset="0.41" stop-color="#8ABB62"/>
<stop offset="0.8161" stop-color="#DEDF77"/>
<stop offset="1" stop-color="#FFED7F"/>
</linearGradient>
<linearGradient id="paint1_linear_13575_51942" x1="178.677" y1="163.492" x2="250.745" y2="150.947" gradientUnits="userSpaceOnUse">
<stop stop-color="#30944C"/>
<stop offset="0.41" stop-color="#8ABB62"/>
<stop offset="0.8161" stop-color="#DEDF77"/>
<stop offset="1" stop-color="#FFED7F"/>
</linearGradient>
<linearGradient id="paint2_linear_13575_51942" x1="17.1074" y1="116.937" x2="163.77" y2="301.162" gradientUnits="userSpaceOnUse">
<stop stop-color="#FFD571"/>
<stop offset="0.2509" stop-color="#FFBD60"/>
<stop offset="0.7782" stop-color="#FF8035"/>
<stop offset="1" stop-color="#FF6421"/>
</linearGradient>
<linearGradient id="paint3_linear_13575_51942" x1="133.943" y1="131.492" x2="254.233" y2="294.699" gradientUnits="userSpaceOnUse">
<stop stop-color="#FFD571"/>
<stop offset="0.2509" stop-color="#FFBD60"/>
<stop offset="0.7782" stop-color="#FF8035"/>
<stop offset="1" stop-color="#FF6421"/>
</linearGradient>
<linearGradient id="paint4_linear_13575_51942" x1="108.075" y1="66.7869" x2="207.216" y2="190.185" gradientUnits="userSpaceOnUse">
<stop stop-color="#FFD571"/>
<stop offset="0.2509" stop-color="#FFBD60"/>
<stop offset="0.7782" stop-color="#FF8035"/>
<stop offset="1" stop-color="#FF6421"/>
</linearGradient>
<linearGradient id="paint5_linear_13575_51942" x1="200.786" y1="-28.1571" x2="15.345" y2="125.608" gradientUnits="userSpaceOnUse">
<stop stop-color="#BE73DE"/>
<stop offset="1" stop-color="#514EB7"/>
</linearGradient>
<linearGradient id="paint6_linear_13575_51942" x1="88.6406" y1="105.135" x2="98.6665" y2="105.135" gradientUnits="userSpaceOnUse">
<stop stop-color="#BE73DE"/>
<stop offset="1" stop-color="#514EB7"/>
</linearGradient>
<linearGradient id="paint7_linear_13575_51942" x1="101.379" y1="109.733" x2="111.398" y2="109.733" gradientUnits="userSpaceOnUse">
<stop stop-color="#BE73DE"/>
<stop offset="1" stop-color="#514EB7"/>
</linearGradient>
<linearGradient id="paint8_linear_13575_51942" x1="107.266" y1="107.765" x2="111.401" y2="107.765" gradientUnits="userSpaceOnUse">
<stop stop-color="#77D8FC"/>
<stop offset="0.4282" stop-color="#75C0EA"/>
<stop offset="1" stop-color="#719ACD"/>
</linearGradient>
<linearGradient id="paint9_linear_13575_51942" x1="148.249" y1="19.3897" x2="155.653" y2="19.3897" gradientUnits="userSpaceOnUse">
<stop stop-color="#FFD571"/>
<stop offset="0.2509" stop-color="#FFBD60"/>
<stop offset="0.7782" stop-color="#FF8035"/>
<stop offset="1" stop-color="#FF6421"/>
</linearGradient>
<linearGradient id="paint10_linear_13575_51942" x1="151.202" y1="23.2061" x2="158.187" y2="23.2061" gradientUnits="userSpaceOnUse">
<stop stop-color="#FFD571"/>
<stop offset="0.2509" stop-color="#FFBD60"/>
<stop offset="0.7782" stop-color="#FF8035"/>
<stop offset="1" stop-color="#FF6421"/>
</linearGradient>
<linearGradient id="paint11_linear_13575_51942" x1="155.868" y1="27.5551" x2="156.738" y2="27.5551" gradientUnits="userSpaceOnUse">
<stop stop-color="#FFD571"/>
<stop offset="0.2509" stop-color="#FFBD60"/>
<stop offset="0.7782" stop-color="#FF8035"/>
<stop offset="1" stop-color="#FF6421"/>
</linearGradient>
<linearGradient id="paint12_linear_13575_51942" x1="152.148" y1="33.3166" x2="156.759" y2="30.0792" gradientUnits="userSpaceOnUse">
<stop stop-color="#E3CBBA"/>
<stop offset="0.2529" stop-color="#DBBAA2"/>
<stop offset="0.7844" stop-color="#C88F65"/>
<stop offset="1" stop-color="#BF7C4A"/>
</linearGradient>
<linearGradient id="paint13_linear_13575_51942" x1="142.971" y1="52.2875" x2="167.958" y2="55.3466" gradientUnits="userSpaceOnUse">
<stop stop-color="#30944C"/>
<stop offset="0.41" stop-color="#8ABB62"/>
<stop offset="0.8161" stop-color="#DEDF77"/>
<stop offset="1" stop-color="#FFED7F"/>
</linearGradient>
<linearGradient id="paint14_linear_13575_51942" x1="107.266" y1="87.2861" x2="161.56" y2="87.2861" gradientUnits="userSpaceOnUse">
<stop stop-color="#808080"/>
<stop offset="0.6386" stop-color="#52524D"/>
<stop offset="1" stop-color="#3C3C35"/>
</linearGradient>
<linearGradient id="paint15_linear_13575_51942" x1="95.1942" y1="88" x2="116.828" y2="88" gradientUnits="userSpaceOnUse">
<stop stop-color="#808080"/>
<stop offset="0.6386" stop-color="#52524D"/>
<stop offset="1" stop-color="#3C3C35"/>
</linearGradient>
<linearGradient id="paint16_linear_13575_51942" x1="144.031" y1="43.6247" x2="169.018" y2="46.6838" gradientUnits="userSpaceOnUse">
<stop stop-color="#30944C"/>
<stop offset="0.41" stop-color="#8ABB62"/>
<stop offset="0.8161" stop-color="#DEDF77"/>
<stop offset="1" stop-color="#FFED7F"/>
</linearGradient>
<linearGradient id="paint17_linear_13575_51942" x1="155.664" y1="32.3555" x2="155.668" y2="32.3555" gradientUnits="userSpaceOnUse">
<stop stop-color="#77D8FC"/>
<stop offset="0.4282" stop-color="#75C0EA"/>
<stop offset="1" stop-color="#719ACD"/>
</linearGradient>
<linearGradient id="paint18_linear_13575_51942" x1="174.208" y1="54.0033" x2="112.179" y2="46.5741" gradientUnits="userSpaceOnUse">
<stop stop-color="#30944C"/>
<stop offset="0.41" stop-color="#8ABB62"/>
<stop offset="0.8161" stop-color="#DEDF77"/>
<stop offset="1" stop-color="#FFED7F"/>
</linearGradient>
<linearGradient id="paint19_linear_13575_51942" x1="149.245" y1="53.9806" x2="130.343" y2="36.4516" gradientUnits="userSpaceOnUse">
<stop stop-color="#30944C"/>
<stop offset="0.41" stop-color="#8ABB62"/>
<stop offset="0.8161" stop-color="#DEDF77"/>
<stop offset="1" stop-color="#FFED7F"/>
</linearGradient>
<linearGradient id="paint20_linear_13575_51942" x1="126.977" y1="50.4801" x2="132.387" y2="50.4801" gradientUnits="userSpaceOnUse">
<stop stop-color="#FFECDC"/>
<stop offset="0.2378" stop-color="#F6DAC4"/>
<stop offset="0.7374" stop-color="#E0AD87"/>
<stop offset="1" stop-color="#D39364"/>
</linearGradient>
<linearGradient id="paint21_linear_13575_51942" x1="137.384" y1="43.9395" x2="140.721" y2="43.9395" gradientUnits="userSpaceOnUse">
<stop stop-color="#FFECDC"/>
<stop offset="0.2378" stop-color="#F6DAC4"/>
<stop offset="0.7374" stop-color="#E0AD87"/>
<stop offset="1" stop-color="#D39364"/>
</linearGradient>
<linearGradient id="paint22_linear_13575_51942" x1="139.41" y1="43.5229" x2="139.559" y2="43.5229" gradientUnits="userSpaceOnUse">
<stop stop-color="#77D8FC"/>
<stop offset="0.4282" stop-color="#75C0EA"/>
<stop offset="1" stop-color="#719ACD"/>
</linearGradient>
<linearGradient id="paint23_linear_13575_51942" x1="155.046" y1="28.554" x2="156.467" y2="28.554" gradientUnits="userSpaceOnUse">
<stop stop-color="#808080"/>
<stop offset="0.6386" stop-color="#52524D"/>
<stop offset="1" stop-color="#3C3C35"/>
</linearGradient>
<linearGradient id="paint24_linear_13575_51942" x1="145.614" y1="23.1045" x2="148.199" y2="23.1045" gradientUnits="userSpaceOnUse">
<stop stop-color="#FFD571"/>
<stop offset="0.2509" stop-color="#FFBD60"/>
<stop offset="0.7782" stop-color="#FF8035"/>
<stop offset="1" stop-color="#FF6421"/>
</linearGradient>
<linearGradient id="paint25_linear_13575_51942" x1="147.401" y1="23.345" x2="150.003" y2="23.345" gradientUnits="userSpaceOnUse">
<stop stop-color="#808080"/>
<stop offset="0.6386" stop-color="#52524D"/>
<stop offset="1" stop-color="#3C3C35"/>
</linearGradient>
<linearGradient id="paint26_linear_13575_51942" x1="145.618" y1="22.5054" x2="155.12" y2="22.5054" gradientUnits="userSpaceOnUse">
<stop stop-color="#FFD571"/>
<stop offset="0.2509" stop-color="#FFBD60"/>
<stop offset="0.7782" stop-color="#FF8035"/>
<stop offset="1" stop-color="#FF6421"/>
</linearGradient>
<linearGradient id="paint27_linear_13575_51942" x1="147.995" y1="23.8176" x2="154.729" y2="23.8176" gradientUnits="userSpaceOnUse">
<stop stop-color="#808080"/>
<stop offset="0.6386" stop-color="#52524D"/>
<stop offset="1" stop-color="#3C3C35"/>
</linearGradient>
<linearGradient id="paint28_linear_13575_51942" x1="147.664" y1="26.5774" x2="157.695" y2="26.5774" gradientUnits="userSpaceOnUse">
<stop stop-color="#FFECDC"/>
<stop offset="0.2378" stop-color="#F6DAC4"/>
<stop offset="0.7374" stop-color="#E0AD87"/>
<stop offset="1" stop-color="#D39364"/>
</linearGradient>
</defs>
</svg>
