<svg width="82" height="82" viewBox="0 0 82 82" fill="none" xmlns="http://www.w3.org/2000/svg">
<path d="M72.9677 69.6456H51.5419C58.3248 67.1291 64.0072 62.3082 67.5954 56.026C71.1836 49.7439 72.4492 42.4002 71.1708 35.2794C69.8925 28.1585 66.1515 21.7137 60.6023 17.0719C55.053 12.4301 48.0485 9.88685 40.8138 9.88685C33.5791 9.88685 26.5747 12.4301 21.0254 17.0719C15.4761 21.7137 11.7351 28.1585 10.4568 35.2794C9.17843 42.4002 10.444 49.7439 14.0322 56.026C17.6204 62.3082 23.3028 67.1291 30.0857 69.6456H8.65996C8.52284 69.6276 8.38348 69.6392 8.25119 69.6794C8.11889 69.7197 7.9967 69.7877 7.89278 69.8789C7.78886 69.9701 7.70559 70.0825 7.64856 70.2084C7.59152 70.3344 7.56201 70.4711 7.56201 70.6094C7.56201 70.7477 7.59152 70.8844 7.64856 71.0103C7.70559 71.1363 7.78886 71.2486 7.89278 71.3399C7.9967 71.4311 8.11889 71.4991 8.25119 71.5393C8.38348 71.5796 8.52284 71.5911 8.65996 71.5732H72.9677C73.1048 71.5911 73.2441 71.5796 73.3764 71.5393C73.5087 71.4991 73.6309 71.4311 73.7348 71.3399C73.8388 71.2486 73.922 71.1363 73.9791 71.0103C74.0361 70.8844 74.0656 70.7477 74.0656 70.6094C74.0656 70.4711 74.0361 70.3344 73.9791 70.2084C73.922 70.0825 73.8388 69.9701 73.7348 69.8789C73.6309 69.7877 73.5087 69.7197 73.3764 69.6794C73.2441 69.6392 73.1048 69.6276 72.9677 69.6456ZM11.8994 40.7309C11.8994 35.0121 13.5952 29.4217 16.7724 24.6667C19.9496 19.9118 24.4654 16.2057 29.7489 14.0172C35.0323 11.8287 40.8461 11.2561 46.455 12.3718C52.0639 13.4875 57.216 16.2413 61.2598 20.2851C65.3036 24.3289 68.0575 29.481 69.1731 35.0899C70.2888 40.6988 69.7162 46.5126 67.5277 51.7961C65.3392 57.0795 61.6332 61.5954 56.8782 64.7726C52.1232 67.9497 46.5328 69.6456 40.814 69.6456C33.1481 69.6369 25.7985 66.5877 20.3779 61.1671C14.9572 55.7464 11.908 48.3969 11.8994 40.7309ZM42.9827 7.35853C43.2686 7.35853 43.5481 7.27374 43.7859 7.11488C44.0236 6.95602 44.2089 6.73023 44.3183 6.46605C44.4278 6.20188 44.4564 5.91119 44.4006 5.63074C44.3448 5.3503 44.2071 5.0927 44.0049 4.89051C43.8027 4.68832 43.5451 4.55062 43.2647 4.49484C42.9843 4.43906 42.6936 4.46769 42.4294 4.57711C42.1652 4.68653 41.9394 4.87184 41.7806 5.10959C41.6217 5.34734 41.5369 5.62685 41.5369 5.91279C41.5373 6.29611 41.6897 6.66361 41.9608 6.93466C42.2318 7.2057 42.5993 7.35814 42.9827 7.35853ZM42.9827 5.18993C43.1256 5.18993 43.2654 5.23232 43.3843 5.31175C43.5031 5.39118 43.5958 5.50408 43.6505 5.63616C43.7052 5.76825 43.7195 5.9136 43.6916 6.05382C43.6637 6.19404 43.5949 6.32284 43.4938 6.42394C43.3927 6.52503 43.2639 6.59388 43.1237 6.62177C42.9835 6.64966 42.8381 6.63535 42.706 6.58064C42.5739 6.52592 42.461 6.43327 42.3816 6.3144C42.3022 6.19552 42.2598 6.05576 42.2598 5.91279C42.2599 5.72112 42.3361 5.53733 42.4716 5.40179C42.6072 5.26625 42.791 5.19005 42.9827 5.18993ZM76.6225 31.5746C76.4318 31.5746 76.2455 31.6311 76.087 31.737C75.9285 31.8429 75.805 31.9934 75.732 32.1696C75.6591 32.3457 75.64 32.5395 75.6772 32.7264C75.7144 32.9134 75.8062 33.0851 75.9409 33.2199C76.0757 33.3547 76.2475 33.4465 76.4344 33.4837C76.6214 33.5209 76.8152 33.5018 76.9913 33.4288C77.1674 33.3559 77.318 33.2324 77.4239 33.0739C77.5298 32.9154 77.5863 32.729 77.5863 32.5384C77.586 32.2828 77.4844 32.0378 77.3037 31.8571C77.123 31.6765 76.878 31.5748 76.6225 31.5746ZM76.6225 33.0203C76.5272 33.0203 76.434 32.992 76.3547 32.9391C76.2755 32.8861 76.2137 32.8109 76.1772 32.7228C76.1408 32.6348 76.1312 32.5379 76.1498 32.4444C76.1684 32.3509 76.2143 32.265 76.2817 32.1976C76.3491 32.1302 76.435 32.0843 76.5285 32.0657C76.6219 32.0471 76.7188 32.0567 76.8069 32.0932C76.895 32.1296 76.9702 32.1914 77.0232 32.2707C77.0761 32.3499 77.1044 32.4431 77.1044 32.5384C77.1043 32.6662 77.0534 32.7887 76.9631 32.879C76.8727 32.9694 76.7502 33.0202 76.6225 33.0203ZM62.982 0.571289C62.7913 0.571289 62.605 0.627816 62.4465 0.733723C62.288 0.839629 62.1645 0.990157 62.0915 1.16627C62.0186 1.34239 61.9995 1.53618 62.0367 1.72314C62.0739 1.91011 62.1657 2.08184 62.3004 2.21664C62.4352 2.35143 62.607 2.44323 62.7939 2.48041C62.9809 2.5176 63.1747 2.49852 63.3508 2.42557C63.5269 2.35262 63.6775 2.22908 63.7834 2.07058C63.8893 1.91208 63.9458 1.72574 63.9458 1.53511C63.9455 1.27957 63.8439 1.03456 63.6632 0.853868C63.4825 0.673172 63.2375 0.571544 62.982 0.571289ZM62.982 2.01702C62.8867 2.01702 62.7935 1.98876 62.7142 1.93581C62.635 1.88285 62.5732 1.80759 62.5367 1.71953C62.5003 1.63147 62.4907 1.53458 62.5093 1.4411C62.5279 1.34761 62.5738 1.26175 62.6412 1.19435C62.7086 1.12695 62.7945 1.08105 62.888 1.06246C62.9814 1.04387 63.0783 1.05341 63.1664 1.08988C63.2545 1.12636 63.3297 1.18813 63.3827 1.26738C63.4356 1.34663 63.4639 1.4398 63.4639 1.53511C63.4638 1.66288 63.4129 1.78539 63.3226 1.87573C63.2322 1.96608 63.1097 2.0169 62.982 2.01702ZM78.0817 6.19375C77.8911 6.19375 77.7047 6.25028 77.5462 6.35618C77.3877 6.46209 77.2642 6.61262 77.1912 6.78873C77.1183 6.96485 77.0992 7.15864 77.1364 7.3456C77.1736 7.53257 77.2654 7.7043 77.4002 7.8391C77.535 7.97389 77.7067 8.06568 77.8937 8.10287C78.0806 8.14006 78.2744 8.12098 78.4505 8.04803C78.6267 7.97508 78.7772 7.85154 78.8831 7.69304C78.989 7.53454 79.0455 7.3482 79.0455 7.15757C79.0453 6.90203 78.9436 6.65702 78.7629 6.47633C78.5823 6.29563 78.3372 6.194 78.0817 6.19375ZM78.0817 7.63948C77.9864 7.63948 77.8932 7.61122 77.814 7.55827C77.7347 7.50531 77.6729 7.43005 77.6365 7.34199C77.6 7.25393 77.5905 7.15704 77.609 7.06355C77.6276 6.97007 77.6735 6.8842 77.7409 6.81681C77.8083 6.74941 77.8942 6.70351 77.9877 6.68492C78.0812 6.66632 78.1781 6.67587 78.2661 6.71234C78.3542 6.74882 78.4294 6.81058 78.4824 6.88983C78.5353 6.96908 78.5636 7.06226 78.5636 7.15757C78.5635 7.28534 78.5127 7.40784 78.4223 7.49819C78.332 7.58854 78.2095 7.63935 78.0817 7.63948ZM14.9378 13.5829C14.9378 13.3923 14.8813 13.2059 14.7754 13.0474C14.6695 12.8889 14.519 12.7654 14.3428 12.6924C14.1667 12.6195 13.9729 12.6004 13.786 12.6376C13.599 12.6748 13.4273 12.7666 13.2925 12.9014C13.1577 13.0362 13.0659 13.2079 13.0287 13.3949C12.9915 13.5818 13.0106 13.7756 13.0835 13.9517C13.1565 14.1278 13.28 14.2784 13.4385 14.3843C13.597 14.4902 13.7834 14.5467 13.974 14.5467C14.2295 14.5465 14.4745 14.4448 14.6552 14.2641C14.8359 14.0834 14.9376 13.8384 14.9378 13.5829ZM13.4921 13.5829C13.4921 13.4876 13.5203 13.3944 13.5733 13.3152C13.6263 13.2359 13.7015 13.1741 13.7896 13.1377C13.8776 13.1012 13.9745 13.0916 14.068 13.1102C14.1615 13.1288 14.2474 13.1747 14.3148 13.2421C14.3822 13.3095 14.4281 13.3954 14.4466 13.4889C14.4652 13.5824 14.4557 13.6793 14.4192 13.7673C14.3828 13.8554 14.321 13.9306 14.2417 13.9836C14.1625 14.0365 14.0693 14.0648 13.974 14.0648C13.8462 14.0647 13.7237 14.0139 13.6334 13.9235C13.543 13.8332 13.4922 13.7107 13.4921 13.5829Z" fill="#16162F"/>
<path fill-rule="evenodd" clip-rule="evenodd" d="M61.0152 39.8428C61.4754 39.8482 61.8441 40.2257 61.8387 40.6859C61.7 52.5075 52.0043 61.9783 40.1827 61.8396C35.5125 61.7848 31.2078 60.2376 27.7187 57.6574L28.0493 63.258C28.0764 63.7174 27.7259 64.1118 27.2665 64.139C26.8071 64.1661 26.4126 63.8156 26.3855 63.3562L25.9436 55.8692C25.9164 55.4098 26.2669 55.0153 26.7263 54.9882L34.2133 54.5463C34.6727 54.5191 35.0672 54.8696 35.0943 55.329C35.1214 55.7885 34.771 56.1829 34.3115 56.21L28.9942 56.5239C32.1597 58.7791 36.0209 60.124 40.2023 60.1731C51.1035 60.301 60.0443 51.5675 60.1722 40.6663C60.1776 40.2061 60.555 39.8374 61.0152 39.8428Z" fill="#0A855C"/>
<path fill-rule="evenodd" clip-rule="evenodd" d="M20.983 40.8168C20.5238 40.7859 20.1766 40.3886 20.2075 39.9294C21.001 28.1337 31.2067 19.2146 43.0024 20.0082C47.6624 20.3217 51.8748 22.105 55.2155 24.8746L55.1958 19.2643C55.1942 18.8041 55.566 18.4297 56.0262 18.4281C56.4864 18.4264 56.8608 18.7982 56.8624 19.2585L56.8889 26.7584C56.8905 27.2186 56.5187 27.5931 56.0585 27.5947L48.5585 27.6211C48.0983 27.6227 47.7239 27.2509 47.7222 26.7907C47.7206 26.3305 48.0924 25.956 48.5526 25.9544L53.8792 25.9357C50.8435 23.5085 47.0628 21.9518 42.8905 21.6711C32.0132 20.9393 22.6022 29.1639 21.8704 40.0413C21.8395 40.5005 21.4422 40.8477 20.983 40.8168Z" fill="#0A855C"/>
<path d="M1.2972 71.5732C1.8295 71.5732 2.26102 71.1416 2.26102 70.6093C2.26102 70.077 1.8295 69.6455 1.2972 69.6455C0.764892 69.6455 0.333374 70.077 0.333374 70.6093C0.333374 71.1416 0.764892 71.5732 1.2972 71.5732Z" fill="#16162F"/>
<path d="M5.63417 69.6455H4.18843C3.93281 69.6455 3.68766 69.7471 3.50691 69.9278C3.32615 70.1086 3.22461 70.3537 3.22461 70.6093C3.22461 70.865 3.32615 71.1101 3.50691 71.2909C3.68766 71.4716 3.93281 71.5732 4.18843 71.5732H5.63417C5.88979 71.5732 6.13494 71.4716 6.31569 71.2909C6.49644 71.1101 6.59799 70.865 6.59799 70.6093C6.59799 70.3537 6.49644 70.1086 6.31569 69.9278C6.13494 69.7471 5.88979 69.6455 5.63417 69.6455ZM77.439 69.6455H75.9932C75.7376 69.6455 75.4924 69.7471 75.3117 69.9278C75.1309 70.1086 75.0294 70.3537 75.0294 70.6093C75.0294 70.865 75.1309 71.1101 75.3117 71.2909C75.4924 71.4716 75.7376 71.5732 75.9932 71.5732H77.439C77.6946 71.5732 77.9397 71.4716 78.1205 71.2909C78.3012 71.1101 78.4028 70.865 78.4028 70.6093C78.4028 70.3537 78.3012 70.1086 78.1205 69.9278C77.9397 69.7471 77.6946 69.6455 77.439 69.6455Z" fill="#16162F"/>
<path d="M80.3306 71.5732C80.8629 71.5732 81.2945 71.1416 81.2945 70.6093C81.2945 70.077 80.8629 69.6455 80.3306 69.6455C79.7983 69.6455 79.3668 70.077 79.3668 70.6093C79.3668 71.1416 79.7983 71.5732 80.3306 71.5732Z" fill="#16162F"/>
<path d="M57.273 73.5H53.2693C53.0266 73.5188 52.7999 73.6285 52.6345 73.8072C52.4692 73.9859 52.3773 74.2204 52.3773 74.4638C52.3773 74.7073 52.4692 74.9418 52.6345 75.1204C52.7999 75.2991 53.0266 75.4088 53.2693 75.4276H57.273C57.5158 75.4088 57.7425 75.2991 57.9078 75.1204C58.0732 74.9418 58.1651 74.7073 58.1651 74.4638C58.1651 74.2204 58.0732 73.9859 57.9078 73.8072C57.7425 73.6285 57.5158 73.5188 57.273 73.5ZM28.3584 73.5H24.3546C24.1119 73.5188 23.8852 73.6285 23.7199 73.8072C23.5545 73.9859 23.4626 74.2204 23.4626 74.4638C23.4626 74.7073 23.5545 74.9418 23.7199 75.1204C23.8852 75.2991 24.1119 75.4088 24.3546 75.4276H28.3584C28.6011 75.4088 28.8278 75.2991 28.9931 75.1204C29.1585 74.9418 29.2504 74.7073 29.2504 74.4638C29.2504 74.2204 29.1585 73.9859 28.9931 73.8072C28.8278 73.6285 28.6011 73.5188 28.3584 73.5ZM50.4521 73.5H31.1756C30.92 73.5 30.6748 73.6015 30.4941 73.7823C30.3133 73.963 30.2118 74.2082 30.2118 74.4638C30.2118 74.7194 30.3133 74.9646 30.4941 75.1453C30.6748 75.3261 30.92 75.4276 31.1756 75.4276H38.8573V76.3915H35.0309C34.7753 76.3915 34.5301 76.493 34.3494 76.6738C34.1686 76.8545 34.0671 77.0997 34.0671 77.3553C34.0671 77.6109 34.1686 77.8561 34.3494 78.0368C34.5301 78.2176 34.7753 78.3191 35.0309 78.3191H47.0787C47.3343 78.3191 47.5795 78.2176 47.7602 78.0368C47.941 77.8561 48.0425 77.6109 48.0425 77.3553C48.0425 77.0997 47.941 76.8545 47.7602 76.6738C47.5795 76.493 47.3343 76.3915 47.0787 76.3915H42.7704V75.4276H50.4521C50.7077 75.4276 50.9528 75.3261 51.1336 75.1453C51.3144 74.9646 51.4159 74.7194 51.4159 74.4638C51.4159 74.2082 51.3144 73.963 51.1336 73.7823C50.9528 73.6015 50.7077 73.5 50.4521 73.5Z" fill="#0A855C"/>
<path fill-rule="evenodd" clip-rule="evenodd" d="M35.7841 79.8077C35.6609 79.806 35.5386 79.8287 35.4243 79.8747C35.31 79.9206 35.206 79.9888 35.1183 80.0753C35.0305 80.1618 34.9609 80.2648 34.9133 80.3785C34.8658 80.4921 34.8413 80.6141 34.8413 80.7373C34.8413 80.8604 34.8658 80.9824 34.9133 81.0961C34.9609 81.2097 35.0305 81.3128 35.1183 81.3992C35.206 81.4857 35.31 81.5539 35.4243 81.5999C35.5386 81.6458 35.6609 81.6685 35.7841 81.6668H45.5661C45.6893 81.6685 45.8116 81.6458 45.9259 81.5999C46.0402 81.5539 46.1442 81.4857 46.2319 81.3992C46.3197 81.3128 46.3893 81.2097 46.4369 81.0961C46.4844 80.9824 46.5089 80.8604 46.5089 80.7373C46.5089 80.6141 46.4844 80.4921 46.4369 80.3785C46.3893 80.2648 46.3197 80.1618 46.2319 80.0753C46.1442 79.9888 46.0402 79.9206 45.9259 79.8747C45.8116 79.8287 45.6893 79.806 45.5661 79.8077H35.7841Z" fill="#0A855C"/>
</svg>
