<svg width="82" height="83" viewBox="0 0 82 83" fill="none" xmlns="http://www.w3.org/2000/svg">
<path d="M56.0407 29.2134L33.2328 51.657L26.5723 44.6572C26.3957 44.4737 26.1537 44.3676 25.8991 44.362C25.6445 44.3564 25.3981 44.4518 25.2136 44.6273C25.0291 44.8028 24.9215 45.0442 24.9144 45.2988C24.9073 45.5533 25.0013 45.8003 25.1757 45.9858L32.5118 53.6964C32.6 53.7892 32.7057 53.8635 32.8229 53.9149C32.9401 53.9664 33.0663 53.994 33.1942 53.9962H33.2106C33.4635 53.996 33.7061 53.8965 33.8863 53.7191L57.392 30.5873C57.4858 30.4994 57.561 30.3937 57.6133 30.2763C57.6657 30.1589 57.694 30.0322 57.6966 29.9037C57.6992 29.7752 57.6761 29.6474 57.6286 29.528C57.5812 29.4085 57.5103 29.2998 57.4201 29.2081C57.33 29.1165 57.2225 29.0438 57.1038 28.9944C56.9852 28.9449 56.8578 28.9197 56.7293 28.9202C56.6008 28.9207 56.4736 28.9469 56.3554 28.9972C56.2371 29.0476 56.1301 29.1211 56.0407 29.2134Z" fill="#0A855C"/>
<path d="M72.9672 70.2604H51.5414C58.3243 67.7439 64.0067 62.9231 67.5949 56.6409C71.1831 50.3587 72.4487 43.0151 71.1703 35.8943C69.892 28.7734 66.1511 22.3286 60.6018 17.6868C55.0525 13.045 48.048 10.5017 40.8133 10.5017C33.5786 10.5017 26.5742 13.045 21.0249 17.6868C15.4756 22.3286 11.7347 28.7734 10.4563 35.8943C9.17794 43.0151 10.4435 50.3587 14.0317 56.6409C17.6199 62.9231 23.3023 67.7439 30.0853 70.2604H8.65947C8.52236 70.2425 8.383 70.2541 8.2507 70.2943C8.1184 70.3345 7.99621 70.4025 7.89229 70.4938C7.78837 70.585 7.70511 70.6973 7.64807 70.8233C7.59103 70.9493 7.56152 71.086 7.56152 71.2243C7.56152 71.3625 7.59103 71.4992 7.64807 71.6252C7.70511 71.7512 7.78837 71.8635 7.89229 71.9547C7.99621 72.046 8.1184 72.114 8.2507 72.1542C8.383 72.1945 8.52236 72.206 8.65947 72.1881H72.9672C73.1043 72.206 73.2437 72.1945 73.376 72.1542C73.5082 72.114 73.6304 72.046 73.7344 71.9547C73.8383 71.8635 73.9215 71.7512 73.9786 71.6252C74.0356 71.4992 74.0651 71.3625 74.0651 71.2243C74.0651 71.086 74.0356 70.9493 73.9786 70.8233C73.9215 70.6973 73.8383 70.585 73.7344 70.4938C73.6304 70.4025 73.5082 70.3345 73.376 70.2943C73.2437 70.2541 73.1043 70.2425 72.9672 70.2604ZM11.8989 41.3458C11.8989 35.627 13.5947 30.0366 16.7719 25.2816C19.9491 20.5266 24.4649 16.8206 29.7484 14.6321C35.0319 12.4436 40.8456 11.871 46.4545 12.9867C52.0634 14.1023 57.2155 16.8562 61.2593 20.9C65.3031 24.9438 68.057 30.0959 69.1727 35.7048C70.2883 41.3137 69.7157 47.1275 67.5272 52.4109C65.3388 57.6944 61.6327 62.2102 56.8777 65.3874C52.1227 68.5646 46.5323 70.2604 40.8136 70.2604C33.1476 70.2518 25.798 67.2026 20.3774 61.7819C14.9567 56.3613 11.9076 49.0117 11.8989 41.3458ZM42.9822 7.9734C43.2681 7.9734 43.5476 7.88861 43.7854 7.72975C44.0231 7.57089 44.2084 7.34509 44.3178 7.08092C44.4273 6.81675 44.4559 6.52606 44.4001 6.24561C44.3443 5.96517 44.2066 5.70756 44.0045 5.50537C43.8023 5.30318 43.5447 5.16549 43.2642 5.10971C42.9838 5.05392 42.6931 5.08255 42.4289 5.19198C42.1647 5.3014 41.9389 5.48671 41.7801 5.72446C41.6212 5.96221 41.5364 6.24172 41.5364 6.52766C41.5368 6.91098 41.6893 7.27848 41.9603 7.54953C42.2313 7.82057 42.5989 7.97301 42.9822 7.9734ZM42.9822 5.8048C43.1251 5.8048 43.2649 5.84719 43.3838 5.92662C43.5026 6.00605 43.5953 6.11895 43.65 6.25103C43.7047 6.38312 43.719 6.52846 43.6911 6.66869C43.6632 6.80891 43.5944 6.93771 43.4933 7.03881C43.3922 7.1399 43.2634 7.20875 43.1232 7.23664C42.983 7.26453 42.8376 7.25022 42.7055 7.1955C42.5734 7.14079 42.4606 7.04814 42.3811 6.92927C42.3017 6.81039 42.2593 6.67063 42.2593 6.52766C42.2594 6.33599 42.3356 6.1522 42.4712 6.01666C42.6067 5.88112 42.7905 5.80492 42.9822 5.8048ZM76.622 32.1894C76.4314 32.1894 76.245 32.246 76.0865 32.3519C75.928 32.4578 75.8045 32.6083 75.7315 32.7844C75.6586 32.9605 75.6395 33.1543 75.6767 33.3413C75.7139 33.5283 75.8057 33.7 75.9405 33.8348C76.0753 33.9696 76.247 34.0614 76.434 34.0986C76.6209 34.1358 76.8147 34.1167 76.9908 34.0437C77.1669 33.9708 77.3175 33.8472 77.4234 33.6887C77.5293 33.5302 77.5858 33.3439 77.5858 33.1533C77.5856 32.8977 77.4839 32.6527 77.3032 32.472C77.1225 32.2913 76.8775 32.1897 76.622 32.1894ZM76.622 33.6352C76.5267 33.6352 76.4335 33.6069 76.3543 33.554C76.275 33.501 76.2132 33.4257 76.1768 33.3377C76.1403 33.2496 76.1307 33.1527 76.1493 33.0592C76.1679 32.9658 76.2138 32.8799 76.2812 32.8125C76.3486 32.7451 76.4345 32.6992 76.528 32.6806C76.6215 32.662 76.7184 32.6716 76.8064 32.708C76.8945 32.7445 76.9697 32.8063 77.0227 32.8855C77.0756 32.9648 77.1039 33.058 77.1039 33.1533C77.1038 33.281 77.053 33.4035 76.9626 33.4939C76.8723 33.5842 76.7498 33.635 76.622 33.6352ZM62.9815 1.18616C62.7909 1.18616 62.6045 1.24268 62.446 1.34859C62.2875 1.4545 62.164 1.60503 62.091 1.78114C62.0181 1.95726 61.999 2.15105 62.0362 2.33801C62.0734 2.52498 62.1652 2.69671 62.3 2.83151C62.4348 2.9663 62.6065 3.05809 62.7935 3.09528C62.9804 3.13247 63.1742 3.11339 63.3503 3.04044C63.5264 2.96749 63.677 2.84395 63.7829 2.68545C63.8888 2.52695 63.9453 2.34061 63.9453 2.14998C63.9451 1.89444 63.8434 1.64943 63.6627 1.46874C63.482 1.28804 63.237 1.18641 62.9815 1.18616ZM62.9815 2.63189C62.8862 2.63189 62.793 2.60363 62.7138 2.55067C62.6345 2.49772 62.5727 2.42246 62.5363 2.3344C62.4998 2.24634 62.4902 2.14945 62.5088 2.05596C62.5274 1.96248 62.5733 1.87661 62.6407 1.80922C62.7081 1.74182 62.794 1.69592 62.8875 1.67733C62.981 1.65873 63.0779 1.66828 63.1659 1.70475C63.254 1.74123 63.3292 1.80299 63.3822 1.88224C63.4351 1.96149 63.4634 2.05467 63.4634 2.14998C63.4633 2.27775 63.4125 2.40025 63.3221 2.4906C63.2318 2.58095 63.1093 2.63176 62.9815 2.63189ZM78.0812 6.80862C77.8906 6.80862 77.7042 6.86514 77.5457 6.97105C77.3872 7.07696 77.2637 7.22748 77.1908 7.4036C77.1178 7.57972 77.0987 7.77351 77.1359 7.96047C77.1731 8.14744 77.2649 8.31917 77.3997 8.45396C77.5345 8.58876 77.7062 8.68055 77.8932 8.71774C78.0802 8.75493 78.2739 8.73585 78.4501 8.6629C78.6262 8.58995 78.7767 8.46641 78.8826 8.30791C78.9885 8.14941 79.045 7.96307 79.045 7.77244C79.0448 7.5169 78.9432 7.27189 78.7625 7.0912C78.5818 6.9105 78.3368 6.80887 78.0812 6.80862ZM78.0812 8.25435C77.9859 8.25435 77.8927 8.22609 77.8135 8.17313C77.7342 8.12018 77.6725 8.04492 77.636 7.95686C77.5995 7.8688 77.59 7.77191 77.6086 7.67842C77.6272 7.58494 77.6731 7.49907 77.7405 7.43168C77.8079 7.36428 77.8937 7.31838 77.9872 7.29979C78.0807 7.28119 78.1776 7.29074 78.2656 7.32721C78.3537 7.36369 78.429 7.42545 78.4819 7.5047C78.5349 7.58395 78.5631 7.67713 78.5631 7.77244C78.563 7.90021 78.5122 8.02271 78.4218 8.11306C78.3315 8.20341 78.209 8.25422 78.0812 8.25435ZM14.9373 14.1978C14.9373 14.0071 14.8808 13.8208 14.7749 13.6623C14.669 13.5038 14.5185 13.3803 14.3423 13.3073C14.1662 13.2344 13.9724 13.2153 13.7855 13.2525C13.5985 13.2896 13.4268 13.3814 13.292 13.5162C13.1572 13.651 13.0654 13.8228 13.0282 14.0097C12.991 14.1967 13.0101 14.3905 13.0831 14.5666C13.156 14.7427 13.2795 14.8932 13.438 14.9992C13.5965 15.1051 13.7829 15.1616 13.9735 15.1616C14.2291 15.1613 14.4741 15.0597 14.6548 14.879C14.8354 14.6983 14.9371 14.4533 14.9373 14.1978ZM13.4916 14.1978C13.4916 14.1025 13.5199 14.0093 13.5728 13.93C13.6258 13.8508 13.701 13.789 13.7891 13.7525C13.8771 13.7161 13.974 13.7065 14.0675 13.7251C14.161 13.7437 14.2469 13.7896 14.3143 13.857C14.3817 13.9244 14.4276 14.0103 14.4462 14.1037C14.4648 14.1972 14.4552 14.2941 14.4187 14.3822C14.3823 14.4702 14.3205 14.5455 14.2412 14.5985C14.162 14.6514 14.0688 14.6797 13.9735 14.6797C13.8457 14.6795 13.7232 14.6287 13.6329 14.5384C13.5425 14.448 13.4917 14.3255 13.4916 14.1978Z" fill="#16162F"/>
<path d="M5.57976 32.1949L6.29636 31.2523L5.84385 30.9959L5.38362 32.0513H5.36868L4.90123 31.0036L4.441 31.2672L5.14989 32.1877V32.2026L4.04102 32.059V32.5718L5.15712 32.4286V32.4436L4.441 33.3635L4.87039 33.6353L5.36097 32.5718H5.37591L5.82843 33.6276L6.30359 33.3563L5.57976 32.4513V32.4359L6.71803 32.5718V32.059L5.57976 32.2098V32.1949ZM6.19371 2.46723L5.7812 2.99685L6.02842 3.15347L6.31082 2.54096H6.31949L6.58021 3.14913L6.85393 2.99251L6.43708 2.47156V2.46289L7.09248 2.54096V2.24555L6.43708 2.33277V2.3241L6.8496 1.78099L6.58888 1.63352L6.32431 2.24121H6.31516L6.04625 1.63786L5.7812 1.78966L6.18938 2.31976V2.32844L5.55084 2.24555V2.54096L6.19371 2.45855V2.46723ZM31.8039 2.49421V1.9911L30.6873 2.13905V2.12411L31.39 1.1998L30.9461 0.948242L30.4951 1.98387H30.4801L30.0218 0.955471L29.5703 1.21474L30.2657 2.11688V2.13182L29.178 1.9911V2.49421L30.2729 2.3535V2.36844L29.5703 3.27057L29.9919 3.53707L30.4729 2.49421H30.4874L30.9312 3.52936L31.3972 3.26334L30.6873 2.37566V2.36072L31.8039 2.49421ZM67.25 16.7323L67.8562 15.9347L67.4731 15.7179L67.0842 16.6108H67.0712L66.676 15.7241L66.2861 15.9473L66.8861 16.726V16.7386L65.9483 16.6171V17.0508L66.8924 16.9299V16.9429L66.2861 17.7207L66.65 17.9506L67.0649 17.0508H67.0774L67.4601 17.9443L67.8625 17.7144L67.25 16.9491V16.9361L68.2128 17.0508V16.6171L67.25 16.7448V16.7323Z" fill="#0A855C"/>
<path d="M1.29683 72.1881C1.82914 72.1881 2.26065 71.7566 2.26065 71.2243C2.26065 70.692 1.82914 70.2605 1.29683 70.2605C0.764526 70.2605 0.333008 70.692 0.333008 71.2243C0.333008 71.7566 0.764526 72.1881 1.29683 72.1881Z" fill="#16162F"/>
<path d="M5.63417 70.2605H4.18843C3.93281 70.2605 3.68766 70.362 3.50691 70.5428C3.32615 70.7235 3.22461 70.9687 3.22461 71.2243C3.22461 71.4799 3.32615 71.7251 3.50691 71.9059C3.68766 72.0866 3.93281 72.1881 4.18843 72.1881H5.63417C5.88979 72.1881 6.13494 72.0866 6.31569 71.9059C6.49644 71.7251 6.59799 71.4799 6.59799 71.2243C6.59799 70.9687 6.49644 70.7235 6.31569 70.5428C6.13494 70.362 5.88979 70.2605 5.63417 70.2605ZM77.439 70.2605H75.9932C75.7376 70.2605 75.4924 70.362 75.3117 70.5428C75.1309 70.7235 75.0294 70.9687 75.0294 71.2243C75.0294 71.4799 75.1309 71.7251 75.3117 71.9059C75.4924 72.0866 75.7376 72.1881 75.9932 72.1881H77.439C77.6946 72.1881 77.9397 72.0866 78.1205 71.9059C78.3012 71.7251 78.4028 71.4799 78.4028 71.2243C78.4028 70.9687 78.3012 70.7235 78.1205 70.5428C77.9397 70.362 77.6946 70.2605 77.439 70.2605Z" fill="#16162F"/>
<path d="M80.33 72.1881C80.8623 72.1881 81.2939 71.7566 81.2939 71.2243C81.2939 70.692 80.8623 70.2605 80.33 70.2605C79.7977 70.2605 79.3662 70.692 79.3662 71.2243C79.3662 71.7566 79.7977 72.1881 80.33 72.1881Z" fill="#16162F"/>
<path d="M57.2723 74.1154H53.2686C53.0259 74.1342 52.7992 74.2439 52.6338 74.4226C52.4685 74.6012 52.3766 74.8357 52.3766 75.0792C52.3766 75.3226 52.4685 75.5571 52.6338 75.7358C52.7992 75.9145 53.0259 76.0242 53.2686 76.043H57.2723C57.515 76.0242 57.7417 75.9145 57.9071 75.7358C58.0725 75.5571 58.1643 75.3226 58.1643 75.0792C58.1643 74.8357 58.0725 74.6012 57.9071 74.4226C57.7417 74.2439 57.515 74.1342 57.2723 74.1154ZM28.3576 74.1154H24.3539C24.1112 74.1342 23.8845 74.2439 23.7191 74.4226C23.5538 74.6012 23.4619 74.8357 23.4619 75.0792C23.4619 75.3226 23.5538 75.5571 23.7191 75.7358C23.8845 75.9145 24.1112 76.0242 24.3539 76.043H28.3576C28.6004 76.0242 28.8271 75.9145 28.9924 75.7358C29.1578 75.5571 29.2496 75.3226 29.2496 75.0792C29.2496 74.8357 29.1578 74.6012 28.9924 74.4226C28.8271 74.2439 28.6004 74.1342 28.3576 74.1154ZM50.4513 74.1154H31.1749C30.9193 74.1154 30.6741 74.2169 30.4934 74.3977C30.3126 74.5784 30.2111 74.8236 30.2111 75.0792C30.2111 75.3348 30.3126 75.58 30.4934 75.7607C30.6741 75.9415 30.9193 76.043 31.1749 76.043H38.8566V77.0068H35.0302C34.7746 77.0068 34.5294 77.1084 34.3487 77.2891C34.1679 77.4699 34.0664 77.715 34.0664 77.9706C34.0664 78.2263 34.1679 78.4714 34.3487 78.6522C34.5294 78.8329 34.7746 78.9345 35.0302 78.9345H47.078C47.3336 78.9345 47.5787 78.8329 47.7595 78.6522C47.9402 78.4714 48.0418 78.2263 48.0418 77.9706C48.0418 77.715 47.9402 77.4699 47.7595 77.2891C47.5787 77.1084 47.3336 77.0068 47.078 77.0068H42.7697V76.043H50.4513C50.707 76.043 50.9521 75.9415 51.1329 75.7607C51.3136 75.58 51.4152 75.3348 51.4152 75.0792C51.4152 74.8236 51.3136 74.5784 51.1329 74.3977C50.9521 74.2169 50.707 74.1154 50.4513 74.1154Z" fill="#0A855C"/>
<path fill-rule="evenodd" clip-rule="evenodd" d="M35.7836 80.4222C35.6604 80.4205 35.5381 80.4432 35.4238 80.4892C35.3095 80.5351 35.2055 80.6033 35.1178 80.6898C35.03 80.7763 34.9604 80.8793 34.9128 80.993C34.8653 81.1066 34.8408 81.2286 34.8408 81.3518C34.8408 81.4749 34.8653 81.5969 34.9128 81.7105C34.9604 81.8242 35.03 81.9273 35.1178 82.0137C35.2055 82.1002 35.3095 82.1684 35.4238 82.2144C35.5381 82.2603 35.6604 82.283 35.7836 82.2813H45.5656C45.6888 82.283 45.8111 82.2603 45.9254 82.2144C46.0397 82.1684 46.1437 82.1002 46.2315 82.0137C46.3192 81.9273 46.3888 81.8242 46.4364 81.7105C46.4839 81.5969 46.5084 81.4749 46.5084 81.3518C46.5084 81.2286 46.4839 81.1066 46.4364 80.993C46.3888 80.8793 46.3192 80.7763 46.2315 80.6898C46.1437 80.6033 46.0397 80.5351 45.9254 80.4892C45.8111 80.4432 45.6888 80.4205 45.5656 80.4222H35.7836Z" fill="#0A855C"/>
</svg>
