<svg width="32" height="32" viewBox="0 0 32 32" fill="none" xmlns="http://www.w3.org/2000/svg">
<path fill-rule="evenodd" clip-rule="evenodd" d="M32 16.0001C32 24.8367 24.8366 32.0001 16 32.0001C7.16344 32.0001 0 24.8367 0 16.0001C0 7.16357 7.16344 0.00012207 16 0.00012207C24.8366 0.00012207 32 7.16357 32 16.0001ZM24.4381 12.7049C25.063 12.0801 25.063 11.067 24.4381 10.4422C23.8133 9.81735 22.8002 9.81735 22.1754 10.4422L13.9734 18.6442L10.8381 15.5089C10.2133 14.884 9.20024 14.884 8.5754 15.5089C7.95056 16.1337 7.95056 17.1468 8.5754 17.7716L12.8421 22.0383C13.4669 22.6631 14.48 22.6631 15.1048 22.0383L24.4381 12.7049Z" fill="#007F5F"/>
</svg>
