<svg width="100" height="67" viewBox="0 0 100 67" fill="none" xmlns="http://www.w3.org/2000/svg">
    <path d="M51.4296 44.5962C51.4296 45.1746 50.9593 45.646 50.3798 45.646C49.8014 45.646 49.3301 45.1746 49.3301 44.5962C49.3301 44.0178 49.8014 43.5464 50.3798 43.5464C50.9593 43.5464 51.4296 44.0178 51.4296 44.5962ZM76.6668 26.4847C76.6667 28.7924 75.0283 30.8343 72.5465 31.0816C71.7187 31.1641 71.0527 31.5561 70.6202 32.1986C69.1936 34.3317 67.8864 36.5746 66.8474 38.9139C65.4077 42.1547 61.6964 45.646 56.3529 45.646H55.1058C55.1048 45.646 55.1048 45.646 55.1037 45.646C54.5253 45.646 54.054 45.1757 54.054 44.5962C54.054 44.0178 54.5253 43.5464 55.1037 43.5464H56.3529C60.0176 43.5464 63.3895 41.3818 64.9431 38.031C66.0653 35.6103 67.388 33.2557 68.8744 31.0323C69.6418 29.8797 70.9045 29.1525 72.3323 28.9926C73.7584 28.8329 74.5712 27.6647 74.5673 26.4847C74.5645 25.6564 74.2114 24.9825 73.5354 24.4797C72.7092 23.8729 71.7996 23.3916 70.827 23.0625C69.1463 22.4938 66.8846 22.8679 65.4974 24.7999C59.4386 33.238 51.0718 35.8047 48.2982 36.5098C47.5679 37.3828 44.1959 40.9905 38.3108 40.9905C34.6618 40.9905 31.1882 41.8543 27.9875 43.5466H45.6559C46.2354 43.5466 46.7057 44.0179 46.7057 44.5963C46.7057 45.1747 46.2354 45.6461 45.6559 45.6461H24.3826C23.4311 45.6461 22.9213 44.4018 23.7506 43.7575C26.2595 41.8084 29.6849 40.2823 32.359 39.6332C30.1716 38.5816 28.1887 36.9671 26.8273 34.7524C21.2774 25.7244 25.6532 16.261 31.6 12.5706C40.1323 7.27587 51.7542 8.94184 57.7304 18.193C59.4264 20.8185 60.5495 23.7724 61.0306 26.839C61.9645 25.8877 62.8313 24.8744 63.6198 23.8084C63.6717 19.712 64.6076 15.7828 66.4088 12.1249C66.6649 11.6048 67.2942 11.3908 67.8143 11.647C68.3345 11.9031 68.5484 12.5324 68.2923 13.0525C67.0155 15.6451 66.2091 18.3859 65.8818 21.2315C68.54 18.57 71.7244 16.4776 75.2285 15.1083C75.7682 14.8973 76.3773 15.1638 76.5884 15.7039C76.7994 16.2439 76.5327 16.8527 75.9927 17.0638C73.6942 17.9621 71.5456 19.1991 69.6132 20.7211C70.2596 20.7469 70.8968 20.8664 71.5104 21.0777C72.6809 21.4808 73.7838 22.0508 74.7772 22.7867C76.2473 23.8754 76.6668 25.3992 76.6668 26.4847ZM55.9209 28.4465C54.3222 29.5801 52.5982 30.5271 50.7905 31.271C50.6191 32.1476 50.347 33.0038 49.9797 33.8218C53.3247 32.6803 56.3915 30.9336 59.128 28.6096C58.855 25.3186 57.8032 22.0981 55.9667 19.3318C52.1817 13.6304 46.6534 11.5734 41.7169 11.6559C37.1658 11.732 32.3146 13.3262 28.7569 18.2176C25.6586 22.4776 25.5439 29.124 28.5908 33.6131C32.1658 38.8805 39.236 40.5489 44.553 37.0476C49.4378 33.8309 49.8848 27.7153 47.388 23.8715C45.0339 20.2474 40.1826 19.1953 36.5523 21.5401C33.5808 23.4593 32.7247 27.4383 34.6439 30.4099C36.0451 32.5794 38.9448 33.1961 41.1199 31.8032C43.2205 30.4582 43.1392 27.7966 42.2403 26.5956C41.893 26.1314 42.0655 25.4587 42.5526 25.1442C43.0396 24.8297 43.6813 24.9747 44.004 25.4565C45.4351 27.5932 45.4148 31.5148 42.2589 33.5669C39.1232 35.6061 34.9096 34.6911 32.8801 31.5489C30.3327 27.6048 31.4691 22.3237 35.4131 19.7764C40.0158 16.8039 46.1789 18.1298 49.1515 22.7325C49.5452 23.342 49.8737 23.9749 50.1403 24.6231C50.612 24.3722 51.0742 24.1048 51.5198 23.8189C52.0077 23.506 52.6571 23.6475 52.9702 24.1354C53.2833 24.6233 53.1416 25.2727 52.6537 25.5858C52.0472 25.9751 51.4148 26.3364 50.7663 26.666C50.9188 27.4004 50.9982 28.1431 51.0071 28.8838C52.2996 28.2797 53.5393 27.5611 54.7062 26.7337C55.1791 26.3985 55.8344 26.51 56.1698 26.983C56.5054 27.456 56.3938 28.1111 55.9209 28.4465Z" fill="#16162F"/>
    <path d="M17.4862 52.3243C17.351 52.3224 17.2168 52.3474 17.0914 52.3978C16.966 52.4482 16.8518 52.523 16.7556 52.6179C16.6593 52.7128 16.5829 52.8259 16.5307 52.9506C16.4785 53.0753 16.4517 53.2091 16.4517 53.3443C16.4517 53.4795 16.4785 53.6133 16.5307 53.738C16.5829 53.8627 16.6593 53.9758 16.7556 54.0707C16.8518 54.1656 16.966 54.2404 17.0914 54.2908C17.2168 54.3412 17.351 54.3662 17.4862 54.3643H98.7106C98.8457 54.3662 98.9799 54.3412 99.1054 54.2908C99.2308 54.2404 99.3449 54.1656 99.4412 54.0707C99.5375 53.9758 99.6139 53.8627 99.6661 53.738C99.7182 53.6133 99.7451 53.4795 99.7451 53.3443C99.7451 53.2091 99.7182 53.0753 99.6661 52.9506C99.6139 52.8259 99.5375 52.7128 99.4412 52.6179C99.3449 52.523 99.2308 52.4482 99.1054 52.3978C98.9799 52.3474 98.8457 52.3224 98.7106 52.3243H17.4862V52.3243Z" fill="#16162F"/>
    <path d="M1.28988 52.3243C1.15472 52.3224 1.02053 52.3474 0.895106 52.3978C0.76968 52.4482 0.655522 52.523 0.559266 52.6179C0.46301 52.7128 0.386577 52.8259 0.334407 52.9506C0.282237 53.0753 0.255371 53.2091 0.255371 53.3443C0.255371 53.4795 0.282237 53.6133 0.334407 53.738C0.386577 53.8627 0.46301 53.9758 0.559266 54.0707C0.655522 54.1656 0.76968 54.2404 0.895106 54.2908C1.02053 54.3412 1.15472 54.3662 1.28988 54.3643H12.9241C13.0593 54.3662 13.1935 54.3412 13.3189 54.2908C13.4443 54.2404 13.5585 54.1656 13.6547 54.0707C13.751 53.9758 13.8274 53.8627 13.8796 53.738C13.9318 53.6133 13.9586 53.4795 13.9586 53.3443C13.9586 53.2091 13.9318 53.0753 13.8796 52.9506C13.8274 52.8259 13.751 52.7128 13.6547 52.6179C13.5585 52.523 13.4443 52.4482 13.3189 52.3978C13.1935 52.3474 13.0593 52.3224 12.9241 52.3243H1.28988V52.3243Z" fill="#16162F"/>
    <path fill-rule="evenodd" clip-rule="evenodd" d="M35.9691 56.4056C35.8339 56.4037 35.6997 56.4287 35.5743 56.4791C35.4489 56.5295 35.3347 56.6043 35.2385 56.6992C35.1422 56.7941 35.0658 56.9072 35.0136 57.0319C34.9614 57.1566 34.9346 57.2904 34.9346 57.4256C34.9346 57.5608 34.9614 57.6946 35.0136 57.8193C35.0658 57.944 35.1422 58.0571 35.2385 58.152C35.3347 58.2469 35.4489 58.3217 35.5743 58.3721C35.6997 58.4225 35.8339 58.4475 35.9691 58.4456H76.2267C76.3618 58.4475 76.496 58.4225 76.6215 58.3721C76.7469 58.3217 76.861 58.2469 76.9573 58.152C77.0536 58.0571 77.13 57.944 77.1822 57.8193C77.2343 57.6946 77.2612 57.5608 77.2612 57.4256C77.2612 57.2904 77.2343 57.1566 77.1822 57.0319C77.13 56.9072 77.0536 56.7941 76.9573 56.6992C76.861 56.6043 76.7469 56.5295 76.6215 56.4791C76.496 56.4287 76.3618 56.4037 76.2267 56.4056H35.9691V56.4056Z" fill="#0A855C"/>
    <path fill-rule="evenodd" clip-rule="evenodd" d="M42.0697 60.4845C41.9345 60.4826 41.8003 60.5075 41.6749 60.5579C41.5495 60.6083 41.4353 60.6832 41.3391 60.7781C41.2428 60.873 41.1664 60.9861 41.1142 61.1108C41.062 61.2355 41.0352 61.3693 41.0352 61.5045C41.0352 61.6396 41.062 61.7735 41.1142 61.8982C41.1664 62.0229 41.2428 62.136 41.3391 62.2309C41.4353 62.3258 41.5495 62.4006 41.6749 62.451C41.8003 62.5014 41.9345 62.5264 42.0697 62.5244H52.8034C52.9386 62.5264 53.0728 62.5014 53.1982 62.451C53.3236 62.4006 53.4378 62.3258 53.5341 62.2309C53.6303 62.136 53.7067 62.0229 53.7589 61.8982C53.8111 61.7735 53.8379 61.6396 53.8379 61.5045C53.8379 61.3693 53.8111 61.2355 53.7589 61.1108C53.7067 60.9861 53.6303 60.873 53.5341 60.7781C53.4378 60.6832 53.3236 60.6083 53.1982 60.5579C53.0728 60.5075 52.9386 60.4826 52.8034 60.4845H42.0697Z" fill="#0A855C"/>
    <path fill-rule="evenodd" clip-rule="evenodd" d="M58.409 60.4845C58.2739 60.4826 58.1397 60.5075 58.0142 60.5579C57.8888 60.6083 57.7747 60.6832 57.6784 60.7781C57.5822 60.873 57.5057 60.9861 57.4535 61.1108C57.4014 61.2355 57.3745 61.3693 57.3745 61.5045C57.3745 61.6396 57.4014 61.7735 57.4535 61.8982C57.5057 62.0229 57.5822 62.136 57.6784 62.2309C57.7747 62.3258 57.8888 62.4006 58.0142 62.451C58.1397 62.5014 58.2739 62.5264 58.409 62.5244H72.8124C72.9475 62.5264 73.0817 62.5014 73.2071 62.451C73.3326 62.4006 73.4467 62.3258 73.543 62.2309C73.6392 62.136 73.7157 62.0229 73.7678 61.8982C73.82 61.7735 73.8469 61.6396 73.8469 61.5045C73.8469 61.3693 73.82 61.2355 73.7678 61.1108C73.7157 60.9861 73.6392 60.873 73.543 60.7781C73.4467 60.6832 73.3326 60.6083 73.2071 60.5579C73.0817 60.5075 72.9475 60.4826 72.8124 60.4845H58.409Z" fill="#0A855C"/>
    <path fill-rule="evenodd" clip-rule="evenodd" d="M48.2093 64.5638C48.0742 64.5619 47.94 64.5869 47.8145 64.6373C47.6891 64.6877 47.575 64.7625 47.4787 64.8574C47.3824 64.9523 47.306 65.0654 47.2538 65.1901C47.2017 65.3148 47.1748 65.4486 47.1748 65.5838C47.1748 65.719 47.2017 65.8528 47.2538 65.9775C47.306 66.1022 47.3824 66.2153 47.4787 66.3102C47.575 66.4051 47.6891 66.4799 47.8145 66.5303C47.94 66.5807 48.0742 66.6057 48.2093 66.6038H58.6443C58.7794 66.6057 58.9136 66.5807 59.039 66.5303C59.1645 66.4799 59.2786 66.4051 59.3749 66.3102C59.4711 66.2153 59.5476 66.1022 59.5997 65.9775C59.6519 65.8528 59.6788 65.719 59.6788 65.5838C59.6788 65.4486 59.6519 65.3148 59.5997 65.1901C59.5476 65.0654 59.4711 64.9523 59.3749 64.8574C59.2786 64.7625 59.1645 64.6877 59.039 64.6373C58.9136 64.5869 58.7794 64.5619 58.6443 64.5638H48.2093Z" fill="#0A855C"/>
</svg>