<svg width="33" height="33" viewBox="0 0 33 33" fill="none" xmlns="http://www.w3.org/2000/svg">
<path fill-rule="evenodd" clip-rule="evenodd" d="M16.9374 0.524857C8.10005 0.524857 0.937378 7.68752 0.937378 16.5249C0.937378 25.3622 8.10005 32.5249 16.9374 32.5249C25.7747 32.5249 32.9374 25.3622 32.9374 16.5249C32.9374 7.68752 25.7747 0.524857 16.9374 0.524857ZM15.3374 8.52486C15.3374 7.63952 16.052 6.92486 16.9374 6.92486C17.38 6.92486 17.78 7.10619 18.068 7.39419C18.356 7.68219 18.5374 8.08219 18.5374 8.52486V16.5249C18.5374 17.4102 17.8227 18.1249 16.9374 18.1249C16.052 18.1249 15.3374 17.4102 15.3374 16.5249V8.52486ZM16.9374 25.5915C15.7587 25.5915 14.804 24.6369 14.804 23.4582C14.804 22.2795 15.7587 21.3249 16.9374 21.3249C18.116 21.3249 19.0707 22.2795 19.0707 23.4582C19.0707 24.6369 18.116 25.5915 16.9374 25.5915Z" fill="#FFC453"/>
</svg>
