<svg width="48" height="48" viewBox="0 0 48 48" fill="none" xmlns="http://www.w3.org/2000/svg">
    <path fill-rule="evenodd" clip-rule="evenodd" d="M24 0C10.744 0 0 10.744 0 24C0 37.256 10.744 48 24 48C37.256 48 48 37.256 48 24C48 10.744 37.256 0 24 0ZM21.6 12C21.6 10.672 22.672 9.6 24 9.6C24.664 9.6 25.264 9.872 25.696 10.304C26.128 10.736 26.4 11.336 26.4 12V24C26.4 25.328 25.328 26.4 24 26.4C22.672 26.4 21.6 25.328 21.6 24V12ZM24 37.6C22.232 37.6 20.8 36.168 20.8 34.4C20.8 32.632 22.232 31.2 24 31.2C25.768 31.2 27.2 32.632 27.2 34.4C27.2 36.168 25.768 37.6 24 37.6Z" fill="#FFC453"/>
</svg>