<svg width="151" height="150" viewBox="0 0 151 150" fill="none" xmlns="http://www.w3.org/2000/svg">
<path fill-rule="evenodd" clip-rule="evenodd" d="M15.5 112.311C15.5 111.708 15.989 111.219 16.5922 111.219H29.5745C30.1777 111.219 30.6667 111.708 30.6667 112.311C30.6667 112.914 30.1777 113.403 29.5745 113.403H16.5922C15.989 113.403 15.5 112.914 15.5 112.311Z" fill="#16162F"/>
<path fill-rule="evenodd" clip-rule="evenodd" d="M37.5 117C37.5 116.448 38.2471 116 39.1688 116H105.831C106.753 116 107.5 116.448 107.5 117C107.5 117.552 106.753 118 105.831 118H39.1688C38.2471 118 37.5 117.552 37.5 117Z" fill="#0A855C"/>
<path fill-rule="evenodd" clip-rule="evenodd" d="M44.5 121C44.5 120.448 45.2149 120 46.0967 120H62.9033C63.7851 120 64.5 120.448 64.5 121C64.5 121.552 63.7851 122 62.9033 122H46.0967C45.2149 122 44.5 121.552 44.5 121Z" fill="#0A855C"/>
<path fill-rule="evenodd" clip-rule="evenodd" d="M83.1692 121.049C83.1692 120.446 83.6582 119.957 84.2614 119.957H99.6846C100.288 119.957 100.777 120.446 100.777 121.049C100.777 121.652 100.288 122.141 99.6846 122.141H84.2614C83.6582 122.141 83.1692 121.652 83.1692 121.049Z" fill="#0A855C"/>
<path fill-rule="evenodd" clip-rule="evenodd" d="M74.4075 125.417C74.4075 124.814 74.8965 124.325 75.4997 124.325H86.4374C87.0406 124.325 87.5296 124.814 87.5296 125.417C87.5296 126.021 87.0406 126.51 86.4374 126.51H75.4997C74.8965 126.51 74.4075 126.021 74.4075 125.417Z" fill="#0A855C"/>
<path fill-rule="evenodd" clip-rule="evenodd" d="M53.3131 57.3312C52.7955 57.3312 52.3826 57.7652 52.3907 58.2827C52.3907 58.9325 52.113 59.227 51.4683 59.227C50.201 59.2052 50.201 61.1193 51.4683 61.1011C52.0891 61.1011 52.3907 61.2737 52.3907 62.0051C52.3732 63.2722 54.2826 63.2722 54.2647 62.0051C54.2647 61.3404 54.5758 61.1011 55.1907 61.1011C56.458 61.123 56.458 59.2091 55.1907 59.227C54.3552 59.227 54.2647 58.7491 54.2647 58.2827C54.2712 57.7539 53.842 57.3229 53.3131 57.3312Z" fill="#0A855C"/>
<path fill-rule="evenodd" clip-rule="evenodd" d="M47.6371 74.5074C47.353 74.5074 47.1263 74.7457 47.1307 75.0299C47.1307 75.3866 46.9783 75.5482 46.6244 75.5482C45.9286 75.5482 45.9286 76.5871 46.6244 76.5771C46.9652 76.5771 47.1307 76.671 47.1307 77.0736C47.1198 77.7691 48.1694 77.7691 48.1596 77.0736C48.1596 76.7086 48.3304 76.5771 48.668 76.5771C49.3637 76.5771 49.3637 75.5384 48.668 75.5482C48.2093 75.5482 48.1596 75.2859 48.1596 75.0299C48.1639 74.7394 47.9275 74.5028 47.6371 74.5074Z" fill="#16162F"/>
<path fill-rule="evenodd" clip-rule="evenodd" d="M52.5779 30.8433C52.2008 30.8433 51.8999 31.1596 51.9058 31.5366C51.9058 32.01 51.7036 32.2247 51.2338 32.2247C50.3104 32.2029 50.3104 33.6033 51.2338 33.5902C51.6861 33.5902 51.9058 33.7147 51.9058 34.2488C51.8927 35.1721 53.2843 35.1721 53.2712 34.2488C53.2712 33.7643 53.4979 33.5902 53.9459 33.5902C54.8693 33.612 54.8693 32.2114 53.9459 32.2247C53.3372 32.2247 53.2712 31.8763 53.2712 31.5366C53.2756 31.1511 52.9633 30.8372 52.5779 30.8433Z" fill="#16162F"/>
<path fill-rule="evenodd" clip-rule="evenodd" d="M95.6889 29.5128C95.4048 29.5171 95.178 29.7511 95.1825 30.0353C95.1825 30.392 95.03 30.5536 94.6761 30.5536C93.9804 30.5536 93.9804 31.5925 94.6761 31.5825C95.0169 31.5825 95.1825 31.6763 95.1825 32.0787C95.1716 32.7744 96.2212 32.7744 96.2113 32.0787C96.2113 31.7137 96.3821 31.5825 96.7197 31.5825C97.4155 31.5825 97.4155 30.5438 96.7197 30.5536C96.261 30.5536 96.2113 30.2913 96.2113 30.0353C96.2157 29.745 95.9793 29.5082 95.6889 29.5128Z" fill="#0A855C"/>
<path fill-rule="evenodd" clip-rule="evenodd" d="M116.084 43.0196C115.707 43.0196 115.406 43.336 115.412 43.713C115.412 44.1864 115.21 44.4011 114.74 44.4011C113.817 44.3793 113.817 45.7796 114.74 45.7665C115.192 45.7665 115.412 45.891 115.412 46.4251C115.399 47.3484 116.791 47.3484 116.778 46.4251C116.778 45.9408 117.004 45.7665 117.452 45.7665C118.376 45.7883 118.376 44.388 117.452 44.4011C116.844 44.4011 116.778 44.0529 116.778 43.713C116.782 43.3277 116.47 43.0135 116.084 43.0196Z" fill="#16162F"/>
<path fill-rule="evenodd" clip-rule="evenodd" d="M110.372 60.4415C110.088 60.4415 109.861 60.6799 109.866 60.9638C109.866 61.3205 109.713 61.4823 109.359 61.4823C108.663 61.4823 108.663 62.521 109.359 62.5112C109.7 62.5112 109.866 62.605 109.866 63.0074C109.855 63.7031 110.904 63.7031 110.894 63.0074C110.894 62.6424 111.065 62.5112 111.403 62.5112C112.099 62.5112 112.099 61.4723 111.403 61.4823C110.944 61.4823 110.894 61.2201 110.894 60.9638C110.899 60.6735 110.662 60.4369 110.372 60.4415Z" fill="#0A855C"/>
<path fill-rule="evenodd" clip-rule="evenodd" d="M109.644 77.5597C109.126 77.5597 108.713 77.9936 108.721 78.5111C108.721 79.1609 108.444 79.4554 107.799 79.4554C106.532 79.4336 106.532 81.3476 107.799 81.3297C108.42 81.3297 108.721 81.5021 108.721 82.2335C108.704 83.5006 110.613 83.5006 110.595 82.2335C110.595 81.5688 110.906 81.3297 111.521 81.3297C112.789 81.3515 112.789 79.4375 111.521 79.4554C110.686 79.4554 110.595 78.9774 110.595 78.5111C110.602 77.9822 110.173 77.5514 109.644 77.5597Z" fill="#0A855C"/>
<path fill-rule="evenodd" clip-rule="evenodd" d="M57.5205 42.8111C57.1434 42.8111 56.8426 43.1274 56.8485 43.5044C56.8485 43.9778 56.6462 44.1925 56.1764 44.1925C55.253 44.1706 55.253 45.5711 56.1764 45.558C56.6287 45.558 56.8485 45.6824 56.8485 46.2167C56.8353 47.1398 58.2269 47.1398 58.2139 46.2167C58.2139 45.7322 58.4405 45.558 58.8886 45.558C59.812 45.5798 59.812 44.1794 58.8886 44.1925C58.2798 44.1925 58.2139 43.8443 58.2139 43.5044C58.2182 43.1191 57.9059 42.805 57.5205 42.8111Z" fill="#16162F"/>
<path fill-rule="evenodd" clip-rule="evenodd" d="M74.2816 23.0001C73.9902 23.0044 73.7576 23.2445 73.7622 23.5359C73.7622 23.9017 73.6058 24.0677 73.2428 24.0677C72.5291 24.0568 72.5291 25.1332 73.2428 25.123C73.5923 25.123 73.7622 25.2198 73.7622 25.6321C73.7534 26.3457 74.8276 26.3457 74.8174 25.6321C74.8174 25.2577 74.9928 25.123 75.3389 25.123C76.0526 25.1339 76.0526 24.0575 75.3389 24.0677C74.8684 24.0677 74.8174 23.7985 74.8174 23.5359C74.8196 23.238 74.5794 22.9954 74.2816 23.0001Z" fill="#16162F"/>
<path d="M103.795 92.7095C103.792 95.8325 103.208 98.9252 102.071 101.818C101.907 102.236 101.503 102.511 101.053 102.511C100.604 102.51 100.2 102.234 100.037 101.815C93.1869 84.2436 68.5474 84.2298 61.6814 101.797C61.5177 102.216 61.1141 102.491 60.6645 102.492C60.2148 102.492 59.8111 102.216 59.6471 101.798C58.5181 98.9145 57.9238 95.8294 57.9238 92.7095C57.9238 85.599 60.8728 79.1999 65.5721 74.7959L67.0658 76.3897C62.8022 80.3854 60.1082 86.2096 60.1082 92.7095C60.1082 94.6371 60.3572 96.5519 60.839 98.4061C64.8405 90.883 72.4584 86.0843 80.8594 86.0812C89.2666 86.0812 96.884 90.8928 100.881 98.422C102.897 90.6423 97.414 77.6095 94.4742 76.2231L96.3219 74.333C102.875 80.8861 103.795 92.7095 103.795 92.7095Z" fill="#16162F"/>
<path fill-rule="evenodd" clip-rule="evenodd" d="M91.777 85.1428C87.8601 83.4262 83.642 82.6722 79.4606 82.8802C78.8581 82.9101 78.3455 82.446 78.3155 81.8436C78.2855 81.2411 78.7496 80.7285 79.3521 80.6985C83.8679 80.474 88.4236 81.2882 92.6538 83.1422C93.2063 83.3843 93.4579 84.0284 93.2158 84.5809C92.9736 85.1334 92.3295 85.3849 91.777 85.1428ZM74.456 82.4106C74.6301 82.9716 74.3293 83.5698 73.7752 83.7647L69.7744 85.1717C69.2203 85.3666 68.6113 85.0884 68.3959 84.542C68.1805 83.9956 68.4358 83.3766 68.9738 83.141C70.3292 82.5474 71.7182 82.0605 73.1283 81.6799C73.6953 81.5268 74.2819 81.8497 74.456 82.4106Z" fill="#16162F"/>
<path fill-rule="evenodd" clip-rule="evenodd" d="M76.4998 82.3652C76.7299 82.3652 76.9164 82.1786 76.9164 81.9485C76.9164 81.7184 76.7299 81.5318 76.4998 81.5318C76.2696 81.5318 76.0831 81.7184 76.0831 81.9485C76.0831 82.1786 76.2696 82.3652 76.4998 82.3652ZM76.4998 83.1985C77.1901 83.1985 77.7498 82.6389 77.7498 81.9485C77.7498 81.2582 77.1901 80.6985 76.4998 80.6985C75.8094 80.6985 75.2498 81.2582 75.2498 81.9485C75.2498 82.6389 75.8094 83.1985 76.4998 83.1985Z" fill="#16162F"/>
<path fill-rule="evenodd" clip-rule="evenodd" d="M80.9071 32.872C81.3193 32.5086 81.9373 32.5081 82.3502 32.8708C92.372 41.6745 97.2162 53.8826 97.2407 66.6096L97.2407 66.6126C97.2345 74.6359 94.9892 82.5175 90.7305 89.4971C90.4513 89.9548 89.8811 90.1421 89.3848 89.9392C86.6848 88.8351 83.7859 88.2633 80.8584 88.2632C77.9889 88.2695 75.16 88.9932 72.429 90.1103C71.9335 90.313 71.364 90.1266 71.0843 89.6701C66.8114 82.6965 64.5022 74.638 64.4753 66.6154C64.4659 63.7903 64.847 60.6298 65.4792 57.8757C67.6633 48.3608 73.2672 39.6065 80.9071 32.872ZM81.629 35.1595C74.6732 41.5252 69.6309 49.615 67.6218 58.3056C66.66 63.3086 66.66 66.6721 66.66 66.6721C66.6961 73.9673 68.7215 81.3085 72.4777 87.7445C75.1308 86.7454 77.9456 86.0849 80.8558 86.0789L80.858 86.0789C83.7541 86.0789 86.6241 86.5888 89.332 87.5771C93.0833 81.1296 95.0504 73.9281 95.0564 66.6122C95.0331 54.7581 90.6451 43.4536 81.629 35.1595Z" fill="#16162F"/>
<path d="M78.1312 88.4651V100.221C78.1312 100.823 77.6442 101.311 77.0423 101.313C76.4404 101.315 75.9505 100.829 75.9469 100.228L75.9468 100.221L75.929 97.2601C73.771 96.3003 71.2152 96.7527 69.516 98.4519C67.6832 100.285 67.3432 103.045 68.496 105.222C68.8171 105.787 69.1714 106.233 69.5394 106.625C69.9481 107.059 69.9323 107.742 69.504 108.157C69.0756 108.572 68.3933 108.567 67.9714 108.145C67.3975 107.571 66.9298 106.931 66.5681 106.25C66.2195 105.627 65.9085 104.906 65.6498 104.047C63.0491 103.862 60.5266 105.75 59.3383 108.496C59.1111 109.021 58.5173 109.282 57.977 109.094C57.4366 108.906 57.133 108.333 57.2808 107.78C58.1121 104.672 57.6612 101.361 56.0292 98.5883C53.0985 93.6098 47.1321 91.5218 41.8657 93.2949C41.294 93.4873 40.6745 93.1799 40.4821 92.6083C40.2896 92.0366 40.597 91.4172 41.1687 91.2247C47.3942 89.1288 54.4461 91.5932 57.9116 97.4802C59.1035 99.5049 59.7624 101.773 59.8602 104.077C61.4378 102.638 63.4638 101.732 65.672 101.858C65.8235 100.052 66.59 98.2887 67.9714 96.9073C70.0904 94.7884 73.1751 94.0753 75.9468 94.9367V87.6716C75.9468 87.2168 76.2287 86.8095 76.6544 86.6494C79.172 85.7022 81.7387 85.8763 84.246 86.6251C84.7087 86.7633 85.0257 87.1888 85.0257 87.6716V94.7089C87.871 93.8479 91.168 94.595 93.2908 96.7178C94.7031 98.1301 95.4727 99.9417 95.5995 101.789C98.1609 101.595 100.808 102.572 102.71 104.323C102.796 103.468 103.01 102.627 103.466 101.781C103.753 101.25 104.415 101.052 104.946 101.338C105.477 101.625 105.675 102.287 105.388 102.818C104.653 104.182 104.541 106.756 104.848 107.379C105.156 108.002 104.781 108.421 104.227 108.66C103.673 108.9 103.03 108.645 102.791 108.092C101.648 105.45 98.4136 103.66 95.5396 103.989C95.467 104.141 95.4 104.292 95.3346 104.446C95.0854 105.354 94.6722 106.227 94.0949 107.017C93.8663 107.351 93.5934 107.679 93.2569 107.988C92.8192 108.39 92.1407 108.368 91.7298 107.939C91.3189 107.51 91.3261 106.831 91.7462 106.411C91.9551 106.202 92.1446 105.981 92.3148 105.75C92.5031 105.469 92.6632 105.152 92.823 104.79C92.8985 104.618 92.9786 104.424 93.0647 104.214C93.1268 104.063 93.1919 103.904 93.2609 103.741C93.7364 101.842 93.2315 99.7476 91.7462 98.2623C90.0444 96.5605 87.2407 96.0704 85.0457 97.0244L85.0257 104.112L85.0257 104.115C85.024 104.718 84.5346 105.205 83.932 105.204C83.3294 105.204 82.8413 104.715 82.8413 104.112L82.8413 104.109L82.8413 88.5077C81.1911 88.1113 79.6269 88.059 78.1312 88.4651Z" fill="#16162F"/>
<path d="M38.7468 93.2514C39.1608 93.69 39.1408 94.3813 38.7022 94.7953C38.4257 95.0562 38.1624 95.3309 37.9127 95.6179C37.5168 96.0731 36.827 96.1211 36.3718 95.7253C35.9167 95.3294 35.8687 94.6395 36.2645 94.1844C36.5605 93.8441 36.8734 93.5176 37.2029 93.2067C37.6416 92.7927 38.3328 92.8127 38.7468 93.2514Z" fill="#16162F"/>
<path d="M35.3313 96.713C35.8442 97.0304 36.0027 97.7035 35.6853 98.2164C33.325 102.031 32.9771 107.125 35.0485 111.124H114.195C116.072 109.921 117.104 107.805 117.061 105.665C117.04 104.638 116.771 103.606 116.229 102.667C114.513 99.6963 110.714 98.6784 107.743 100.394C107.221 100.695 106.553 100.516 106.251 99.9939C105.95 99.4715 106.129 98.8035 106.651 98.502C110.667 96.1836 115.802 97.5592 118.12 101.575C118.842 102.825 119.206 104.197 119.243 105.564C119.324 108.577 117.814 111.564 115.047 113.162C114.881 113.258 114.693 113.308 114.501 113.308H34.4047C34.0178 113.308 33.6597 113.103 33.4635 112.77C30.6195 107.939 30.9726 101.682 33.8278 97.0671C34.1452 96.5541 34.8183 96.3956 35.3313 96.713Z" fill="#16162F"/>
<path fill-rule="evenodd" clip-rule="evenodd" d="M81.1716 51.5666C77.3813 51.5666 74.3022 54.6409 74.3022 58.4194C74.3022 62.1934 77.3818 65.2656 81.1716 65.2656C84.9558 65.2656 87.9933 62.2037 87.9933 58.4194C87.9933 57.8163 88.4823 57.3273 89.0855 57.3273C89.6886 57.3273 90.1776 57.8163 90.1776 58.4194C90.1776 63.3993 86.1728 67.4499 81.1716 67.4499C76.1822 67.4499 72.1179 63.4065 72.1179 58.4194C72.1179 53.4299 76.1796 49.3823 81.1716 49.3823C84.0801 49.3823 86.655 50.7556 88.2969 52.8841C88.6653 53.3617 88.5768 54.0475 88.0992 54.4159C87.6216 54.7843 86.9358 54.6958 86.5674 54.2182C85.3216 52.6032 83.3749 51.5666 81.1716 51.5666Z" fill="#0A855C"/>
<path fill-rule="evenodd" clip-rule="evenodd" d="M120.542 112.311C120.542 111.708 121.03 111.219 121.634 111.219H134.408C135.011 111.219 135.5 111.708 135.5 112.311C135.5 112.914 135.011 113.403 134.408 113.403H121.634C121.03 113.403 120.542 112.914 120.542 112.311Z" fill="#16162F"/>
</svg>
