<svg width="151" height="115" viewBox="0 0 151 115" fill="none" xmlns="http://www.w3.org/2000/svg">
<path d="M24.1624 95.0963C23.9768 95.0937 23.7925 95.128 23.6203 95.1972C23.448 95.2664 23.2913 95.3692 23.1591 95.4995C23.0269 95.6299 22.9219 95.7851 22.8503 95.9564C22.7786 96.1276 22.7417 96.3114 22.7417 96.4971C22.7417 96.6827 22.7786 96.8665 22.8503 97.0377C22.9219 97.209 23.0269 97.3643 23.1591 97.4946C23.2913 97.6249 23.448 97.7277 23.6203 97.7969C23.7925 97.8661 23.9768 97.9004 24.1624 97.8978H135.706C135.892 97.9004 136.076 97.8661 136.249 97.7969C136.421 97.7277 136.578 97.6249 136.71 97.4946C136.842 97.3643 136.947 97.209 137.019 97.0377C137.09 96.8665 137.127 96.6827 137.127 96.4971C137.127 96.3114 137.09 96.1276 137.019 95.9564C136.947 95.7851 136.842 95.6299 136.71 95.4995C136.578 95.3692 136.421 95.2664 136.249 95.1972C136.076 95.128 135.892 95.0937 135.706 95.0963H24.1624Z" fill="#16162F"/>
<path d="M143.296 95.0963C143.11 95.0937 142.926 95.128 142.754 95.1972C142.582 95.2664 142.425 95.3692 142.293 95.4995C142.16 95.6299 142.055 95.7851 141.984 95.9564C141.912 96.1276 141.875 96.3114 141.875 96.4971C141.875 96.6827 141.912 96.8665 141.984 97.0377C142.055 97.209 142.16 97.3643 142.293 97.4946C142.425 97.6249 142.582 97.7277 142.754 97.7969C142.926 97.8661 143.11 97.9004 143.296 97.8978H149.079C149.265 97.9004 149.449 97.8661 149.622 97.7969C149.794 97.7277 149.951 97.6249 150.083 97.4946C150.215 97.3643 150.32 97.209 150.392 97.0377C150.463 96.8665 150.5 96.6827 150.5 96.4971C150.5 96.3114 150.463 96.1276 150.392 95.9564C150.32 95.7851 150.215 95.6299 150.083 95.4995C149.951 95.3692 149.794 95.2664 149.622 95.1972C149.449 95.128 149.265 95.0937 149.079 95.0963H143.296Z" fill="#16162F"/>
<path d="M1.92068 95.0963C1.73507 95.0937 1.55078 95.128 1.37854 95.1972C1.20629 95.2664 1.04952 95.3692 0.917334 95.4995C0.785147 95.6299 0.680182 95.7851 0.608538 95.9564C0.536894 96.1276 0.5 96.3114 0.5 96.4971C0.5 96.6827 0.536894 96.8665 0.608538 97.0377C0.680182 97.209 0.785147 97.3643 0.917334 97.4946C1.04952 97.6249 1.20629 97.7277 1.37854 97.7969C1.55078 97.8661 1.73507 97.9004 1.92068 97.8978H17.8978C18.0834 97.9004 18.2677 97.8661 18.4399 97.7969C18.6121 97.7277 18.7689 97.6249 18.9011 97.4946C19.0333 97.3643 19.1382 97.209 19.2099 97.0377C19.2815 96.8665 19.3184 96.6827 19.3184 96.4971C19.3184 96.3114 19.2815 96.1276 19.2099 95.9564C19.1382 95.7851 19.0333 95.6299 18.9011 95.4995C18.7689 95.3692 18.6121 95.2664 18.4399 95.1972C18.2677 95.128 18.0834 95.0937 17.8978 95.0963H1.92068Z" fill="#16162F"/>
<path fill-rule="evenodd" clip-rule="evenodd" d="M49.5453 100.7C49.3597 100.697 49.1754 100.732 49.0032 100.801C48.8309 100.87 48.6742 100.973 48.542 101.103C48.4098 101.233 48.3048 101.389 48.2332 101.56C48.1615 101.731 48.1246 101.915 48.1246 102.101C48.1246 102.286 48.1615 102.47 48.2332 102.641C48.3048 102.812 48.4098 102.968 48.542 103.098C48.6742 103.228 48.8309 103.331 49.0032 103.4C49.1754 103.47 49.3597 103.504 49.5453 103.501H104.83C105.016 103.504 105.2 103.47 105.373 103.4C105.545 103.331 105.702 103.228 105.834 103.098C105.966 102.968 106.071 102.812 106.143 102.641C106.214 102.47 106.251 102.286 106.251 102.101C106.251 101.915 106.214 101.731 106.143 101.56C106.071 101.389 105.966 101.233 105.834 101.103C105.702 100.973 105.545 100.87 105.373 100.801C105.2 100.732 105.016 100.697 104.83 100.7H49.5453Z" fill="#0A855C"/>
<path fill-rule="evenodd" clip-rule="evenodd" d="M57.95 106.303C57.7644 106.3 57.5801 106.335 57.4078 106.404C57.2356 106.473 57.0788 106.576 56.9466 106.706C56.8144 106.836 56.7095 106.992 56.6378 107.163C56.5662 107.334 56.5293 107.518 56.5293 107.704C56.5293 107.889 56.5662 108.073 56.6378 108.244C56.7095 108.416 56.8144 108.571 56.9466 108.701C57.0788 108.831 57.2356 108.934 57.4078 109.003C57.5801 109.073 57.7644 109.107 57.95 109.104H72.6905C72.8761 109.107 73.0604 109.073 73.2326 109.003C73.4049 108.934 73.5616 108.831 73.6938 108.701C73.826 108.571 73.931 108.416 74.0026 108.244C74.0743 108.073 74.1111 107.889 74.1111 107.704C74.1111 107.518 74.0743 107.334 74.0026 107.163C73.931 106.992 73.826 106.836 73.6938 106.706C73.5616 106.576 73.4049 106.473 73.2326 106.404C73.0604 106.335 72.8761 106.3 72.6905 106.303H57.95Z" fill="#0A855C"/>
<path fill-rule="evenodd" clip-rule="evenodd" d="M80.3611 106.303C80.1755 106.3 79.9912 106.335 79.819 106.404C79.6467 106.473 79.49 106.576 79.3578 106.706C79.2256 106.836 79.1206 106.992 79.049 107.163C78.9774 107.334 78.9405 107.518 78.9405 107.704C78.9405 107.889 78.9774 108.073 79.049 108.244C79.1206 108.416 79.2256 108.571 79.3578 108.701C79.49 108.831 79.6467 108.934 79.819 109.003C79.9912 109.073 80.1755 109.107 80.3611 109.104H100.141C100.327 109.107 100.511 109.073 100.683 109.003C100.855 108.934 101.012 108.831 101.144 108.701C101.277 108.571 101.381 108.416 101.453 108.244C101.525 108.073 101.562 107.889 101.562 107.704C101.562 107.518 101.525 107.334 101.453 107.163C101.381 106.992 101.277 106.836 101.144 106.706C101.012 106.576 100.855 106.473 100.683 106.404C100.511 106.335 100.327 106.3 100.141 106.303H80.3611Z" fill="#0A855C"/>
<path fill-rule="evenodd" clip-rule="evenodd" d="M66.3542 111.905C66.1685 111.903 65.9843 111.937 65.812 112.006C65.6398 112.076 65.483 112.178 65.3508 112.309C65.2186 112.439 65.1137 112.594 65.042 112.765C64.9704 112.937 64.9335 113.121 64.9335 113.306C64.9335 113.492 64.9704 113.676 65.042 113.847C65.1137 114.018 65.2186 114.173 65.3508 114.304C65.483 114.434 65.6398 114.537 65.812 114.606C65.9843 114.675 66.1685 114.709 66.3542 114.707H80.6843C80.8699 114.709 81.0542 114.675 81.2264 114.606C81.3987 114.537 81.5554 114.434 81.6876 114.304C81.8198 114.173 81.9248 114.018 81.9964 113.847C82.0681 113.676 82.105 113.492 82.105 113.306C82.105 113.121 82.0681 112.937 81.9964 112.765C81.9248 112.594 81.8198 112.439 81.6876 112.309C81.5554 112.178 81.3987 112.076 81.2264 112.006C81.0542 111.937 80.8699 111.903 80.6843 111.905H66.3542Z" fill="#0A855C"/>
<path fill-rule="evenodd" clip-rule="evenodd" d="M77.0059 19.0441C76.5223 19.0441 76.1364 19.4498 76.144 19.9334C76.144 20.5404 75.8846 20.8158 75.2821 20.8158C74.0979 20.7878 74.0979 22.584 75.2821 22.5669C75.8622 22.5669 76.144 22.7267 76.144 23.4119C76.1272 24.5958 77.9119 24.5958 77.8951 23.4119C77.8951 22.7906 78.1859 22.5669 78.7605 22.5669C79.9447 22.5949 79.9447 20.799 78.7605 20.8158C77.9797 20.8158 77.8951 20.3693 77.8951 19.9334C77.9008 19.4392 77.5002 19.0365 77.0059 19.0441Z" fill="#16162F"/>
<path fill-rule="evenodd" clip-rule="evenodd" d="M31.4814 29.9025C30.8176 29.9025 30.288 30.4591 30.2984 31.123C30.2984 31.9562 29.9423 32.3341 29.1155 32.3341C27.4901 32.3061 27.4901 34.7608 29.1155 34.7375C29.9116 34.7375 30.2984 34.9588 30.2984 35.897C30.276 37.5221 32.7248 37.5221 32.7018 35.897C32.7018 35.0442 33.1008 34.7375 33.8894 34.7375C35.5148 34.7655 35.5148 32.3109 33.8894 32.3341C32.8179 32.3341 32.7018 31.7208 32.7018 31.123C32.7102 30.4445 32.1598 29.8918 31.4814 29.9025Z" fill="#16162F"/>
<path fill-rule="evenodd" clip-rule="evenodd" d="M31.2499 61.0577C30.8855 61.0577 30.5947 61.3633 30.6004 61.7278C30.6004 62.185 30.4049 62.3926 29.951 62.3926C29.0587 62.3926 29.0587 63.7247 29.951 63.7121C30.3881 63.7121 30.6004 63.8325 30.6004 64.3485C30.5864 65.2408 31.9325 65.2408 31.9199 64.3485C31.9199 63.8804 32.139 63.7121 32.5719 63.7121C33.4643 63.7121 33.4643 62.3797 32.5719 62.3926C31.9836 62.3926 31.9199 62.0561 31.9199 61.7278C31.9255 61.3552 31.6223 61.0518 31.2499 61.0577Z" fill="#0A855C"/>
<path fill-rule="evenodd" clip-rule="evenodd" d="M50.8435 7.81652C50.3599 7.81652 49.974 8.22212 49.9816 8.70565C49.9816 9.31273 49.7222 9.58812 49.1197 9.58812C47.9355 9.56011 47.9355 11.356 49.1197 11.3392C49.6998 11.3392 49.9816 11.499 49.9816 12.1842C49.9648 13.3681 51.7495 13.3681 51.7328 12.1842C51.7328 11.5629 52.0235 11.3392 52.5981 11.3392C53.7823 11.3672 53.7823 9.57131 52.5981 9.58812C51.8173 9.58812 51.7328 9.14156 51.7328 8.70565C51.7384 8.21148 51.3378 7.80867 50.8435 7.81652Z" fill="#16162F"/>
<path fill-rule="evenodd" clip-rule="evenodd" d="M92.9123 8.2528e-05C92.5479 0.00568545 92.2571 0.305825 92.2629 0.670183C92.2629 1.12763 92.0673 1.33515 91.6134 1.33515C90.7211 1.32115 90.7211 2.66738 91.6134 2.65449C92.0505 2.65449 92.2629 2.77505 92.2629 3.29108C92.2488 4.18334 93.595 4.18334 93.5823 3.29108C93.5823 2.82296 93.8014 2.65449 94.2344 2.65449C95.1267 2.68251 95.1267 1.32241 94.2344 1.33515C93.6461 1.33515 93.5823 0.998514 93.5823 0.670183C93.5879 0.297757 93.2847 -0.00574451 92.9123 8.2528e-05Z" fill="#16162F"/>
<path fill-rule="evenodd" clip-rule="evenodd" d="M128.329 29.129C127.846 29.129 127.46 29.5348 127.467 30.0183C127.467 30.6254 127.208 30.9008 126.605 30.9008C125.421 30.8728 125.421 32.6687 126.605 32.6519C127.186 32.6519 127.467 32.8116 127.467 33.4966C127.451 34.6807 129.235 34.6807 129.219 33.4966C129.219 32.8755 129.509 32.6519 130.084 32.6519C131.268 32.6799 131.268 30.8837 130.084 30.9008C129.303 30.9008 129.219 30.454 129.219 30.0183C129.224 29.5241 128.824 29.1212 128.329 29.129Z" fill="#0A855C"/>
<path fill-rule="evenodd" clip-rule="evenodd" d="M25.112 17.0001C24.6284 17.0001 24.2425 17.4059 24.2501 17.8894C24.2501 18.4965 23.9906 18.7719 23.3882 18.7719C22.2039 18.7439 22.2039 20.5398 23.3882 20.523C23.9683 20.523 24.2501 20.6827 24.2501 21.3676C24.2333 22.5518 26.018 22.5518 26.0012 21.3676C26.0012 20.7466 26.2919 20.523 26.8666 20.523C28.0508 20.551 28.0508 18.7548 26.8666 18.7719C26.0858 18.7719 26.0012 18.325 26.0012 17.8894C26.0068 17.3952 25.6063 16.9923 25.112 17.0001Z" fill="#0A855C"/>
<path fill-rule="evenodd" clip-rule="evenodd" d="M123.727 34.3858C123.362 34.3858 123.072 34.6914 123.077 35.0556C123.077 35.5131 122.882 35.7206 122.428 35.7206C121.535 35.6925 121.535 37.0527 122.428 37.0401C122.865 37.0401 123.077 37.1606 123.077 37.6767C123.063 38.5689 124.409 38.5689 124.397 37.6767C124.397 37.2085 124.616 37.0401 125.049 37.0401C125.941 37.0681 125.941 35.7077 125.049 35.7206C124.46 35.7206 124.397 35.3839 124.397 35.0556C124.402 34.6833 124.099 34.3799 123.727 34.3858Z" fill="#0A855C"/>
<path fill-rule="evenodd" clip-rule="evenodd" d="M122.048 69.9601C121.385 69.9601 120.855 70.517 120.865 71.1806C120.865 72.0138 120.509 72.3919 119.682 72.3919C118.057 72.3639 118.057 74.8185 119.682 74.7953C120.479 74.7953 120.865 75.0164 120.865 75.9546C120.843 77.5797 123.292 77.5797 123.269 75.9546C123.269 75.1018 123.668 74.7953 124.456 74.7953C126.082 74.8233 126.082 72.3686 124.456 72.3919C123.385 72.3919 123.269 71.7787 123.269 71.1806C123.277 70.5021 122.727 69.9495 122.048 69.9601Z" fill="#0A855C"/>
<path fill-rule="evenodd" clip-rule="evenodd" d="M109.925 15.7355C109.441 15.7355 109.055 16.1411 109.063 16.6246C109.063 17.2317 108.804 17.5071 108.201 17.5071C107.017 17.4791 107.017 19.275 108.201 19.2581C108.781 19.2581 109.063 19.4179 109.063 20.1032C109.046 21.2871 110.831 21.2871 110.814 20.1032C110.814 19.4818 111.105 19.2581 111.679 19.2581C112.864 19.2862 112.864 17.4903 111.679 17.5071C110.899 17.5071 110.814 17.0605 110.814 16.6246C110.82 16.1304 110.419 15.7276 109.925 15.7355Z" fill="#16162F"/>
<path fill-rule="evenodd" clip-rule="evenodd" d="M65.1646 0.519616C64.7909 0.525219 64.4926 0.833073 64.4984 1.20682C64.4984 1.67589 64.2979 1.88888 63.8323 1.88888C62.9171 1.88888 62.9171 3.25542 63.8323 3.24225C64.2807 3.24225 64.4984 3.3655 64.4984 3.89525C64.4872 4.81021 65.8648 4.81021 65.8519 3.89525C65.8519 3.41508 66.0768 3.24225 66.5206 3.24225C67.4359 3.24225 67.4359 1.87572 66.5206 1.88888C65.9172 1.88888 65.8519 1.54361 65.8519 1.20682C65.8547 0.82478 65.5465 0.513621 65.1646 0.519616Z" fill="#0A855C"/>
<path d="M67.6895 65.5449C67.3673 65.546 67.0553 65.6583 66.8061 65.8626C66.557 66.0669 66.3858 66.3508 66.3216 66.6666C65.7742 69.1882 62.6726 71.3805 59.5478 71.2463C58.6589 71.2071 57.7862 70.8987 57.0856 70.4967C56.9259 70.4028 56.7493 70.3414 56.5658 70.3162C56.3823 70.2909 56.1956 70.3023 56.0165 70.3497C55.8375 70.3971 55.6696 70.4798 55.5226 70.5925C55.3756 70.7052 55.2525 70.8457 55.1602 71.0063C55.068 71.1669 55.0085 71.3444 54.9852 71.5281C54.962 71.7119 54.9754 71.8985 55.0247 72.077C55.074 72.2555 55.1582 72.4223 55.2724 72.5681C55.3867 72.7138 55.5287 72.8356 55.6903 72.9261C56.7136 73.5133 57.9894 73.9853 59.4274 74.0478C59.449 74.0486 59.4659 74.0198 59.4876 74.0198V74.0478C59.7628 74.045 60.0312 73.9614 60.2591 73.807C64.3617 73.6137 68.2146 71.1456 69.0574 67.263C69.1052 67.0573 69.1059 66.8434 69.0594 66.6374C69.0129 66.4313 68.9205 66.2385 68.7889 66.0733C68.6573 65.908 68.4901 65.7746 68.2997 65.6831C68.1093 65.5916 67.9007 65.5444 67.6895 65.5449H67.6895Z" fill="#16162F"/>
<path d="M58.9246 36.5127C55.6333 36.5127 52.2916 37.1402 49.0757 38.4989C45.7582 39.9007 42.8869 41.9355 40.5564 44.4027C40.2676 44.7082 40.112 45.1158 40.1238 45.536C40.1356 45.9563 40.3138 46.3546 40.6193 46.6434C40.9248 46.9322 41.3324 47.0877 41.7527 47.076C42.1729 47.0642 42.5712 46.8861 42.86 46.5806C44.8972 44.4238 47.398 42.6445 50.3068 41.4152C61.5863 36.65 74.5937 41.9575 79.372 53.2667C80.4911 55.9155 81.0531 58.6425 81.1174 61.3372C81.1137 61.5503 81.1531 61.762 81.2331 61.9596C81.3132 62.1571 81.4324 62.3364 81.5834 62.4867C81.7345 62.6371 81.9144 62.7554 82.1123 62.8345C82.3102 62.9137 82.522 62.9521 82.7351 62.9474C82.9482 62.9426 83.1582 62.895 83.3524 62.8072C83.5466 62.7193 83.7211 62.5932 83.8653 62.4363C84.0096 62.2794 84.1207 62.095 84.192 61.8941C84.2632 61.6932 84.2932 61.48 84.28 61.2672C84.2064 58.1826 83.5632 55.0538 82.2883 52.0363C78.2056 42.3732 68.7986 36.536 58.9246 36.5136V36.5127ZM38.3787 48.408C38.0944 48.406 37.8148 48.4806 37.5693 48.6241C37.3237 48.7675 37.1214 48.9745 36.9835 49.2232C36.5449 49.9911 36.1468 50.7849 35.7907 51.5923C35.6961 51.7839 35.6413 51.9927 35.6295 52.2061C35.6178 52.4195 35.6494 52.633 35.7224 52.8338C35.7954 53.0346 35.9083 53.2186 36.0543 53.3746C36.2003 53.5306 36.3764 53.6554 36.572 53.7416C36.7676 53.8277 36.9785 53.8734 37.1922 53.8758C37.4059 53.8782 37.6178 53.8375 37.8153 53.7558C38.0127 53.6741 38.1916 53.5531 38.3411 53.4004C38.4906 53.2478 38.6076 53.0664 38.6852 52.8673C38.9972 52.1599 39.3461 51.4659 39.7302 50.7936C39.8712 50.5541 39.9466 50.2817 39.9489 50.0038C39.9512 49.7259 39.8803 49.4524 39.7433 49.2106C39.6063 48.9688 39.4081 48.7674 39.1686 48.6265C38.929 48.4856 38.6566 48.4102 38.3787 48.408ZM35.4624 56.3254C35.0978 56.3429 34.7505 56.486 34.4793 56.7303C34.208 56.9745 34.0296 57.3051 33.9741 57.6659C33.2019 62.2656 33.6859 67.1385 35.632 71.7443C41.0772 84.6322 55.9351 90.5842 68.7844 85.1552C73.7828 83.0432 77.7717 79.5147 80.4444 75.2352C81.1911 74.0404 81.834 72.7845 82.3704 71.4872C82.9045 70.1946 83.3307 68.86 83.6453 67.4929C83.7044 67.2864 83.7209 67.0701 83.6938 66.857C83.6666 66.6439 83.5964 66.4385 83.4873 66.2534C83.3783 66.0683 83.2327 65.9075 83.0595 65.7805C82.8862 65.6535 82.689 65.5631 82.4797 65.5147C82.2704 65.4664 82.0535 65.4612 81.8421 65.4994C81.6307 65.5375 81.4293 65.6183 81.2502 65.7369C81.071 65.8554 80.9179 66.0092 80.8 66.1888C80.6822 66.3684 80.6022 66.5701 80.5648 66.7816C80.2896 67.9773 79.9107 69.1462 79.4431 70.2779C78.9735 71.4134 78.4109 72.5105 77.7579 73.5554C75.4191 77.3001 71.9441 80.3835 67.5533 82.2389C56.2675 87.0072 43.3284 81.8266 38.5484 70.5132C36.8402 66.4704 36.4168 62.2188 37.0929 58.1912C37.1357 57.9569 37.1251 57.716 37.0619 57.4864C36.9987 57.2567 36.8844 57.0443 36.7277 56.865C36.571 56.6857 36.3758 56.5439 36.1567 56.4505C35.9376 56.3571 35.7003 56.3143 35.4624 56.3254Z" fill="#16162F"/>
<path d="M47.9917 54.0454C45.8691 54.9421 44.8595 57.4288 45.7563 59.5515C46.6531 61.6739 49.1401 62.6839 51.2626 61.7868C53.3852 60.8901 54.3948 58.4032 53.498 56.2805C52.6012 54.1578 50.1142 53.1486 47.9917 54.0454ZM49.082 56.6257C49.8099 56.3181 50.6099 56.6537 50.9175 57.3709C51.225 58.0987 50.9001 58.8989 50.1723 59.2065C49.4444 59.5141 48.6444 59.1785 48.3369 58.4613C48.0293 57.7335 48.354 56.9333 49.082 56.6257Z" fill="#16162F"/>
<path d="M61.3602 49.2769C59.2376 50.1737 58.228 52.6605 59.1248 54.7832C60.0216 56.9056 62.5086 57.9151 64.6311 57.0184C66.7537 56.1216 67.7633 53.6349 66.8665 51.5122C65.9697 49.3896 63.4827 48.3799 61.3602 49.2769ZM62.4505 51.8573C63.1784 51.5497 63.9784 51.8853 64.2859 52.6024C64.5935 53.3303 64.2688 54.1304 63.5408 54.438C62.8129 54.7453 62.0129 54.41 61.7053 53.6928C61.3978 52.965 61.7227 52.1649 62.4505 51.8573Z" fill="#16162F"/>
<path d="M92.946 67.4536C92.7032 67.4555 92.465 67.5205 92.2549 67.6422C92.0448 67.7639 91.8699 67.9382 91.7474 68.1478C91.6249 68.3575 91.559 68.5955 91.5562 68.8383C91.5534 69.0811 91.6137 69.3205 91.7313 69.533C92.2882 70.5732 93.121 71.6462 94.3084 72.4603C94.5467 72.6228 94.8576 72.5497 95.1073 72.6898L95.1017 72.7178C95.1199 72.7182 95.1382 72.7182 95.1564 72.7178C98.7373 74.7161 103.305 74.6634 106.072 71.8205C106.201 71.6886 106.302 71.5329 106.371 71.3619C106.439 71.1908 106.473 71.0078 106.471 70.8236C106.469 70.6394 106.43 70.4577 106.357 70.2884C106.285 70.1191 106.18 69.9656 106.048 69.837C105.916 69.7084 105.76 69.6072 105.589 69.5388C105.418 69.4704 105.235 69.4363 105.051 69.4386C104.867 69.4409 104.685 69.4795 104.515 69.5521C104.346 69.6248 104.193 69.7301 104.064 69.862C102.264 71.7112 98.4746 71.9314 95.8951 70.1626C95.1618 69.6597 94.5804 68.9329 94.1989 68.2205C94.0815 67.9892 93.9022 67.795 93.681 67.6597C93.4598 67.5243 93.2054 67.4529 92.946 67.4536ZM95.1018 72.7065L94.3084 72.46C94.5419 72.6205 94.8185 72.7065 95.1018 72.7065Z" fill="#0A855C"/>
<path d="M104.349 36.8273C100.792 36.2592 97.28 36.4667 93.9965 37.3251C93.7874 37.3701 93.5896 37.4571 93.415 37.5807C93.2404 37.7043 93.0927 37.8618 92.9808 38.0441C92.8689 38.2263 92.795 38.4294 92.7637 38.641C92.7324 38.8526 92.7443 39.0683 92.7987 39.2752C92.8531 39.482 92.9489 39.6757 93.0802 39.8446C93.2115 40.0134 93.3757 40.1537 93.5628 40.2573C93.7499 40.3609 93.9561 40.4256 94.1689 40.4473C94.3816 40.469 94.5966 40.4473 94.8008 40.3837C97.6713 39.6332 100.733 39.4533 103.851 39.9514C115.942 41.8828 124.166 53.2711 122.23 65.3947C121.776 68.234 120.807 70.8498 119.434 73.1697C119.32 73.3488 119.244 73.549 119.209 73.7582C119.175 73.9675 119.182 74.1816 119.232 74.3878C119.281 74.594 119.372 74.7884 119.498 74.9589C119.624 75.1294 119.783 75.2727 119.966 75.3806C120.149 75.4884 120.351 75.5584 120.561 75.5864C120.772 75.6145 120.985 75.6002 121.19 75.544C121.395 75.4878 121.586 75.391 121.752 75.2595C121.919 75.128 122.057 74.9643 122.159 74.7783C123.73 72.1228 124.838 69.127 125.354 65.8925C127.56 52.0807 118.138 39.0298 104.349 36.8273ZM89.1268 39.3224C88.8775 39.3308 88.6338 39.3978 88.4154 39.5183C87.6367 39.9371 86.88 40.3956 86.1502 40.892C85.9781 41.0091 85.8308 41.1589 85.7166 41.333C85.6024 41.5071 85.5237 41.7018 85.4848 41.9063C85.4459 42.1108 85.4477 42.3211 85.4901 42.525C85.5324 42.7288 85.6145 42.9221 85.7316 43.0942C85.8488 43.2663 85.9986 43.4136 86.1727 43.5278C86.3468 43.642 86.5416 43.7208 86.7461 43.7597C86.9506 43.7985 87.1608 43.7967 87.3646 43.7544C87.5684 43.712 87.7619 43.6299 87.9339 43.5128C88.5734 43.078 89.2328 42.6757 89.9147 42.309C90.2342 42.1436 90.4879 41.8741 90.6338 41.5452C90.7797 41.2163 90.8092 40.8475 90.7175 40.4996C90.6257 40.1517 90.4181 39.8453 90.129 39.6312C89.8398 39.417 89.4863 39.3078 89.1268 39.3215V39.3224ZM82.6046 44.5313C82.3741 44.5295 82.146 44.5779 81.9362 44.6734C81.7264 44.7689 81.5399 44.9091 81.3899 45.0841C80.3069 46.3075 79.3382 47.6381 78.5009 49.0671C78.3956 49.2464 78.3266 49.4448 78.298 49.6507C78.2693 49.8566 78.2815 50.066 78.3338 50.2673C78.3861 50.4685 78.4775 50.6576 78.6029 50.8235C78.7282 50.9894 78.885 51.1289 79.0643 51.2342C79.2436 51.3395 79.4419 51.4083 79.6478 51.437C79.8538 51.4656 80.0633 51.4534 80.2645 51.4011C80.4658 51.3487 80.6547 51.2573 80.8206 51.132C80.9864 51.0066 81.126 50.8498 81.2312 50.6705C81.9636 49.4204 82.8163 48.2509 83.7646 47.1796C83.9704 46.9534 84.1063 46.6724 84.1558 46.3706C84.2054 46.0689 84.1664 45.7592 84.0437 45.4791C83.9211 45.199 83.7198 44.9604 83.4645 44.7923C83.2091 44.6241 82.9104 44.5334 82.6046 44.5313ZM79.7922 72.3052C79.5176 72.3182 79.2512 72.4027 79.0191 72.55C78.787 72.6974 78.5973 72.9028 78.4687 73.1457C78.34 73.3887 78.2768 73.6606 78.2854 73.9354C78.2939 74.2101 78.3738 74.4782 78.5173 74.7127C82.2217 80.9804 88.6182 85.6003 96.3657 86.8377C101.724 87.6933 106.972 86.8099 111.506 84.5999C112.772 83.9819 113.98 83.2604 115.122 82.444C116.26 81.6302 117.332 80.723 118.323 79.7301C118.483 79.5864 118.613 79.4112 118.703 79.2158C118.793 79.0204 118.843 78.8089 118.848 78.5937C118.854 78.3786 118.816 78.1644 118.736 77.9645C118.656 77.7647 118.536 77.5834 118.384 77.4314C118.231 77.2794 118.05 77.1599 117.85 77.0805C117.65 77.0011 117.435 76.9635 117.22 76.9697C117.005 76.9759 116.794 77.026 116.598 77.1168C116.403 77.2075 116.229 77.3369 116.085 77.4974C115.219 78.3658 114.28 79.1597 113.284 79.8724C112.284 80.5868 111.223 81.2191 110.116 81.7598C106.149 83.6975 101.571 84.4705 96.8636 83.7186C90.0589 82.6319 84.4886 78.5927 81.2477 73.1091C81.1028 72.8543 80.89 72.6449 80.633 72.5039C80.3761 72.3628 80.085 72.296 79.7922 72.3106V72.3052Z" fill="#0A855C"/>
<path d="M95.2015 49.4438C92.9261 49.0804 90.7526 50.6551 90.3891 52.9307C90.0256 55.2061 91.6006 57.3795 93.876 57.7428C96.1514 58.1062 98.3249 56.5318 98.6883 54.2562C99.0517 51.9809 97.4769 49.8071 95.2015 49.4438ZM94.7597 52.2102C95.54 52.3334 96.0466 53.0342 95.9219 53.8144C95.7973 54.5946 95.0981 55.1011 94.3178 54.9764C93.5375 54.8531 93.0309 54.1527 93.1555 53.3725C93.2802 52.5921 93.9794 52.0855 94.7597 52.2102Z" fill="#0A855C"/>
<path d="M109.067 52.4779C106.792 52.1146 104.619 53.6895 104.255 55.9645C103.892 58.2399 105.467 60.4136 107.742 60.777C110.017 61.1406 112.191 59.5656 112.554 57.2902C112.918 55.0149 111.343 52.8413 109.067 52.4779ZM108.626 55.2443C109.406 55.3676 109.913 56.0683 109.788 56.8485C109.663 57.6288 108.964 58.1351 108.184 58.0107C107.403 57.8875 106.897 57.1869 107.022 56.4067C107.146 55.6262 107.845 55.1197 108.626 55.2443Z" fill="#0A855C"/>
</svg>
