<svg width="100" height="76" viewBox="0 0 100 76" fill="none" xmlns="http://www.w3.org/2000/svg">
    <path fill-rule="evenodd" clip-rule="evenodd" d="M20.1399 21.3875C19.7948 21.3875 19.5195 21.6769 19.5249 22.0219C19.5249 22.4551 19.3399 22.6514 18.91 22.6514C18.0651 22.6369 18.0651 23.9129 18.91 23.9008C19.3239 23.9008 19.5249 24.0159 19.5249 24.5035C19.5133 25.3482 20.7862 25.3482 20.7743 24.5035C20.7743 24.0603 20.9817 23.9008 21.3916 23.9008C22.2365 23.9154 22.2365 22.6395 21.3916 22.6514C20.8346 22.6514 20.7743 22.3328 20.7743 22.0219C20.7786 21.6693 20.4925 21.382 20.1399 21.3875V21.3875Z" fill="#0A855C"/>
    <path fill-rule="evenodd" clip-rule="evenodd" d="M29.4733 49.9453C29.8415 49.9453 30.1399 49.6468 30.1399 49.2786V35.8107C30.1399 35.4425 29.8415 35.1441 29.4733 35.1441H28.186C27.1719 35.1441 26.6205 33.9582 27.2741 33.1829L33.2682 26.0693C33.2683 26.0692 33.2682 26.0694 33.2682 26.0693C33.7451 25.504 34.6162 25.5039 35.093 26.0693L41.0879 33.1827C41.7412 33.9582 41.19 35.1441 40.1752 35.1441H38.8889C38.5207 35.1441 38.2222 35.4425 38.2222 35.8107V39.3018C38.2222 39.67 38.5207 39.9685 38.8889 39.9685C39.2571 39.9685 39.5556 39.67 39.5556 39.3018V36.4774H40.1752C42.3237 36.4774 43.4914 33.9664 42.1076 32.3237L36.1125 25.2099C35.1029 24.0127 33.2584 24.0126 32.2489 25.2098L26.2548 32.3234C26.2547 32.3235 26.2548 32.3234 26.2548 32.3234C24.8697 33.9664 26.0389 36.4774 28.186 36.4774H28.8066V49.2786C28.8066 49.6468 29.1051 49.9453 29.4733 49.9453Z" fill="#16162F"/>
    <path fill-rule="evenodd" clip-rule="evenodd" d="M53.9768 40.3296C54.345 40.3296 54.6435 40.0311 54.6435 39.6629V30.0755H55.2631C57.4116 30.0755 58.5793 27.5644 57.1955 25.9218L51.2004 18.808C50.1908 17.6108 48.3463 17.6107 47.3368 18.8079L41.3427 25.9215C41.3426 25.9216 41.3427 25.9215 41.3427 25.9215C39.9576 27.5645 41.1268 30.0755 43.2739 30.0755H43.8945V38.5386C43.8945 38.9068 44.193 39.2053 44.5612 39.2053C44.9294 39.2053 45.2278 38.9068 45.2278 38.5386V29.4088C45.2278 29.0406 44.9294 28.7422 44.5612 28.7422H43.2739C42.2598 28.7422 41.7084 27.5563 42.362 26.781L48.3561 19.6674C48.3562 19.6673 48.3561 19.6675 48.3561 19.6674C48.8329 19.1022 49.704 19.102 50.1808 19.6672C50.1808 19.6673 50.1808 19.6672 50.1808 19.6672L56.1758 26.7808C56.8291 27.5563 56.2779 28.7422 55.2631 28.7422H53.9768C53.6086 28.7422 53.3101 29.0406 53.3101 29.4088V39.6629C53.3101 40.0311 53.6086 40.3296 53.9768 40.3296Z" fill="#16162F"/>
    <path d="M61.7789 39.3018V25.3984C61.7789 25.0302 61.4805 24.7318 61.1123 24.7318H59.826C58.8116 24.7318 58.2596 23.5461 58.9135 22.7692L64.9082 15.6569C65.3841 15.0912 66.2557 15.0908 66.7315 15.6564L68.7366 18.0351C68.9739 18.3166 69.3945 18.3525 69.676 18.1151C69.9576 17.8778 69.9934 17.4573 69.7561 17.1757L67.7518 14.798C66.7433 13.5992 64.8975 13.5991 63.8887 14.7976L57.8937 21.9103C56.5105 23.5535 57.677 26.0651 59.826 26.0651H60.4456V39.3018H61.7789Z" fill="#16162F"/>
    <path fill-rule="evenodd" clip-rule="evenodd" d="M70.528 49.946C70.8962 49.946 71.1947 49.6476 71.1947 49.2794V26.0649H71.8143C73.9633 26.0649 75.13 23.5537 73.7469 21.9104L71.5837 19.3442C71.3464 19.0627 70.9258 19.0268 70.6443 19.2641C70.3628 19.5014 70.3269 19.922 70.5642 20.2035L72.7268 22.7691V22.7691C73.3805 23.5459 72.8286 24.7316 71.8143 24.7316H70.528C70.1598 24.7316 69.8613 25.0301 69.8613 25.3983V49.2794C69.8613 49.6476 70.1598 49.946 70.528 49.946Z" fill="#16162F"/>
    <path d="M31.8312 62.3032C32.1994 62.3021 32.497 62.0027 32.4958 61.6345C32.4912 60.1374 31.605 58.7711 30.2073 58.1927L29.6865 57.9766C28.0063 57.281 26.9896 55.6566 26.9896 53.9417C26.9896 53.3858 27.0967 52.8209 27.3237 52.2733C28.2452 50.0467 30.7984 48.9885 33.025 49.9116L33.5491 50.1289C34.9511 50.7093 36.5498 50.3662 37.6119 49.3009L37.6399 49.273C38.7033 48.2105 39.0399 46.6135 38.4601 45.2142L38.2443 44.694L38.2438 44.6929C38.0176 44.1439 37.9106 43.579 37.9106 43.0235C37.9106 41.3095 38.9268 39.6844 40.607 38.9888C42.8337 38.0672 45.3871 39.1253 46.3095 41.3521L46.5268 41.8752C47.1069 43.2754 48.4756 44.1639 49.9778 44.1628H50.0172C50.7909 44.1937 52.5653 43.7794 53.4736 41.875L53.6905 41.3526C54.3861 39.6732 56.0116 38.6555 57.7255 38.6555C58.2801 38.6555 58.8451 38.7625 59.393 38.9887C61.62 39.9122 62.6778 42.4646 61.7545 44.693L61.5392 45.2141C60.9579 46.6167 61.3007 48.2136 62.3641 49.2757L62.3648 49.2764L62.3654 49.277L62.3737 49.2856C62.3794 49.2915 62.3895 49.3017 62.4022 49.3138C63.4635 50.3709 65.0557 50.7055 66.4508 50.1281L66.9732 49.9117C67.5202 49.685 68.087 49.5785 68.6418 49.5785C70.3571 49.5785 71.9821 50.5941 72.6774 52.2731C73.599 54.5008 72.5418 57.0532 70.314 57.9765L69.7935 58.1915C68.396 58.7704 67.5058 60.1354 67.5035 61.6355C67.5029 62.0037 67.8009 62.3027 68.1691 62.3032C68.5373 62.3038 68.8362 62.0058 68.8368 61.6376C68.8383 60.6642 69.4141 59.7919 70.3032 59.4236L70.8239 59.2085L70.8246 59.2082C73.7324 58.003 75.1125 54.671 73.9094 51.7631C73.0003 49.568 70.8768 48.2452 68.6418 48.2452C67.916 48.2452 67.1755 48.3845 66.4629 48.6799L65.941 48.8961C65.0512 49.2642 64.0258 49.0533 63.3378 48.3638L63.3246 48.351L63.322 48.3483L63.3077 48.3337L63.3072 48.3332C62.6147 47.6422 62.4016 46.6157 62.7709 45.7246L62.9863 45.2033C64.1916 42.2943 62.8103 38.9622 59.9036 37.757L59.9027 37.7567C59.1913 37.4629 58.4531 37.3222 57.7255 37.3222C55.4909 37.3222 53.3679 38.6472 52.4589 40.8418L52.2419 41.3643L52.2416 41.365C51.8731 42.2554 50.9967 42.8309 50.0193 42.8294H50.0182H49.9773C49.0022 42.8302 48.1274 42.2551 47.7586 41.3648L47.5413 40.8418C46.337 37.9353 43.0039 36.5538 40.0971 37.7569C37.9012 38.6659 36.5773 40.7891 36.5773 43.0235C36.5773 43.752 36.718 44.4902 37.0116 45.2023L37.0122 45.2037L37.2283 45.7245C37.5975 46.6156 37.3871 47.6409 36.6976 48.3297L36.6679 48.3593C35.9769 49.0526 34.9496 49.2656 34.0593 48.8971L33.5356 48.68C30.6286 47.4747 27.2953 48.8558 26.092 51.7627C25.797 52.4745 25.6562 53.2133 25.6562 53.9417C25.6562 56.177 26.9805 58.2992 29.176 59.2083L29.6966 59.4244L29.6973 59.4247C30.5843 59.7916 31.1595 60.6643 31.1625 61.6386C31.1637 62.0068 31.463 62.3044 31.8312 62.3032Z" fill="#16162F"/>
    <path fill-rule="evenodd" clip-rule="evenodd" d="M62.1336 62.3032C62.5018 62.3023 62.7996 62.0031 62.7987 61.6349C62.7816 54.5805 57.0561 48.8693 50.0009 48.8693C47.3933 48.8693 44.9659 49.6504 42.9422 50.9905C42.6352 51.1938 42.5512 51.6074 42.7544 51.9144C42.9577 52.2214 43.3714 52.3055 43.6784 52.1022C45.4907 50.9021 47.6634 50.2026 50.0009 50.2026C56.3211 50.2026 61.45 55.319 61.4653 61.6382C61.4662 62.0064 61.7654 62.3041 62.1336 62.3032Z" fill="#0A855C"/>
    <path fill-rule="evenodd" clip-rule="evenodd" d="M37.8682 62.3032C38.2364 62.3041 38.5356 62.0063 38.5365 61.6381C38.5437 58.6026 39.7307 55.8455 41.6636 53.7981C41.9164 53.5304 41.9043 53.1085 41.6366 52.8557C41.3688 52.603 40.9469 52.6151 40.6941 52.8828C38.5377 55.1669 37.2112 58.2467 37.2031 61.635C37.2023 62.0032 37.5 62.3023 37.8682 62.3032Z" fill="#0A855C"/>
    <path fill-rule="evenodd" clip-rule="evenodd" d="M23.6901 9.8333C23.5006 9.8333 23.3495 9.99217 23.3525 10.1816C23.3525 10.4194 23.2508 10.5272 23.0149 10.5272C22.551 10.5272 22.551 11.2198 23.0149 11.2131C23.2421 11.2131 23.3525 11.2757 23.3525 11.5441C23.3452 12.0078 24.0449 12.0078 24.0383 11.5441C24.0383 11.3008 24.1522 11.2131 24.3773 11.2131C24.8411 11.2131 24.8411 10.5206 24.3773 10.5272C24.0715 10.5272 24.0383 10.3523 24.0383 10.1816C24.0413 9.98794 23.8836 9.83024 23.6901 9.8333Z" fill="#16162F"/>
    <path fill-rule="evenodd" clip-rule="evenodd" d="M32.0247 3.83331C31.7734 3.83331 31.5728 4.04415 31.5767 4.2955C31.5767 4.61106 31.4419 4.75421 31.1287 4.75421C30.5131 4.73965 30.5131 5.67328 31.1287 5.66454C31.4302 5.66454 31.5767 5.74757 31.5767 6.10362C31.568 6.71917 32.4957 6.71917 32.487 6.10362C32.487 5.78062 32.6381 5.66454 32.9368 5.66454C33.5524 5.6791 33.5524 4.74533 32.9368 4.75421C32.5309 4.75421 32.487 4.52194 32.487 4.2955C32.4899 4.03847 32.2817 3.82923 32.0247 3.83331Z" fill="#16162F"/>
    <path fill-rule="evenodd" clip-rule="evenodd" d="M61.6901 0.500043C61.5006 0.502955 61.3495 0.658914 61.3525 0.848371C61.3525 1.08618 61.2508 1.19394 61.0149 1.19394C60.551 1.19394 60.551 1.88654 61.0149 1.87985C61.2421 1.87985 61.3525 1.94242 61.3525 2.21066C61.3452 2.67448 62.0449 2.67448 62.0383 2.21066C62.0383 1.96733 62.1522 1.87985 62.3773 1.87985C62.8411 1.87985 62.8411 1.18739 62.3773 1.19394C62.0715 1.19394 62.0383 1.01904 62.0383 0.848371C62.0413 0.654837 61.8837 0.497014 61.6901 0.500043V0.500043Z" fill="#0A855C"/>
    <path fill-rule="evenodd" clip-rule="evenodd" d="M81.2865 3.5047C81.0351 3.5047 80.8345 3.71562 80.8384 3.96697C80.8384 4.28254 80.7036 4.42569 80.3904 4.42569C79.7748 4.41113 79.7748 5.34467 80.3904 5.33593C80.692 5.33593 80.8384 5.41896 80.8384 5.77501C80.8297 6.39056 81.7574 6.39056 81.7487 5.77501C81.7487 5.45216 81.8998 5.33593 82.1985 5.33593C82.8141 5.35049 82.8141 4.41695 82.1985 4.42569C81.7927 4.42569 81.7487 4.19356 81.7487 3.96697C81.7516 3.71009 81.5434 3.50062 81.2865 3.5047Z" fill="#16162F"/>
    <path fill-rule="evenodd" clip-rule="evenodd" d="M77.4781 15.1192C77.2887 15.1192 77.1376 15.2781 77.1405 15.4674C77.1405 15.7052 77.0389 15.8131 76.803 15.8131C76.3391 15.8131 76.3391 16.5055 76.803 16.499C77.0302 16.499 77.1405 16.5616 77.1405 16.8298C77.1333 17.2936 77.833 17.2936 77.8264 16.8298C77.8264 16.5865 77.9403 16.499 78.1654 16.499C78.6292 16.499 78.6292 15.8064 78.1654 15.8131C77.8596 15.8131 77.8264 15.6382 77.8264 15.4674C77.8293 15.2739 77.6717 15.1161 77.4781 15.1192V15.1192Z" fill="#0A855C"/>
    <path fill-rule="evenodd" clip-rule="evenodd" d="M76.9924 26.5313C76.6474 26.5313 76.3721 26.8206 76.3775 27.1656C76.3775 27.5988 76.1924 27.7951 75.7626 27.7951C74.9177 27.7806 74.9177 29.0566 75.7626 29.0446C76.1764 29.0446 76.3775 29.1596 76.3775 29.6472C76.3658 30.4919 77.6387 30.4919 77.6268 29.6472C77.6268 29.204 77.8342 29.0446 78.2442 29.0446C79.089 29.0592 79.089 27.7832 78.2442 27.7951C77.6871 27.7951 77.6268 27.4765 77.6268 27.1656C77.6312 26.813 77.345 26.5258 76.9924 26.5313V26.5313Z" fill="#0A855C"/>
    <path fill-rule="evenodd" clip-rule="evenodd" d="M30.6908 11.8333C30.4394 11.8333 30.2388 12.0441 30.2427 12.2955C30.2427 12.6111 30.1079 12.7542 29.7947 12.7542C29.1791 12.7397 29.1791 13.6733 29.7947 13.6645C30.0962 13.6645 30.2427 13.7475 30.2427 14.1037C30.234 14.7191 31.1617 14.7191 31.153 14.1037C31.153 13.7807 31.3041 13.6645 31.6028 13.6645C32.2184 13.6791 32.2184 12.7455 31.6028 12.7542C31.197 12.7542 31.153 12.5221 31.153 12.2955C31.1559 12.0386 30.9477 11.8292 30.6908 11.8333Z" fill="#16162F"/>
    <path fill-rule="evenodd" clip-rule="evenodd" d="M50.3824 0.500044C50.1881 0.502957 50.0331 0.662983 50.0361 0.85726C50.0361 1.10115 49.9318 1.21181 49.6898 1.21181C49.2141 1.20453 49.2141 1.92211 49.6898 1.91531C49.9229 1.91531 50.0361 1.97987 50.0361 2.25475C50.0303 2.73044 50.7464 2.73044 50.7396 2.25475C50.7396 2.00516 50.8566 1.91531 51.0873 1.91531C51.563 1.92259 51.563 1.20501 51.0873 1.21181C50.7736 1.21181 50.7396 1.03233 50.7396 0.85726C50.7411 0.658673 50.5809 0.496928 50.3824 0.500044Z" fill="#16162F"/>
    <path d="M15.7752 63.0392C15.6515 63.0374 15.5286 63.0603 15.4138 63.1064C15.299 63.1526 15.1945 63.2211 15.1063 63.3079C15.0182 63.3948 14.9482 63.4984 14.9005 63.6125C14.8527 63.7267 14.8281 63.8492 14.8281 63.973C14.8281 64.0967 14.8527 64.2193 14.9005 64.3334C14.9482 64.4476 15.0182 64.5511 15.1063 64.638C15.1945 64.7249 15.299 64.7934 15.4138 64.8395C15.5286 64.8857 15.6515 64.9085 15.7752 64.9068H90.1379C90.2617 64.9085 90.3845 64.8857 90.4993 64.8395C90.6142 64.7934 90.7187 64.7249 90.8068 64.638C90.8949 64.5511 90.9649 64.4476 91.0127 64.3334C91.0604 64.2193 91.085 64.0967 91.085 63.973C91.085 63.8492 91.0604 63.7267 91.0127 63.6125C90.9649 63.4984 90.8949 63.3948 90.8068 63.3079C90.7187 63.2211 90.6142 63.1526 90.4993 63.1064C90.3845 63.0603 90.2617 63.0374 90.1379 63.0392H15.7752V63.0392Z" fill="#16162F"/>
    <path d="M95.1971 63.0392C95.0734 63.0374 94.9505 63.0603 94.8357 63.1064C94.7209 63.1526 94.6163 63.2211 94.5282 63.3079C94.4401 63.3948 94.3701 63.4984 94.3224 63.6125C94.2746 63.7267 94.25 63.8492 94.25 63.973C94.25 64.0967 94.2746 64.2193 94.3224 64.3334C94.3701 64.4476 94.4401 64.5511 94.5282 64.638C94.6163 64.7249 94.7209 64.7934 94.8357 64.8395C94.9505 64.8857 95.0734 64.9085 95.1971 64.9068H99.0528C99.1765 64.9085 99.2994 64.8857 99.4142 64.8395C99.529 64.7934 99.6335 64.7249 99.7217 64.638C99.8098 64.5511 99.8798 64.4476 99.9275 64.3334C99.9753 64.2193 99.9999 64.0967 99.9999 63.973C99.9999 63.8492 99.9753 63.7267 99.9275 63.6125C99.8798 63.4984 99.8098 63.3948 99.7217 63.3079C99.6335 63.2211 99.529 63.1526 99.4142 63.1064C99.2994 63.0603 99.1765 63.0374 99.0528 63.0392H95.1971Z" fill="#16162F"/>
    <path d="M0.94712 63.0392C0.823377 63.0374 0.700521 63.0603 0.585691 63.1064C0.470861 63.1526 0.366347 63.2211 0.278223 63.3079C0.190099 63.3948 0.120122 63.4984 0.0723589 63.6125C0.0245961 63.7267 0 63.8492 0 63.973C0 64.0967 0.0245961 64.2193 0.0723589 64.3334C0.120122 64.4476 0.190099 64.5511 0.278223 64.638C0.366347 64.7249 0.470861 64.7934 0.585691 64.8395C0.700521 64.8857 0.823377 64.9085 0.94712 64.9068H11.5985C11.7222 64.9085 11.8451 64.8857 11.9599 64.8395C12.0748 64.7934 12.1793 64.7249 12.2674 64.638C12.3555 64.5511 12.4255 64.4476 12.4733 64.3334C12.521 64.2193 12.5456 64.0967 12.5456 63.973C12.5456 63.8492 12.521 63.7267 12.4733 63.6125C12.4255 63.4984 12.3555 63.3948 12.2674 63.3079C12.1793 63.2211 12.0748 63.1526 11.9599 63.1064C11.8451 63.0603 11.7222 63.0374 11.5985 63.0392H0.94712Z" fill="#16162F"/>
    <path fill-rule="evenodd" clip-rule="evenodd" d="M22.5877 67.1668C22.4237 67.1656 22.261 67.1819 22.1089 67.2148C21.9568 67.2478 21.8183 67.2967 21.7016 67.3587C21.5848 67.4207 21.4921 67.4946 21.4289 67.5761C21.3656 67.6576 21.333 67.7451 21.333 67.8334C21.333 67.9218 21.3656 68.0092 21.4289 68.0907C21.4921 68.1722 21.5848 68.2461 21.7016 68.3081C21.8183 68.3702 21.9568 68.4191 22.1089 68.452C22.261 68.4849 22.4237 68.5013 22.5877 68.5H71.4117C71.5756 68.5013 71.7384 68.4849 71.8905 68.452C72.0426 68.4191 72.181 68.3702 72.2978 68.3081C72.4145 68.2461 72.5072 68.1722 72.5705 68.0907C72.6338 68.0092 72.6663 67.9218 72.6663 67.8334C72.6663 67.7451 72.6338 67.6576 72.5705 67.5761C72.5072 67.4946 72.4145 67.4207 72.2978 67.3587C72.181 67.2967 72.0426 67.2478 71.8905 67.2148C71.7384 67.1819 71.5756 67.1656 71.4117 67.1668H22.5877V67.1668Z" fill="#0A855C"/>
    <path fill-rule="evenodd" clip-rule="evenodd" d="M38.2997 70.5099C38.1759 70.5081 38.0531 70.531 37.9382 70.5771C37.8234 70.6233 37.7189 70.6918 37.6308 70.7787C37.5426 70.8655 37.4727 70.9691 37.4249 71.0832C37.3771 71.1974 37.3525 71.3199 37.3525 71.4437C37.3525 71.5674 37.3771 71.69 37.4249 71.8041C37.4727 71.9183 37.5426 72.0218 37.6308 72.1087C37.7189 72.1956 37.8234 72.2641 37.9382 72.3102C38.0531 72.3564 38.1759 72.3793 38.2997 72.3775H48.1267C48.2504 72.3793 48.3732 72.3564 48.4881 72.3102C48.6029 72.2641 48.7074 72.1956 48.7955 72.1087C48.8837 72.0218 48.9536 71.9183 49.0014 71.8041C49.0492 71.69 49.0738 71.5674 49.0738 71.4437C49.0738 71.3199 49.0492 71.1974 49.0014 71.0832C48.9536 70.9691 48.8837 70.8655 48.7955 70.7787C48.7074 70.6918 48.6029 70.6233 48.4881 70.5771C48.3732 70.531 48.2504 70.5081 48.1267 70.5099H38.2997Z" fill="#0A855C"/>
    <path fill-rule="evenodd" clip-rule="evenodd" d="M53.2411 70.5099C53.1173 70.5081 52.9945 70.531 52.8796 70.5771C52.7648 70.6233 52.6603 70.6918 52.5722 70.7787C52.484 70.8655 52.4141 70.9691 52.3663 71.0832C52.3185 71.1974 52.2939 71.3199 52.2939 71.4437C52.2939 71.5674 52.3185 71.69 52.3663 71.8041C52.4141 71.9183 52.484 72.0218 52.5722 72.1087C52.6603 72.1956 52.7648 72.2641 52.8796 72.3102C52.9945 72.3564 53.1173 72.3793 53.2411 72.3775H63.0681C63.1918 72.3793 63.3146 72.3564 63.4295 72.3102C63.5443 72.2641 63.6488 72.1956 63.7369 72.1087C63.8251 72.0218 63.895 71.9183 63.9428 71.8041C63.9906 71.69 64.0152 71.5674 64.0152 71.4437C64.0152 71.3199 63.9906 71.1974 63.9428 71.0832C63.895 70.9691 63.8251 70.8655 63.7369 70.7787C63.6488 70.6918 63.5443 70.6233 63.4295 70.5771C63.3146 70.531 63.1918 70.5081 63.0681 70.5099H53.2411Z" fill="#0A855C"/>
    <path fill-rule="evenodd" clip-rule="evenodd" d="M45.6141 73.8333C45.4904 73.8316 45.3675 73.8545 45.2527 73.9006C45.1379 73.9467 45.0333 74.0153 44.9452 74.1021C44.8571 74.189 44.7871 74.2926 44.7394 74.4067C44.6916 74.5209 44.667 74.6434 44.667 74.7672C44.667 74.8909 44.6916 75.0134 44.7394 75.1276C44.7871 75.2418 44.8571 75.3453 44.9452 75.4322C45.0333 75.5191 45.1379 75.5876 45.2527 75.6337C45.3675 75.6799 45.4904 75.7027 45.6141 75.701H55.4411C55.5648 75.7027 55.6877 75.6799 55.8025 75.6337C55.9174 75.5876 56.0219 75.5191 56.11 75.4322C56.1981 75.3453 56.2681 75.2418 56.3159 75.1276C56.3636 75.0134 56.3882 74.8909 56.3882 74.7672C56.3882 74.6434 56.3636 74.5209 56.3159 74.4067C56.2681 74.2926 56.1981 74.189 56.11 74.1021C56.0219 74.0153 55.9174 73.9467 55.8025 73.9006C55.6877 73.8545 55.5648 73.8316 55.4411 73.8333H45.6141Z" fill="#0A855C"/>
</svg>