<svg width="137" height="106" viewBox="0 0 137 106" fill="none" xmlns="http://www.w3.org/2000/svg">
<path d="M24.1361 85.7785C23.9513 85.7759 23.7678 85.8099 23.5963 85.8785C23.4249 85.9471 23.2688 86.049 23.1372 86.1782C23.0056 86.3075 22.9011 86.4614 22.8297 86.6312C22.7584 86.801 22.7217 86.9833 22.7217 87.1673C22.7217 87.3514 22.7584 87.5336 22.8297 87.7034C22.9011 87.8732 23.0056 88.0272 23.1372 88.1564C23.2688 88.2856 23.4249 88.3875 23.5963 88.4562C23.7678 88.5248 23.9513 88.5588 24.1361 88.5562H135.194C135.379 88.5588 135.562 88.5248 135.734 88.4562C135.905 88.3875 136.061 88.2856 136.193 88.1564C136.324 88.0272 136.429 87.8732 136.5 87.7034C136.572 87.5336 136.608 87.3514 136.608 87.1673C136.608 86.9833 136.572 86.801 136.5 86.6312C136.429 86.4614 136.324 86.3075 136.193 86.1782C136.061 86.049 135.905 85.9471 135.734 85.8785C135.562 85.8099 135.379 85.7759 135.194 85.7785H24.1361Z" fill="#16162F"/>
<path d="M1.75821 85.7785C1.59382 85.7759 1.43061 85.8099 1.27807 85.8785C1.12552 85.9471 0.986676 86.049 0.869606 86.1782C0.752537 86.3075 0.659577 86.4614 0.596126 86.6312C0.532675 86.801 0.5 86.9833 0.5 87.1673C0.5 87.3514 0.532675 87.5336 0.596126 87.7034C0.659577 87.8732 0.752537 88.0272 0.869606 88.1564C0.986676 88.2856 1.12552 88.3875 1.27807 88.4562C1.43061 88.5248 1.59382 88.5588 1.75821 88.5562H15.9081C16.0725 88.5588 16.2357 88.5248 16.3883 88.4562C16.5408 88.3875 16.6797 88.2856 16.7967 88.1564C16.9138 88.0272 17.0068 87.8732 17.0702 87.7034C17.1337 87.5336 17.1663 87.3514 17.1663 87.1673C17.1663 86.9833 17.1337 86.801 17.0702 86.6312C17.0068 86.4614 16.9138 86.3075 16.7967 86.1782C16.6797 86.049 16.5408 85.9471 16.3883 85.8785C16.2357 85.8099 16.0725 85.7759 15.9081 85.7785H1.75821Z" fill="#16162F"/>
<path fill-rule="evenodd" clip-rule="evenodd" d="M36.9139 91.3135C36.7286 91.3124 36.545 91.3481 36.3735 91.4183C36.202 91.4884 36.046 91.5918 35.9146 91.7224C35.7832 91.8531 35.6789 92.0084 35.6078 92.1795C35.5366 92.3506 35.5 92.534 35.5 92.7193C35.5 92.9046 35.5366 93.088 35.6078 93.2591C35.6789 93.4302 35.7832 93.5856 35.9146 93.7162C36.046 93.8469 36.202 93.9502 36.3735 94.0204C36.545 94.0905 36.7286 94.1262 36.9139 94.1251H92.3947C92.58 94.1262 92.7637 94.0905 92.9352 94.0204C93.1067 93.9502 93.2626 93.8469 93.394 93.7162C93.5254 93.5856 93.6297 93.4302 93.7009 93.2591C93.772 93.088 93.8087 92.9046 93.8087 92.7193C93.8087 92.534 93.772 92.3506 93.7009 92.1795C93.6297 92.0084 93.5254 91.8531 93.394 91.7224C93.2626 91.5918 93.1067 91.4884 92.9352 91.4183C92.7637 91.3481 92.58 91.3124 92.3947 91.3135H36.9139Z" fill="#0A855C"/>
<path fill-rule="evenodd" clip-rule="evenodd" d="M28.4089 96.7785C28.0289 96.7757 27.6515 96.8124 27.2989 96.8865C26.9462 96.9606 26.6252 97.0706 26.3545 97.2102C26.0839 97.3497 25.8689 97.516 25.7222 97.6994C25.5756 97.8828 25.5 98.0796 25.5 98.2783C25.5 98.4771 25.5756 98.6739 25.7222 98.8572C25.8689 99.0406 26.0839 99.2069 26.3545 99.3465C26.6252 99.486 26.9462 99.596 27.2989 99.6701C27.6515 99.7443 28.0289 99.781 28.4089 99.7782H58.5911C58.9711 99.781 59.3485 99.7443 59.7011 99.6701C60.0538 99.596 60.3748 99.486 60.6455 99.3465C60.9161 99.2069 61.1311 99.0406 61.2778 98.8572C61.4245 98.6739 61.5 98.4771 61.5 98.2783C61.5 98.0796 61.4245 97.8828 61.2778 97.6994C61.1311 97.516 60.9161 97.3497 60.6455 97.2102C60.3748 97.0706 60.0538 96.9606 59.7011 96.8865C59.3485 96.8124 58.9711 96.7757 58.5911 96.7785H28.4089Z" fill="#0A855C"/>
<path fill-rule="evenodd" clip-rule="evenodd" d="M81.9033 96.8997C81.7203 96.896 81.5385 96.9292 81.3684 96.9967C81.1983 97.0641 81.0434 97.1649 80.9127 97.293C80.782 97.4211 80.6782 97.5739 80.6074 97.7426C80.5365 97.9113 80.5 98.0923 80.5 98.2753C80.5 98.4583 80.5365 98.6397 80.6074 98.8084C80.6782 98.9771 80.782 99.1299 80.9127 99.258C81.0434 99.3861 81.1983 99.4868 81.3684 99.5543C81.5385 99.6218 81.7203 99.6546 81.9033 99.651H101.335C101.517 99.6546 101.699 99.6218 101.869 99.5543C102.039 99.4868 102.194 99.3861 102.325 99.258C102.456 99.1299 102.56 98.9771 102.63 98.8084C102.701 98.6397 102.738 98.4583 102.738 98.2753C102.738 98.0923 102.701 97.9113 102.63 97.7426C102.56 97.5739 102.456 97.4211 102.325 97.293C102.194 97.1649 102.039 97.0641 101.869 96.9967C101.699 96.9292 101.517 96.896 101.335 96.8997H81.9033Z" fill="#0A855C"/>
<path fill-rule="evenodd" clip-rule="evenodd" d="M65.9964 102.444C65.7862 102.442 65.5775 102.476 65.3825 102.545C65.1875 102.613 65.0099 102.715 64.8603 102.844C64.7106 102.973 64.5917 103.127 64.5106 103.297C64.4295 103.467 64.3877 103.649 64.3877 103.833C64.3877 104.017 64.4295 104.2 64.5106 104.369C64.5917 104.539 64.7106 104.693 64.8603 104.822C65.0099 104.952 65.1875 105.054 65.3825 105.122C65.5775 105.191 65.7862 105.225 65.9964 105.222H82.2231C82.4332 105.225 82.6419 105.191 82.837 105.122C83.032 105.054 83.2095 104.952 83.3592 104.822C83.5089 104.693 83.6277 104.539 83.7089 104.369C83.79 104.2 83.8318 104.017 83.8318 103.833C83.8318 103.649 83.79 103.467 83.7089 103.297C83.6277 103.127 83.5089 102.973 83.3592 102.844C83.2095 102.715 83.032 102.613 82.837 102.545C82.6419 102.476 82.4332 102.442 82.2231 102.444H65.9964Z" fill="#0A855C"/>
<path fill-rule="evenodd" clip-rule="evenodd" d="M108.694 7.51181C108.331 7.51181 108.041 7.81679 108.046 8.1802C108.046 8.63674 107.85 8.84409 107.398 8.84409C106.507 8.82302 106.507 10.1737 107.398 10.1608C107.834 10.1608 108.046 10.2808 108.046 10.7962C108.025 11.6867 109.376 11.6867 109.363 10.7962C109.363 10.3289 109.582 10.1608 110.014 10.1608C110.904 10.1819 110.904 8.83103 110.014 8.84409C109.427 8.84409 109.363 8.50801 109.363 8.1802C109.363 7.80857 109.066 7.5057 108.694 7.51181Z" fill="#16162F"/>
<path fill-rule="evenodd" clip-rule="evenodd" d="M37.6349 53.3893C37.1356 53.3893 36.7374 53.8078 36.7452 54.3069C36.7452 54.9336 36.4774 55.2178 35.8557 55.2178C34.6334 55.1967 34.6334 57.0429 35.8557 57.0254C36.4545 57.0254 36.7452 57.1917 36.7452 57.897C36.7241 59.1191 38.5699 59.1191 38.5526 57.897C38.5526 57.2559 38.8526 57.0254 39.4458 57.0254C40.668 57.0465 40.668 55.2005 39.4458 55.2178C38.64 55.2178 38.5526 54.7567 38.5526 54.3069C38.5526 53.7968 38.1449 53.3813 37.6349 53.3893Z" fill="#0A855C"/>
<path fill-rule="evenodd" clip-rule="evenodd" d="M46.6625 31.1612C46.3884 31.1612 46.1698 31.3908 46.1742 31.6651C46.1742 32.0092 46.0267 32.1651 45.6856 32.1651C45.0146 32.144 45.0146 33.1671 45.6856 33.1574C46.0145 33.1574 46.1742 33.2479 46.1742 33.6362C46.1531 34.307 47.1759 34.307 47.1665 33.6362C47.1665 33.2842 47.3308 33.1574 47.6567 33.1574C48.3277 33.1574 48.3277 32.1556 47.6567 32.1651C47.2143 32.1651 47.1665 31.9118 47.1665 31.6651C47.1665 31.3849 46.9425 31.1568 46.6625 31.1612Z" fill="#0A855C"/>
<path fill-rule="evenodd" clip-rule="evenodd" d="M50.4968 0.778399C50.133 0.778399 49.8429 1.08355 49.8486 1.44718C49.8486 1.90371 49.6526 2.11081 49.2005 2.11081C48.3098 2.08974 48.3098 3.44064 49.2005 3.42779C49.6366 3.42779 49.8486 3.54782 49.8486 4.06314C49.8275 4.95345 51.1781 4.95345 51.1655 4.06314C51.1655 3.59586 51.3842 3.42779 51.8163 3.42779C52.7068 3.44886 52.7068 2.09817 51.8163 2.11081C51.2291 2.11081 51.1655 1.77499 51.1655 1.44718C51.1655 1.07554 50.8684 0.772711 50.4968 0.778399Z" fill="#16162F"/>
<path fill-rule="evenodd" clip-rule="evenodd" d="M89.6552 2.84674C89.3811 2.84674 89.1624 3.07641 89.1666 3.35029C89.1666 3.69432 89.0192 3.85049 88.6783 3.85049C88.0073 3.85049 88.0073 4.85227 88.6783 4.84279C89.007 4.84279 89.1666 4.93332 89.1666 5.32139C89.1456 5.9926 90.1684 5.9926 90.1589 5.32139C90.1589 4.96956 90.3233 4.84279 90.6494 4.84279C91.3204 4.86386 91.3204 3.8408 90.6494 3.85049C90.207 3.85049 90.1589 3.5972 90.1589 3.35029C90.1589 3.0704 89.9352 2.84232 89.6552 2.84674Z" fill="#16162F"/>
<path fill-rule="evenodd" clip-rule="evenodd" d="M112.307 20.1583C111.943 20.1583 111.653 20.4634 111.658 20.8268C111.658 21.2833 111.462 21.4906 111.01 21.4906C110.12 21.4695 110.12 22.8202 111.01 22.8076C111.447 22.8076 111.658 22.9277 111.658 23.4428C111.637 24.3333 112.988 24.3333 112.975 23.4428C112.975 22.9755 113.194 22.8076 113.626 22.8076C114.517 22.8286 114.517 21.4775 113.626 21.4906C113.039 21.4906 112.975 21.1546 112.975 20.8268C112.975 20.4552 112.678 20.1522 112.307 20.1583Z" fill="#0A855C"/>
<path fill-rule="evenodd" clip-rule="evenodd" d="M115.329 42.1475C115.055 42.1475 114.836 42.3776 114.841 42.6514C114.841 42.9955 114.693 43.1515 114.352 43.1515C113.681 43.1305 113.681 44.1533 114.352 44.1438C114.681 44.1438 114.841 44.2345 114.841 44.6225C114.82 45.2935 115.842 45.2935 115.833 44.6225C115.833 44.2705 115.997 44.1438 116.323 44.1438C116.994 44.1438 116.994 43.1418 116.323 43.1515C115.881 43.1515 115.833 42.8984 115.833 42.6514C115.833 42.3715 115.609 42.1433 115.329 42.1475Z" fill="#0A855C"/>
<path fill-rule="evenodd" clip-rule="evenodd" d="M113.833 55.5187C113.334 55.5187 112.936 55.9374 112.944 56.4365C112.944 57.0631 112.676 57.3472 112.054 57.3472C110.832 57.3261 110.832 59.1721 112.054 59.1546C112.653 59.1546 112.944 59.3211 112.944 60.0266C112.923 61.2488 114.768 61.2488 114.751 60.0266C114.751 59.3853 115.051 59.1546 115.644 59.1546C116.866 59.1756 116.866 57.3297 115.644 57.3472C114.838 57.3472 114.751 56.8863 114.751 56.4365C114.751 55.9263 114.343 55.5107 113.833 55.5187Z" fill="#0A855C"/>
<path fill-rule="evenodd" clip-rule="evenodd" d="M45.0223 14.7413C44.6584 14.7413 44.3683 15.0463 44.374 15.4099C44.374 15.8665 44.1781 16.0736 43.7258 16.0736C42.8352 16.0525 42.8352 17.4032 43.7258 17.3906C44.1621 17.3906 44.374 17.5106 44.374 18.0259C44.3529 18.9162 45.7036 18.9162 45.6909 18.0259C45.6909 17.5586 45.9096 17.3906 46.3417 17.3906C47.2322 17.4116 47.2322 16.0609 46.3417 16.0736C45.7546 16.0736 45.6909 15.7378 45.6909 15.4099C45.6909 15.0383 45.3939 14.7354 45.0223 14.7413Z" fill="#16162F"/>
<path fill-rule="evenodd" clip-rule="evenodd" d="M64.3539 4.57331C64.0728 4.57331 63.8485 4.80906 63.8529 5.0901C63.8529 5.44298 63.7012 5.6029 63.3519 5.6029C62.6636 5.6029 62.6636 6.63056 63.3519 6.62066C63.689 6.62066 63.8529 6.71334 63.8529 7.11173C63.8529 7.80001 64.8804 7.80001 64.8707 7.11173C64.8707 6.75063 65.0392 6.62066 65.3735 6.62066C66.0618 6.62066 66.0618 5.59321 65.3735 5.6029C64.9198 5.6029 64.8707 5.34333 64.8707 5.0901C64.8728 4.80274 64.641 4.56867 64.3539 4.57331Z" fill="#0A855C"/>
<path d="M42.4527 38.7784C42.3324 38.7775 42.2125 38.7929 42.0964 38.8241L36.4314 40.3023C36.2646 40.3459 36.1085 40.4214 35.9719 40.5243C35.8354 40.6272 35.7212 40.7555 35.6359 40.9017C35.5507 41.048 35.4961 41.2094 35.4754 41.3764C35.4547 41.5434 35.4682 41.7128 35.5152 41.8747L35.4795 41.7654L35.6577 44.3794C35.0221 44.7748 34.416 45.2156 33.8406 45.7037L31.1888 44.8109C31.025 44.7463 30.8495 44.7147 30.6729 44.7182C30.4963 44.7217 30.3223 44.76 30.1614 44.8311C30.0005 44.9021 29.8561 45.0043 29.737 45.1315C29.6179 45.2586 29.5265 45.408 29.4685 45.5706C29.4104 45.7332 29.3869 45.9056 29.3994 46.0773C29.4118 46.249 29.46 46.4166 29.5409 46.5696C29.6218 46.7226 29.7338 46.8579 29.8701 46.9675C30.0064 47.077 30.1641 47.1583 30.3337 47.2066L33.6268 48.3228C33.8581 48.4009 34.1073 48.414 34.3459 48.3605C34.5844 48.307 34.8027 48.1889 34.9756 48.0201C35.7307 47.2829 36.655 46.6343 37.658 46.0708C37.8687 45.9518 38.0409 45.7776 38.1551 45.5681C38.2694 45.3586 38.3211 45.122 38.3044 44.8853L38.1416 42.4846L41.735 41.5473L42.8243 43.705C42.9319 43.918 43.0986 44.0973 43.3055 44.2227C43.5124 44.3481 43.7513 44.4145 43.995 44.4143C45.152 44.4127 46.2814 44.526 47.3136 44.7962C47.5502 44.8579 47.7998 44.8534 48.0338 44.7832C48.2679 44.713 48.4769 44.5799 48.637 44.3992L50.2097 42.6286L53.4469 44.4736L52.6529 46.6462C52.5696 46.8736 52.5546 47.1194 52.6096 47.3548C52.6646 47.5903 52.7873 47.8056 52.9634 47.9755C53.7462 48.7302 54.4382 49.6309 55.0197 50.6142C55.1423 50.8228 55.3231 50.9932 55.5412 51.1056C55.7592 51.218 56.0055 51.2678 56.2515 51.2491L58.6844 51.0562L59.0916 52.5195C59.1282 52.6883 59.1996 52.8479 59.3015 52.9889C59.4035 53.1298 59.5338 53.2491 59.6846 53.3393C59.8354 53.4296 60.0034 53.489 60.1785 53.5139C60.3536 53.5388 60.5321 53.5286 60.7031 53.4841C60.874 53.4396 61.0339 53.3616 61.1729 53.2549C61.3119 53.1482 61.4272 53.0152 61.5117 52.8636C61.5962 52.7121 61.6481 52.5454 61.6643 52.3737C61.6806 52.202 61.6607 52.0288 61.606 51.8648L60.924 49.3747C60.8451 49.0876 60.6654 48.8367 60.4162 48.6654C60.1669 48.4941 59.8639 48.4134 59.5599 48.4374L56.735 48.6609C56.3148 48.0283 55.8488 47.4297 55.3353 46.8652L56.2616 44.3357C56.3623 44.0575 56.3604 43.7539 56.2564 43.477C56.1524 43.2 55.9527 42.967 55.6916 42.8179L50.5915 39.9062C50.3285 39.7566 50.0201 39.7016 49.7198 39.7505C49.4194 39.7995 49.1462 39.9494 48.9474 40.1742L47.11 42.2424C46.3609 42.1001 45.609 42.0112 44.8552 41.9795L43.603 39.4895C43.497 39.2794 43.3335 39.1019 43.1305 38.9768C42.9275 38.8516 42.6929 38.7836 42.4527 38.7802L42.4527 38.7784ZM29.392 47.1064C29.1581 47.1041 28.9278 47.1633 28.7254 47.2776C28.523 47.392 28.3559 47.5573 28.2417 47.7563L27.9159 48.3017C27.7801 48.5238 27.7171 48.7811 27.7353 49.0391C27.7534 49.297 27.852 49.5434 28.0177 49.7453C27.7355 49.7034 27.4469 49.7529 27.1964 49.8863C26.9459 50.0198 26.7472 50.2296 26.631 50.4837C26.5148 50.7379 26.4874 51.0221 26.5531 51.2928C26.6188 51.5636 26.774 51.806 26.9947 51.9825L29.0917 53.7185C28.9362 54.4595 28.8355 55.2053 28.7965 55.9603L26.2414 57.1408C25.967 57.2685 25.7472 57.4856 25.6198 57.7546C25.4925 58.0236 25.4657 58.3277 25.544 58.6139L27.0761 64.1841C27.155 64.4712 27.3347 64.7225 27.5839 64.8937C27.8332 65.065 28.1362 65.1456 28.4402 65.1216L31.26 64.8981C31.6812 65.5322 32.1499 66.133 32.6648 66.6986L31.7435 69.2779C31.6438 69.5571 31.6472 69.8616 31.7531 70.1387C31.859 70.4158 32.0609 70.648 32.3238 70.7956L37.4137 73.6576C37.6799 73.8076 37.992 73.8609 38.2948 73.8083C38.5975 73.7556 38.8714 73.6004 39.0679 73.3699L40.829 71.3016C41.5858 71.4616 42.3593 71.5611 43.15 71.6091L44.3971 74.0693C44.5291 74.3307 44.7493 74.5398 45.0209 74.6617C45.2924 74.7837 45.5987 74.8109 45.8884 74.7389L51.5687 73.3058C51.8625 73.2313 52.1204 73.059 52.2979 72.819C52.4754 72.5791 52.5613 72.2862 52.5409 71.991L52.3526 69.2034C53.0091 68.7788 53.6202 68.314 54.19 67.8097L56.7859 68.7422C57.0739 68.8454 57.3901 68.8466 57.6788 68.7449C57.9674 68.6433 58.21 68.4455 58.3637 68.1866L61.3006 63.2265C61.4527 62.9708 61.5085 62.6715 61.4583 62.3799C61.4082 62.0884 61.2552 61.8228 61.0258 61.6294L58.9135 59.8487C59.0708 59.1201 59.1716 58.3817 59.2138 57.6315L60.1198 57.2003L60.9443 56.8032L61.7689 56.4114C62.0403 56.2822 62.2572 56.065 62.3825 55.7972C62.5078 55.5294 62.5338 55.2276 62.456 54.9432L62.3491 54.5612C62.2616 54.2446 62.0518 53.9732 61.7636 53.8039C61.4754 53.6346 61.1312 53.5805 60.803 53.6529C60.4748 53.7253 60.1881 53.9187 60.0028 54.1925C59.8176 54.4663 59.7482 54.7992 59.8093 55.1217L59.6617 54.591L58.9694 54.9233L57.4476 55.6525C57.2289 55.7573 57.0448 55.9199 56.9162 56.1215C56.7875 56.3231 56.7194 56.5558 56.7197 56.7933C56.7211 57.9191 56.5771 58.9811 56.282 60.0322C56.217 60.263 56.2203 60.5072 56.2914 60.7362C56.3625 60.9653 56.4987 61.1702 56.6841 61.3271L58.5063 62.8644L56.6535 65.9893L54.4292 65.1858C54.1943 65.1009 53.9392 65.084 53.6946 65.1368C53.4499 65.1896 53.2261 65.3098 53.0499 65.4834C52.2541 66.2673 51.3368 66.9833 50.3573 67.5319C50.1457 67.6503 49.9725 67.8242 49.8573 68.0338C49.7421 68.2434 49.6896 68.4801 49.7058 68.7174L49.8687 71.1081L46.2599 72.0208L45.186 69.8982C45.0784 69.6851 44.9117 69.5055 44.7048 69.3802C44.4978 69.2548 44.259 69.1886 44.0153 69.1889C42.8833 69.1899 41.7213 69.0235 40.6305 68.7322C40.3889 68.6672 40.1331 68.6716 39.8938 68.7446C39.6546 68.8177 39.4421 68.9561 39.2817 69.1439L37.7649 70.9249L34.5582 69.1191L35.3472 66.902C35.4284 66.6759 35.4424 66.4321 35.3874 66.1986C35.3325 65.9651 35.2109 65.7516 35.0367 65.5826C34.2537 64.8278 33.5611 63.9264 32.9804 62.9438C32.8567 62.7353 32.6748 62.5656 32.4558 62.454C32.2368 62.3424 31.9898 62.2938 31.7435 62.3139L29.3106 62.5017L28.3435 58.9801L30.5474 57.9586C30.7697 57.8555 30.9575 57.693 31.089 57.4902C31.2205 57.2874 31.2904 57.0524 31.2905 56.8125C31.2893 55.6778 31.4275 54.5592 31.7181 53.5241C31.7839 53.291 31.7801 53.0444 31.7071 52.8133C31.6341 52.5822 31.4948 52.3762 31.3058 52.2196L28.8932 50.2159C29.1471 50.2429 29.4035 50.1967 29.6306 50.0829C29.8578 49.9691 30.0456 49.7928 30.1707 49.5759L30.4965 49.0304C30.615 48.8386 30.6793 48.6197 30.683 48.3958C30.6866 48.172 30.6295 47.9511 30.5174 47.7557C30.4052 47.5603 30.2421 47.3972 30.0445 47.2831C29.8468 47.1689 29.6218 47.1084 29.392 47.1064ZM42.3255 50.6976C42.16 50.7409 42.0049 50.8156 41.8691 50.9173C41.7332 51.019 41.6193 51.1457 41.5337 51.2904C41.4482 51.435 41.3927 51.5946 41.3704 51.7602C41.3482 51.9257 41.3596 52.0939 41.4041 52.2551C41.4485 52.4163 41.5251 52.5674 41.6295 52.6998C41.7339 52.8322 41.864 52.9432 42.0124 53.0266C42.1609 53.1099 42.3247 53.1641 42.4945 53.1857C42.6644 53.2074 42.837 53.1962 43.0024 53.1529C45.0793 52.6104 47.1946 53.7976 47.7513 55.8214C48.308 57.8452 47.0846 59.9117 45.0078 60.4541C42.931 60.9966 40.8156 59.8044 40.259 57.7807C40.2145 57.6194 40.138 57.4685 40.0336 57.3361C39.9292 57.2037 39.7992 57.0924 39.6507 57.009C39.5023 56.9257 39.3385 56.8717 39.1687 56.85C38.9988 56.8283 38.8262 56.8393 38.6608 56.8826C38.4953 56.9259 38.3403 57.0006 38.2044 57.1024C38.0686 57.2041 37.9546 57.331 37.8691 57.4756C37.7835 57.6202 37.728 57.7797 37.7058 57.9453C37.6836 58.1108 37.695 58.2791 37.7395 58.4403C38.6621 61.7949 42.2426 63.8037 45.6848 62.9044C49.1271 62.0054 51.1935 58.5212 50.2708 55.1667C49.3481 51.8122 45.7677 49.7986 42.3255 50.6976ZM39.6787 52.7065C39.4672 52.7121 39.2602 52.768 39.0757 52.8691C38.8913 52.9702 38.7349 53.1134 38.62 53.2866C38.3572 53.6694 38.1358 54.0775 37.9634 54.507C37.9009 54.6623 37.8704 54.8281 37.8737 54.9949C37.8769 55.1618 37.9139 55.3266 37.9824 55.4795C38.051 55.6324 38.1497 55.7705 38.2731 55.8862C38.3965 56.0019 38.542 56.0928 38.7015 56.1537C38.8609 56.2146 39.0311 56.2444 39.2023 56.2412C39.3735 56.238 39.5424 56.2019 39.6993 56.1351C39.8562 56.0683 39.9981 55.972 40.1168 55.8518C40.2356 55.7316 40.3288 55.5899 40.3913 55.4345C40.4947 55.177 40.6303 54.9303 40.7883 54.7004C40.9261 54.5073 41.0061 54.2807 41.0194 54.0459C41.0327 53.811 40.9788 53.5771 40.8638 53.3703C40.7487 53.1636 40.577 52.992 40.3678 52.8748C40.1585 52.7576 39.92 52.6993 39.6787 52.7065Z" fill="#16162F"/>
<path d="M41.8692 50.9173C42.005 50.8156 42.1601 50.741 42.3255 50.6977C45.7677 49.7987 49.3482 51.8122 50.2709 55.1667C51.1935 58.5213 49.1272 62.0055 45.6849 62.9045C42.2427 63.8038 38.6622 61.7949 37.7395 58.4404C37.6951 58.2792 37.6836 58.1109 37.7059 57.9453C37.7281 57.7798 37.7836 57.6203 37.8691 57.4757C37.9547 57.331 38.0686 57.2041 38.2045 57.1024C38.3403 57.0007 38.4954 56.9259 38.6608 56.8826C38.8263 56.8393 38.9989 56.8284 39.1687 56.8501C39.3386 56.8718 39.5024 56.9257 39.6508 57.0091C39.7992 57.0925 39.9293 57.2038 40.0337 57.3362C40.138 57.4686 40.2146 57.6195 40.259 57.7807C40.8157 59.8045 42.9311 60.9967 45.0079 60.4542C47.0847 59.9118 48.308 57.8453 47.7514 55.8215C47.1947 53.7977 45.0793 52.6105 43.0025 53.1529C42.837 53.1963 42.6645 53.2075 42.4946 53.1858C42.3247 53.1641 42.1609 53.11 42.0125 53.0266C41.8641 52.9432 41.7339 52.8322 41.6296 52.6999C41.5252 52.5675 41.4486 52.4164 41.4041 52.2552C41.3597 52.0939 41.3482 51.9258 41.3705 51.7602C41.3927 51.5947 41.4482 51.4351 41.5338 51.2904C41.6193 51.1458 41.7333 51.019 41.8692 50.9173Z" fill="#0A855C"/>
<path d="M39.0758 52.8691C39.2603 52.768 39.4672 52.7122 39.6788 52.7065C39.92 52.6994 40.1586 52.7576 40.3678 52.8749C40.5771 52.9921 40.7488 53.1636 40.8639 53.3704C40.9789 53.5772 41.0328 53.8111 41.0195 54.0459C41.0061 54.2808 40.9261 54.5073 40.7884 54.7005C40.6304 54.9303 40.4948 55.1771 40.3914 55.4346C40.3289 55.59 40.2356 55.7316 40.1169 55.8519C39.9981 55.9721 39.8563 56.0684 39.6993 56.1352C39.5424 56.202 39.3735 56.238 39.2023 56.2412C39.0311 56.2444 38.8609 56.2147 38.7015 56.1538C38.5421 56.0929 38.3965 56.002 38.2732 55.8863C38.1498 55.7705 38.051 55.6325 37.9825 55.4795C37.914 55.3266 37.877 55.1618 37.8737 54.995C37.8705 54.8282 37.901 54.6624 37.9635 54.507C38.1358 54.0776 38.3573 53.6694 38.6201 53.2867C38.7349 53.1135 38.8913 52.9702 39.0758 52.8691Z" fill="#0A855C"/>
<path d="M91.2898 16.7851C90.9948 16.7908 90.7108 16.9001 90.486 17.0944C90.2611 17.2888 90.1093 17.5562 90.0563 17.8514L90.0763 17.724L88.2435 22.4265C86.7052 22.5929 85.1828 22.8973 83.699 23.3609L80.1183 19.7653C79.9994 19.642 79.8575 19.5439 79.7009 19.4769C79.5443 19.41 79.3762 19.3755 79.2063 19.3754C79.0365 19.3752 78.8683 19.4095 78.7116 19.4762C78.5549 19.5429 78.4128 19.6406 78.2937 19.7637C78.1746 19.8869 78.0808 20.033 78.0178 20.1935C77.9549 20.3539 77.9239 20.5254 77.9269 20.6981C77.9298 20.8708 77.9666 21.0412 78.0351 21.1993C78.1035 21.3574 78.2022 21.5 78.3255 21.6189L82.3806 25.6815C82.5518 25.8535 82.7673 25.973 83.0023 26.026C83.2373 26.0791 83.4822 26.0635 83.709 25.9813C85.4445 25.352 87.3439 25.0057 89.2872 24.8486C89.5248 24.8287 89.7522 24.7416 89.9437 24.5971C90.1352 24.4527 90.2832 24.2567 90.3709 24.0312L92.1188 19.552L99.4749 20.9335L99.5348 25.7426C99.5383 25.9861 99.6089 26.2238 99.7387 26.4285C99.8685 26.6332 100.052 26.7967 100.269 26.9004C102.029 27.7486 103.676 28.7662 105.078 29.9828C105.261 30.1425 105.485 30.2462 105.724 30.2821C105.962 30.318 106.206 30.2846 106.427 30.1856L110.666 28.2912L114.906 34.6289L111.675 37.9146C111.503 38.0891 111.384 38.3097 111.331 38.5508C111.278 38.7918 111.293 39.0433 111.376 39.2757C112.017 41.0812 112.399 43.0429 112.554 45.0395C112.573 45.2847 112.66 45.5194 112.805 45.7162C112.95 45.9131 113.147 46.0641 113.373 46.1517L117.768 47.8477L117.179 51.103C117.148 51.2711 117.15 51.4436 117.185 51.6107C117.221 51.7778 117.288 51.9363 117.383 52.0771C117.478 52.2178 117.6 52.338 117.741 52.431C117.882 52.5239 118.04 52.5877 118.205 52.6187C118.539 52.6813 118.883 52.6065 119.163 52.4108C119.301 52.3139 119.419 52.1903 119.511 52.0469C119.602 51.9035 119.665 51.7432 119.695 51.5751L120.48 47.2535C120.533 46.9548 120.481 46.6466 120.335 46.3823C120.188 46.1179 119.955 45.9142 119.675 45.8064L114.931 43.9679C114.757 42.3675 114.436 40.7927 113.962 39.2654L117.463 35.7108C117.674 35.497 117.805 35.2151 117.833 34.9138C117.861 34.6125 117.785 34.3106 117.618 34.0602L112.185 25.9349C112.016 25.6838 111.767 25.5006 111.479 25.4171C111.192 25.3336 110.885 25.3551 110.611 25.4779L106.002 27.5346C104.778 26.5648 103.461 25.7289 102.082 25.0159L102.022 19.8308C102.017 19.53 101.91 19.24 101.719 19.0104C101.528 18.7808 101.264 18.6256 100.973 18.5716L91.5445 16.8043C91.4607 16.787 91.3753 16.7783 91.2898 16.7783L91.2898 16.7851ZM75.404 22.0615C75.1581 22.0726 74.9205 22.1556 74.7199 22.3006L73.8459 22.9099C73.7075 23.0065 73.5892 23.1299 73.4977 23.2731C73.4062 23.4163 73.3433 23.5765 73.3127 23.7444C73.2821 23.9123 73.2843 24.0846 73.3192 24.2516C73.3541 24.4187 73.421 24.5771 73.5161 24.7179C73.6112 24.8586 73.7326 24.9789 73.8734 25.0719C74.0143 25.1649 74.1717 25.2289 74.3368 25.26C74.502 25.2911 74.6715 25.2888 74.8357 25.2533C75 25.2178 75.1558 25.1498 75.2942 25.053L76.1681 24.4437C76.4008 24.2864 76.5764 24.056 76.668 23.7876C76.7597 23.5193 76.7625 23.2277 76.6758 22.9576C76.5892 22.6875 76.4179 22.4538 76.1882 22.2921C75.9586 22.1303 75.6831 22.049 75.404 22.0615ZM71.2441 25.0067C71.0331 25.0143 70.8272 25.075 70.6449 25.1832C70.4626 25.2914 70.3094 25.4438 70.1992 25.6269C70.0889 25.8099 70.0249 26.0178 70.0129 26.2322C70.0009 26.4465 70.0413 26.6606 70.1304 26.8552L72.1579 31.456C71.1818 32.71 70.3338 34.0625 69.611 35.4933H64.5272C64.2278 35.4932 63.9379 35.5999 63.708 35.7947C63.478 35.9896 63.3225 36.2602 63.2687 36.5596L61.5208 46.2288C61.4673 46.5269 61.5178 46.8347 61.6637 47.0989C61.8096 47.3632 62.0417 47.5674 62.3198 47.6761L67.0741 49.5146C67.2484 51.1137 67.5644 52.6913 68.0379 54.2168L64.5122 57.8581C64.303 58.0731 64.1741 58.3554 64.1477 58.6566C64.1213 58.9579 64.1989 59.2592 64.3674 59.5085L69.8208 67.5525C69.9919 67.8045 70.2451 67.9871 70.5356 68.0679C70.8261 68.1487 71.1354 68.1227 71.4089 67.9943L75.9234 65.8716C77.1453 66.8723 78.4744 67.7686 79.8986 68.5275L79.9785 73.6566C79.9834 73.9544 80.0888 74.2414 80.277 74.4697C80.4651 74.698 80.7247 74.8539 81.0122 74.9109L90.4259 76.7543C90.7187 76.8124 91.0223 76.7644 91.284 76.6188C91.5458 76.4732 91.7492 76.2391 91.8591 75.957L93.7419 71.1225C95.3384 70.9301 96.8945 70.5688 98.3862 70.0764L101.862 73.6972C102.073 73.9159 102.353 74.0518 102.652 74.0812C102.952 74.1107 103.252 74.0319 103.5 73.8584L111.41 68.318C111.655 68.1463 111.834 67.8931 111.915 67.602C111.996 67.3109 111.975 67.0003 111.855 66.7235L109.837 62.0464C110.806 60.8126 111.651 59.4867 112.374 58.065L114.477 58.039H114.482L115.99 58.0129L117.493 57.9869C117.788 57.9812 118.072 57.8718 118.297 57.6775C118.522 57.4831 118.674 57.2157 118.727 56.9205L118.847 56.2606C118.877 56.0926 118.874 55.9198 118.839 55.7528C118.803 55.5858 118.736 55.4277 118.64 55.2872C118.545 55.1467 118.423 55.0266 118.282 54.9339C118.141 54.8413 117.983 54.7778 117.818 54.7471C117.653 54.7165 117.483 54.7191 117.319 54.7551C117.155 54.791 116.999 54.8596 116.861 54.9568C116.723 55.0539 116.604 55.1776 116.513 55.3211C116.422 55.4647 116.36 55.625 116.33 55.7931L116.4 55.4072H115.945L114.442 55.4332L111.67 55.4694C111.431 55.4729 111.197 55.545 110.996 55.6769C110.794 55.8089 110.634 55.9955 110.532 56.2159C109.692 58.0172 108.669 59.6235 107.425 61.091C107.268 61.2771 107.166 61.5047 107.131 61.7474C107.095 61.99 107.128 62.238 107.226 62.4625L109.088 66.7787L102.936 71.0901L99.7247 67.7436C99.5534 67.5651 99.3351 67.4407 99.0961 67.3849C98.857 67.3291 98.6071 67.3441 98.3764 67.4287C96.5728 68.0917 94.628 68.5553 92.6982 68.7087C92.4597 68.7278 92.2312 68.8143 92.0388 68.9589C91.8463 69.1034 91.6976 69.3001 91.6095 69.5263L89.8716 73.9949L82.5155 72.5527L82.4456 67.8099C82.4427 67.5669 82.3728 67.3296 82.2439 67.125C82.115 66.9203 81.9323 66.7565 81.7165 66.652C79.966 65.8078 78.3102 64.6742 76.8574 63.4019C76.6714 63.2381 76.443 63.1323 76.1994 63.0973C75.9558 63.0622 75.7074 63.0993 75.484 63.2042L71.3141 65.1695L67.0742 58.9131L70.3303 55.5516C70.4986 55.3769 70.6151 55.1574 70.6664 54.9184C70.7176 54.6794 70.7015 54.4305 70.6199 54.2004C69.978 52.3949 69.5957 50.4322 69.4414 48.4366C69.4222 48.1914 69.3351 47.9568 69.1902 47.7599C69.0452 47.5631 68.8483 47.4121 68.6223 47.3245L64.2277 45.6285L65.591 38.0872H70.2953C70.5362 38.0876 70.7722 38.0188 70.9763 37.8887C71.1804 37.7586 71.3442 37.5726 71.4488 37.352C72.2928 35.5429 73.3377 33.8503 74.57 32.3956C74.7291 32.2085 74.8324 31.9792 74.8678 31.7345C74.9031 31.4898 74.8692 31.24 74.7698 31.0143L72.4626 25.7938C72.3611 25.5531 72.1904 25.3492 71.973 25.2087C71.7556 25.0683 71.5015 24.9978 71.2441 25.0067ZM92.5034 37.0018C92.1855 37.0061 91.8807 37.1308 91.6483 37.3514C91.416 37.5719 91.2727 37.8725 91.2465 38.1947C91.2203 38.5168 91.3131 38.8373 91.5067 39.0937C91.7003 39.35 91.9808 39.5238 92.2936 39.5812C96.2043 40.3136 98.7818 44.1212 98.0616 48.0975C97.3415 52.0743 93.5974 54.7004 89.6868 53.9679C85.7761 53.236 83.1986 49.4286 83.9187 45.452C83.9493 45.2839 83.9469 45.1113 83.9119 44.9442C83.8768 44.777 83.8098 44.6185 83.7145 44.4778C83.6192 44.337 83.4976 44.2167 83.3565 44.1237C83.2155 44.0307 83.0579 43.9668 82.8926 43.9358C82.7273 43.9048 82.5576 43.9071 82.3933 43.9428C82.2289 43.9785 82.073 44.0468 81.9346 44.1437C81.7962 44.2406 81.6779 44.3643 81.5864 44.5078C81.495 44.6512 81.4323 44.8115 81.4018 44.9796C80.4304 50.3435 83.9525 55.535 89.2273 56.5225C94.5021 57.5102 99.6072 53.9336 100.579 48.5699C101.55 43.2062 98.0328 38.0148 92.758 37.027C92.6742 37.0097 92.5889 37.0017 92.5034 37.0018ZM86.7054 38.0631C86.4606 38.0584 86.2197 38.1251 86.0112 38.2554C85.4002 38.6249 84.832 39.0599 84.3133 39.5555C84.0656 39.7912 83.9202 40.1172 83.9089 40.462C83.8977 40.8067 84.0216 41.142 84.2534 41.3938C84.4852 41.6457 84.8059 41.7934 85.1449 41.8048C85.4839 41.8163 85.8135 41.6903 86.0611 41.4546C86.4446 41.0885 86.8685 40.7626 87.3196 40.4899C87.5622 40.3482 87.7525 40.1295 87.8611 39.8673C87.9698 39.6051 87.9908 39.314 87.9211 39.0385C87.8514 38.7629 87.6947 38.5182 87.4751 38.3419C87.2555 38.1656 86.9851 38.0681 86.7054 38.0631Z" fill="#16162F"/>
<path d="M91.6484 37.3516C91.8808 37.131 92.1856 37.0064 92.5034 37.002C92.589 37.0019 92.6743 37.0099 92.7581 37.0272C98.0329 38.015 101.55 43.2064 100.579 48.5701C99.6073 53.9338 94.5022 57.5104 89.2274 56.5227C83.9526 55.5352 80.4305 50.3437 81.4019 44.9798C81.4323 44.8117 81.4951 44.6514 81.5865 44.508C81.6779 44.3645 81.7962 44.2408 81.9347 44.1439C82.0731 44.047 82.229 43.9787 82.3933 43.943C82.5577 43.9073 82.7274 43.905 82.8927 43.936C83.0579 43.967 83.2156 44.0309 83.3566 44.1239C83.4976 44.2169 83.6193 44.3372 83.7146 44.478C83.8098 44.6188 83.8769 44.7772 83.912 44.9444C83.947 45.1115 83.9493 45.2841 83.9188 45.4522C83.1986 49.4288 85.7762 53.2362 89.6868 53.9681C93.5975 54.7006 97.3415 52.0745 98.0617 48.0977C98.7819 44.1214 96.2044 40.3138 92.2937 39.5814C91.9809 39.524 91.7003 39.3502 91.5067 39.0939C91.3132 38.8375 91.2204 38.517 91.2466 38.1949C91.2728 37.8727 91.416 37.5721 91.6484 37.3516Z" fill="#0A855C"/>
<path d="M86.0113 38.2557C86.2198 38.1253 86.4607 38.0586 86.7054 38.0633C86.9852 38.0683 87.2556 38.1659 87.4752 38.3421C87.6948 38.5184 87.8515 38.7631 87.9212 39.0387C87.9909 39.3142 87.9698 39.6053 87.8612 39.8675C87.7525 40.1297 87.5623 40.3484 87.3197 40.4901C86.8686 40.7628 86.4447 41.0887 86.0612 41.4548C85.8136 41.6905 85.484 41.8165 85.145 41.805C84.806 41.7936 84.4853 41.6459 84.2535 41.394C84.0217 41.1422 83.8978 40.8069 83.909 40.4622C83.9202 40.1174 84.0657 39.7914 84.3133 39.5557C84.8321 39.0601 85.4003 38.6251 86.0113 38.2557Z" fill="#0A855C"/>
</svg>
