 <svg
    width="100"
    height="92"
    viewBox="0 0 100 92"
    fill="none"
    xmlns="http://www.w3.org/2000/svg"
  >
    <path
      d="M17.7406 77.3697C17.6054 77.3678 17.4712 77.3928 17.3458 77.4432C17.2204 77.4936 17.1062 77.5684 17.01 77.6633C16.9137 77.7582 16.8373 77.8713 16.7851 77.996C16.7329 78.1207 16.7061 78.2545 16.7061 78.3897C16.7061 78.5249 16.7329 78.6587 16.7851 78.7834C16.8373 78.9081 16.9137 79.0212 17.01 79.1161C17.1062 79.211 17.2204 79.2858 17.3458 79.3362C17.4712 79.3866 17.6054 79.4116 17.7406 79.4097H98.965C99.1001 79.4116 99.2343 79.3866 99.3598 79.3362C99.4852 79.2858 99.5993 79.211 99.6956 79.1161C99.7919 79.0212 99.8683 78.9081 99.9205 78.7834C99.9726 78.6587 99.9995 78.5249 99.9995 78.3897C99.9995 78.2545 99.9726 78.1207 99.9205 77.996C99.8683 77.8713 99.7919 77.7582 99.6956 77.6633C99.5993 77.5684 99.4852 77.4936 99.3598 77.4432C99.2343 77.3928 99.1001 77.3678 98.965 77.3697H17.7406Z"
      fill="#16162F"
    />
    <path
      d="M67.734 54.036C67.7299 52.3636 67.3358 50.7199 66.5843 49.2279L68.3103 47.5019C69.6042 46.208 69.6042 44.1025 68.3103 42.8085C67.6649 42.1631 66.8176 41.8397 65.9698 41.8382C65.9686 40.9534 65.6236 40.1219 64.9979 39.4961C64.3521 38.8505 63.5042 38.527 62.6559 38.5258C62.6547 37.6775 62.3313 36.8296 61.6855 36.1838C61.0601 35.5585 60.2291 35.2135 59.345 35.2119C59.3434 34.3279 58.9984 33.4968 58.3732 32.8715C57.7463 32.2446 56.9128 31.8994 56.0264 31.8994C55.14 31.8994 54.3065 32.2446 53.6798 32.8715L50.2564 36.2948L48.3516 34.3899C47.7247 33.763 46.8914 33.4178 46.0048 33.4178C45.1183 33.4178 44.285 33.763 43.6582 34.3899C43.0324 35.0157 42.6875 35.8472 42.6863 36.7319C41.8385 36.7335 40.9912 37.0568 40.3458 37.7022C39.7204 38.3276 39.3755 39.1586 39.3738 40.0427C38.4898 40.0444 37.6587 40.3893 37.0333 41.0147C35.9648 42.0832 35.7797 43.7048 36.4758 44.9662C35.9964 45.1229 35.5455 45.3906 35.165 45.771C33.8711 47.065 33.8711 49.1705 35.165 50.4645L36.5473 51.8468L25.5653 62.8288C25.184 63.2101 25.184 63.8285 25.5653 64.2099C25.756 64.4005 26.0059 64.4959 26.2558 64.4959C26.5057 64.4959 26.7557 64.4005 26.9463 64.2099L34.3909 56.7653L41.3647 63.7391L30.1946 74.9092C29.8133 75.2906 29.8133 75.9089 30.1946 76.2903C30.3853 76.481 30.6352 76.5764 30.8851 76.5764C31.135 76.5764 31.385 76.481 31.5756 76.2903L46.6734 61.1926C46.9515 60.9145 47.2681 60.6891 47.6107 60.5196L49.9735 62.0759C51.5363 63.1052 53.4416 63.5073 55.2786 63.2098L68.4089 76.3402C68.5996 76.5308 68.8495 76.6262 69.0994 76.6262C69.3493 76.6262 69.5993 76.5308 69.7899 76.3402C70.1713 75.9588 70.1713 75.3405 69.7899 74.959L62.1715 67.3406L63.0925 66.4196C63.4738 66.0383 63.4738 65.42 63.0925 65.0385C62.7112 64.6573 62.0928 64.6573 61.7114 65.0385L60.7904 65.9595L58.6341 63.8032L66.6865 55.7507L68.8429 57.9071L67.924 58.826C67.5426 59.2075 67.5426 59.8257 67.924 60.2072C68.1147 60.3978 68.3646 60.4932 68.6145 60.4932C68.8644 60.4932 69.1144 60.3978 69.305 60.2072L70.2239 59.2882L73.5876 62.6519C73.7783 62.8426 74.0282 62.938 74.2781 62.938C74.528 62.938 74.778 62.8426 74.9686 62.6519C75.35 62.2706 75.35 61.6523 74.9686 61.2708L67.734 54.036ZM55.0608 34.2525C55.3187 33.9946 55.6617 33.8525 56.0264 33.8525C56.3912 33.8525 56.7341 33.9946 56.992 34.2525C57.25 34.5104 57.392 34.8534 57.392 35.2181C57.392 35.5829 57.2499 35.9259 56.992 36.1838L54.8461 38.3298C54.4647 38.7111 54.4647 39.3294 54.8461 39.7109C55.2274 40.0923 55.8458 40.0922 56.2272 39.7109L58.3732 37.5649C58.6311 37.3069 58.974 37.1649 59.3389 37.1649C59.7036 37.1649 60.0466 37.307 60.3045 37.5649C60.837 38.0974 60.837 38.9637 60.3045 39.4962L57.0276 42.7731C56.6462 43.1545 56.6462 43.7728 57.0276 44.1543C57.2183 44.345 57.4682 44.4403 57.7181 44.4403C57.968 44.4403 58.218 44.345 58.4086 44.1543L61.6855 40.8774C61.9434 40.6194 62.2864 40.4774 62.6511 40.4774C63.0159 40.4774 63.3589 40.6195 63.6168 40.8774C63.8747 41.1353 64.0168 41.4782 64.0168 41.843C64.0168 42.2077 63.8747 42.5507 63.6168 42.8086L60.3399 46.0855C59.9586 46.4668 59.9586 47.0852 60.3399 47.4666C60.5306 47.6573 60.7805 47.7526 61.0304 47.7526C61.2803 47.7526 61.5303 47.6573 61.721 47.4666L64.9977 44.1897C65.5302 43.6572 66.3966 43.6573 66.9291 44.1897C67.4616 44.7222 67.4616 45.5886 66.9291 46.121L58.8573 54.1927C56.273 56.7772 52.8369 58.2005 49.1819 58.2005C48.1922 58.2005 47.2428 58.4611 46.4106 58.9481L40.7583 53.2958C41.1932 53.1315 41.5924 52.876 41.9311 52.5373C42.5569 51.9115 42.9018 51.08 42.9031 50.1952C43.7508 50.1937 44.5981 49.8703 45.2435 49.2249C45.8889 48.5795 46.2123 47.7322 46.2138 46.8844C47.0986 46.8832 47.9302 46.5382 48.5559 45.9124C49.2013 45.267 49.5246 44.4198 49.5262 43.5719C50.4109 43.5708 51.2424 43.2258 51.8681 42.6001C52.495 41.9732 52.8402 41.1399 52.8402 40.2534C52.8402 39.3668 52.495 38.5335 51.8681 37.9066L51.6372 37.6757L55.0608 34.2525ZM45.0392 35.7709C45.2971 35.513 45.6401 35.3709 46.0048 35.3709C46.3696 35.3709 46.7125 35.513 46.9705 35.7709L50.4874 39.2877C50.7453 39.5457 50.8874 39.8886 50.8874 40.2534C50.8874 40.6181 50.7453 40.9611 50.4874 41.2191C50.2295 41.477 49.8865 41.6191 49.5218 41.6191C49.1571 41.6191 48.8144 41.4771 48.5565 41.2193C48.5566 41.2195 48.5564 41.2193 48.5565 41.2193L45.0392 37.7021C44.7813 37.4442 44.6392 37.1013 44.6392 36.7365C44.6392 36.3718 44.7812 36.0289 45.0392 35.7709ZM41.7268 39.0833C41.9931 38.817 42.3427 38.6839 42.6925 38.6839C43.0422 38.6839 43.392 38.8171 43.6581 39.0833L47.1749 42.6001C47.7075 43.1326 47.7074 43.999 47.1749 44.5315C46.917 44.7894 46.5741 44.9315 46.2093 44.9315C45.8447 44.9315 45.5019 44.7895 45.244 44.5318C45.2441 44.532 45.2439 44.5317 45.244 44.5318L41.7269 41.0146C41.4689 40.7567 41.3269 40.4137 41.3269 40.0489C41.3268 39.6841 41.4689 39.3413 41.7268 39.0833ZM38.4145 42.3957C38.6724 42.1377 39.0153 41.9957 39.3801 41.9957C39.7449 41.9957 40.0879 42.1378 40.3458 42.3957L43.8626 45.9125C44.3951 46.445 44.3951 47.3114 43.8626 47.8438C43.3301 48.3762 42.4637 48.3763 41.9312 47.8438L38.4144 44.327C37.882 43.7946 37.882 42.9281 38.4145 42.3957ZM36.546 47.152C36.8124 46.8857 37.1621 46.7527 37.5118 46.7527C37.861 46.7527 38.2104 46.8856 38.4764 47.1512L40.5502 49.225C40.8081 49.4829 40.9502 49.8258 40.9502 50.1906C40.9502 50.5553 40.8081 50.8983 40.5502 51.1563C40.2923 51.4143 39.9493 51.5563 39.5845 51.5563C39.22 51.5563 38.8773 51.4144 38.6193 51.1568L38.6189 51.1563L36.546 49.0835C36.0136 48.5508 36.0136 47.6845 36.546 47.152ZM35.772 55.3842L37.9284 53.2278L44.9023 60.2016L42.7459 62.358L35.772 55.3842ZM56.2904 61.4594C56.0499 61.219 55.7016 61.1204 55.3712 61.2006C53.8932 61.5564 52.3174 61.281 51.0479 60.4448L50.519 60.0963C54.1913 59.7873 57.6028 58.2096 60.2386 55.5738L65.1121 50.7003C65.5313 51.7135 65.7575 52.7964 65.7783 53.8971L57.2533 62.4223L56.2904 61.4594Z"
      fill="#16162F"
    />
    <path
      d="M64.8164 61.9333C64.6348 62.115 64.5303 62.366 64.5303 62.6238C64.5303 62.8806 64.6348 63.1326 64.8164 63.3141C64.998 63.4958 65.25 63.6003 65.5068 63.6003C65.7646 63.6003 66.0156 63.4958 66.1973 63.3141C66.3789 63.1326 66.4834 62.8806 66.4834 62.6238C66.4834 62.3659 66.3789 62.115 66.1973 61.9333C66.0156 61.7517 65.7637 61.6472 65.5068 61.6472C65.25 61.6472 64.998 61.7517 64.8164 61.9333Z"
      fill="#16162F"
    />
    <path
      d="M31.8535 34.6044C32.0443 34.7951 32.2941 34.8904 32.544 34.8904C32.7939 34.8904 33.0439 34.7951 33.2346 34.6044C33.6159 34.2231 33.6159 33.6047 33.2346 33.2233L28.6379 28.6266C28.2565 28.2452 27.6382 28.2452 27.2567 28.6266C26.8753 29.0079 26.8754 29.6263 27.2567 30.0077L31.8535 34.6044Z"
      fill="#0A855C"
    />
    <path
      d="M37.1699 31.9497C37.7092 31.9497 38.1464 31.5125 38.1464 30.9732V27.6025C38.1464 27.0632 37.7092 26.626 37.1699 26.626C36.6306 26.626 36.1934 27.0632 36.1934 27.6025V30.9732C36.1934 31.5125 36.6306 31.9497 37.1699 31.9497Z"
      fill="#0A855C"
    />
    <path
      d="M26.2324 39.5163H29.603C30.1424 39.5163 30.5796 39.0791 30.5796 38.5398C30.5796 38.0004 30.1424 37.5632 29.603 37.5632H26.2324C25.6931 37.5632 25.2559 38.0004 25.2559 38.5398C25.2559 39.0791 25.6931 39.5163 26.2324 39.5163Z"
      fill="#0A855C"
    />
    <path
      d="M67.9669 34.8905C68.2168 34.8905 68.4667 34.7951 68.6574 34.6044L73.2541 30.0077C73.6354 29.6264 73.6354 29.0081 73.2541 28.6266C72.8727 28.2452 72.2544 28.2453 71.8729 28.6266L67.2762 33.2233C66.8949 33.6046 66.8949 34.223 67.2762 34.6044C67.4671 34.7951 67.717 34.8905 67.9669 34.8905Z"
      fill="#0A855C"
    />
    <path
      d="M63.3408 31.9497C63.8801 31.9497 64.3173 31.5125 64.3173 30.9732V27.6025C64.3173 27.0632 63.8801 26.626 63.3408 26.626C62.8015 26.626 62.3643 27.0632 62.3643 27.6025V30.9732C62.3643 31.5125 62.8015 31.9497 63.3408 31.9497Z"
      fill="#0A855C"
    />
    <path
      d="M69.9307 38.5398C69.9307 39.0791 70.3679 39.5163 70.9072 39.5163H74.2778C74.8172 39.5163 75.2544 39.0791 75.2544 38.5398C75.2544 38.0004 74.8172 37.5632 74.2778 37.5632H70.9072C70.3679 37.5632 69.9307 38.0004 69.9307 38.5398Z"
      fill="#0A855C"
    />
    <path
      d="M1.54428 77.3697C1.40912 77.3678 1.27493 77.3928 1.1495 77.4432C1.02407 77.4936 0.909916 77.5684 0.813661 77.6633C0.717405 77.7582 0.640971 77.8713 0.588801 77.996C0.536631 78.1207 0.509766 78.2545 0.509766 78.3897C0.509766 78.5249 0.536631 78.6587 0.588801 78.7834C0.640971 78.9081 0.717405 79.0212 0.813661 79.1161C0.909916 79.211 1.02407 79.2858 1.1495 79.3362C1.27493 79.3866 1.40912 79.4116 1.54428 79.4097H13.1785C13.3137 79.4116 13.4479 79.3866 13.5733 79.3362C13.6987 79.2858 13.8129 79.211 13.9091 79.1161C14.0054 79.0212 14.0818 78.9081 14.134 78.7834C14.1861 78.6587 14.213 78.5249 14.213 78.3897C14.213 78.2545 14.1861 78.1207 14.134 77.996C14.0818 77.8713 14.0054 77.7582 13.9091 77.6633C13.8129 77.5684 13.6987 77.4936 13.5733 77.4432C13.4479 77.3928 13.3137 77.3678 13.1785 77.3697H1.54428Z"
      fill="#16162F"
    />
    <path
      fill-rule="evenodd"
      clip-rule="evenodd"
      d="M36.224 81.4508C36.0888 81.4489 35.9546 81.4738 35.8292 81.5242C35.7038 81.5746 35.5896 81.6495 35.4933 81.7444C35.3971 81.8393 35.3207 81.9524 35.2685 82.0771C35.2163 82.2018 35.1895 82.3356 35.1895 82.4708C35.1895 82.6059 35.2163 82.7398 35.2685 82.8645C35.3207 82.9892 35.3971 83.1023 35.4933 83.1972C35.5896 83.2921 35.7038 83.3669 35.8292 83.4173C35.9546 83.4677 36.0888 83.4927 36.224 83.4908H76.4816C76.6167 83.4927 76.7509 83.4677 76.8764 83.4173C77.0018 83.3669 77.1159 83.2921 77.2122 83.1972C77.3084 83.1023 77.3849 82.9892 77.4371 82.8645C77.4892 82.7398 77.5161 82.6059 77.5161 82.4708C77.5161 82.3356 77.4892 82.2018 77.4371 82.0771C77.3849 81.9524 77.3084 81.8393 77.2122 81.7444C77.1159 81.6495 77.0018 81.5746 76.8764 81.5242C76.7509 81.4738 76.6167 81.4489 76.4816 81.4508H36.224Z"
      fill="#0A855C"
    />
    <path
      fill-rule="evenodd"
      clip-rule="evenodd"
      d="M42.3236 85.5296C42.1884 85.5277 42.0542 85.5527 41.9288 85.6031C41.8034 85.6535 41.6892 85.7283 41.593 85.8232C41.4967 85.9181 41.4203 86.0312 41.3681 86.1559C41.3159 86.2806 41.2891 86.4145 41.2891 86.5496C41.2891 86.6848 41.3159 86.8186 41.3681 86.9433C41.4203 87.068 41.4967 87.1811 41.593 87.276C41.6892 87.3709 41.8034 87.4458 41.9288 87.4962C42.0542 87.5466 42.1884 87.5715 42.3236 87.5696H53.0573C53.1925 87.5715 53.3267 87.5466 53.4521 87.4962C53.5775 87.4458 53.6917 87.3709 53.788 87.276C53.8842 87.1811 53.9607 87.068 54.0128 86.9433C54.065 86.8186 54.0919 86.6848 54.0919 86.5496C54.0919 86.4145 54.065 86.2806 54.0128 86.1559C53.9607 86.0312 53.8842 85.9181 53.788 85.8232C53.6917 85.7283 53.5775 85.6535 53.4521 85.6031C53.3267 85.5527 53.1925 85.5277 53.0573 85.5296H42.3236Z"
      fill="#0A855C"
    />
    <path
      fill-rule="evenodd"
      clip-rule="evenodd"
      d="M58.6634 85.5296C58.5283 85.5277 58.3941 85.5527 58.2686 85.6031C58.1432 85.6535 58.0291 85.7283 57.9328 85.8232C57.8365 85.9181 57.7601 86.0312 57.7079 86.1559C57.6558 86.2806 57.6289 86.4145 57.6289 86.5496C57.6289 86.6848 57.6558 86.8186 57.7079 86.9433C57.7601 87.068 57.8365 87.1811 57.9328 87.276C58.0291 87.3709 58.1432 87.4458 58.2686 87.4962C58.3941 87.5466 58.5283 87.5715 58.6634 87.5696H73.0668C73.2019 87.5715 73.3361 87.5466 73.4615 87.4962C73.587 87.4458 73.7011 87.3709 73.7974 87.276C73.8936 87.1811 73.9701 87.068 74.0222 86.9433C74.0744 86.8186 74.1013 86.6848 74.1013 86.5496C74.1013 86.4145 74.0744 86.2806 74.0222 86.1559C73.9701 86.0312 73.8936 85.9181 73.7974 85.8232C73.7011 85.7283 73.587 85.6535 73.4615 85.6031C73.3361 85.5527 73.2019 85.5277 73.0668 85.5296H58.6634Z"
      fill="#0A855C"
    />
    <path
      fill-rule="evenodd"
      clip-rule="evenodd"
      d="M48.4632 89.6095C48.3281 89.6076 48.1939 89.6325 48.0684 89.6829C47.943 89.7333 47.8289 89.8082 47.7326 89.9031C47.6363 89.998 47.5599 90.1111 47.5077 90.2358C47.4556 90.3605 47.4287 90.4943 47.4287 90.6295C47.4287 90.7646 47.4556 90.8985 47.5077 91.0232C47.5599 91.1479 47.6363 91.261 47.7326 91.3559C47.8289 91.4508 47.943 91.5256 48.0684 91.576C48.1939 91.6264 48.3281 91.6514 48.4632 91.6494H58.8982C59.0333 91.6514 59.1675 91.6264 59.2929 91.576C59.4184 91.5256 59.5325 91.4508 59.6288 91.3559C59.725 91.261 59.8015 91.1479 59.8536 91.0232C59.9058 90.8985 59.9327 90.7646 59.9327 90.6295C59.9327 90.4943 59.9058 90.3605 59.8536 90.2358C59.8015 90.1111 59.725 89.998 59.6288 89.9031C59.5325 89.8082 59.4184 89.7333 59.2929 89.6829C59.1675 89.6325 59.0333 89.6076 58.8982 89.6095H48.4632Z"
      fill="#0A855C"
    />
    <path
      fill-rule="evenodd"
      clip-rule="evenodd"
      d="M18.795 36.7645C18.3117 36.7645 17.926 37.1699 17.9336 37.6531C17.9336 38.26 17.6744 38.5353 17.0722 38.5353C15.8887 38.5149 15.8887 40.3022 17.0722 40.2853C17.652 40.2853 17.9336 40.4465 17.9336 41.1297C17.9173 42.3129 19.7005 42.3129 19.6837 41.1297C19.6837 40.5087 19.9743 40.2853 20.5486 40.2853C21.7321 40.3057 21.7321 38.5184 20.5486 38.5353C19.7683 38.5353 19.6837 38.0887 19.6837 37.6531C19.6899 37.1593 19.289 36.7568 18.795 36.7645Z"
      fill="#0A855C"
    />
    <path
      fill-rule="evenodd"
      clip-rule="evenodd"
      d="M76.3277 3.51642C76.0624 3.5205 75.8506 3.73905 75.8548 4.00437C75.8548 4.33748 75.7124 4.48859 75.3819 4.48859C74.7321 4.48859 74.7321 5.45862 75.3819 5.44944C75.7002 5.44944 75.8548 5.5371 75.8548 5.91286C75.8446 6.56259 76.8248 6.56259 76.8156 5.91286C76.8156 5.57198 76.9751 5.44944 77.2904 5.44944C77.9402 5.44944 77.9402 4.47921 77.2904 4.48859C76.862 4.48859 76.8156 4.24364 76.8156 4.00437C76.8197 3.73318 76.5989 3.51217 76.3277 3.51642Z"
      fill="#16162F"
    />
    <path
      fill-rule="evenodd"
      clip-rule="evenodd"
      d="M5.74664 10.2413C5.4813 10.2454 5.26955 10.4639 5.27371 10.7292C5.27371 11.0623 5.13132 11.2134 4.80081 11.2134C4.15103 11.2134 4.15103 12.1835 4.80081 12.1743C5.1191 12.1743 5.27371 12.262 5.27371 12.6377C5.26351 13.2874 6.24374 13.2874 6.23454 12.6377C6.23454 12.2968 6.39406 12.1743 6.70932 12.1743C7.35911 12.1743 7.35911 11.2041 6.70932 11.2134C6.28095 11.2134 6.23454 10.9685 6.23454 10.7292C6.23862 10.458 6.01783 10.237 5.74664 10.2413Z"
      fill="#16162F"
    />
    <path
      fill-rule="evenodd"
      clip-rule="evenodd"
      d="M71.8356 18.2874C71.4835 18.2874 71.2024 18.5828 71.208 18.9349C71.208 19.377 71.0191 19.5775 70.5804 19.5775C69.718 19.5571 69.718 20.865 70.5804 20.8527C71.0028 20.8527 71.208 20.9689 71.208 21.4679C71.1957 22.33 72.4953 22.33 72.4831 21.4679C72.4831 21.0155 72.6948 20.8527 73.1132 20.8527C73.9756 20.8731 73.9756 19.5652 73.1132 19.5775C72.5447 19.5775 72.4831 19.2523 72.4831 18.9349C72.4872 18.575 72.1955 18.2817 71.8356 18.2874Z"
      fill="#0A855C"
    />
    <path
      fill-rule="evenodd"
      clip-rule="evenodd"
      d="M16.8678 20.1322C16.5157 20.1322 16.2347 20.4275 16.2402 20.7796C16.2402 21.2217 16.0513 21.4222 15.6126 21.4222C14.7502 21.4018 14.7502 22.7097 15.6126 22.6974C16.035 22.6974 16.2402 22.8137 16.2402 23.3126C16.2279 24.1747 17.5276 24.1747 17.5154 23.3126C17.5154 22.8602 17.727 22.6974 18.1455 22.6974C19.0078 22.7178 19.0078 21.41 18.1455 21.4222C17.5769 21.4222 17.5154 21.097 17.5154 20.7796C17.5194 20.4198 17.2278 20.1265 16.8678 20.1322Z"
      fill="#16162F"
    />
    <path
      fill-rule="evenodd"
      clip-rule="evenodd"
      d="M98.1841 28.0457C97.9188 28.0457 97.7071 28.2683 97.7112 28.5337C97.7112 28.8668 97.5688 29.018 97.2383 29.018C96.5885 29.018 96.5885 29.988 97.2383 29.9786C97.5566 29.9786 97.7112 30.0663 97.7112 30.4423C97.701 31.0918 98.6812 31.0918 98.672 30.4423C98.672 30.1014 98.8316 29.9786 99.1468 29.9786C99.7966 29.9786 99.7966 29.0086 99.1468 29.018C98.7184 29.018 98.672 28.7728 98.672 28.5337C98.6761 28.2626 98.4553 28.0414 98.1841 28.0457Z"
      fill="#0A855C"
    />
    <path
      fill-rule="evenodd"
      clip-rule="evenodd"
      d="M89.9411 14.9727C89.5889 14.9727 89.3079 15.2681 89.3134 15.6202C89.3134 16.0623 89.1245 16.2628 88.6858 16.2628C87.8235 16.2424 87.8235 17.5503 88.6858 17.538C89.1082 17.538 89.3134 17.6542 89.3134 18.1532C89.3012 19.0153 90.6008 19.0153 90.5886 18.1532C90.5886 17.7008 90.8003 17.538 91.2187 17.538C92.0811 17.5584 92.0811 16.2505 91.2187 16.2628C90.6502 16.2628 90.5886 15.9376 90.5886 15.6202C90.5927 15.2603 90.301 14.967 89.9411 14.9727Z"
      fill="#0A855C"
    />
    <path
      fill-rule="evenodd"
      clip-rule="evenodd"
      d="M47.4876 0.350648C47.2154 0.354728 46.9982 0.579026 47.0025 0.851179C47.0025 1.19283 46.8564 1.34772 46.5175 1.34772C45.851 1.33752 45.851 2.34287 46.5175 2.33335C46.8439 2.33335 47.0025 2.42366 47.0025 2.80873C46.9943 3.4751 47.9975 3.4751 47.988 2.80873C47.988 2.4591 48.1518 2.33335 48.475 2.33335C49.1415 2.34355 49.1415 1.3382 48.475 1.34772C48.0356 1.34772 47.988 1.09642 47.988 0.851179C47.9901 0.572987 47.7657 0.346282 47.4876 0.350648Z"
      fill="#16162F"
    />
    <path
      fill-rule="evenodd"
      clip-rule="evenodd"
      d="M25.7504 6.69197C25.4094 6.69197 25.1372 6.97812 25.1425 7.319C25.1425 7.74739 24.9596 7.94168 24.5346 7.94168C23.6994 7.92128 23.6994 9.18873 24.5346 9.17669C24.9438 9.17669 25.1425 9.29083 25.1425 9.77247C25.1311 10.6074 26.3894 10.6074 26.3776 9.77247C26.3776 9.33429 26.5826 9.17669 26.9879 9.17669C27.8232 9.19709 27.8232 7.92964 26.9879 7.94168C26.4373 7.94168 26.3776 7.62642 26.3776 7.319C26.3819 6.97057 26.0991 6.68666 25.7504 6.69197Z"
      fill="#0A855C"
    />
  </svg>