<svg width="61" height="44" viewBox="0 0 61 44" fill="none" xmlns="http://www.w3.org/2000/svg">
<path d="M9.95444 35.7112C9.88052 35.7102 9.80713 35.7238 9.73854 35.7512C9.66994 35.7787 9.60751 35.8195 9.55487 35.8711C9.50223 35.9228 9.46043 35.9844 9.4319 36.0523C9.40336 36.1203 9.38867 36.1932 9.38867 36.2668C9.38867 36.3404 9.40336 36.4133 9.4319 36.4812C9.46043 36.5491 9.50223 36.6107 9.55487 36.6624C9.60751 36.7141 9.66994 36.7549 9.73854 36.7823C9.80713 36.8098 9.88052 36.8234 9.95444 36.8223H54.3776C54.4515 36.8234 54.5249 36.8098 54.5935 36.7823C54.6621 36.7549 54.7245 36.7141 54.7771 36.6624C54.8298 36.6107 54.8716 36.5491 54.9001 36.4812C54.9286 36.4133 54.9433 36.3404 54.9433 36.2668C54.9433 36.1932 54.9286 36.1203 54.9001 36.0523C54.8716 35.9844 54.8298 35.9228 54.7771 35.8711C54.7245 35.8195 54.6621 35.7787 54.5935 35.7512C54.5249 35.7238 54.4515 35.7102 54.3776 35.7112H9.95444Z" fill="#16162F"/>
<path d="M57.7145 35.7254C57.6427 35.7242 57.5713 35.7373 57.5046 35.7639C57.4378 35.7906 57.3771 35.8303 57.3258 35.8807C57.2746 35.9311 57.2339 35.9912 57.2061 36.0574C57.1784 36.1237 57.1641 36.1949 57.1641 36.2667C57.1641 36.3386 57.1784 36.4097 57.2061 36.476C57.2339 36.5423 57.2746 36.6023 57.3258 36.6527C57.3771 36.7031 57.4378 36.7428 57.5046 36.7695C57.5713 36.7962 57.6427 36.8092 57.7145 36.808H59.9497C60.0215 36.8092 60.0929 36.7962 60.1596 36.7695C60.2264 36.7428 60.2871 36.7031 60.3383 36.6527C60.3896 36.6023 60.4303 36.5423 60.458 36.476C60.4858 36.4097 60.5001 36.3386 60.5001 36.2667C60.5001 36.1949 60.4858 36.1237 60.458 36.0574C60.4303 35.9912 60.3896 35.9311 60.3383 35.8807C60.2871 35.8303 60.2264 35.7906 60.1596 35.7639C60.0929 35.7373 60.0215 35.7242 59.9497 35.7254H57.7145Z" fill="#16162F"/>
<path d="M1.00328 35.7112C0.937529 35.7102 0.872245 35.7238 0.811227 35.7512C0.750208 35.7787 0.69467 35.8195 0.647843 35.8711C0.601015 35.9228 0.563831 35.9844 0.53845 36.0523C0.51307 36.1203 0.5 36.1932 0.5 36.2668C0.5 36.3404 0.51307 36.4133 0.53845 36.4812C0.563831 36.5491 0.601015 36.6107 0.647843 36.6624C0.69467 36.7141 0.750208 36.7549 0.811227 36.7823C0.872245 36.8098 0.937529 36.8234 1.00328 36.8223H6.66325C6.72901 36.8234 6.79429 36.8098 6.85531 36.7823C6.91633 36.7549 6.97187 36.7141 7.01869 36.6624C7.06552 36.6107 7.10271 36.5491 7.12809 36.4812C7.15347 36.4133 7.16654 36.3404 7.16654 36.2668C7.16654 36.1932 7.15347 36.1203 7.12809 36.0523C7.10271 35.9844 7.06552 35.9228 7.01869 35.8711C6.97187 35.8195 6.91633 35.7787 6.85531 35.7512C6.79429 35.7238 6.72901 35.7102 6.66325 35.7112H1.00328Z" fill="#16162F"/>
<path fill-rule="evenodd" clip-rule="evenodd" d="M19.9589 37.9253C19.8848 37.9249 19.8114 37.9391 19.7428 37.9672C19.6742 37.9953 19.6118 38.0366 19.5592 38.0889C19.5067 38.1411 19.465 38.2033 19.4365 38.2717C19.408 38.3401 19.3934 38.4135 19.3934 38.4876C19.3934 38.5617 19.408 38.6351 19.4365 38.7036C19.465 38.772 19.5067 38.8341 19.5592 38.8864C19.6118 38.9386 19.6742 38.98 19.7428 39.008C19.8114 39.0361 19.8848 39.0504 19.9589 39.05H42.1513C42.2254 39.0504 42.2989 39.0361 42.3675 39.008C42.4361 38.98 42.4984 38.9386 42.551 38.8864C42.6035 38.8341 42.6453 38.772 42.6737 38.7036C42.7022 38.6351 42.7168 38.5617 42.7168 38.4876C42.7168 38.4135 42.7022 38.3401 42.6737 38.2717C42.6453 38.2033 42.6035 38.1411 42.551 38.0889C42.4984 38.0366 42.4361 37.9953 42.3675 37.9672C42.2989 37.9391 42.2254 37.9249 42.1513 37.9253H19.9589Z" fill="#0A855C"/>
<path fill-rule="evenodd" clip-rule="evenodd" d="M23.3501 40.1553C23.268 40.1543 23.1865 40.1679 23.1103 40.1953C23.0341 40.2228 22.9648 40.2635 22.9063 40.3152C22.8478 40.3669 22.8014 40.4285 22.7697 40.4964C22.738 40.5644 22.7217 40.6372 22.7217 40.7109C22.7217 40.7845 22.738 40.8574 22.7697 40.9253C22.8014 40.9932 22.8478 41.0548 22.9063 41.1065C22.9648 41.1582 23.0341 41.199 23.1103 41.2264C23.1865 41.2539 23.268 41.2675 23.3501 41.2664H29.8708C29.953 41.2675 30.0345 41.2539 30.1107 41.2264C30.1869 41.199 30.2562 41.1582 30.3147 41.1065C30.3732 41.0548 30.4196 40.9932 30.4513 40.9253C30.483 40.8574 30.4993 40.7845 30.4993 40.7109C30.4993 40.6372 30.483 40.5644 30.4513 40.4964C30.4196 40.4285 30.3732 40.3669 30.3147 40.3152C30.2562 40.2635 30.1869 40.2228 30.1107 40.1953C30.0345 40.1679 29.953 40.1543 29.8708 40.1553H23.3501Z" fill="#0A855C"/>
<path fill-rule="evenodd" clip-rule="evenodd" d="M33.2828 40.1598C33.2096 40.1583 33.1369 40.1716 33.0689 40.1986C33.0008 40.2256 32.9389 40.2659 32.8866 40.3171C32.8343 40.3683 32.7928 40.4295 32.7644 40.497C32.7361 40.5644 32.7215 40.6368 32.7215 40.71C32.7215 40.7832 32.7361 40.8558 32.7644 40.9232C32.7928 40.9907 32.8343 41.0519 32.8866 41.1031C32.9389 41.1543 33.0008 41.1946 33.0689 41.2216C33.1369 41.2486 33.2096 41.2618 33.2828 41.2603H41.0553C41.1285 41.2618 41.2012 41.2486 41.2693 41.2216C41.3373 41.1946 41.3993 41.1543 41.4515 41.1031C41.5038 41.0519 41.5453 40.9907 41.5737 40.9232C41.602 40.8558 41.6166 40.7832 41.6166 40.71C41.6166 40.6368 41.602 40.5644 41.5737 40.497C41.5453 40.4295 41.5038 40.3683 41.4515 40.3171C41.3993 40.2659 41.3373 40.2256 41.2693 40.1986C41.2012 40.1716 41.1285 40.1583 41.0553 40.1598H33.2828Z" fill="#0A855C"/>
<path fill-rule="evenodd" clip-rule="evenodd" d="M26.6985 42.3777C26.6145 42.3767 26.531 42.3903 26.453 42.4178C26.375 42.4452 26.304 42.486 26.2441 42.5377C26.1842 42.5893 26.1367 42.6509 26.1042 42.7189C26.0718 42.7868 26.0551 42.8597 26.0551 42.9333C26.0551 43.0069 26.0718 43.0798 26.1042 43.1477C26.1367 43.2156 26.1842 43.2772 26.2441 43.3289C26.304 43.3806 26.375 43.4214 26.453 43.4488C26.531 43.4763 26.6145 43.4899 26.6985 43.4888H33.1892C33.2733 43.4899 33.3567 43.4763 33.4348 43.4488C33.5128 43.4214 33.5838 43.3806 33.6437 43.3289C33.7035 43.2772 33.7511 43.2156 33.7835 43.1477C33.816 43.0798 33.8327 43.0069 33.8327 42.9333C33.8327 42.8597 33.816 42.7868 33.7835 42.7189C33.7511 42.6509 33.7035 42.5893 33.6437 42.5377C33.5838 42.486 33.5128 42.4452 33.4348 42.4178C33.3567 42.3903 33.2733 42.3767 33.1892 42.3777H26.6985Z" fill="#0A855C"/>
<path fill-rule="evenodd" clip-rule="evenodd" d="M42.2157 6.51127C42.0702 6.51127 41.9542 6.63326 41.9564 6.77862C41.9564 6.96124 41.8781 7.04418 41.6972 7.04418C41.3409 7.03575 41.3409 7.57601 41.6972 7.57087C41.8717 7.57087 41.9564 7.61888 41.9564 7.82501C41.948 8.18122 42.4883 8.18122 42.4832 7.82501C42.4832 7.6381 42.5707 7.57087 42.7435 7.57087C43.0997 7.5793 43.0997 7.03895 42.7435 7.04418C42.5087 7.04418 42.4832 6.90975 42.4832 6.77862C42.4832 6.62997 42.3644 6.50882 42.2157 6.51127Z" fill="#16162F"/>
<path fill-rule="evenodd" clip-rule="evenodd" d="M16.7784 22.1114C16.5787 22.1114 16.4194 22.2788 16.4225 22.4784C16.4225 22.7291 16.3154 22.8428 16.0667 22.8428C15.5778 22.8343 15.5778 23.5728 16.0667 23.5658C16.3062 23.5658 16.4225 23.6323 16.4225 23.9145C16.4141 24.4033 17.1524 24.4033 17.1455 23.9145C17.1455 23.658 17.2655 23.5658 17.5028 23.5658C17.9916 23.5743 17.9916 22.8359 17.5028 22.8428C17.1804 22.8428 17.1455 22.6583 17.1455 22.4784C17.1455 22.2744 16.9824 22.1082 16.7784 22.1114Z" fill="#0A855C"/>
<path fill-rule="evenodd" clip-rule="evenodd" d="M13.4921 11.7112C13.3825 11.7112 13.295 11.8031 13.2967 11.9128C13.2967 12.0504 13.2378 12.1128 13.1013 12.1128C12.8329 12.1043 12.8329 12.5136 13.1013 12.5097C13.2329 12.5097 13.2967 12.5459 13.2967 12.7012C13.2883 12.9695 13.6975 12.9695 13.6937 12.7012C13.6937 12.5604 13.7594 12.5097 13.8898 12.5097C14.1582 12.5097 14.1582 12.109 13.8898 12.1128C13.7128 12.1128 13.6937 12.0115 13.6937 11.9128C13.6937 11.8007 13.6041 11.7094 13.4921 11.7112Z" fill="#0A855C"/>
<path fill-rule="evenodd" clip-rule="evenodd" d="M32.0857 0.511262C31.9402 0.511262 31.8241 0.633322 31.8264 0.778773C31.8264 0.961387 31.7481 1.04423 31.5672 1.04423C31.2109 1.0358 31.2109 1.57616 31.5672 1.57102C31.7416 1.57102 31.8264 1.61903 31.8264 1.82516C31.818 2.18128 32.3583 2.18128 32.3532 1.82516C32.3532 1.63825 32.4407 1.57102 32.6135 1.57102C32.9697 1.57945 32.9697 1.03917 32.6135 1.04423C32.3786 1.04423 32.3532 0.909898 32.3532 0.778773C32.3532 0.63012 32.2344 0.508987 32.0857 0.511262Z" fill="#16162F"/>
<path fill-rule="evenodd" clip-rule="evenodd" d="M32.692 7.3384C32.5824 7.3384 32.4949 7.43027 32.4966 7.53982C32.4966 7.67744 32.4376 7.7399 32.3013 7.7399C32.0329 7.7399 32.0329 8.14061 32.3013 8.13682C32.4327 8.13682 32.4966 8.17304 32.4966 8.32826C32.4882 8.59675 32.8973 8.59675 32.8935 8.32826C32.8935 8.18753 32.9593 8.13682 33.0897 8.13682C33.3581 8.14525 33.3581 7.73603 33.0897 7.7399C32.9127 7.7399 32.8935 7.63859 32.8935 7.53982C32.8935 7.42787 32.804 7.33663 32.692 7.3384Z" fill="#16162F"/>
<path fill-rule="evenodd" clip-rule="evenodd" d="M46.8857 10.5113C46.7403 10.5113 46.6241 10.6333 46.6264 10.7787C46.6264 10.9613 46.548 11.0442 46.3672 11.0442C46.011 11.0358 46.011 11.576 46.3672 11.571C46.5417 11.571 46.6264 11.619 46.6264 11.8251C46.618 12.1813 47.1582 12.1813 47.1532 11.8251C47.1532 11.6381 47.2407 11.571 47.4135 11.571C47.7697 11.5794 47.7697 11.039 47.4135 11.0442C47.1786 11.0442 47.1532 10.9098 47.1532 10.7787C47.1532 10.63 47.0344 10.5088 46.8857 10.5113Z" fill="#0A855C"/>
<path fill-rule="evenodd" clip-rule="evenodd" d="M46.4316 18.2588C46.322 18.2588 46.2346 18.3508 46.2362 18.4604C46.2362 18.598 46.1772 18.6604 46.0409 18.6604C45.7725 18.652 45.7725 19.0611 46.0409 19.0573C46.1724 19.0573 46.2362 19.0936 46.2362 19.2488C46.2278 19.5172 46.6369 19.5172 46.6332 19.2488C46.6332 19.108 46.6989 19.0573 46.8292 19.0573C47.0977 19.0573 47.0977 18.6565 46.8292 18.6604C46.6524 18.6604 46.6332 18.5591 46.6332 18.4604C46.6332 18.3484 46.5437 18.2571 46.4316 18.2588Z" fill="#0A855C"/>
<path fill-rule="evenodd" clip-rule="evenodd" d="M45.8333 23.6072C45.6336 23.6072 45.4743 23.7747 45.4775 23.9744C45.4775 24.225 45.3703 24.3386 45.1216 24.3386C44.6327 24.3302 44.6327 25.0686 45.1216 25.0616C45.3611 25.0616 45.4775 25.1282 45.4775 25.4104C45.469 25.8993 46.2073 25.8993 46.2004 25.4104C46.2004 25.1539 46.3204 25.0616 46.5576 25.0616C47.0466 25.07 47.0466 24.3316 46.5576 24.3386C46.2353 24.3386 46.2004 24.1543 46.2004 23.9744C46.2004 23.7703 46.0373 23.604 45.8333 23.6072Z" fill="#0A855C"/>
<path fill-rule="evenodd" clip-rule="evenodd" d="M18.4858 5.71122C18.3402 5.71122 18.2242 5.83322 18.2265 5.97868C18.2265 6.16129 18.1481 6.24413 17.9672 6.24413C17.611 6.2357 17.611 6.77598 17.9672 6.77092C18.1417 6.77092 18.2265 6.81893 18.2265 7.02506C18.218 7.38119 18.7583 7.38119 18.7532 7.02506C18.7532 6.83815 18.8407 6.77092 19.0136 6.77092C19.3698 6.77935 19.3698 6.23907 19.0136 6.24413C18.7787 6.24413 18.7532 6.1098 18.7532 5.97868C18.7532 5.83002 18.6344 5.70886 18.4858 5.71122Z" fill="#16162F"/>
<path fill-rule="evenodd" clip-rule="evenodd" d="M40.0114 26.389C40.1826 26.2866 40.2543 26.0702 40.1713 25.8834C40.0815 25.6815 39.8451 25.5906 39.6433 25.6803C39.5829 25.7072 39.5306 25.7491 39.5137 25.7627C39.5128 25.7633 39.5121 25.7639 39.5114 25.7645C39.4828 25.7873 39.4502 25.8152 39.4158 25.8456C39.3464 25.9069 39.2572 25.9895 39.1546 26.0864C38.9487 26.2808 38.6795 26.5422 38.3885 26.828C37.806 27.4 37.1302 28.0759 36.6855 28.5238C36.5299 28.6805 36.5307 28.9338 36.6875 29.0894L39.5239 31.9066C39.6806 32.0623 39.9339 32.0614 40.0895 31.9047C40.2452 31.748 40.2444 31.4947 40.0876 31.339L37.5353 28.8039C37.9546 28.3833 38.4824 27.8571 38.9491 27.3987C39.2389 27.114 39.5037 26.857 39.7039 26.668C39.8043 26.5731 39.886 26.4977 39.9455 26.4451C39.9756 26.4185 39.9969 26.4006 40.0104 26.3898C40.0107 26.3895 40.0111 26.3892 40.0114 26.389ZM40.0174 26.3843C40.0208 26.3817 40.0224 26.3806 40.0223 26.3807C40.0222 26.3809 40.0205 26.3822 40.0174 26.3843Z" fill="#16162F"/>
<path fill-rule="evenodd" clip-rule="evenodd" d="M19.882 13.9806C19.882 13.7597 20.0611 13.5806 20.282 13.5806H37.42C37.641 13.5806 37.82 13.7597 37.82 13.9806C37.82 14.2015 37.641 14.3806 37.42 14.3806H20.282C20.0611 14.3806 19.882 14.2015 19.882 13.9806ZM19.882 24.2706C19.882 24.0497 20.0611 23.8706 20.282 23.8706H29.3402C29.5611 23.8706 29.7402 24.0497 29.7402 24.2706C29.7402 24.4915 29.5611 24.6706 29.3402 24.6706H20.282C20.0611 24.6706 19.882 24.4915 19.882 24.2706Z" fill="#16162F"/>
<path fill-rule="evenodd" clip-rule="evenodd" d="M23.7395 6.68213C23.2115 6.68213 22.7072 6.9019 22.3477 7.28872L19.0392 10.849C18.7126 11.2004 18.531 11.6625 18.531 12.1424V31.5546C18.531 32.6039 19.3817 33.4546 20.431 33.4546H29.3326C29.6087 33.4546 29.8326 33.6784 29.8326 33.9546C29.8326 34.2307 29.6087 34.4546 29.3326 34.4546H20.431C18.8294 34.4546 17.531 33.1562 17.531 31.5546V12.1424C17.531 11.41 17.8081 10.7047 18.3067 10.1682L21.6152 6.60798C22.1639 6.01757 22.9335 5.68213 23.7395 5.68213H36.5617C38.1633 5.68213 39.4617 6.9805 39.4617 8.58213V18.2945C39.4617 18.5707 39.2379 18.7945 38.9617 18.7945C38.6856 18.7945 38.4617 18.5707 38.4617 18.2945V8.58213C38.4617 7.53279 37.611 6.68213 36.5617 6.68213H23.7395Z" fill="#16162F"/>
<path d="M22.9767 16.3728C23.0149 16.3602 23.0544 16.3517 23.0945 16.3474L23.0956 16.3485V16.3496C23.1143 16.3487 23.133 16.3487 23.1517 16.3496H24.2735C24.4223 16.3496 24.565 16.4079 24.6701 16.5118C24.7753 16.6156 24.8344 16.7565 24.8344 16.9034C24.8344 17.0502 24.7753 17.1911 24.6701 17.295C24.565 17.3988 24.4223 17.4572 24.2735 17.4572H23.237C22.2363 17.4572 21.469 18.1992 21.469 19.1185C21.469 20.0378 22.2363 20.7799 23.237 20.7799H24.2825C24.4313 20.7799 24.5739 20.8382 24.6791 20.9421C24.7843 21.0459 24.8434 21.1868 24.8434 21.3337C24.8434 21.4806 24.7843 21.6214 24.6791 21.7253C24.5739 21.8291 24.4313 21.8875 24.2825 21.8875H23.1607C23.1055 21.8873 23.0507 21.8791 22.998 21.8631C21.5284 21.7457 20.3472 20.575 20.3472 19.1185C20.3472 17.6687 21.5161 16.5013 22.9767 16.3728Z" fill="#0A855C"/>
<path d="M27.5122 16.3607C27.5351 16.3548 27.5583 16.3504 27.5818 16.3474H27.5829C27.6016 16.3464 27.6203 16.3464 27.639 16.3474C27.6521 16.3469 27.6651 16.3469 27.6782 16.3474H29.8826C30.0314 16.3474 30.174 16.4057 30.2792 16.5096C30.3844 16.6134 30.4435 16.7543 30.4435 16.9012C30.4435 17.048 30.3844 17.1889 30.2792 17.2927C30.174 17.3966 30.0314 17.4549 29.8826 17.4549H27.639C27.3181 17.4549 27.0781 17.692 27.0781 18.0087C27.0762 18.082 27.0895 18.1548 27.117 18.2228C27.1445 18.2908 27.1858 18.3526 27.2382 18.4044C27.2907 18.4562 27.3533 18.4969 27.4222 18.5241C27.491 18.5513 27.5648 18.5643 27.639 18.5625H28.7608C28.8011 18.5619 28.8413 18.5657 28.8808 18.5736C29.748 18.6367 30.4435 19.3533 30.4435 20.2239C30.4403 20.6429 30.2772 21.0453 29.9867 21.3508C29.6962 21.6563 29.2997 21.8424 28.8763 21.872C28.8385 21.8811 28.7997 21.8863 28.7608 21.8875H26.5172C26.3684 21.8875 26.2257 21.8291 26.1205 21.7253C26.0153 21.6214 25.9562 21.4806 25.9562 21.3337C25.9562 21.1868 26.0153 21.0459 26.1205 20.9421C26.2257 20.8382 26.3684 20.7799 26.5172 20.7799H28.7608C29.0816 20.7799 29.3217 20.5429 29.3217 20.2261C29.3217 19.9093 29.0816 19.6723 28.7608 19.6723H27.639C27.6035 19.6712 27.5682 19.6667 27.5335 19.659C26.6596 19.6036 25.9562 18.8837 25.9562 18.0087C25.9562 17.1404 26.6484 16.4271 27.5122 16.3607Z" fill="#0A855C"/>
<path d="M33.1123 16.3607C33.1352 16.3548 33.1584 16.3504 33.1819 16.3474H33.183C33.2017 16.3464 33.2204 16.3464 33.2391 16.3474C33.2522 16.3469 33.2652 16.3469 33.2783 16.3474H35.4827C35.6315 16.3474 35.7741 16.4057 35.8793 16.5096C35.9845 16.6134 36.0436 16.7543 36.0436 16.9012C36.0436 17.048 35.9845 17.1889 35.8793 17.2927C35.7741 17.3966 35.6315 17.4549 35.4827 17.4549H33.2391C32.9182 17.4549 32.6782 17.692 32.6782 18.0087C32.6763 18.082 32.6896 18.1548 32.7171 18.2228C32.7446 18.2908 32.7859 18.3526 32.8383 18.4044C32.8908 18.4562 32.9534 18.4969 33.0223 18.5241C33.0911 18.5513 33.1649 18.5643 33.2391 18.5625H34.3609C34.4016 18.5619 34.4422 18.5656 34.482 18.5736C35.3481 18.6367 36.0436 19.3533 36.0436 20.2239C36.0405 20.6427 35.8775 21.045 35.5872 21.3505C35.297 21.6559 34.9007 21.8422 34.4776 21.872C34.4393 21.8812 34.4002 21.8864 34.3609 21.8875H32.1173C31.9685 21.8875 31.8258 21.8291 31.7206 21.7253C31.6154 21.6214 31.5563 21.4806 31.5563 21.3337C31.5563 21.1868 31.6154 21.0459 31.7206 20.9421C31.8258 20.8382 31.9685 20.7799 32.1173 20.7799H34.3609C34.6817 20.7799 34.9218 20.5429 34.9218 20.2261C34.9218 19.9093 34.6817 19.6723 34.3609 19.6723H33.2391C33.2036 19.6712 33.1683 19.6667 33.1336 19.659C32.2608 19.6036 31.5563 18.8837 31.5563 18.0087C31.5563 17.1404 32.2485 16.4271 33.1123 16.3607Z" fill="#0A855C"/>
<path fill-rule="evenodd" clip-rule="evenodd" d="M38.3876 33.541C40.9871 33.541 43.0945 31.4336 43.0945 28.8341C43.0945 26.2345 40.9871 24.1271 38.3876 24.1271C35.788 24.1271 33.6807 26.2345 33.6807 28.8341C33.6807 31.4336 35.788 33.541 38.3876 33.541ZM38.3876 34.341C41.429 34.341 43.8945 31.8754 43.8945 28.8341C43.8945 25.7927 41.429 23.3271 38.3876 23.3271C35.3462 23.3271 32.8807 25.7927 32.8807 28.8341C32.8807 31.8754 35.3462 34.341 38.3876 34.341Z" fill="#16162F"/>
<path fill-rule="evenodd" clip-rule="evenodd" d="M26.0415 3.22928C25.9291 3.22928 25.8394 3.32357 25.8411 3.43599C25.8411 3.57714 25.7805 3.64111 25.6407 3.64111C25.3654 3.64111 25.3654 4.05218 25.6407 4.04822C25.7756 4.04822 25.8411 4.08529 25.8411 4.24464C25.8411 4.51996 26.2521 4.51996 26.2483 4.24464C26.2483 4.10021 26.3157 4.04822 26.4494 4.04822C26.7247 4.04822 26.7247 3.63724 26.4494 3.64111C26.2679 3.64111 26.2483 3.53728 26.2483 3.43599C26.2491 3.32105 26.1564 3.22742 26.0415 3.22928Z" fill="#0A855C"/>
</svg>
