<svg width="24" height="24" viewBox="0 0 24 24" fill="none" xmlns="http://www.w3.org/2000/svg">
<g clip-path="url(#clip0_20565_7116)">
<path d="M12.0159 15.4612C10.0858 15.4612 8.51556 13.9223 8.51556 12.0304C8.51556 10.1385 10.0858 8.59937 12.0159 8.59937C12.2896 8.59937 12.623 8.66672 12.601 9.01704C12.5799 9.35149 12.2768 9.37356 12.0159 9.37356C10.5126 9.37356 9.28976 10.5654 9.28976 12.0304C9.28976 13.4954 10.5126 14.687 12.0159 14.687C13.5192 14.687 14.742 13.4952 14.742 12.0304C14.742 11.6023 14.641 11.1939 14.4416 10.8163C14.3418 10.6274 14.4141 10.3932 14.603 10.2933C14.792 10.1934 15.0265 10.2654 15.1262 10.4549C15.3813 10.938 15.5162 11.4828 15.5162 12.0304C15.5162 13.9223 13.9461 15.4612 12.0159 15.4612Z" fill="#0A855C"/>
<path d="M13.8619 9.96658C13.7835 9.96658 13.7044 9.94278 13.6359 9.89342C13.5335 9.81968 13.4247 9.75213 13.3126 9.69271C13.1235 9.59265 13.0515 9.35865 13.1514 9.16955C13.2513 8.98084 13.4855 8.90826 13.6746 9.00852C13.8182 9.08458 13.9575 9.17091 14.0888 9.26555C14.3861 9.47981 14.2289 9.96658 13.8619 9.96658Z" fill="#0A855C"/>
<path d="M22.5433 5.92354L22.5296 4.24296C22.5279 4.03025 22.3548 3.85916 22.1425 3.85916C22.1413 3.85916 22.1404 3.85916 22.1392 3.85916C21.9255 3.8609 21.7535 4.03567 21.7552 4.24935L21.7593 4.75935C19.4353 1.99199 15.7128 0.193542 12.1423 0.193542C8.45012 0.193542 5.03244 1.84722 2.76696 4.73012C2.63496 4.89812 2.66419 5.14141 2.83219 5.27341C3.00038 5.40561 3.24367 5.37638 3.37586 5.20819C5.49367 2.51322 8.68896 0.967736 12.1423 0.967736C15.6133 0.967736 19.2383 2.78051 21.3964 5.53993H20.334C20.1203 5.53993 19.9469 5.71316 19.9469 5.92703C19.9469 6.1407 20.1203 6.31412 20.334 6.31412H22.1562C22.2811 6.31393 22.5433 6.17477 22.5433 5.92354Z" fill="#0A855C"/>
<path d="M23.2136 7.69663C23.1362 7.49767 22.9117 7.39896 22.7125 7.47657C22.5134 7.55399 22.4147 7.77851 22.4923 7.97786C22.979 9.22683 23.2258 10.5451 23.2258 11.8961C23.2258 16.1408 20.269 20.2167 16.0558 21.9716L16.3442 21.5303C16.4611 21.3515 16.4108 21.1115 16.2319 20.9948C16.0529 20.8781 15.8131 20.928 15.696 21.107L14.7728 22.5195C14.6443 22.7156 14.7269 22.991 14.9406 23.0855L16.4959 23.7714C16.9525 23.9717 17.2651 23.2647 16.8083 23.063L16.1466 22.7713C18.1779 21.9648 20.0193 20.6235 21.4051 18.9244C23.1029 16.8426 24 14.4124 24 11.8961C24 10.4485 23.7354 9.0358 23.2136 7.69663C23.7354 9.0358 23.136 7.49747 23.2136 7.69663Z" fill="#0A855C"/>
<path d="M12.6016 22.8151C12.4492 22.8211 12.2961 22.8242 12.1423 22.8242C6.03078 22.8242 1.05872 17.922 1.05872 11.8961C1.05872 10.83 1.50678 9.49666 1.93375 8.37117L2.27517 9.12659C2.4813 9.58221 3.18601 9.26188 2.98085 8.80801L2.25911 7.21124C2.17027 7.01498 1.92582 6.92808 1.73304 7.02446L0.213881 7.7853C0.0226549 7.88092 -0.0545709 8.11356 0.041042 8.30459C0.136848 8.49582 0.369881 8.57343 0.560526 8.47724L1.18395 8.16505C0.742268 9.33601 0.284719 10.7241 0.284719 11.8959C0.284719 18.3484 5.60401 23.598 12.1425 23.598C12.3066 23.598 12.4699 23.5945 12.6323 23.5881C12.846 23.5798 13.0123 23.3996 13.0038 23.1861C12.9952 22.9727 12.8147 22.807 12.6016 22.8151C12.8147 22.807 12.4494 22.8211 12.6016 22.8151Z" fill="#0A855C"/>
<path d="M12.6196 19.74C12.2396 19.74 11.1134 19.7444 10.938 19.6697C10.6361 19.5412 10.3899 19.2135 10.3899 18.8775V18.1064C9.80653 17.9535 9.24311 17.7155 8.73291 17.4064L8.19098 17.9472C7.85072 18.2832 7.27066 18.2268 6.94414 17.9144C6.78466 17.7617 6.16375 17.1277 6.02014 16.9608C5.71395 16.6049 5.72072 16.0533 6.05537 15.7192L6.60079 15.1752C6.28182 14.6317 6.04917 14.0605 5.91679 13.4955H5.15343C4.6775 13.4955 4.28421 13.1046 4.25808 12.6329C4.24588 12.4124 4.25169 11.5231 4.25808 11.3017C4.27124 10.8455 4.64033 10.4073 5.12169 10.4073H5.8955C6.04859 9.82567 6.28685 9.2638 6.59653 8.75535L6.05556 8.21554C5.71704 7.87703 5.77569 7.29444 6.08827 6.96928C6.24137 6.81019 6.87698 6.19044 7.04401 6.04741C7.40014 5.74257 7.95175 5.74935 8.28621 6.08264L8.8324 6.62767C9.37724 6.30909 9.95014 6.07683 10.5168 5.94444V5.15225C10.5168 4.67612 10.9094 4.28419 11.3805 4.25786C11.6013 4.24567 12.4928 4.2509 12.7148 4.25786C13.1973 4.27296 13.5784 4.66722 13.5784 5.15225V5.92335C14.1618 6.07625 14.7252 6.31412 15.2354 6.62341L15.7773 6.08264C16.1168 5.74548 16.6984 5.80373 17.0241 6.11554C17.1836 6.26825 17.8045 6.90212 17.9479 7.06896C18.2541 7.42509 18.2474 7.97651 17.9125 8.31057L17.3673 8.85464C17.6863 9.39793 17.9187 9.9689 18.0513 10.5341H18.8147C19.2796 10.5341 19.6912 10.878 19.7388 11.3487C19.7619 11.5765 19.7485 12.5003 19.7419 12.7281C19.7288 13.1845 19.3601 13.6223 18.8783 13.6223H18.1045C17.9514 14.2039 17.7132 14.7656 17.4035 15.2744L17.9445 15.8141C18.2832 16.1528 18.2243 16.7353 17.9118 17.0605C17.7587 17.2196 17.1232 17.8392 16.956 17.9822C16.5997 18.2872 16.0485 18.2808 15.7138 17.9472L15.1676 17.4021C14.6228 17.7205 14.0501 17.953 13.4832 18.0853V18.8458C13.4832 19.3022 13.091 19.74 12.6196 19.74ZM11.1639 18.8468C11.1722 18.8861 11.1999 18.9658 11.285 18.9658H12.589C12.6287 18.9575 12.709 18.93 12.709 18.8456V17.7679C12.709 17.5788 12.8458 17.4172 13.0326 17.3863C13.6924 17.2765 14.3776 17.0001 15.0141 16.5873C15.1672 16.488 15.3691 16.5093 15.4982 16.638L16.2606 17.3988C16.3219 17.4602 16.4042 17.424 16.4429 17.4012L17.3704 16.5066C17.4258 16.4514 17.3923 16.373 17.3694 16.3339L16.6351 15.6012C16.5029 15.4693 16.4838 15.2621 16.5892 15.1082C16.9808 14.537 17.2756 13.8437 17.4192 13.1557C17.4567 12.9763 17.6148 12.8477 17.7981 12.8477H18.8479C18.8874 12.8396 18.9678 12.8123 18.9678 12.7279V11.4261C18.9519 11.3477 18.9004 11.3081 18.8147 11.3081H17.7345C17.5452 11.3081 17.3838 11.1714 17.3526 10.9846C17.2428 10.3268 16.9659 9.64354 16.5523 9.00851C16.4522 8.85503 16.4735 8.65257 16.6032 8.52309L17.3656 7.76225C17.4258 7.70225 17.3903 7.62115 17.3679 7.58264L16.4714 6.65728C16.4152 6.60154 16.3355 6.63522 16.2958 6.65806L15.5613 7.39103C15.4297 7.52244 15.2232 7.54161 15.0697 7.43651C14.4974 7.04612 13.8021 6.75174 13.1121 6.60832C12.9325 6.57115 12.8038 6.41264 12.8038 6.22935V5.15167C12.8038 5.07715 12.7518 5.03148 12.7144 5.03148H11.4105C11.3708 5.0398 11.2905 5.06728 11.2905 5.15167V6.26109C11.2905 6.45019 11.1536 6.6118 10.9668 6.64277C10.3072 6.75251 9.62208 7.0287 8.9853 7.44154C8.8322 7.54122 8.63053 7.51974 8.50143 7.39083L7.73904 6.63019C7.67788 6.56903 7.59543 6.60503 7.55672 6.62767L6.62924 7.52225C6.57388 7.57741 6.60737 7.6558 6.63021 7.6949L7.36453 8.42786C7.49672 8.55986 7.51588 8.76696 7.4104 8.92083C7.01904 9.49161 6.72427 10.1851 6.58046 10.8732C6.54292 11.0526 6.38479 11.1811 6.2015 11.1811H5.15227C5.11259 11.1896 5.03227 11.2169 5.03227 11.3015V12.6021C5.04059 12.6414 5.06827 12.7212 5.15343 12.7212H6.23362C6.42292 12.7212 6.58433 12.858 6.6155 13.0446C6.72524 13.7023 7.00201 14.3857 7.41582 15.0209C7.51588 15.1744 7.49459 15.3768 7.36491 15.5063L6.60253 16.267C6.54233 16.3272 6.57775 16.4083 6.60021 16.4468L7.49672 17.3721C7.55285 17.4281 7.63259 17.3944 7.67227 17.3712L8.40679 16.6382C8.53821 16.5068 8.74492 16.4876 8.89859 16.5927C9.47072 16.9833 10.1658 17.2777 10.8559 17.4211C11.0356 17.4583 11.1643 17.6168 11.1643 17.8001V18.8468H11.1639Z" fill="#0A855C"/>
</g>
<defs>
<clipPath id="clip0_20565_7116">
<rect width="24" height="24" fill="white"/>
</clipPath>
</defs>
</svg>
