<svg width="26" height="27" viewBox="0 0 26 27" fill="none" xmlns="http://www.w3.org/2000/svg">
<g clip-path="url(#clip0_15281_54616)">
<path d="M25.9492 13.4492C25.9492 16.8228 24.664 19.8967 22.5564 22.207C22.0682 22.7424 21.5356 23.2369 20.9647 23.6848C20.0033 24.4388 18.9329 25.0601 17.781 25.5217C17.2658 25.7282 16.7346 25.9027 16.1891 26.0422C15.1534 26.308 14.0678 26.4492 12.9492 26.4492C11.8566 26.4492 10.796 26.3145 9.78253 26.0602C9.23763 25.9243 8.70601 25.7536 8.19066 25.5508C3.36485 23.6519 -0.0507812 18.9495 -0.0507812 13.4492C-0.0507812 6.26942 5.76942 0.449219 12.9492 0.449219C20.129 0.449219 25.9492 6.26942 25.9492 13.4492Z" fill="#66CCB5"/>
<path d="M8.19067 20.6826H9.78255V26.0603C9.23764 25.9244 8.70602 25.7536 8.19067 25.5509V20.6826Z" fill="#3B3B3B"/>
<path d="M7.02234 18.7188H10.9503V22.6466H7.02234V18.7188Z" fill="#4A4A4A"/>
<path d="M7.02234 18.7188H8.35237V22.6466H7.02234V18.7188Z" fill="#3B3B3B"/>
<path d="M6.80826 1.41743V8.19475H4.87183V1.41743C4.87183 0.883041 5.30565 0.449219 5.84004 0.449219C5.95291 0.449219 6.06142 0.468658 6.16278 0.504761C6.53848 0.63707 6.80826 0.996109 6.80826 1.41743Z" fill="#BABABA"/>
<path d="M13.1008 1.41743V8.19475H11.1652V1.41743C11.1652 0.883041 11.5982 0.449219 12.1334 0.449219C12.2464 0.449219 12.3548 0.468658 12.4561 0.504166C12.8318 0.63707 13.1008 0.996109 13.1008 1.41743Z" fill="#BABABA"/>
<path d="M6.80829 1.41756V8.19487H5.51733V1.41756C5.51733 0.996231 5.78711 0.637192 6.16281 0.504883C6.53851 0.637192 6.80829 0.996231 6.80829 1.41756Z" fill="#CCCCCC"/>
<path d="M13.1008 1.41718V8.19449H11.8101V1.41718C11.8101 0.99585 12.0798 0.63681 12.4561 0.503906C12.8318 0.63681 13.1008 0.99585 13.1008 1.41718Z" fill="#CCCCCC"/>
<path d="M14.4563 7.7832V15.1873C14.4563 17.5679 12.5263 19.4984 10.1459 19.4984H7.82741C5.44624 19.4984 3.51636 17.5679 3.51636 15.1873V7.7832H14.4563Z" fill="#3B3B3B"/>
<path d="M14.4564 10.6729V15.1872C14.4564 17.5678 12.5263 19.4983 10.1459 19.4983H9.37648C6.99532 19.4983 5.06543 17.5678 5.06543 15.1872V10.6729H14.4564Z" fill="#4A4A4A"/>
<path d="M15.8118 8.70241C15.8118 9.37109 15.2703 9.91263 14.6016 9.91263H3.37123C3.03679 9.91263 2.73468 9.77715 2.51529 9.55835C2.29649 9.33955 2.16101 9.03685 2.16101 8.70241C2.16101 8.03452 2.70314 7.49219 3.37123 7.49219H14.6016C14.9359 7.49219 15.2386 7.62787 15.4574 7.84666C15.6764 8.06606 15.8118 8.36816 15.8118 8.70241Z" fill="#3B3B3B"/>
<path d="M15.8119 8.70241C15.8119 9.37109 15.2703 9.91263 14.6017 9.91263H6.79225C6.45781 9.91263 6.1557 9.77715 5.93631 9.55835C5.71751 9.33955 5.58203 9.03685 5.58203 8.70241C5.58203 8.03452 6.12416 7.49219 6.79225 7.49219H14.6017C14.9359 7.49219 15.2386 7.62787 15.4574 7.84666C15.6764 8.06606 15.8119 8.36816 15.8119 8.70241Z" fill="#4A4A4A"/>
<path d="M7.68562 11.6406H10.576L8.89961 14.1841H10.4603L7.80623 18.0954L8.26366 14.9934H7.39661L7.68562 11.6406Z" fill="#FFD861"/>
<path d="M22.5564 13.23V22.207C22.0682 22.7424 21.5356 23.2369 20.9647 23.6848V13.23C20.9647 12.3525 20.2504 11.6387 19.3728 11.6387C18.4951 11.6387 17.781 12.3525 17.781 13.23V25.5217C17.2658 25.7282 16.7346 25.9027 16.1891 26.0422V13.23C16.1891 11.4749 17.6169 10.0469 19.3728 10.0469C21.1282 10.0469 22.5564 11.4749 22.5564 13.23Z" fill="#3B3B3B"/>
</g>
<defs>
<clipPath id="clip0_15281_54616">
<rect width="26" height="26" fill="white" transform="translate(0 0.5)"/>
</clipPath>
</defs>
</svg>
