<svg width="100" height="76" viewBox="0 0 100 76" fill="none" xmlns="http://www.w3.org/2000/svg">
    <path fill-rule="evenodd" clip-rule="evenodd" d="M20.1403 20.8875C19.7953 20.8875 19.52 21.1768 19.5254 21.5218C19.5254 21.955 19.3403 22.1514 18.9105 22.1514C18.0656 22.1368 18.0656 23.4129 18.9105 23.4008C19.3244 23.4008 19.5254 23.5158 19.5254 24.0034C19.5138 24.8481 20.7867 24.8481 20.7748 24.0034C20.7748 23.5602 20.9821 23.4008 21.3921 23.4008C22.237 23.4153 22.237 22.1394 21.3921 22.1514C20.8351 22.1514 20.7748 21.8327 20.7748 21.5218C20.7791 21.1692 20.493 20.8819 20.1403 20.8875Z" fill="#0A855C"/>
    <path fill-rule="evenodd" clip-rule="evenodd" d="M29.4728 49.4452C29.841 49.4452 30.1395 49.1467 30.1395 48.7785V35.3106C30.1395 34.9424 29.841 34.6439 29.4728 34.6439H28.1856C27.1714 34.6439 26.62 33.458 27.2736 32.6828L33.2677 25.5692C33.2678 25.5691 33.2677 25.5692 33.2677 25.5692C33.7446 25.0039 34.6158 25.0038 35.0925 25.5692L41.0874 32.6826C41.7407 33.4581 41.1895 34.6439 40.1747 34.6439H38.8884C38.5202 34.6439 38.2218 34.9424 38.2218 35.3106V38.8017C38.2218 39.1699 38.5202 39.4684 38.8884 39.4684C39.2566 39.4684 39.5551 39.1699 39.5551 38.8017V35.9773H40.1747C42.3232 35.9773 43.4909 33.4662 42.1071 31.8236L36.112 24.7098C35.1024 23.5126 33.258 23.5124 32.2484 24.7097L26.2543 31.8233C26.2543 31.8234 26.2543 31.8233 26.2543 31.8233C24.8692 33.4663 26.0384 35.9773 28.1856 35.9773H28.8061V48.7785C28.8061 49.1467 29.1046 49.4452 29.4728 49.4452Z" fill="#16162F"/>
    <path fill-rule="evenodd" clip-rule="evenodd" d="M53.9763 39.8294C54.3445 39.8294 54.643 39.5309 54.643 39.1627V29.5753H55.2626C57.4111 29.5753 58.5788 27.0642 57.195 25.4216L51.1999 18.3078C50.1903 17.1106 48.3458 17.1105 47.3363 18.3077L41.3422 25.4213C41.3421 25.4214 41.3422 25.4213 41.3422 25.4213C39.9571 27.0643 41.1263 29.5753 43.2734 29.5753H43.894V38.0384C43.894 38.4066 44.1925 38.7051 44.5607 38.7051C44.9289 38.7051 45.2274 38.4066 45.2274 38.0384V28.9086C45.2274 28.5404 44.9289 28.242 44.5607 28.242H43.2734C42.2593 28.242 41.7079 27.0561 42.3615 26.2808L48.3556 19.1672C48.3557 19.1671 48.3556 19.1673 48.3556 19.1672C48.8324 18.602 49.7035 18.6018 50.1803 19.167C50.1803 19.1671 50.1803 19.167 50.1803 19.167L56.1753 26.2806C56.8286 27.0561 56.2774 28.242 55.2626 28.242H53.9763C53.6081 28.242 53.3096 28.5404 53.3096 28.9086V39.1627C53.3096 39.5309 53.6081 39.8294 53.9763 39.8294Z" fill="#16162F"/>
    <path fill-rule="evenodd" clip-rule="evenodd" d="M71.5271 48.7793C71.5271 49.3316 71.0794 49.7793 70.5271 49.7793C69.9748 49.7793 69.5271 49.3316 69.5271 48.7793V24.8982C69.5271 24.3459 69.9748 23.8982 70.5271 23.8982H71.8134C72.544 23.8982 72.9424 23.0441 72.4709 22.4838L72.4708 22.4837L70.3084 19.9183C69.9525 19.496 70.0062 18.8651 70.4285 18.5092C70.8508 18.1532 71.4817 18.207 71.8376 18.6293L74.0005 21.1952L74.0009 21.1957C75.5664 23.0556 74.246 25.8982 71.8134 25.8982H71.5271V48.7793ZM62.1115 38.8018C62.1115 39.3541 61.6638 39.8018 61.1115 39.8018C60.5592 39.8018 60.1115 39.3541 60.1115 38.8018V30.8946L59.5492 25.886C57.2951 25.6809 56.1324 22.9842 57.6376 21.196L57.638 21.1954L63.6325 14.0835L63.6324 14.084L63.6331 14.0828C64.7748 12.7264 66.8637 12.7264 68.0055 14.0827L68.0056 14.0828L68.0061 14.0835L70.0102 16.4609C70.3661 16.8832 70.3124 17.5141 69.8901 17.87C69.4678 18.226 68.8369 18.1722 68.481 17.75L66.4763 15.3717L66.4756 15.371C66.133 14.9637 65.5056 14.9637 65.1629 15.371L65.1623 15.3717L63.2882 17.5952L62.1115 29.6001V38.8018ZM59.3068 23.7269L59.5492 25.886C59.6395 25.8942 59.7315 25.8984 59.8252 25.8984H60.1115V30.8946L61.1115 39.8018L62.1115 29.6001V24.8984C62.1115 24.3461 61.6638 23.8984 61.1115 23.8984H59.8252C59.6232 23.8984 59.4466 23.8332 59.3068 23.7269ZM59.1673 22.4844L59.3068 23.7269C58.9409 23.4487 58.8266 22.8898 59.1673 22.4844ZM63.2882 17.5952L59.1677 22.4839L63.6324 14.084L63.2882 17.5952Z" fill="#16162F"/>
    <path d="M31.829 61.1364C31.8252 59.9006 31.0944 58.781 29.952 58.3085L29.4308 58.0922C27.4928 57.2899 26.3228 55.4167 26.3228 53.4415C26.3228 52.7993 26.4466 52.1476 26.7077 51.5178C27.7701 48.951 30.7133 47.7314 33.2801 48.7956L33.8042 49.0129C34.9504 49.4874 36.2634 49.2092 37.14 48.3297C37.1495 48.3202 37.159 48.3107 37.1685 48.3011C38.0451 47.4255 38.3186 46.1145 37.8441 44.9692L37.6278 44.448C37.3677 43.8172 37.2438 43.1655 37.2438 42.5233C37.2438 40.5491 38.4139 38.6749 40.3519 37.8727C42.9187 36.8103 45.8619 38.0299 46.9253 40.5968L47.1425 41.1198C47.617 42.2651 48.7385 42.9969 49.9771 42.9959H50.0181C51.2586 42.9978 52.3829 42.2661 52.8574 41.1198L53.0747 40.5968C53.8769 38.6597 55.7511 37.4887 57.7253 37.4887C58.3666 37.4887 59.0183 37.6126 59.6481 37.8727C62.2149 38.937 63.4345 41.8792 62.3702 44.448L62.1549 44.9692C61.6795 46.1164 61.9577 47.4284 62.8362 48.305C62.8457 48.3145 62.8552 48.325 62.8657 48.3345C63.7404 49.2111 65.0514 49.4855 66.1958 49.0119L66.7179 48.7956C67.3477 48.5346 68.0013 48.4117 68.6416 48.4117C70.6168 48.4117 72.4909 49.5808 73.2932 51.5178C74.3556 54.0856 73.137 57.0279 70.5691 58.0922L70.048 58.3075C68.9046 58.781 68.1719 59.8996 68.17 61.1364" stroke="#16162F" stroke-width="2" stroke-miterlimit="10" stroke-linecap="round" stroke-linejoin="round"/>
    <path d="M43.3096 51.0462C45.2276 49.7761 47.5276 49.0358 50.0002 49.0358C56.6879 49.0358 62.1151 54.4496 62.1313 61.1364" stroke="#0A855C" stroke-width="2" stroke-miterlimit="10" stroke-linecap="round" stroke-linejoin="round"/>
    <path d="M41.1777 52.8403C39.133 55.0061 37.8763 57.9245 37.8687 61.1364" stroke="#0A855C" stroke-width="2" stroke-miterlimit="10" stroke-linecap="round" stroke-linejoin="round"/>
    <path fill-rule="evenodd" clip-rule="evenodd" d="M23.6896 9.33337C23.5002 9.33337 23.349 9.49224 23.352 9.6817C23.352 9.9195 23.2503 10.0273 23.0144 10.0273C22.5505 10.0273 22.5505 10.7199 23.0144 10.7132C23.2416 10.7132 23.352 10.7758 23.352 11.0442C23.3447 11.5078 24.0444 11.5078 24.0379 11.0442C24.0379 10.8008 24.1517 10.7132 24.3768 10.7132C24.8406 10.7132 24.8406 10.0207 24.3768 10.0273C24.071 10.0273 24.0379 9.85237 24.0379 9.6817C24.0408 9.48802 23.8832 9.33031 23.6896 9.33337Z" fill="#16162F"/>
    <path fill-rule="evenodd" clip-rule="evenodd" d="M32.0243 3.33339C31.7729 3.33339 31.5723 3.54423 31.5762 3.79557C31.5762 4.11114 31.4414 4.25429 31.1282 4.25429C30.5126 4.23973 30.5126 5.17336 31.1282 5.16462C31.4297 5.16462 31.5762 5.24764 31.5762 5.60369C31.5675 6.21925 32.4952 6.21925 32.4865 5.60369C32.4865 5.2807 32.6376 5.16462 32.9363 5.16462C33.5519 5.17918 33.5519 4.24541 32.9363 4.25429C32.5305 4.25429 32.4865 4.02202 32.4865 3.79557C32.4894 3.53855 32.2812 3.32931 32.0243 3.33339Z" fill="#16162F"/>
    <path fill-rule="evenodd" clip-rule="evenodd" d="M61.6896 4.28838e-05C61.5002 0.00295537 61.349 0.158914 61.352 0.348371C61.352 0.586175 61.2503 0.693944 61.0144 0.693944C60.5505 0.693944 60.5505 1.38654 61.0144 1.37985C61.2416 1.37985 61.352 1.44242 61.352 1.71066C61.3447 2.17448 62.0444 2.17448 62.0379 1.71066C62.0379 1.46733 62.1517 1.37985 62.3768 1.37985C62.8406 1.37985 62.8406 0.687391 62.3768 0.693944C62.071 0.693944 62.0379 0.519042 62.0379 0.348371C62.0408 0.154837 61.8832 -0.0029861 61.6896 4.28838e-05Z" fill="#0A855C"/>
    <path fill-rule="evenodd" clip-rule="evenodd" d="M81.2869 3.00462C81.0356 3.00462 80.835 3.21555 80.8389 3.4669C80.8389 3.78246 80.7041 3.92561 80.3909 3.92561C79.7753 3.91105 79.7753 4.84459 80.3909 4.83585C80.6924 4.83585 80.8389 4.91888 80.8389 5.27493C80.8302 5.89048 81.7579 5.89048 81.7492 5.27493C81.7492 4.95208 81.9003 4.83585 82.199 4.83585C82.8146 4.85042 82.8146 3.91688 82.199 3.92561C81.7932 3.92561 81.7492 3.69349 81.7492 3.4669C81.7521 3.21001 81.5439 3.00054 81.2869 3.00462Z" fill="#16162F"/>
    <path fill-rule="evenodd" clip-rule="evenodd" d="M77.4786 14.6192C77.2892 14.6192 77.1381 14.7781 77.141 14.9674C77.141 15.2052 77.0394 15.3131 76.8035 15.3131C76.3396 15.3131 76.3396 16.0055 76.8035 15.999C77.0307 15.999 77.141 16.0616 77.141 16.3298C77.1337 16.7936 77.8335 16.7936 77.8269 16.3298C77.8269 16.0865 77.9408 15.999 78.1658 15.999C78.6297 15.999 78.6297 15.3064 78.1658 15.3131C77.86 15.3131 77.8269 15.1382 77.8269 14.9674C77.8298 14.7739 77.6722 14.6161 77.4786 14.6192Z" fill="#0A855C"/>
    <path fill-rule="evenodd" clip-rule="evenodd" d="M76.9929 26.0313C76.6479 26.0313 76.3726 26.3206 76.3779 26.6656C76.3779 27.0988 76.1929 27.2951 75.7631 27.2951C74.9182 27.2806 74.9182 28.5566 75.7631 28.5446C76.1769 28.5446 76.3779 28.6596 76.3779 29.1472C76.3663 29.9919 77.6392 29.9919 77.6273 29.1472C77.6273 28.704 77.8347 28.5446 78.2446 28.5446C79.0895 28.5592 79.0895 27.2832 78.2446 27.2951C77.6876 27.2951 77.6273 26.9765 77.6273 26.6656C77.6317 26.313 77.3455 26.0258 76.9929 26.0313Z" fill="#0A855C"/>
    <path fill-rule="evenodd" clip-rule="evenodd" d="M30.6912 11.3334C30.4399 11.3334 30.2393 11.5442 30.2432 11.7956C30.2432 12.1111 30.1084 12.2543 29.7952 12.2543C29.1796 12.2397 29.1796 13.1734 29.7952 13.1646C30.0967 13.1646 30.2432 13.2476 30.2432 13.6038C30.2345 14.2192 31.1622 14.2192 31.1535 13.6038C31.1535 13.2808 31.3046 13.1646 31.6033 13.1646C32.2189 13.1792 32.2189 12.2456 31.6033 12.2543C31.1975 12.2543 31.1535 12.0222 31.1535 11.7956C31.1564 11.5387 30.9482 11.3293 30.6912 11.3334Z" fill="#16162F"/>
    <path fill-rule="evenodd" clip-rule="evenodd" d="M50.3829 4.42897e-05C50.1886 0.00295677 50.0335 0.162983 50.0366 0.35726C50.0366 0.601151 49.9323 0.71181 49.6903 0.71181C49.2146 0.704529 49.2146 1.42211 49.6903 1.41531C49.9234 1.41531 50.0366 1.47987 50.0366 1.75475C50.0308 2.23044 50.7469 2.23044 50.7401 1.75475C50.7401 1.50516 50.857 1.41531 51.0877 1.41531C51.5635 1.42259 51.5635 0.705009 51.0877 0.71181C50.7741 0.71181 50.7401 0.532329 50.7401 0.35726C50.7416 0.158673 50.5814 -0.00307206 50.3829 4.42897e-05Z" fill="#16162F"/>
    <path d="M15.7748 62.5392C15.651 62.5374 15.5282 62.5603 15.4133 62.6064C15.2985 62.6526 15.194 62.7211 15.1059 62.8079C15.0177 62.8948 14.9478 62.9984 14.9 63.1125C14.8522 63.2267 14.8276 63.3492 14.8276 63.473C14.8276 63.5967 14.8522 63.7193 14.9 63.8334C14.9478 63.9476 15.0177 64.0511 15.1059 64.138C15.194 64.2249 15.2985 64.2934 15.4133 64.3395C15.5282 64.3857 15.651 64.4085 15.7748 64.4068H90.1374C90.2612 64.4085 90.384 64.3857 90.4989 64.3395C90.6137 64.2934 90.7182 64.2249 90.8063 64.138C90.8944 64.0511 90.9644 63.9476 91.0122 63.8334C91.06 63.7193 91.0845 63.5967 91.0845 63.473C91.0845 63.3492 91.06 63.2267 91.0122 63.1125C90.9644 62.9984 90.8944 62.8948 90.8063 62.8079C90.7182 62.7211 90.6137 62.6526 90.4989 62.6064C90.384 62.5603 90.2612 62.5374 90.1374 62.5392H15.7748Z" fill="#16162F"/>
    <path d="M95.1971 62.5392C95.0734 62.5374 94.9505 62.5603 94.8357 62.6064C94.7209 62.6526 94.6163 62.7211 94.5282 62.8079C94.4401 62.8948 94.3701 62.9984 94.3224 63.1125C94.2746 63.2267 94.25 63.3492 94.25 63.473C94.25 63.5967 94.2746 63.7193 94.3224 63.8334C94.3701 63.9476 94.4401 64.0511 94.5282 64.138C94.6163 64.2249 94.7209 64.2934 94.8357 64.3395C94.9505 64.3857 95.0734 64.4085 95.1971 64.4068H99.0528C99.1765 64.4085 99.2994 64.3857 99.4142 64.3395C99.529 64.2934 99.6335 64.2249 99.7217 64.138C99.8098 64.0511 99.8798 63.9476 99.9275 63.8334C99.9753 63.7193 99.9999 63.5967 99.9999 63.473C99.9999 63.3492 99.9753 63.2267 99.9275 63.1125C99.8798 62.9984 99.8098 62.8948 99.7217 62.8079C99.6335 62.7211 99.529 62.6526 99.4142 62.6064C99.2994 62.5603 99.1765 62.5374 99.0528 62.5392H95.1971Z" fill="#16162F"/>
    <path d="M0.94712 62.5392C0.823377 62.5374 0.700521 62.5603 0.585691 62.6064C0.470861 62.6526 0.366347 62.7211 0.278223 62.8079C0.190099 62.8948 0.120122 62.9984 0.0723589 63.1125C0.0245961 63.2267 0 63.3492 0 63.473C0 63.5967 0.0245961 63.7193 0.0723589 63.8334C0.120122 63.9476 0.190099 64.0511 0.278223 64.138C0.366347 64.2249 0.470861 64.2934 0.585691 64.3395C0.700521 64.3857 0.823377 64.4085 0.94712 64.4068H11.5985C11.7222 64.4085 11.8451 64.3857 11.9599 64.3395C12.0748 64.2934 12.1793 64.2249 12.2674 64.138C12.3555 64.0511 12.4255 63.9476 12.4733 63.8334C12.521 63.7193 12.5456 63.5967 12.5456 63.473C12.5456 63.3492 12.521 63.2267 12.4733 63.1125C12.4255 62.9984 12.3555 62.8948 12.2674 62.8079C12.1793 62.7211 12.0748 62.6526 11.9599 62.6064C11.8451 62.5603 11.7222 62.5374 11.5985 62.5392H0.94712Z" fill="#16162F"/>
    <path fill-rule="evenodd" clip-rule="evenodd" d="M22.5881 66.6667C22.4242 66.6655 22.2615 66.6818 22.1094 66.7147C21.9572 66.7477 21.8188 66.7966 21.7021 66.8586C21.5853 66.9206 21.4926 66.9945 21.4294 67.076C21.3661 67.1575 21.3335 67.245 21.3335 67.3333C21.3335 67.4217 21.3661 67.5091 21.4294 67.5906C21.4926 67.6721 21.5853 67.746 21.7021 67.808C21.8188 67.8701 21.9572 67.919 22.1094 67.9519C22.2615 67.9849 22.4242 68.0012 22.5881 67.9999H71.4122C71.5761 68.0012 71.7388 67.9849 71.891 67.9519C72.0431 67.919 72.1815 67.8701 72.2983 67.808C72.415 67.746 72.5077 67.6721 72.571 67.5906C72.6342 67.5091 72.6668 67.4217 72.6668 67.3333C72.6668 67.245 72.6342 67.1575 72.571 67.076C72.5077 66.9945 72.415 66.9206 72.2983 66.8586C72.1815 66.7966 72.0431 66.7477 71.891 66.7147C71.7388 66.6818 71.5761 66.6655 71.4122 66.6667H22.5881Z" fill="#0A855C"/>
    <path fill-rule="evenodd" clip-rule="evenodd" d="M38.3001 70.0099C38.1764 70.0081 38.0536 70.031 37.9387 70.0771C37.8239 70.1233 37.7194 70.1918 37.6312 70.2787C37.5431 70.3655 37.4731 70.4691 37.4254 70.5832C37.3776 70.6974 37.353 70.8199 37.353 70.9437C37.353 71.0674 37.3776 71.19 37.4254 71.3041C37.4731 71.4183 37.5431 71.5218 37.6312 71.6087C37.7194 71.6956 37.8239 71.7641 37.9387 71.8102C38.0536 71.8564 38.1764 71.8793 38.3001 71.8775H48.1271C48.2509 71.8793 48.3737 71.8564 48.4886 71.8102C48.6034 71.7641 48.7079 71.6956 48.796 71.6087C48.8842 71.5218 48.9541 71.4183 49.0019 71.3041C49.0497 71.19 49.0743 71.0674 49.0743 70.9437C49.0743 70.8199 49.0497 70.6974 49.0019 70.5832C48.9541 70.4691 48.8842 70.3655 48.796 70.2787C48.7079 70.1918 48.6034 70.1233 48.4886 70.0771C48.3737 70.031 48.2509 70.0081 48.1271 70.0099H38.3001Z" fill="#0A855C"/>
    <path fill-rule="evenodd" clip-rule="evenodd" d="M53.2411 70.0099C53.1173 70.0081 52.9945 70.031 52.8796 70.0771C52.7648 70.1233 52.6603 70.1918 52.5722 70.2787C52.484 70.3655 52.4141 70.4691 52.3663 70.5832C52.3185 70.6974 52.2939 70.8199 52.2939 70.9437C52.2939 71.0674 52.3185 71.19 52.3663 71.3041C52.4141 71.4183 52.484 71.5218 52.5722 71.6087C52.6603 71.6956 52.7648 71.7641 52.8796 71.8102C52.9945 71.8564 53.1173 71.8793 53.2411 71.8775H63.0681C63.1918 71.8793 63.3146 71.8564 63.4295 71.8102C63.5443 71.7641 63.6488 71.6956 63.7369 71.6087C63.8251 71.5218 63.895 71.4183 63.9428 71.3041C63.9906 71.19 64.0152 71.0674 64.0152 70.9437C64.0152 70.8199 63.9906 70.6974 63.9428 70.5832C63.895 70.4691 63.8251 70.3655 63.7369 70.2787C63.6488 70.1918 63.5443 70.1233 63.4295 70.0771C63.3146 70.031 63.1918 70.0081 63.0681 70.0099H53.2411Z" fill="#0A855C"/>
    <path fill-rule="evenodd" clip-rule="evenodd" d="M45.6136 73.3334C45.4899 73.3317 45.367 73.3545 45.2522 73.4007C45.1374 73.4468 45.0328 73.5153 44.9447 73.6022C44.8566 73.6891 44.7866 73.7926 44.7389 73.9068C44.6911 74.021 44.6665 74.1435 44.6665 74.2673C44.6665 74.391 44.6911 74.5135 44.7389 74.6277C44.7866 74.7419 44.8566 74.8454 44.9447 74.9323C45.0328 75.0192 45.1374 75.0877 45.2522 75.1338C45.367 75.18 45.4899 75.2028 45.6136 75.2011H55.4406C55.5644 75.2028 55.6872 75.18 55.802 75.1338C55.9169 75.0877 56.0214 75.0192 56.1095 74.9323C56.1976 74.8454 56.2676 74.7419 56.3154 74.6277C56.3631 74.5135 56.3877 74.391 56.3877 74.2673C56.3877 74.1435 56.3631 74.021 56.3154 73.9068C56.2676 73.7926 56.1976 73.6891 56.1095 73.6022C56.0214 73.5153 55.9169 73.4468 55.802 73.4007C55.6872 73.3545 55.5644 73.3317 55.4406 73.3334H45.6136Z" fill="#0A855C"/>
</svg>