<svg width="54" height="36" viewBox="0 0 54 36" fill="none" xmlns="http://www.w3.org/2000/svg">
<path d="M43.2849 10.7138C43.156 10.7138 43.0255 10.6849 42.9025 10.6234L27.0001 2.67225L11.0976 10.6235C10.6741 10.8348 10.1602 10.6636 9.94749 10.24C9.73575 9.81646 9.90732 9.30174 10.3309 9.08989L26.6166 0.94708C26.8577 0.826574 27.1424 0.826574 27.3834 0.94708L43.6691 9.08999C44.0927 9.30174 44.2642 9.81656 44.0525 10.2401C43.9019 10.5405 43.5996 10.7138 43.2849 10.7138V10.7138Z" fill="#F4AA73"/>
<path d="M51.8572 8.71672C51.5892 8.62205 51.3005 8.5714 51.0001 8.5714H2.99994C1.57982 8.5713 0.428528 9.72259 0.428528 11.1428V33.4285C0.428528 33.7291 0.480114 34.0175 0.574879 34.2856L2.99994 35.0927H50.3398C51.76 35.0927 52.9113 33.9414 52.9113 32.5212V11.1428L51.8572 8.71672Z" fill="#F8EBCC"/>
<path d="M36.5531 31.1655C36.0793 31.1655 35.696 30.7817 35.696 30.3084V24.6905C35.696 24.3154 35.9396 23.984 36.2978 23.8722C36.6561 23.7596 37.0453 23.8945 37.2587 24.2034L39.6159 27.6169L39.5875 24.6884C39.5833 24.2151 39.9633 23.8275 40.4362 23.8228H40.4446C40.9142 23.8228 41.2976 24.2012 41.3017 24.6716L41.3545 30.1103C41.3545 30.5665 41.0966 30.9365 40.6973 31.0608C40.3014 31.1833 39.8913 31.0332 39.6468 30.6778L37.4103 27.4396V30.3082C37.4103 30.7817 37.0269 31.1655 36.5531 31.1655V31.1655Z" fill="#77CC7D"/>
<path d="M34.5108 21.1113C34.0369 21.1113 33.6536 20.7275 33.6536 20.2541V14.6363C33.6536 14.2612 33.8972 13.9298 34.2554 13.818C34.6129 13.7058 35.003 13.8402 35.2164 14.1491L37.5735 17.5635L37.5451 14.6342C37.5409 14.1609 37.9209 13.7733 38.3938 13.7686C38.8358 13.787 39.2551 14.1445 39.2594 14.6174L39.3121 20.0561C39.3121 20.5123 39.0543 20.8823 38.6542 21.0066C38.2616 21.1287 37.8489 20.979 37.6036 20.6236L35.3679 17.3858V20.2539C35.3679 20.7275 34.9845 21.1113 34.5108 21.1113Z" fill="#77CC7D"/>
<path d="M25.5602 21.1109C25.1349 21.1109 24.7599 20.8405 24.626 20.4375L23.8811 17.9125L23.4391 20.3621C23.3546 20.828 22.9152 21.1406 22.443 21.0531C21.9776 20.969 21.6679 20.5232 21.7517 20.0574L22.741 14.5764C22.8298 14.1248 23.2014 13.7988 23.6476 13.7707C24.0912 13.7452 24.503 14.0185 24.6437 14.4429L25.5477 17.5061L26.4108 14.4785C26.5572 14.024 26.9507 13.7386 27.4119 13.7699C27.858 13.795 28.2322 14.1186 28.3209 14.5568L29.3706 20.0487C29.4594 20.5137 29.1546 20.9627 28.6892 21.0519C28.2254 21.1381 27.7752 20.8359 27.6864 20.3704L27.216 17.9074L26.5054 20.4005C26.3647 20.8354 25.9905 21.1092 25.5636 21.1108C25.5627 21.1109 25.561 21.1109 25.5602 21.1109Z" fill="#77CC7D"/>
<path d="M31.4314 21.1113C30.9575 21.1113 30.5742 20.7275 30.5742 20.2541V14.6258C30.5742 14.1525 30.9576 13.7686 31.4314 13.7686C31.9051 13.7686 32.2885 14.1525 32.2885 14.6258V20.2541C32.2885 20.7275 31.9051 21.1113 31.4314 21.1113Z" fill="#77CC7D"/>
<path d="M44.0642 21.1113C42.0402 21.1113 40.3928 19.4644 40.3928 17.44C40.3928 15.4155 42.0402 13.7686 44.0642 13.7686C44.7991 13.7686 45.5089 13.9855 46.1166 14.396C46.5091 14.6609 46.6121 15.1936 46.3476 15.5859C46.0823 15.978 45.5508 16.0818 45.1573 15.8165C44.8342 15.5984 44.4559 15.4829 44.0642 15.4829C42.9852 15.4829 42.1071 16.361 42.1071 17.44C42.1071 18.5189 42.9852 19.397 44.0642 19.397C44.8677 19.397 45.313 18.9107 45.5105 18.2971H44.8099C44.3361 18.2971 43.9528 17.9133 43.9528 17.44C43.9528 16.9667 44.3362 16.5828 44.8099 16.5828H46.4933C46.9671 16.5828 47.3504 16.9667 47.3504 17.44C47.3505 19.6016 45.9994 21.1113 44.0642 21.1113Z" fill="#77CC7D"/>
<path d="M10.5988 21.1111C8.57476 21.1111 6.92743 19.4642 6.92743 17.4398C6.92743 15.4154 8.57476 13.7684 10.5988 13.7684C11.3337 13.7684 12.0435 13.9853 12.6512 14.3954C13.0437 14.6598 13.1475 15.1926 12.8831 15.5853C12.6178 15.9787 12.0845 16.0816 11.6936 15.8167C11.3688 15.5982 10.9905 15.4827 10.5988 15.4827C9.51981 15.4827 8.64171 16.3608 8.64171 17.4398C8.64171 18.5187 9.51981 19.3968 10.5988 19.3968C10.9913 19.3968 11.3186 19.2821 11.5731 19.0553C11.6241 19.0097 11.6711 18.9616 11.7137 18.9101C12.0175 18.5473 12.5575 18.497 12.9216 18.8022C13.2849 19.1056 13.3326 19.6463 13.0295 20.0092C12.9315 20.126 12.8261 20.2352 12.7123 20.3365C12.144 20.8428 11.4124 21.1111 10.5988 21.1111Z" fill="#77CC7D"/>
<path d="M15.2921 31.1657C14.2851 31.1657 13.3384 30.7589 12.6956 30.0495C12.3774 29.6988 12.4043 29.1568 12.7551 28.8387C13.1049 28.5215 13.6482 28.5475 13.9662 28.8986C14.2801 29.2448 14.7756 29.4515 15.2921 29.4515C15.7969 29.4515 16.0873 29.1451 16.1241 28.938C16.1684 28.6898 15.8228 28.468 15.4846 28.3428C14.6065 28.0193 13.8273 27.6723 13.7947 27.6577C13.7528 27.6393 13.7135 27.6175 13.675 27.5928C13.0313 27.1726 12.6998 26.436 12.8094 25.6709C12.9258 24.8593 13.5168 24.199 14.3521 23.9478C15.6412 23.5586 16.8457 24.1768 17.3513 24.6033C17.7137 24.9079 17.7607 25.4487 17.4559 25.8107C17.1521 26.1711 16.6155 26.2197 16.2539 25.9195C16.2329 25.9028 15.5582 25.3762 14.8459 25.5893C14.6517 25.648 14.5278 25.7664 14.5061 25.9149C14.4985 25.9664 14.4993 26.0577 14.5755 26.1283C14.7932 26.2233 15.4134 26.4895 16.0772 26.7348C17.5864 27.2915 17.9622 28.3935 17.8116 29.2393C17.6123 30.3554 16.5527 31.1657 15.2921 31.1657Z" fill="#77CC7D"/>
<path d="M17.4467 21.1113C15.4227 21.1113 13.7754 19.4644 13.7754 17.44C13.7754 15.4155 15.4227 13.7686 17.4467 13.7686C19.4707 13.7686 21.118 15.4155 21.118 17.44C21.118 19.4644 19.4707 21.1113 17.4467 21.1113ZM17.4467 15.4829C16.3678 15.4829 15.4897 16.361 15.4897 17.44C15.4897 18.5189 16.3678 19.397 17.4467 19.397C18.5257 19.397 19.4038 18.5189 19.4038 17.44C19.4038 16.361 18.5257 15.4829 17.4467 15.4829Z" fill="#77CC7D"/>
<path d="M22.4111 31.1655C20.3871 31.1655 18.7397 29.5186 18.7397 27.4942C18.7397 25.4698 20.3871 23.8228 22.4111 23.8228C24.4351 23.8228 26.0824 25.4698 26.0824 27.4942C26.0824 29.5186 24.4351 31.1655 22.4111 31.1655ZM22.4111 25.5371C21.3321 25.5371 20.454 26.4152 20.454 27.4942C20.454 28.5731 21.3321 29.4512 22.4111 29.4512C23.49 29.4512 24.3681 28.5731 24.3681 27.4942C24.3681 26.4152 23.49 25.5371 22.4111 25.5371Z" fill="#77CC7D"/>
<path d="M30.8143 31.1655C28.7903 31.1655 27.143 29.5186 27.143 27.4942C27.143 25.4698 28.7903 23.8228 30.8143 23.8228C32.8383 23.8228 34.4857 25.4698 34.4857 27.4942C34.4857 29.5186 32.8383 31.1655 30.8143 31.1655ZM30.8143 25.5371C29.7354 25.5371 28.8573 26.4152 28.8573 27.4942C28.8573 28.5731 29.7354 29.4512 30.8143 29.4512C31.8933 29.4512 32.7714 28.5731 32.7714 27.4942C32.7714 26.4152 31.8933 25.5371 30.8143 25.5371Z" fill="#77CC7D"/>
<path d="M27 3.42848C27.9468 3.42848 28.7143 2.66097 28.7143 1.7142C28.7143 0.767431 27.9468 -7.62939e-05 27 -7.62939e-05C26.0533 -7.62939e-05 25.2858 0.767431 25.2858 1.7142C25.2858 2.66097 26.0533 3.42848 27 3.42848Z" fill="#FCDBB2"/>
<path d="M51.8572 8.71667V30.857C51.8572 32.7506 50.3222 34.2856 48.4287 34.2856H0.57486C0.929112 35.282 1.88195 35.9999 2.99992 35.9999H51.0001C52.4202 35.9999 53.5715 34.8486 53.5715 33.4285V11.1427C53.5715 10.0247 52.8536 9.07092 51.8572 8.71667V8.71667Z" fill="#FCDBB2"/>
</svg>
