<svg width="61" height="42" viewBox="0 0 61 42" fill="none" xmlns="http://www.w3.org/2000/svg">
<path d="M9.95444 33.7112C9.88052 33.7102 9.80713 33.7238 9.73854 33.7512C9.66994 33.7787 9.60751 33.8195 9.55487 33.8711C9.50223 33.9228 9.46043 33.9844 9.4319 34.0523C9.40336 34.1203 9.38867 34.1932 9.38867 34.2668C9.38867 34.3404 9.40336 34.4133 9.4319 34.4812C9.46043 34.5491 9.50223 34.6107 9.55487 34.6624C9.60751 34.7141 9.66994 34.7549 9.73854 34.7823C9.80713 34.8098 9.88052 34.8234 9.95444 34.8223H54.3776C54.4515 34.8234 54.5249 34.8098 54.5935 34.7823C54.6621 34.7549 54.7245 34.7141 54.7771 34.6624C54.8298 34.6107 54.8716 34.5491 54.9001 34.4812C54.9286 34.4133 54.9433 34.3404 54.9433 34.2668C54.9433 34.1932 54.9286 34.1203 54.9001 34.0523C54.8716 33.9844 54.8298 33.9228 54.7771 33.8711C54.7245 33.8195 54.6621 33.7787 54.5935 33.7512C54.5249 33.7238 54.4515 33.7102 54.3776 33.7112H9.95444Z" fill="#16162F"/>
<path fill-rule="evenodd" clip-rule="evenodd" d="M45.7 5.71113H15.3C15.0791 5.71113 14.9 5.89022 14.9 6.11113V10.5111H46.1V6.11113C46.1 5.89022 45.9209 5.71113 45.7 5.71113ZM46.1 11.3111H14.9V32.1111C14.9 32.332 15.0791 32.5111 15.3 32.5111H45.7C45.9209 32.5111 46.1 32.332 46.1 32.1111V11.3111ZM14.1 10.9111V6.11113C14.1 5.44839 14.6372 4.91113 15.3 4.91113H45.7C46.3627 4.91113 46.9 5.44839 46.9 6.11113V10.9111V32.1111C46.9 32.7739 46.3627 33.3111 45.7 33.3111H15.3C14.6372 33.3111 14.1 32.7739 14.1 32.1111V10.9111ZM36.0237 23.7456C34.9122 25.6396 32.8546 26.9111 30.5 26.9111C28.1453 26.9111 26.0877 25.6396 24.9763 23.7456L28.1445 19.2409L30.4592 22.9216C30.5645 23.0891 30.778 23.1562 30.9624 23.0798L34.5187 21.6058L36.0237 23.7456ZM36.4313 22.9198L34.9991 20.8834C34.8897 20.7279 34.6845 20.669 34.5073 20.7425L30.9673 22.2097L28.509 18.3006C28.4369 18.1859 28.3109 18.1147 28.1739 18.1113C28.0369 18.1078 27.9074 18.1725 27.8294 18.2834L24.5687 22.9198C24.2665 22.1763 24.1 21.3631 24.1 20.5111C24.1 16.9765 26.9654 14.1111 30.5 14.1111C34.0346 14.1111 36.9 16.9765 36.9 20.5111C36.9 21.3631 36.7335 22.1763 36.4313 22.9198ZM37.7 20.5111C37.7 24.4876 34.4764 27.7111 30.5 27.7111C26.5235 27.7111 23.3 24.4876 23.3 20.5111C23.3 16.5347 26.5235 13.3111 30.5 13.3111C34.4764 13.3111 37.7 16.5347 37.7 20.5111ZM43.8781 19.7784C44.0619 19.6558 44.3102 19.7055 44.4328 19.8893L45.6328 21.6893C45.7224 21.8237 45.7224 21.9987 45.6328 22.1331L44.4328 23.9331C44.3102 24.1169 44.0619 24.1665 43.8781 24.044C43.6943 23.9215 43.6446 23.6731 43.7671 23.4893L44.8192 21.9112L43.7671 20.3331C43.6446 20.1492 43.6943 19.9009 43.8781 19.7784ZM16.5672 19.8893C16.6897 19.7055 16.9381 19.6558 17.1219 19.7784C17.3057 19.9009 17.3553 20.1492 17.2328 20.3331L16.1807 21.9112L17.2328 23.4893C17.3553 23.6731 17.3057 23.9215 17.1219 24.044C16.9381 24.1665 16.6897 24.1169 16.5672 23.9331L15.3672 22.1331C15.2776 21.9987 15.2776 21.8237 15.3672 21.6893L16.5672 19.8893ZM23.9 28.3111C23.6791 28.3111 23.5 28.4902 23.5 28.7111C23.5 28.932 23.6791 29.1111 23.9 29.1111H37.7C37.9209 29.1111 38.1 28.932 38.1 28.7111C38.1 28.4902 37.9209 28.3111 37.7 28.3111H23.9ZM25.5 29.5111C25.2791 29.5111 25.1 29.6902 25.1 29.9111C25.1 30.132 25.2791 30.3111 25.5 30.3111H36.1C36.3209 30.3111 36.5 30.132 36.5 29.9111C36.5 29.6902 36.3209 29.5111 36.1 29.5111H25.5ZM15.3 7.91113C15.3 7.69022 15.4791 7.51113 15.7 7.51113H17.7C17.9209 7.51113 18.1 7.69022 18.1 7.91113C18.1 8.13205 17.9209 8.31113 17.7 8.31113H15.7C15.4791 8.31113 15.3 8.13205 15.3 7.91113ZM19.3 7.91113C19.3 7.69022 19.4791 7.51113 19.7 7.51113H22.7C22.9209 7.51113 23.1 7.69022 23.1 7.91113C23.1 8.13205 22.9209 8.31113 22.7 8.31113H19.7C19.4791 8.31113 19.3 8.13205 19.3 7.91113ZM24.3 7.91113C24.3 7.69022 24.4791 7.51113 24.7 7.51113H27.5C27.7209 7.51113 27.9 7.69022 27.9 7.91113C27.9 8.13205 27.7209 8.31113 27.5 8.31113H24.7C24.4791 8.31113 24.3 8.13205 24.3 7.91113Z" fill="#16162F"/>
<path fill-rule="evenodd" clip-rule="evenodd" d="M32.1 19.711C32.5418 19.711 32.9 19.3529 32.9 18.911C32.9 18.4692 32.5418 18.111 32.1 18.111C31.6582 18.111 31.3 18.4692 31.3 18.911C31.3 19.3529 31.6582 19.711 32.1 19.711ZM32.1 20.511C32.9837 20.511 33.7 19.7947 33.7 18.911C33.7 18.0274 32.9837 17.311 32.1 17.311C31.2163 17.311 30.5 18.0274 30.5 18.911C30.5 19.7947 31.2163 20.511 32.1 20.511Z" fill="#0A855C"/>
<path d="M57.7145 33.7254C57.6427 33.7242 57.5713 33.7373 57.5046 33.7639C57.4378 33.7906 57.3771 33.8303 57.3258 33.8807C57.2746 33.9311 57.2339 33.9912 57.2061 34.0574C57.1784 34.1237 57.1641 34.1949 57.1641 34.2667C57.1641 34.3386 57.1784 34.4097 57.2061 34.476C57.2339 34.5423 57.2746 34.6023 57.3258 34.6527C57.3771 34.7031 57.4378 34.7428 57.5046 34.7695C57.5713 34.7962 57.6427 34.8092 57.7145 34.808H59.9497C60.0215 34.8092 60.0929 34.7962 60.1596 34.7695C60.2264 34.7428 60.2871 34.7031 60.3383 34.6527C60.3896 34.6023 60.4303 34.5423 60.458 34.476C60.4858 34.4097 60.5001 34.3386 60.5001 34.2667C60.5001 34.1949 60.4858 34.1237 60.458 34.0574C60.4303 33.9912 60.3896 33.9311 60.3383 33.8807C60.2871 33.8303 60.2264 33.7906 60.1596 33.7639C60.0929 33.7373 60.0215 33.7242 59.9497 33.7254H57.7145Z" fill="#16162F"/>
<path d="M1.00328 33.7112C0.937529 33.7102 0.872245 33.7238 0.811227 33.7512C0.750208 33.7787 0.69467 33.8195 0.647843 33.8711C0.601015 33.9228 0.563831 33.9844 0.53845 34.0523C0.51307 34.1203 0.5 34.1932 0.5 34.2668C0.5 34.3404 0.51307 34.4133 0.53845 34.4812C0.563831 34.5491 0.601015 34.6107 0.647843 34.6624C0.69467 34.7141 0.750208 34.7549 0.811227 34.7823C0.872245 34.8098 0.937529 34.8234 1.00328 34.8223H6.66325C6.72901 34.8234 6.79429 34.8098 6.85531 34.7823C6.91633 34.7549 6.97187 34.7141 7.01869 34.6624C7.06552 34.6107 7.10271 34.5491 7.12809 34.4812C7.15347 34.4133 7.16654 34.3404 7.16654 34.2668C7.16654 34.1932 7.15347 34.1203 7.12809 34.0523C7.10271 33.9844 7.06552 33.9228 7.01869 33.8711C6.97187 33.8195 6.91633 33.7787 6.85531 33.7512C6.79429 33.7238 6.72901 33.7102 6.66325 33.7112H1.00328Z" fill="#16162F"/>
<path fill-rule="evenodd" clip-rule="evenodd" d="M19.9589 35.9253C19.8848 35.9249 19.8114 35.9391 19.7428 35.9672C19.6742 35.9953 19.6118 36.0366 19.5592 36.0889C19.5067 36.1411 19.465 36.2033 19.4365 36.2717C19.408 36.3401 19.3934 36.4135 19.3934 36.4876C19.3934 36.5617 19.408 36.6351 19.4365 36.7036C19.465 36.772 19.5067 36.8341 19.5592 36.8864C19.6118 36.9386 19.6742 36.98 19.7428 37.008C19.8114 37.0361 19.8848 37.0504 19.9589 37.05H42.1513C42.2254 37.0504 42.2988 37.0361 42.3674 37.008C42.436 36.98 42.4984 36.9386 42.551 36.8864C42.6035 36.8341 42.6453 36.772 42.6737 36.7036C42.7022 36.6351 42.7168 36.5617 42.7168 36.4876C42.7168 36.4135 42.7022 36.3401 42.6737 36.2717C42.6453 36.2033 42.6035 36.1411 42.551 36.0889C42.4984 36.0366 42.436 35.9953 42.3674 35.9672C42.2988 35.9391 42.2254 35.9249 42.1513 35.9253H19.9589Z" fill="#0A855C"/>
<path fill-rule="evenodd" clip-rule="evenodd" d="M23.3501 38.1553C23.268 38.1543 23.1865 38.1679 23.1103 38.1953C23.0341 38.2228 22.9648 38.2635 22.9063 38.3152C22.8478 38.3669 22.8014 38.4285 22.7697 38.4964C22.738 38.5644 22.7217 38.6372 22.7217 38.7109C22.7217 38.7845 22.738 38.8574 22.7697 38.9253C22.8014 38.9932 22.8478 39.0548 22.9063 39.1065C22.9648 39.1582 23.0341 39.199 23.1103 39.2264C23.1865 39.2539 23.268 39.2675 23.3501 39.2664H29.8708C29.953 39.2675 30.0345 39.2539 30.1107 39.2264C30.1869 39.199 30.2562 39.1582 30.3147 39.1065C30.3732 39.0548 30.4196 38.9932 30.4513 38.9253C30.483 38.8574 30.4993 38.7845 30.4993 38.7109C30.4993 38.6372 30.483 38.5644 30.4513 38.4964C30.4196 38.4285 30.3732 38.3669 30.3147 38.3152C30.2562 38.2635 30.1869 38.2228 30.1107 38.1953C30.0345 38.1679 29.953 38.1543 29.8708 38.1553H23.3501Z" fill="#0A855C"/>
<path fill-rule="evenodd" clip-rule="evenodd" d="M33.2828 38.1598C33.2096 38.1583 33.1369 38.1716 33.0689 38.1986C33.0008 38.2256 32.9389 38.2659 32.8866 38.3171C32.8343 38.3683 32.7928 38.4295 32.7644 38.497C32.7361 38.5644 32.7215 38.6368 32.7215 38.71C32.7215 38.7832 32.7361 38.8558 32.7644 38.9232C32.7928 38.9907 32.8343 39.0519 32.8866 39.1031C32.9389 39.1543 33.0008 39.1946 33.0689 39.2216C33.1369 39.2486 33.2096 39.2618 33.2828 39.2603H41.0553C41.1285 39.2618 41.2012 39.2486 41.2693 39.2216C41.3373 39.1946 41.3993 39.1543 41.4515 39.1031C41.5038 39.0519 41.5453 38.9907 41.5737 38.9232C41.602 38.8558 41.6166 38.7832 41.6166 38.71C41.6166 38.6368 41.602 38.5644 41.5737 38.497C41.5453 38.4295 41.5038 38.3683 41.4515 38.3171C41.3993 38.2659 41.3373 38.2256 41.2693 38.1986C41.2012 38.1716 41.1285 38.1583 41.0553 38.1598H33.2828Z" fill="#0A855C"/>
<path fill-rule="evenodd" clip-rule="evenodd" d="M26.6985 40.3777C26.6145 40.3767 26.531 40.3903 26.453 40.4178C26.375 40.4452 26.304 40.486 26.2441 40.5377C26.1842 40.5893 26.1367 40.6509 26.1042 40.7189C26.0718 40.7868 26.0551 40.8597 26.0551 40.9333C26.0551 41.0069 26.0718 41.0798 26.1042 41.1477C26.1367 41.2156 26.1842 41.2772 26.2441 41.3289C26.304 41.3806 26.375 41.4214 26.453 41.4488C26.531 41.4763 26.6145 41.4899 26.6985 41.4888H33.1892C33.2733 41.4899 33.3567 41.4763 33.4348 41.4488C33.5128 41.4214 33.5838 41.3806 33.6437 41.3289C33.7035 41.2772 33.7511 41.2156 33.7835 41.1477C33.816 41.0798 33.8327 41.0069 33.8327 40.9333C33.8327 40.8597 33.816 40.7868 33.7835 40.7189C33.7511 40.6509 33.7035 40.5893 33.6437 40.5377C33.5838 40.486 33.5128 40.4452 33.4348 40.4178C33.3567 40.3903 33.2733 40.3767 33.1892 40.3777H26.6985Z" fill="#0A855C"/>
<path fill-rule="evenodd" clip-rule="evenodd" d="M43.7778 2.40482C43.6323 2.40482 43.5162 2.52681 43.5185 2.67218C43.5185 2.85479 43.4401 2.93773 43.2593 2.93773C42.903 2.92931 42.903 3.46956 43.2593 3.46442C43.4337 3.46442 43.5185 3.51244 43.5185 3.71856C43.5101 4.07477 44.0503 4.07477 44.0453 3.71856C44.0453 3.53165 44.1327 3.46442 44.3056 3.46442C44.6618 3.47285 44.6618 2.93251 44.3056 2.93773C44.0707 2.93773 44.0453 2.8033 44.0453 2.67218C44.0453 2.52353 43.9265 2.40238 43.7778 2.40482Z" fill="#16162F"/>
<path fill-rule="evenodd" clip-rule="evenodd" d="M10.3784 20.5113C10.1786 20.5113 10.0194 20.6787 10.0225 20.8783C10.0225 21.129 9.91537 21.2427 9.66669 21.2427C9.17775 21.2342 9.17775 21.9727 9.66669 21.9657C9.90619 21.9657 10.0225 22.0322 10.0225 22.3144C10.0141 22.8032 10.7523 22.8032 10.7454 22.3144C10.7454 22.0579 10.8654 21.9657 11.1027 21.9657C11.5916 21.9742 11.5916 21.2358 11.1027 21.2427C10.7804 21.2427 10.7454 21.0582 10.7454 20.8783C10.7454 20.6743 10.5824 20.5081 10.3784 20.5113Z" fill="#0A855C"/>
<path fill-rule="evenodd" clip-rule="evenodd" d="M18.965 11.8643C18.8554 11.8643 18.7679 11.9561 18.7697 12.0659C18.7697 12.2035 18.7107 12.2658 18.5743 12.2658C18.3059 12.2574 18.3059 12.6666 18.5743 12.6628C18.7058 12.6628 18.7697 12.699 18.7697 12.8543C18.7613 13.1226 19.1704 13.1226 19.1666 12.8543C19.1666 12.7135 19.2324 12.6628 19.3627 12.6628C19.6311 12.6628 19.6311 12.262 19.3627 12.2658C19.1858 12.2658 19.1666 12.1645 19.1666 12.0659C19.1666 11.9538 19.077 11.8625 18.965 11.8643Z" fill="#0A855C"/>
<path fill-rule="evenodd" clip-rule="evenodd" d="M23.6858 1.31131C23.5402 1.31131 23.4242 1.43337 23.4265 1.57882C23.4265 1.76144 23.3481 1.84428 23.1672 1.84428C22.811 1.83585 22.811 2.37621 23.1672 2.37107C23.3417 2.37107 23.4265 2.41908 23.4265 2.62521C23.418 2.98133 23.9583 2.98133 23.9532 2.62521C23.9532 2.43829 24.0407 2.37107 24.2135 2.37107C24.5698 2.37949 24.5698 1.83922 24.2135 1.84428C23.9787 1.84428 23.9532 1.70995 23.9532 1.57882C23.9532 1.43017 23.8344 1.30904 23.6858 1.31131Z" fill="#16162F"/>
<path fill-rule="evenodd" clip-rule="evenodd" d="M10.692 12.5113C10.5824 12.5113 10.4949 12.6031 10.4966 12.7127C10.4966 12.8503 10.4376 12.9128 10.3013 12.9128C10.0329 12.9128 10.0329 13.3135 10.3013 13.3097C10.4327 13.3097 10.4966 13.3459 10.4966 13.5011C10.4882 13.7696 10.8973 13.7696 10.8935 13.5011C10.8935 13.3604 10.9593 13.3097 11.0897 13.3097C11.3581 13.3181 11.3581 12.9089 11.0897 12.9128C10.9127 12.9128 10.8935 12.8114 10.8935 12.7127C10.8935 12.6007 10.804 12.5095 10.692 12.5113Z" fill="#16162F"/>
<path fill-rule="evenodd" clip-rule="evenodd" d="M42.0857 6.51127C41.9402 6.51127 41.8241 6.63331 41.8264 6.77867C41.8264 6.96129 41.748 7.04418 41.5671 7.04418C41.2109 7.03575 41.2109 7.57603 41.5671 7.57097C41.7417 7.57097 41.8264 7.61902 41.8264 7.82506C41.8179 8.18127 42.3582 8.18127 42.3531 7.82506C42.3531 7.63815 42.4406 7.57097 42.6134 7.57097C42.9697 7.5794 42.9697 7.03896 42.6134 7.04418C42.3786 7.04418 42.3531 6.9098 42.3531 6.77867C42.3531 6.63002 42.2344 6.50882 42.0857 6.51127Z" fill="#0A855C"/>
<path fill-rule="evenodd" clip-rule="evenodd" d="M50.292 16.1114C50.1824 16.1114 50.095 16.2034 50.0967 16.3129C50.0967 16.4505 50.0377 16.513 49.9013 16.513C49.6329 16.5045 49.6329 16.9137 49.9013 16.9099C50.0328 16.9099 50.0967 16.9461 50.0967 17.1014C50.0882 17.3698 50.4974 17.3698 50.4936 17.1014C50.4936 16.9605 50.5593 16.9099 50.6897 16.9099C50.9581 16.9099 50.9581 16.5091 50.6897 16.513C50.5128 16.513 50.4936 16.4117 50.4936 16.3129C50.4936 16.2009 50.4041 16.1097 50.292 16.1114Z" fill="#0A855C"/>
<path fill-rule="evenodd" clip-rule="evenodd" d="M50.7784 21.7112C50.5787 21.7112 50.4194 21.8787 50.4225 22.0784C50.4225 22.329 50.3154 22.4426 50.0667 22.4426C49.5778 22.4342 49.5778 23.1726 50.0667 23.1656C50.3061 23.1656 50.4225 23.2322 50.4225 23.5144C50.4141 24.0033 51.1524 24.0033 51.1455 23.5144C51.1455 23.2579 51.2655 23.1656 51.5027 23.1656C51.9916 23.174 51.9916 22.4356 51.5027 22.4426C51.1804 22.4426 51.1455 22.2583 51.1455 22.0784C51.1455 21.8743 50.9824 21.708 50.7784 21.7112Z" fill="#0A855C"/>
<path fill-rule="evenodd" clip-rule="evenodd" d="M12.0857 4.91117C11.9402 4.91117 11.8242 5.03318 11.8264 5.17863C11.8264 5.36124 11.7481 5.44408 11.5671 5.44408C11.2109 5.43565 11.2109 5.97593 11.5671 5.97087C11.7417 5.97087 11.8264 6.01889 11.8264 6.22501C11.818 6.58114 12.3583 6.58114 12.3532 6.22501C12.3532 6.0381 12.4407 5.97087 12.6135 5.97087C12.9697 5.9793 12.9697 5.43902 12.6135 5.44408C12.3787 5.44408 12.3532 5.30975 12.3532 5.17863C12.3532 5.02997 12.2344 4.90881 12.0857 4.91117Z" fill="#16162F"/>
<path fill-rule="evenodd" clip-rule="evenodd" d="M31.1073 0.511258C30.9949 0.511258 30.9051 0.605556 30.9069 0.717973C30.9069 0.859126 30.8462 0.923094 30.7065 0.923094C30.4312 0.923094 30.4312 1.33416 30.7065 1.3302C30.8413 1.3302 30.9069 1.36727 30.9069 1.52663C30.9069 1.80194 31.3179 1.80194 31.314 1.52663C31.314 1.38219 31.3814 1.3302 31.5151 1.3302C31.7905 1.3302 31.7905 0.919217 31.5151 0.923094C31.3336 0.923094 31.314 0.819266 31.314 0.717973C31.3148 0.603028 31.2221 0.509404 31.1073 0.511258Z" fill="#0A855C"/>
</svg>
