<svg width="61" height="42" viewBox="0 0 61 42" fill="none" xmlns="http://www.w3.org/2000/svg">
<path d="M9.95444 34.1114C9.88052 34.1103 9.80713 34.1239 9.73854 34.1514C9.66994 34.1788 9.60751 34.2196 9.55487 34.2713C9.50223 34.323 9.46043 34.3846 9.4319 34.4525C9.40336 34.5204 9.38867 34.5933 9.38867 34.6669C9.38867 34.7406 9.40336 34.8134 9.4319 34.8814C9.46043 34.9493 9.50223 35.0109 9.55487 35.0626C9.60751 35.1143 9.66994 35.155 9.73854 35.1825C9.80713 35.2099 9.88052 35.2235 9.95444 35.2225H54.3776C54.4515 35.2235 54.5249 35.2099 54.5935 35.1825C54.6621 35.155 54.7245 35.1143 54.7771 35.0626C54.8298 35.0109 54.8716 34.9493 54.9001 34.8814C54.9286 34.8134 54.9433 34.7406 54.9433 34.6669C54.9433 34.5933 54.9286 34.5204 54.9001 34.4525C54.8716 34.3846 54.8298 34.323 54.7771 34.2713C54.7245 34.2196 54.6621 34.1788 54.5935 34.1514C54.5249 34.1239 54.4515 34.1103 54.3776 34.1114H9.95444Z" fill="#16162F"/>
<path fill-rule="evenodd" clip-rule="evenodd" d="M42.6791 6.21675H19.5857V5.12744H42.6791V6.21675ZM17.5161 30.2904V7.19713H18.6054V30.2904H17.5161ZM43.6594 30.2904V7.19713H44.7487V30.2904H43.6594ZM19.5857 31.2708H42.6791V32.3601H19.5857V31.2708Z" fill="#16162F"/>
<path fill-rule="evenodd" clip-rule="evenodd" d="M18.0216 5.67058C18.0215 5.6717 18.0215 5.67226 18.0215 5.67218C18.0215 5.6721 18.0215 5.67266 18.0216 5.67378L18.0222 5.67797C18.023 5.6814 18.024 5.68487 18.0254 5.68807C18.028 5.69421 18.0309 5.69783 18.033 5.69993C18.0351 5.70203 18.0387 5.70492 18.0448 5.70752C18.048 5.70887 18.0515 5.70996 18.0549 5.71066L18.0591 5.71131L18.0607 5.71143C18.0607 5.71143 18.0607 5.71143 18.0607 5.71143L18.0608 5.71142L18.0611 5.71141L18.0623 5.71131L18.0665 5.71066C18.07 5.70996 18.0734 5.70887 18.0766 5.70752C18.0828 5.70492 18.0864 5.70203 18.0885 5.69993C18.0906 5.69783 18.0935 5.69421 18.0961 5.68807C18.0974 5.68487 18.0985 5.6814 18.0992 5.67797L18.0999 5.67378L18.1 5.67219V5.67218L18.0999 5.67058L18.0992 5.66639C18.0985 5.66296 18.0974 5.65949 18.0961 5.65629C18.0935 5.65015 18.0906 5.64653 18.0885 5.64443C18.0864 5.64233 18.0828 5.63944 18.0766 5.63684C18.0734 5.63549 18.07 5.6344 18.0665 5.6337L18.0623 5.63304C18.0612 5.63293 18.0606 5.63293 18.0607 5.63293C18.0608 5.63293 18.0607 5.63293 18.0606 5.63294L18.0591 5.63304L18.0549 5.6337C18.0515 5.6344 18.048 5.63549 18.0448 5.63684C18.0387 5.63944 18.0351 5.64233 18.033 5.64443C18.0309 5.64653 18.028 5.65015 18.0254 5.65629C18.024 5.65949 18.023 5.66296 18.0222 5.66639L18.0216 5.67058ZM18.0607 7.63293C19.1436 7.63293 20.0215 6.75507 20.0215 5.67218C20.0215 4.58929 19.1436 3.71143 18.0607 3.71143C16.9778 3.71143 16.1 4.58929 16.1 5.67218C16.1 6.75507 16.9778 7.63293 18.0607 7.63293ZM29.418 10.6282V10.6264C29.5417 10.6264 29.6603 10.6749 29.7478 10.7612C29.8353 10.8476 29.8844 10.9647 29.8844 11.0868C29.8844 11.209 29.8353 11.3261 29.7478 11.4124C29.6603 11.4988 29.5417 11.5473 29.418 11.5473C28.8928 11.5473 28.4852 11.9498 28.4852 12.4683V13.3892C28.4839 13.6518 28.4254 13.9111 28.3137 14.1494C28.202 14.3878 28.0397 14.5996 27.8379 14.7707C28.2306 15.1087 28.4852 15.6014 28.4852 16.1521V17.073C28.4852 17.5915 28.8928 17.994 29.418 17.994C29.5417 17.994 29.6603 18.0425 29.7478 18.1289C29.8353 18.2152 29.8844 18.3324 29.8844 18.4545C29.8844 18.5766 29.8353 18.6937 29.7478 18.7801C29.6603 18.8664 29.5417 18.915 29.418 18.915C28.3919 18.915 27.5524 18.0861 27.5524 17.073V16.1521C27.5524 15.6336 27.1439 15.2311 26.6196 15.2311C26.6087 15.2315 26.5979 15.2315 26.587 15.2311C26.5561 15.2289 26.5254 15.2237 26.4956 15.2155C26.4498 15.2037 26.406 15.185 26.3659 15.1602C26.3399 15.1442 26.3155 15.1257 26.2931 15.105C26.2365 15.0521 26.1942 14.986 26.1701 14.9128C26.1459 14.8396 26.1408 14.7616 26.1551 14.6859C26.1757 14.5797 26.2335 14.4839 26.3185 14.4156C26.4034 14.3472 26.51 14.3105 26.6196 14.312C27.1439 14.312 27.5524 13.9096 27.5524 13.3911V12.4701C27.5524 11.4571 28.3919 10.6282 29.418 10.6282ZM33.6967 10.7797C33.7797 10.6889 33.8958 10.6344 34.0195 10.6282H34.0204C34.036 10.6274 34.0515 10.6274 34.0671 10.6282C35.0931 10.6282 35.9326 11.4571 35.9326 12.4701V13.3911C35.9326 13.9096 36.3412 14.312 36.8654 14.312C36.9579 14.3109 37.0485 14.337 37.1259 14.3869C37.2033 14.4368 37.264 14.5082 37.3002 14.5922C37.3364 14.6762 37.3464 14.7689 37.3292 14.8586C37.3119 14.9482 37.268 15.0308 37.2031 15.0958C37.1919 15.1074 37.1801 15.1185 37.1677 15.1289C37.0825 15.1977 36.9755 15.2346 36.8654 15.233C36.3412 15.233 35.9326 15.6354 35.9326 16.1539V17.0749C35.9326 18.0879 35.0931 18.9168 34.0671 18.9168C33.9434 18.9168 33.8247 18.8683 33.7373 18.7819C33.6498 18.6956 33.6007 18.5784 33.6007 18.4563C33.6007 18.3342 33.6498 18.2171 33.7373 18.1307C33.8247 18.0444 33.9434 17.9958 34.0671 17.9958C34.5922 17.9958 34.9999 17.5934 34.9999 17.0749V16.1539C34.9999 15.6032 35.2554 15.1105 35.6472 14.7725C35.2545 14.4336 34.9999 13.9427 34.9999 13.3911V12.4701C34.9999 11.9516 34.5922 11.5492 34.0671 11.5492C33.9434 11.5554 33.8222 11.5128 33.7303 11.4309C33.6384 11.3489 33.5832 11.2343 33.5769 11.1122C33.5706 10.99 33.6137 10.8704 33.6967 10.7797ZM18.0215 31.7508L18.0215 31.7505L18.0216 31.7492L18.0223 31.745C18.023 31.7415 18.0241 31.7381 18.0254 31.7349C18.028 31.7287 18.0309 31.7251 18.033 31.723C18.0351 31.7209 18.0388 31.718 18.0449 31.7154C18.0481 31.7141 18.0516 31.713 18.055 31.7123L18.0592 31.7116L18.0605 31.7115L18.0608 31.7115L18.0624 31.7116L18.0666 31.7123C18.07 31.713 18.0735 31.7141 18.0767 31.7154C18.0828 31.718 18.0864 31.7209 18.0885 31.723C18.0906 31.7251 18.0935 31.7287 18.0961 31.7349C18.0975 31.7381 18.0986 31.7415 18.0993 31.745L18.0999 31.7492L18.1 31.7502C18.1 31.7506 18.1 31.7508 18.1 31.7508L18.0999 31.7524L18.0993 31.7566C18.0986 31.76 18.0975 31.7635 18.0961 31.7667C18.0935 31.7728 18.0906 31.7764 18.0885 31.7785C18.0864 31.7806 18.0828 31.7835 18.0767 31.7861C18.0735 31.7875 18.07 31.7885 18.0666 31.7892L18.0624 31.7899L18.0611 31.79L18.0608 31.79L18.0592 31.7899L18.055 31.7892C18.0516 31.7885 18.0481 31.7875 18.0449 31.7861C18.0388 31.7835 18.0351 31.7806 18.033 31.7785C18.0309 31.7764 18.028 31.7728 18.0254 31.7667C18.0241 31.7635 18.023 31.76 18.0223 31.7566L18.0216 31.7524L18.0215 31.7509L18.0215 31.7508ZM20.0215 31.7508C20.0215 32.8337 19.1437 33.7115 18.0608 33.7115C16.9779 33.7115 16.1 32.8337 16.1 31.7508C16.1 30.6679 16.9779 29.79 18.0608 29.79C19.1437 29.79 20.0215 30.6679 20.0215 31.7508ZM44.1001 5.67186L44.1001 5.67218L44.1001 5.67223L44.1002 5.67378L44.1009 5.67797C44.1016 5.6814 44.1026 5.68487 44.104 5.68807C44.1066 5.69421 44.1095 5.69783 44.1116 5.69993C44.1137 5.70203 44.1173 5.70492 44.1234 5.70752C44.1266 5.70887 44.1301 5.70996 44.1335 5.71066L44.1377 5.71131L44.1393 5.71143L44.1394 5.71142L44.1397 5.71141L44.1409 5.71131L44.1451 5.71066C44.1486 5.70996 44.152 5.70887 44.1552 5.70752C44.1614 5.70492 44.165 5.70203 44.1671 5.69993C44.1692 5.69783 44.1721 5.69421 44.1747 5.68807C44.176 5.68487 44.1771 5.6814 44.1778 5.67797L44.1785 5.67378L44.1786 5.67218C44.1786 5.67223 44.1786 5.67205 44.1786 5.67168C44.1785 5.67141 44.1785 5.67105 44.1785 5.67058L44.1778 5.66639C44.1771 5.66296 44.176 5.65949 44.1747 5.65629C44.1721 5.65015 44.1692 5.64653 44.1671 5.64443C44.165 5.64233 44.1614 5.63944 44.1552 5.63684C44.152 5.63549 44.1486 5.6344 44.1451 5.6337L44.1409 5.63304L44.1393 5.63293C44.1394 5.63293 44.1388 5.63293 44.1377 5.63304L44.1335 5.6337C44.1301 5.6344 44.1266 5.63549 44.1234 5.63684C44.1173 5.63944 44.1137 5.64233 44.1116 5.64443C44.1095 5.64653 44.1066 5.65015 44.104 5.65629C44.1026 5.65949 44.1016 5.66296 44.1009 5.66639L44.1002 5.67058L44.1001 5.67186ZM44.1393 7.63293C45.2222 7.63293 46.1001 6.75507 46.1001 5.67218C46.1001 4.58929 45.2222 3.71143 44.1393 3.71143C43.0564 3.71143 42.1786 4.58929 42.1786 5.67218C42.1786 6.75507 43.0564 7.63293 44.1393 7.63293ZM44.1001 31.7508L44.1001 31.7504L44.1002 31.7492L44.1009 31.745C44.1016 31.7415 44.1026 31.7381 44.104 31.7349C44.1066 31.7287 44.1095 31.7251 44.1116 31.723C44.1128 31.7218 44.1144 31.7204 44.1167 31.7189C44.1186 31.7178 44.1208 31.7166 44.1234 31.7154C44.1266 31.7141 44.1301 31.713 44.1335 31.7123L44.1377 31.7116C44.1388 31.7115 44.1394 31.7115 44.1393 31.7115C44.1392 31.7115 44.1398 31.7115 44.1409 31.7116L44.1451 31.7123C44.1486 31.713 44.152 31.7141 44.1552 31.7154C44.1614 31.718 44.165 31.7209 44.1671 31.723C44.1692 31.7251 44.1721 31.7287 44.1747 31.7349C44.176 31.7381 44.1771 31.7415 44.1778 31.745L44.1785 31.7492C44.1786 31.7503 44.1786 31.7509 44.1786 31.7508L44.1785 31.7524L44.1778 31.7566C44.1774 31.7588 44.1767 31.7611 44.176 31.7632C44.1756 31.7644 44.1751 31.7656 44.1747 31.7667C44.1721 31.7728 44.1692 31.7764 44.1671 31.7785C44.165 31.7806 44.1614 31.7835 44.1552 31.7861C44.152 31.7875 44.1486 31.7885 44.1451 31.7892L44.1409 31.7899L44.1397 31.79L44.1393 31.79L44.1377 31.7899L44.1335 31.7892C44.1301 31.7885 44.1266 31.7875 44.1234 31.7861C44.1173 31.7835 44.1137 31.7806 44.1116 31.7785C44.1095 31.7764 44.1066 31.7728 44.104 31.7667C44.1026 31.7635 44.1016 31.76 44.1009 31.7566L44.1002 31.7524C44.1001 31.7518 44.1001 31.7514 44.1001 31.7511L44.1001 31.7508ZM46.1001 31.7508C46.1001 32.8337 45.2222 33.7115 44.1393 33.7115C43.0564 33.7115 42.1786 32.8337 42.1786 31.7508C42.1786 30.6679 43.0564 29.79 44.1393 29.79C45.2222 29.79 46.1001 30.6679 46.1001 31.7508Z" fill="#16162F"/>
<path d="M27.3035 23.5381C27.3353 23.5276 27.3682 23.5205 27.4015 23.5169L27.4024 23.5179V23.5188C27.418 23.518 27.4335 23.518 27.4491 23.5188H28.3818C28.5055 23.5188 28.6242 23.5673 28.7116 23.6536C28.7991 23.74 28.8482 23.8571 28.8482 23.9793C28.8482 24.1014 28.7991 24.2185 28.7116 24.3049C28.6242 24.3912 28.5055 24.4397 28.3818 24.4397H27.5199C26.6879 24.4397 26.0499 25.0568 26.0499 25.8212C26.0499 26.5856 26.6879 27.2026 27.5199 27.2026H28.3893C28.513 27.2026 28.6316 27.2511 28.7191 27.3375C28.8066 27.4238 28.8557 27.5409 28.8557 27.6631C28.8557 27.7852 28.8066 27.9023 28.7191 27.9887C28.6316 28.075 28.513 28.1235 28.3893 28.1235H27.4565C27.4107 28.1234 27.3651 28.1166 27.3213 28.1033C26.0993 28.0057 25.1171 27.0322 25.1171 25.8212C25.1171 24.6156 26.089 23.6449 27.3035 23.5381Z" fill="#0A855C"/>
<path d="M31.0748 23.528C31.0938 23.5231 31.1132 23.5194 31.1327 23.5169H31.1336C31.1491 23.5162 31.1647 23.5162 31.1802 23.5169C31.1911 23.5166 31.202 23.5166 31.2129 23.5169H33.0458C33.1695 23.5169 33.2881 23.5654 33.3756 23.6518C33.4631 23.7382 33.5122 23.8553 33.5122 23.9774C33.5122 24.0995 33.4631 24.2167 33.3756 24.303C33.2881 24.3894 33.1695 24.4379 33.0458 24.4379H31.1802C30.9135 24.4379 30.7138 24.635 30.7138 24.8984C30.7123 24.9592 30.7233 25.0198 30.7462 25.0764C30.7691 25.1329 30.8034 25.1843 30.847 25.2273C30.8906 25.2704 30.9427 25.3043 30.9999 25.3269C31.0572 25.3495 31.1186 25.3604 31.1802 25.3588H32.113C32.1465 25.3584 32.18 25.3614 32.2128 25.3681C32.9339 25.4205 33.5122 26.0164 33.5122 26.7403C33.5096 27.0887 33.3739 27.4233 33.1324 27.6773C32.8908 27.9314 32.5611 28.0861 32.2091 28.1107C32.1776 28.1182 32.1454 28.1226 32.113 28.1235H30.2474C30.1237 28.1235 30.0051 28.075 29.9176 27.9887C29.8302 27.9023 29.781 27.7852 29.781 27.6631C29.781 27.5409 29.8302 27.4238 29.9176 27.3375C30.0051 27.2511 30.1237 27.2026 30.2474 27.2026H32.113C32.3798 27.2026 32.5794 27.0055 32.5794 26.7421C32.5794 26.4787 32.3798 26.2816 32.113 26.2816H31.1802C31.1507 26.2807 31.1214 26.277 31.0925 26.2706C30.3659 26.2245 29.781 25.6259 29.781 24.8984C29.781 24.1763 30.3566 23.5832 31.0748 23.528Z" fill="#0A855C"/>
<path d="M35.7313 23.528C35.7504 23.5231 35.7697 23.5194 35.7892 23.5169H35.7901C35.8056 23.5162 35.8212 23.5162 35.8367 23.5169C35.8476 23.5166 35.8585 23.5166 35.8694 23.5169H37.7023C37.826 23.5169 37.9447 23.5654 38.0321 23.6518C38.1196 23.7382 38.1687 23.8553 38.1687 23.9774C38.1687 24.0995 38.1196 24.2167 38.0321 24.303C37.9447 24.3894 37.826 24.4379 37.7023 24.4379H35.8367C35.57 24.4379 35.3703 24.635 35.3703 24.8984C35.3688 24.9592 35.3798 25.0198 35.4027 25.0764C35.4256 25.1329 35.4599 25.1843 35.5035 25.2273C35.5472 25.2704 35.5992 25.3043 35.6565 25.3269C35.7137 25.3495 35.7751 25.3604 35.8367 25.3588H36.7695C36.8034 25.3583 36.8371 25.3614 36.8703 25.3681C37.5904 25.4205 38.1687 26.0164 38.1687 26.7403C38.1661 27.0885 38.0306 27.423 37.7892 27.677C37.5479 27.931 37.2184 28.0859 36.8666 28.1107C36.8348 28.1183 36.8022 28.1226 36.7695 28.1235H34.9039C34.7803 28.1235 34.6616 28.075 34.5742 27.9887C34.4867 27.9023 34.4376 27.7852 34.4376 27.6631C34.4376 27.5409 34.4867 27.4238 34.5742 27.3375C34.6616 27.2511 34.7803 27.2026 34.9039 27.2026H36.7695C37.0363 27.2026 37.2359 27.0055 37.2359 26.7421C37.2359 26.4787 37.0363 26.2816 36.7695 26.2816H35.8367C35.8072 26.2807 35.7779 26.277 35.7491 26.2706C35.0233 26.2245 34.4376 25.6259 34.4376 24.8984C34.4376 24.1763 35.0131 23.5832 35.7313 23.528Z" fill="#0A855C"/>
<path d="M57.7145 34.1256C57.6427 34.1244 57.5713 34.1374 57.5046 34.1641C57.4378 34.1907 57.3771 34.2305 57.3258 34.2809C57.2746 34.3312 57.2339 34.3913 57.2061 34.4576C57.1784 34.5239 57.1641 34.595 57.1641 34.6669C57.1641 34.7387 57.1784 34.8099 57.2061 34.8761C57.2339 34.9424 57.2746 35.0025 57.3258 35.0529C57.3771 35.1033 57.4378 35.143 57.5046 35.1697C57.5713 35.1963 57.6427 35.2094 57.7145 35.2082H59.9497C60.0215 35.2094 60.0929 35.1963 60.1596 35.1697C60.2264 35.143 60.2871 35.1033 60.3383 35.0529C60.3896 35.0025 60.4303 34.9424 60.458 34.8761C60.4858 34.8099 60.5001 34.7387 60.5001 34.6669C60.5001 34.595 60.4858 34.5239 60.458 34.4576C60.4303 34.3913 60.3896 34.3312 60.3383 34.2809C60.2871 34.2305 60.2264 34.1907 60.1596 34.1641C60.0929 34.1374 60.0215 34.1244 59.9497 34.1256H57.7145Z" fill="#16162F"/>
<path d="M1.00328 34.1114C0.937529 34.1103 0.872245 34.1239 0.811227 34.1514C0.750208 34.1788 0.69467 34.2196 0.647843 34.2713C0.601015 34.323 0.563831 34.3846 0.53845 34.4525C0.51307 34.5204 0.5 34.5933 0.5 34.6669C0.5 34.7406 0.51307 34.8134 0.53845 34.8814C0.563831 34.9493 0.601015 35.0109 0.647843 35.0626C0.69467 35.1143 0.750208 35.155 0.811227 35.1825C0.872245 35.2099 0.937529 35.2235 1.00328 35.2225H6.66325C6.72901 35.2235 6.79429 35.2099 6.85531 35.1825C6.91633 35.155 6.97187 35.1143 7.01869 35.0626C7.06552 35.0109 7.10271 34.9493 7.12809 34.8814C7.15347 34.8134 7.16654 34.7406 7.16654 34.6669C7.16654 34.5933 7.15347 34.5204 7.12809 34.4525C7.10271 34.3846 7.06552 34.323 7.01869 34.2713C6.97187 34.2196 6.91633 34.1788 6.85531 34.1514C6.79429 34.1239 6.72901 34.1103 6.66325 34.1114H1.00328Z" fill="#16162F"/>
<path fill-rule="evenodd" clip-rule="evenodd" d="M19.9589 36.3254C19.8848 36.325 19.8114 36.3393 19.7428 36.3674C19.6742 36.3954 19.6118 36.4368 19.5592 36.489C19.5067 36.5413 19.465 36.6034 19.4365 36.6718C19.408 36.7403 19.3934 36.8137 19.3934 36.8878C19.3934 36.9619 19.408 37.0353 19.4365 37.1037C19.465 37.1721 19.5067 37.2343 19.5592 37.2865C19.6118 37.3388 19.6742 37.3801 19.7428 37.4082C19.8114 37.4363 19.8848 37.4505 19.9589 37.4501H42.1513C42.2254 37.4505 42.2988 37.4363 42.3674 37.4082C42.436 37.3801 42.4984 37.3388 42.551 37.2865C42.6035 37.2343 42.6453 37.1721 42.6737 37.1037C42.7022 37.0353 42.7168 36.9619 42.7168 36.8878C42.7168 36.8137 42.7022 36.7403 42.6737 36.6718C42.6453 36.6034 42.6035 36.5413 42.551 36.489C42.4984 36.4368 42.436 36.3954 42.3674 36.3674C42.2988 36.3393 42.2254 36.325 42.1513 36.3254H19.9589Z" fill="#0A855C"/>
<path fill-rule="evenodd" clip-rule="evenodd" d="M23.3501 38.5555C23.268 38.5544 23.1865 38.568 23.1103 38.5955C23.0341 38.6229 22.9648 38.6637 22.9063 38.7154C22.8478 38.7671 22.8014 38.8287 22.7697 38.8966C22.738 38.9645 22.7217 39.0374 22.7217 39.111C22.7217 39.1846 22.738 39.2575 22.7697 39.3255C22.8014 39.3934 22.8478 39.455 22.9063 39.5067C22.9648 39.5583 23.0341 39.5991 23.1103 39.6266C23.1865 39.654 23.268 39.6676 23.3501 39.6666H29.8708C29.953 39.6676 30.0345 39.654 30.1107 39.6266C30.1869 39.5991 30.2562 39.5583 30.3147 39.5067C30.3732 39.455 30.4196 39.3934 30.4513 39.3255C30.483 39.2575 30.4993 39.1846 30.4993 39.111C30.4993 39.0374 30.483 38.9645 30.4513 38.8966C30.4196 38.8287 30.3732 38.7671 30.3147 38.7154C30.2562 38.6637 30.1869 38.6229 30.1107 38.5955C30.0345 38.568 29.953 38.5544 29.8708 38.5555H23.3501Z" fill="#0A855C"/>
<path fill-rule="evenodd" clip-rule="evenodd" d="M33.2828 38.5599C33.2096 38.5585 33.1369 38.5717 33.0689 38.5987C33.0008 38.6257 32.9389 38.666 32.8866 38.7173C32.8343 38.7685 32.7928 38.8296 32.7644 38.8971C32.7361 38.9646 32.7215 39.037 32.7215 39.1102C32.7215 39.1834 32.7361 39.2559 32.7644 39.3234C32.7928 39.3909 32.8343 39.452 32.8866 39.5032C32.9389 39.5545 33.0008 39.5948 33.0689 39.6218C33.1369 39.6488 33.2096 39.6619 33.2828 39.6604H41.0553C41.1285 39.6619 41.2012 39.6488 41.2693 39.6218C41.3373 39.5948 41.3993 39.5545 41.4515 39.5032C41.5038 39.452 41.5453 39.3909 41.5737 39.3234C41.602 39.2559 41.6166 39.1834 41.6166 39.1102C41.6166 39.037 41.602 38.9646 41.5737 38.8971C41.5453 38.8296 41.5038 38.7685 41.4515 38.7173C41.3993 38.666 41.3373 38.6257 41.2693 38.5987C41.2012 38.5717 41.1285 38.5585 41.0553 38.5599H33.2828Z" fill="#0A855C"/>
<path fill-rule="evenodd" clip-rule="evenodd" d="M26.6985 40.7779C26.6145 40.7768 26.531 40.7904 26.453 40.8179C26.375 40.8454 26.304 40.8861 26.2441 40.9378C26.1842 40.9895 26.1367 41.0511 26.1042 41.119C26.0718 41.1869 26.0551 41.2598 26.0551 41.3334C26.0551 41.4071 26.0718 41.4799 26.1042 41.5479C26.1367 41.6158 26.1842 41.6774 26.2441 41.7291C26.304 41.7808 26.375 41.8215 26.453 41.849C26.531 41.8764 26.6145 41.89 26.6985 41.889H33.1892C33.2733 41.89 33.3567 41.8764 33.4348 41.849C33.5128 41.8215 33.5838 41.7808 33.6437 41.7291C33.7035 41.6774 33.7511 41.6158 33.7835 41.5479C33.816 41.4799 33.8327 41.4071 33.8327 41.3334C33.8327 41.2598 33.816 41.1869 33.7835 41.119C33.7511 41.0511 33.7035 40.9895 33.6437 40.9378C33.5838 40.8861 33.5128 40.8454 33.4348 40.8179C33.3567 40.7904 33.2733 40.7768 33.1892 40.7779H26.6985Z" fill="#0A855C"/>
<path fill-rule="evenodd" clip-rule="evenodd" d="M45.6858 0.111364C45.5402 0.111364 45.4242 0.233355 45.4265 0.378721C45.4265 0.561335 45.3481 0.644277 45.1672 0.644277C44.811 0.63585 44.811 1.17611 45.1672 1.17097C45.3417 1.17097 45.4265 1.21898 45.4265 1.4251C45.418 1.78132 45.9583 1.78132 45.9532 1.4251C45.9532 1.23819 46.0407 1.17097 46.2135 1.17097C46.5698 1.17939 46.5698 0.639053 46.2135 0.644277C45.9787 0.644277 45.9532 0.509846 45.9532 0.378721C45.9532 0.230068 45.8344 0.108921 45.6858 0.111364Z" fill="#16162F"/>
<path fill-rule="evenodd" clip-rule="evenodd" d="M15.3539 21.1556C15.1542 21.1556 14.9949 21.323 14.9981 21.5226C14.9981 21.7733 14.891 21.887 14.6423 21.887C14.1533 21.8785 14.1533 22.617 14.6423 22.61C14.8818 22.61 14.9981 22.6765 14.9981 22.9587C14.9896 23.4475 15.7279 23.4475 15.721 22.9587C15.721 22.7022 15.841 22.61 16.0783 22.61C16.5672 22.6185 16.5672 21.8801 16.0783 21.887C15.756 21.887 15.721 21.7025 15.721 21.5226C15.721 21.3186 15.558 21.1524 15.3539 21.1556Z" fill="#0A855C"/>
<path fill-rule="evenodd" clip-rule="evenodd" d="M10.7418 10.2793C10.6322 10.2793 10.5447 10.3712 10.5465 10.4809C10.5465 10.6185 10.4875 10.6809 10.3511 10.6809C10.0827 10.6724 10.0827 11.0817 10.3511 11.0778C10.4826 11.0778 10.5465 11.114 10.5465 11.2693C10.5381 11.5377 10.9472 11.5377 10.9434 11.2693C10.9434 11.1285 11.0091 11.0778 11.1395 11.0778C11.4079 11.0778 11.4079 10.6771 11.1395 10.6809C10.9625 10.6809 10.9434 10.5796 10.9434 10.4809C10.9434 10.3688 10.8538 10.2776 10.7418 10.2793Z" fill="#0A855C"/>
<path fill-rule="evenodd" clip-rule="evenodd" d="M20.4987 0.11136C20.3532 0.11136 20.2372 0.23342 20.2394 0.37887C20.2394 0.561484 20.1611 0.644324 19.9802 0.644324C19.6239 0.635897 19.6239 1.17626 19.9802 1.17112C20.1547 1.17112 20.2394 1.21913 20.2394 1.42525C20.231 1.78138 20.7713 1.78138 20.7662 1.42525C20.7662 1.23834 20.8537 1.17112 21.0265 1.17112C21.3827 1.17954 21.3827 0.639268 21.0265 0.644324C20.7917 0.644324 20.7662 0.509995 20.7662 0.37887C20.7662 0.230218 20.6474 0.109084 20.4987 0.11136Z" fill="#16162F"/>
<path fill-rule="evenodd" clip-rule="evenodd" d="M36.1621 0.938502C36.0524 0.938502 35.965 1.03037 35.9666 1.13992C35.9666 1.27753 35.9077 1.34 35.7713 1.34C35.5029 1.34 35.5029 1.74071 35.7713 1.73692C35.9028 1.73692 35.9666 1.77313 35.9666 1.92836C35.9582 2.19684 36.3674 2.19684 36.3636 1.92836C36.3636 1.78763 36.4293 1.73692 36.5597 1.73692C36.8281 1.74535 36.8281 1.33612 36.5597 1.34C36.3828 1.34 36.3636 1.23868 36.3636 1.13992C36.3636 1.02797 36.2741 0.936732 36.1621 0.938502Z" fill="#16162F"/>
<path fill-rule="evenodd" clip-rule="evenodd" d="M48.4857 8.51127C48.3402 8.51127 48.2241 8.63331 48.2264 8.77867C48.2264 8.96129 48.148 9.04418 47.9672 9.04418C47.611 9.03575 47.611 9.57603 47.9672 9.57097C48.1417 9.57097 48.2264 9.61902 48.2264 9.82506C48.218 10.1813 48.7582 10.1813 48.7532 9.82506C48.7532 9.63815 48.8406 9.57097 49.0135 9.57097C49.3697 9.5794 49.3697 9.03896 49.0135 9.04418C48.7786 9.04418 48.7532 8.9098 48.7532 8.77867C48.7532 8.63002 48.6344 8.50882 48.4857 8.51127Z" fill="#0A855C"/>
<path fill-rule="evenodd" clip-rule="evenodd" d="M46.4316 16.659C46.322 16.659 46.2346 16.751 46.2362 16.8605C46.2362 16.9981 46.1772 17.0606 46.0409 17.0606C45.7725 17.0521 45.7725 17.4613 46.0409 17.4575C46.1724 17.4575 46.2362 17.4937 46.2362 17.649C46.2278 17.9174 46.6369 17.9174 46.6332 17.649C46.6332 17.5082 46.6989 17.4575 46.8292 17.4575C47.0977 17.4575 47.0977 17.0567 46.8292 17.0606C46.6524 17.0606 46.6332 16.9593 46.6332 16.8605C46.6332 16.7485 46.5437 16.6573 46.4316 16.659Z" fill="#0A855C"/>
<path fill-rule="evenodd" clip-rule="evenodd" d="M45.8333 22.0074C45.6336 22.0074 45.4743 22.1749 45.4775 22.3745C45.4775 22.6251 45.3703 22.7388 45.1216 22.7388C44.6327 22.7303 44.6327 23.4687 45.1216 23.4617C45.3611 23.4617 45.4775 23.5283 45.4775 23.8106C45.469 24.2994 46.2073 24.2994 46.2004 23.8106C46.2004 23.554 46.3204 23.4617 46.5576 23.4617C47.0466 23.4702 47.0466 22.7318 46.5576 22.7388C46.2353 22.7388 46.2004 22.5544 46.2004 22.3745C46.2004 22.1704 46.0373 22.0042 45.8333 22.0074Z" fill="#0A855C"/>
<path fill-rule="evenodd" clip-rule="evenodd" d="M10.0857 3.71146C9.94021 3.71146 9.82417 3.83347 9.82645 3.97892C9.82645 4.16153 9.74807 4.24437 9.56715 4.24437C9.21094 4.23595 9.21094 4.77622 9.56715 4.77117C9.74167 4.77117 9.82645 4.81918 9.82645 5.0253C9.81802 5.38143 10.3583 5.38143 10.3532 5.0253C10.3532 4.83839 10.4407 4.77117 10.6135 4.77117C10.9697 4.77959 10.9697 4.23932 10.6135 4.24437C10.3787 4.24437 10.3532 4.11004 10.3532 3.97892C10.3532 3.83027 10.2344 3.7091 10.0857 3.71146Z" fill="#16162F"/>
<path fill-rule="evenodd" clip-rule="evenodd" d="M26.0415 1.62918C25.9291 1.62918 25.8394 1.72348 25.8411 1.83589C25.8411 1.97705 25.7805 2.04101 25.6407 2.04101C25.3654 2.04101 25.3654 2.45208 25.6407 2.44812C25.7756 2.44812 25.8411 2.48519 25.8411 2.64455C25.8411 2.91986 26.2521 2.91986 26.2483 2.64455C26.2483 2.50011 26.3157 2.44812 26.4494 2.44812C26.7247 2.44812 26.7247 2.03714 26.4494 2.04101C26.2679 2.04101 26.2483 1.93719 26.2483 1.83589C26.2491 1.72095 26.1564 1.62732 26.0415 1.62918Z" fill="#0A855C"/>
</svg>
