<svg width="61" height="42" viewBox="0 0 61 42" fill="none" xmlns="http://www.w3.org/2000/svg">
<path d="M9.95444 34.1111C9.88052 34.1101 9.80713 34.1237 9.73854 34.1512C9.66994 34.1786 9.60751 34.2194 9.55487 34.271C9.50223 34.3227 9.46043 34.3843 9.4319 34.4523C9.40336 34.5202 9.38867 34.5931 9.38867 34.6667C9.38867 34.7403 9.40336 34.8132 9.4319 34.8811C9.46043 34.949 9.50223 35.0106 9.55487 35.0623C9.60751 35.114 9.66994 35.1548 9.73854 35.1822C9.80713 35.2097 9.88052 35.2233 9.95444 35.2222H54.3776C54.4515 35.2233 54.5249 35.2097 54.5935 35.1822C54.6621 35.1548 54.7245 35.114 54.7771 35.0623C54.8298 35.0106 54.8716 34.949 54.9001 34.8811C54.9286 34.8132 54.9433 34.7403 54.9433 34.6667C54.9433 34.5931 54.9286 34.5202 54.9001 34.4523C54.8716 34.3843 54.8298 34.3227 54.7771 34.271C54.7245 34.2194 54.6621 34.1786 54.5935 34.1512C54.5249 34.1237 54.4515 34.1101 54.3776 34.1111H9.95444Z" fill="#16162F"/>
<path d="M57.7145 34.1253C57.6427 34.1241 57.5713 34.1372 57.5046 34.1638C57.4378 34.1905 57.3771 34.2302 57.3258 34.2806C57.2746 34.331 57.2339 34.3911 57.2061 34.4573C57.1784 34.5236 57.1641 34.5948 57.1641 34.6666C57.1641 34.7385 57.1784 34.8096 57.2061 34.8759C57.2339 34.9422 57.2746 35.0022 57.3258 35.0526C57.3771 35.103 57.4378 35.1427 57.5046 35.1694C57.5713 35.1961 57.6427 35.2091 57.7145 35.2079H59.9497C60.0215 35.2091 60.0929 35.1961 60.1596 35.1694C60.2264 35.1427 60.2871 35.103 60.3383 35.0526C60.3896 35.0022 60.4303 34.9422 60.458 34.8759C60.4858 34.8096 60.5001 34.7385 60.5001 34.6666C60.5001 34.5948 60.4858 34.5236 60.458 34.4573C60.4303 34.3911 60.3896 34.331 60.3383 34.2806C60.2871 34.2302 60.2264 34.1905 60.1596 34.1638C60.0929 34.1372 60.0215 34.1241 59.9497 34.1253H57.7145Z" fill="#16162F"/>
<path d="M1.00328 34.1111C0.937529 34.1101 0.872245 34.1237 0.811227 34.1512C0.750208 34.1786 0.69467 34.2194 0.647843 34.271C0.601015 34.3227 0.563831 34.3843 0.53845 34.4523C0.51307 34.5202 0.5 34.5931 0.5 34.6667C0.5 34.7403 0.51307 34.8132 0.53845 34.8811C0.563831 34.949 0.601015 35.0106 0.647843 35.0623C0.69467 35.114 0.750208 35.1548 0.811227 35.1822C0.872245 35.2097 0.937529 35.2233 1.00328 35.2222H6.66325C6.72901 35.2233 6.79429 35.2097 6.85531 35.1822C6.91633 35.1548 6.97187 35.114 7.01869 35.0623C7.06552 35.0106 7.10271 34.949 7.12809 34.8811C7.15347 34.8132 7.16654 34.7403 7.16654 34.6667C7.16654 34.5931 7.15347 34.5202 7.12809 34.4523C7.10271 34.3843 7.06552 34.3227 7.01869 34.271C6.97187 34.2194 6.91633 34.1786 6.85531 34.1512C6.79429 34.1237 6.72901 34.1101 6.66325 34.1111H1.00328Z" fill="#16162F"/>
<path fill-rule="evenodd" clip-rule="evenodd" d="M19.9589 36.3252C19.8848 36.3248 19.8114 36.339 19.7428 36.3671C19.6742 36.3952 19.6118 36.4365 19.5592 36.4888C19.5067 36.541 19.465 36.6032 19.4365 36.6716C19.408 36.74 19.3934 36.8134 19.3934 36.8875C19.3934 36.9617 19.408 37.035 19.4365 37.1035C19.465 37.1719 19.5067 37.234 19.5592 37.2863C19.6118 37.3385 19.6742 37.3799 19.7428 37.4079C19.8114 37.436 19.8848 37.4503 19.9589 37.4499H42.1513C42.2254 37.4503 42.2988 37.436 42.3674 37.4079C42.436 37.3799 42.4984 37.3385 42.551 37.2863C42.6035 37.234 42.6453 37.1719 42.6737 37.1035C42.7022 37.035 42.7168 36.9617 42.7168 36.8875C42.7168 36.8134 42.7022 36.74 42.6737 36.6716C42.6453 36.6032 42.6035 36.541 42.551 36.4888C42.4984 36.4365 42.436 36.3952 42.3674 36.3671C42.2988 36.339 42.2254 36.3248 42.1513 36.3252H19.9589Z" fill="#0A855C"/>
<path fill-rule="evenodd" clip-rule="evenodd" d="M23.3501 38.5552C23.268 38.5542 23.1865 38.5678 23.1103 38.5952C23.0341 38.6227 22.9648 38.6635 22.9063 38.7151C22.8478 38.7668 22.8014 38.8284 22.7697 38.8963C22.738 38.9643 22.7217 39.0372 22.7217 39.1108C22.7217 39.1844 22.738 39.2573 22.7697 39.3252C22.8014 39.3931 22.8478 39.4547 22.9063 39.5064C22.9648 39.5581 23.0341 39.5989 23.1103 39.6263C23.1865 39.6538 23.268 39.6674 23.3501 39.6663H29.8708C29.953 39.6674 30.0345 39.6538 30.1107 39.6263C30.1869 39.5989 30.2562 39.5581 30.3147 39.5064C30.3732 39.4547 30.4196 39.3931 30.4513 39.3252C30.483 39.2573 30.4993 39.1844 30.4993 39.1108C30.4993 39.0372 30.483 38.9643 30.4513 38.8963C30.4196 38.8284 30.3732 38.7668 30.3147 38.7151C30.2562 38.6635 30.1869 38.6227 30.1107 38.5952C30.0345 38.5678 29.953 38.5542 29.8708 38.5552H23.3501Z" fill="#0A855C"/>
<path fill-rule="evenodd" clip-rule="evenodd" d="M33.2828 38.5597C33.2096 38.5582 33.1369 38.5715 33.0689 38.5985C33.0008 38.6255 32.9389 38.6658 32.8866 38.717C32.8343 38.7682 32.7928 38.8294 32.7644 38.8969C32.7361 38.9643 32.7215 39.0367 32.7215 39.1099C32.7215 39.1831 32.7361 39.2557 32.7644 39.3231C32.7928 39.3906 32.8343 39.4518 32.8866 39.503C32.9389 39.5542 33.0008 39.5945 33.0689 39.6215C33.1369 39.6485 33.2096 39.6616 33.2828 39.6602H41.0553C41.1285 39.6616 41.2012 39.6485 41.2693 39.6215C41.3373 39.5945 41.3993 39.5542 41.4515 39.503C41.5038 39.4518 41.5453 39.3906 41.5737 39.3231C41.602 39.2557 41.6166 39.1831 41.6166 39.1099C41.6166 39.0367 41.602 38.9643 41.5737 38.8969C41.5453 38.8294 41.5038 38.7682 41.4515 38.717C41.3993 38.6658 41.3373 38.6255 41.2693 38.5985C41.2012 38.5715 41.1285 38.5582 41.0553 38.5597H33.2828Z" fill="#0A855C"/>
<path fill-rule="evenodd" clip-rule="evenodd" d="M26.6985 40.7776C26.6145 40.7766 26.531 40.7902 26.453 40.8177C26.375 40.8451 26.304 40.8859 26.2441 40.9376C26.1842 40.9892 26.1367 41.0508 26.1042 41.1188C26.0718 41.1867 26.0551 41.2596 26.0551 41.3332C26.0551 41.4068 26.0718 41.4797 26.1042 41.5476C26.1367 41.6155 26.1842 41.6771 26.2441 41.7288C26.304 41.7805 26.375 41.8213 26.453 41.8487C26.531 41.8762 26.6145 41.8898 26.6985 41.8887H33.1892C33.2733 41.8898 33.3567 41.8762 33.4348 41.8487C33.5128 41.8213 33.5838 41.7805 33.6437 41.7288C33.7035 41.6771 33.7511 41.6155 33.7835 41.5476C33.816 41.4797 33.8327 41.4068 33.8327 41.3332C33.8327 41.2596 33.816 41.1867 33.7835 41.1188C33.7511 41.0508 33.7035 40.9892 33.6437 40.9376C33.5838 40.8859 33.5128 40.8451 33.4348 40.8177C33.3567 40.7902 33.2733 40.7766 33.1892 40.7776H26.6985Z" fill="#0A855C"/>
<path fill-rule="evenodd" clip-rule="evenodd" d="M45.6858 0.11112C45.5402 0.11112 45.4242 0.233111 45.4265 0.378477C45.4265 0.561091 45.3481 0.644034 45.1672 0.644034C44.811 0.635607 44.811 1.17586 45.1672 1.17072C45.3417 1.17072 45.4265 1.21874 45.4265 1.42486C45.418 1.78107 45.9583 1.78107 45.9532 1.42486C45.9532 1.23795 46.0407 1.17072 46.2135 1.17072C46.5698 1.17915 46.5698 0.638809 46.2135 0.644034C45.9787 0.644034 45.9532 0.509602 45.9532 0.378477C45.9532 0.229824 45.8344 0.108676 45.6858 0.11112Z" fill="#16162F"/>
<path fill-rule="evenodd" clip-rule="evenodd" d="M15.3539 21.1553C15.1542 21.1553 14.9949 21.3227 14.9981 21.5224C14.9981 21.7731 14.891 21.8867 14.6423 21.8867C14.1533 21.8783 14.1533 22.6168 14.6423 22.6098C14.8818 22.6098 14.9981 22.6763 14.9981 22.9584C14.9896 23.4473 15.7279 23.4473 15.721 22.9584C15.721 22.702 15.841 22.6098 16.0783 22.6098C16.5672 22.6182 16.5672 21.8798 16.0783 21.8867C15.756 21.8867 15.721 21.7023 15.721 21.5224C15.721 21.3183 15.558 21.1521 15.3539 21.1553Z" fill="#0A855C"/>
<path fill-rule="evenodd" clip-rule="evenodd" d="M10.7418 10.2791C10.6322 10.2791 10.5447 10.3709 10.5465 10.4806C10.5465 10.6183 10.4875 10.6806 10.3511 10.6806C10.0827 10.6722 10.0827 11.0814 10.3511 11.0775C10.4826 11.0775 10.5465 11.1138 10.5465 11.2691C10.5381 11.5374 10.9472 11.5374 10.9434 11.2691C10.9434 11.1283 11.0091 11.0775 11.1395 11.0775C11.4079 11.0775 11.4079 10.6768 11.1395 10.6806C10.9625 10.6806 10.9434 10.5793 10.9434 10.4806C10.9434 10.3686 10.8538 10.2773 10.7418 10.2791Z" fill="#0A855C"/>
<path fill-rule="evenodd" clip-rule="evenodd" d="M20.4987 0.111116C20.3532 0.111116 20.2372 0.233176 20.2394 0.378626C20.2394 0.56124 20.1611 0.64408 19.9802 0.64408C19.6239 0.635653 19.6239 1.17601 19.9802 1.17087C20.1547 1.17087 20.2394 1.21889 20.2394 1.42501C20.231 1.78114 20.7713 1.78114 20.7662 1.42501C20.7662 1.2381 20.8537 1.17087 21.0265 1.17087C21.3827 1.1793 21.3827 0.639024 21.0265 0.64408C20.7917 0.64408 20.7662 0.509751 20.7662 0.378626C20.7662 0.229974 20.6474 0.10884 20.4987 0.111116Z" fill="#16162F"/>
<path fill-rule="evenodd" clip-rule="evenodd" d="M36.1621 0.938258C36.0524 0.938258 35.965 1.03012 35.9666 1.13968C35.9666 1.27729 35.9077 1.33976 35.7713 1.33976C35.5029 1.33976 35.5029 1.74047 35.7713 1.73668C35.9028 1.73668 35.9666 1.77289 35.9666 1.92811C35.9582 2.1966 36.3674 2.1966 36.3636 1.92811C36.3636 1.78738 36.4293 1.73668 36.5597 1.73668C36.8281 1.7451 36.8281 1.33588 36.5597 1.33976C36.3828 1.33976 36.3636 1.23844 36.3636 1.13968C36.3636 1.02772 36.2741 0.936488 36.1621 0.938258Z" fill="#16162F"/>
<path fill-rule="evenodd" clip-rule="evenodd" d="M48.4857 8.51102C48.3402 8.51102 48.2241 8.63306 48.2264 8.77843C48.2264 8.96104 48.148 9.04394 47.9672 9.04394C47.611 9.03551 47.611 9.57579 47.9672 9.57073C48.1417 9.57073 48.2264 9.61877 48.2264 9.82482C48.218 10.181 48.7582 10.181 48.7532 9.82482C48.7532 9.6379 48.8406 9.57073 49.0135 9.57073C49.3697 9.57916 49.3697 9.03871 49.0135 9.04394C48.7786 9.04394 48.7532 8.90956 48.7532 8.77843C48.7532 8.62978 48.6344 8.50858 48.4857 8.51102Z" fill="#0A855C"/>
<path fill-rule="evenodd" clip-rule="evenodd" d="M46.4316 16.6587C46.322 16.6587 46.2346 16.7507 46.2362 16.8603C46.2362 16.9979 46.1772 17.0603 46.0409 17.0603C45.7725 17.0519 45.7725 17.461 46.0409 17.4572C46.1724 17.4572 46.2362 17.4935 46.2362 17.6487C46.2278 17.9171 46.6369 17.9171 46.6332 17.6487C46.6332 17.5079 46.6989 17.4572 46.8292 17.4572C47.0977 17.4572 47.0977 17.0564 46.8292 17.0603C46.6524 17.0603 46.6332 16.9591 46.6332 16.8603C46.6332 16.7483 46.5437 16.657 46.4316 16.6587Z" fill="#0A855C"/>
<path fill-rule="evenodd" clip-rule="evenodd" d="M45.8333 22.0071C45.6336 22.0071 45.4743 22.1746 45.4775 22.3743C45.4775 22.6249 45.3703 22.7385 45.1216 22.7385C44.6327 22.7301 44.6327 23.4685 45.1216 23.4615C45.3611 23.4615 45.4775 23.5281 45.4775 23.8103C45.469 24.2992 46.2073 24.2992 46.2004 23.8103C46.2004 23.5538 46.3204 23.4615 46.5576 23.4615C47.0466 23.4699 47.0466 22.7315 46.5576 22.7385C46.2353 22.7385 46.2004 22.5542 46.2004 22.3743C46.2004 22.1702 46.0373 22.0039 45.8333 22.0071Z" fill="#0A855C"/>
<path fill-rule="evenodd" clip-rule="evenodd" d="M10.0857 3.71122C9.94021 3.71122 9.82417 3.83322 9.82645 3.97867C9.82645 4.16129 9.74807 4.24413 9.56715 4.24413C9.21094 4.2357 9.21094 4.77598 9.56715 4.77092C9.74167 4.77092 9.82645 4.81893 9.82645 5.02506C9.81802 5.38118 10.3583 5.38118 10.3532 5.02506C10.3532 4.83815 10.4407 4.77092 10.6135 4.77092C10.9697 4.77935 10.9697 4.23907 10.6135 4.24413C10.3787 4.24413 10.3532 4.1098 10.3532 3.97867C10.3532 3.83002 10.2344 3.70886 10.0857 3.71122Z" fill="#16162F"/>
<path fill-rule="evenodd" clip-rule="evenodd" d="M26.0415 1.62893C25.9291 1.62893 25.8394 1.72323 25.8411 1.83565C25.8411 1.9768 25.7805 2.04077 25.6407 2.04077C25.3654 2.04077 25.3654 2.45183 25.6407 2.44787C25.7756 2.44787 25.8411 2.48495 25.8411 2.6443C25.8411 2.91961 26.2521 2.91961 26.2483 2.6443C26.2483 2.49986 26.3157 2.44787 26.4494 2.44787C26.7247 2.44787 26.7247 2.03689 26.4494 2.04077C26.2679 2.04077 26.2483 1.93694 26.2483 1.83565C26.2491 1.7207 26.1564 1.62708 26.0415 1.62893Z" fill="#0A855C"/>
<path d="M37.3 23.8113C37.0348 23.8113 36.7804 23.7059 36.5929 23.5184C36.4053 23.3308 36.3 23.0765 36.3 22.8113V21.8113C36.3 21.2808 36.0893 20.7721 35.7142 20.3971C35.3391 20.022 34.8304 19.8113 34.3 19.8113C34.1674 19.8113 34.0402 19.864 33.9464 19.9577C33.8527 20.0515 33.8 20.1787 33.8 20.3113C33.8 20.4439 33.8527 20.5711 33.9464 20.6648C34.0402 20.7586 34.1674 20.8113 34.3 20.8113C34.5652 20.8113 34.8196 20.9166 35.0071 21.1042C35.1946 21.2917 35.3 21.5461 35.3 21.8113V22.8113C35.2998 23.0952 35.3603 23.3759 35.4773 23.6345C35.5943 23.8932 35.7652 24.1239 35.9785 24.3113C35.7652 24.4986 35.5943 24.7294 35.4773 24.988C35.3603 25.2467 35.2998 25.5274 35.3 25.8113V26.8113C35.3 27.0765 35.1946 27.3308 35.0071 27.5184C34.8196 27.7059 34.5652 27.8113 34.3 27.8113C34.1674 27.8113 34.0402 27.864 33.9464 27.9577C33.8527 28.0515 33.8 28.1787 33.8 28.3113C33.8 28.4439 33.8527 28.5711 33.9464 28.6648C34.0402 28.7586 34.1674 28.8113 34.3 28.8113C34.8304 28.8113 35.3391 28.6006 35.7142 28.2255C36.0893 27.8504 36.3 27.3417 36.3 26.8113V25.8113C36.3 25.5461 36.4053 25.2917 36.5929 25.1042C36.7804 24.9166 37.0348 24.8113 37.3 24.8113C37.4326 24.8113 37.5598 24.7586 37.6535 24.6648C37.7473 24.5711 37.8 24.4439 37.8 24.3113C37.8 24.1787 37.7473 24.0515 37.6535 23.9577C37.5598 23.864 37.4326 23.8113 37.3 23.8113ZM26.3 21.8113C26.3 21.5461 26.4053 21.2917 26.5929 21.1042C26.7804 20.9166 27.0348 20.8113 27.3 20.8113C27.4326 20.8113 27.5598 20.7586 27.6535 20.6648C27.7473 20.5711 27.8 20.4439 27.8 20.3113C27.8 20.1787 27.7473 20.0515 27.6535 19.9577C27.5598 19.864 27.4326 19.8113 27.3 19.8113C26.7696 19.8113 26.2608 20.022 25.8858 20.3971C25.5107 20.7721 25.3 21.2808 25.3 21.8113V22.8113C25.3 23.0765 25.1946 23.3308 25.0071 23.5184C24.8196 23.7059 24.5652 23.8113 24.3 23.8113C24.1674 23.8113 24.0402 23.864 23.9464 23.9577C23.8527 24.0515 23.8 24.1787 23.8 24.3113C23.8 24.4439 23.8527 24.5711 23.9464 24.6648C24.0402 24.7586 24.1674 24.8113 24.3 24.8113C24.5652 24.8113 24.8196 24.9166 25.0071 25.1042C25.1946 25.2917 25.3 25.5461 25.3 25.8113V26.8113C25.3 27.3417 25.5107 27.8504 25.8858 28.2255C26.2608 28.6006 26.7696 28.8113 27.3 28.8113C27.4326 28.8113 27.5598 28.7586 27.6535 28.6648C27.7473 28.5711 27.8 28.4439 27.8 28.3113C27.8 28.1787 27.7473 28.0515 27.6535 27.9577C27.5598 27.864 27.4326 27.8113 27.3 27.8113C27.0348 27.8113 26.7804 27.7059 26.5929 27.5184C26.4053 27.3308 26.3 27.0765 26.3 26.8113V25.8113C26.3001 25.5274 26.2397 25.2467 26.1227 24.988C26.0057 24.7294 25.8348 24.4986 25.6215 24.3113C25.8348 24.1239 26.0057 23.8932 26.1227 23.6345C26.2397 23.3759 26.3001 23.0952 26.3 22.8113V21.8113Z" fill="#16162F"/>
<path fill-rule="evenodd" clip-rule="evenodd" d="M20.9833 6.24488C19.8555 6.42365 18.9933 7.40035 18.9933 8.5784V30.8893C18.9933 32.4357 20.247 33.6893 21.7933 33.6893H40.38C41.4742 33.6893 42.3827 32.8948 42.5603 31.8512C43.8018 31.6725 44.7559 30.6043 44.7559 29.3134V6.90181C44.7559 5.35541 43.5023 4.10181 41.9559 4.10181H23.4699C22.2076 4.10181 21.1625 5.03232 20.9833 6.24488ZM21.8031 6.21563H37.4757L42.5918 11.3317V22.5191C42.5918 22.74 42.4127 22.9191 42.1918 22.9191C41.9709 22.9191 41.7918 22.74 41.7918 22.5191V15.823H19.7933V30.8893C19.7933 31.9938 20.6888 32.8893 21.7933 32.8893H40.38C41.1597 32.8893 41.7918 32.2572 41.7918 31.4775V26.344C41.7918 26.1231 41.9709 25.944 42.1918 25.944C42.4127 25.944 42.5918 26.1231 42.5918 26.344V31.0319C43.3734 30.8507 43.9559 30.1501 43.9559 29.3134V6.90181C43.9559 5.79724 43.0604 4.90181 41.9559 4.90181H23.4699C22.6612 4.90181 21.9832 5.46205 21.8031 6.21563ZM19.7933 15.023H41.7918V11.8973H39.71C38.1636 11.8973 36.91 10.6437 36.91 9.09735V7.01563H21.3561C20.493 7.01563 19.7933 7.71531 19.7933 8.5784V15.023ZM37.71 7.5813L41.2261 11.0973H39.71C38.6054 11.0973 37.71 10.2019 37.71 9.09735V7.5813Z" fill="#16162F"/>
<path d="M30.8 23.3113C31.0761 23.3113 31.3 23.0874 31.3 22.8113C31.3 22.5351 31.0761 22.3113 30.8 22.3113C30.5238 22.3113 30.3 22.5351 30.3 22.8113C30.3 23.0874 30.5238 23.3113 30.8 23.3113Z" fill="#16162F"/>
<path d="M30.8 25.3113C30.6674 25.3113 30.5402 25.364 30.4464 25.4577C30.3527 25.5515 30.3 25.6787 30.3 25.8113C30.3 25.9439 30.2473 26.0711 30.1535 26.1648C30.0598 26.2586 29.9326 26.3113 29.8 26.3113C29.6674 26.3113 29.5402 26.364 29.4464 26.4577C29.3527 26.5515 29.3 26.6787 29.3 26.8113C29.3 26.9439 29.3527 27.0711 29.4464 27.1648C29.5402 27.2586 29.6674 27.3113 29.8 27.3113C30.1978 27.3113 30.5793 27.1532 30.8606 26.8719C31.142 26.5906 31.3 26.2091 31.3 25.8113C31.3 25.6787 31.2473 25.5515 31.1535 25.4577C31.0598 25.364 30.9326 25.3113 30.8 25.3113Z" fill="#16162F"/>
<path d="M27.4464 7.95773C27.5402 7.86396 27.6674 7.81128 27.8 7.81128C27.9326 7.81128 28.0598 7.86396 28.1535 7.95773C28.2473 8.05149 28.3 8.17867 28.3 8.31128V11.8113C28.3 12.3417 28.0893 12.8504 27.7142 13.2255C27.3391 13.6006 26.8304 13.8113 26.3 13.8113C25.7696 13.8113 25.2608 13.6006 24.8858 13.2255C24.5107 12.8504 24.3 12.3417 24.3 11.8113C24.3 11.6787 24.3527 11.5515 24.4464 11.4577C24.5402 11.364 24.6674 11.3113 24.8 11.3113C24.9326 11.3113 25.0598 11.364 25.1535 11.4577C25.2473 11.5515 25.3 11.6787 25.3 11.8113C25.3 12.0765 25.4053 12.3308 25.5929 12.5184C25.7804 12.7059 26.0348 12.8113 26.3 12.8113C26.5652 12.8113 26.8196 12.7059 27.0071 12.5184C27.1946 12.3308 27.3 12.0765 27.3 11.8113V8.31128C27.3 8.17867 27.3527 8.05149 27.4464 7.95773Z" fill="#0A855C"/>
<path d="M31.8 8.81128H31.05C30.8511 8.81128 30.6603 8.8903 30.5197 9.03095C30.379 9.1716 30.3 9.36237 30.3 9.56128C30.3 9.76019 30.379 9.95096 30.5197 10.0916C30.6603 10.2323 30.8511 10.3113 31.05 10.3113H31.55C32.0141 10.3113 32.4592 10.4957 32.7874 10.8238C33.1156 11.152 33.3 11.5972 33.3 12.0613C33.3 12.5254 33.1156 12.9705 32.7874 13.2987C32.4592 13.6269 32.0141 13.8113 31.55 13.8113H30.8C30.4022 13.8113 30.0206 13.6532 29.7393 13.3719C29.458 13.0906 29.3 12.7091 29.3 12.3113C29.3 12.1787 29.3527 12.0515 29.4464 11.9577C29.5402 11.864 29.6674 11.8113 29.8 11.8113C29.9326 11.8113 30.0598 11.864 30.1535 11.9577C30.2473 12.0515 30.3 12.1787 30.3 12.3113C30.3 12.4439 30.3527 12.5711 30.4464 12.6648C30.5402 12.7586 30.6674 12.8113 30.8 12.8113H31.55C31.7489 12.8113 31.9397 12.7323 32.0803 12.5916C32.221 12.451 32.3 12.2602 32.3 12.0613C32.3 11.8624 32.221 11.6716 32.0803 11.5309C31.9397 11.3903 31.7489 11.3113 31.55 11.3113H31.05C30.5859 11.3113 30.1407 11.1269 29.8126 10.7987C29.4844 10.4705 29.3 10.0254 29.3 9.56128C29.3 9.09715 29.4844 8.65203 29.8126 8.32384C30.1407 7.99565 30.5859 7.81128 31.05 7.81128H31.8C32.1978 7.81128 32.5793 7.96931 32.8606 8.25062C33.142 8.53192 33.3 8.91345 33.3 9.31128C33.3 9.44389 33.2473 9.57106 33.1535 9.66483C33.0598 9.7586 32.9326 9.81128 32.8 9.81128C32.6674 9.81128 32.5402 9.7586 32.4464 9.66483C32.3527 9.57106 32.3 9.44389 32.3 9.31128C32.3 9.17867 32.2473 9.05149 32.1535 8.95773C32.0598 8.86396 31.9326 8.81128 31.8 8.81128Z" fill="#0A855C"/>
<path d="M42.128 24.8113C42.4041 24.8113 42.628 24.5874 42.628 24.3113C42.628 24.0351 42.4041 23.8113 42.128 23.8113C41.8518 23.8113 41.628 24.0351 41.628 24.3113C41.628 24.5874 41.8518 24.8113 42.128 24.8113Z" fill="#16162F"/>
</svg>
