<svg width="61" height="42" viewBox="0 0 61 42" fill="none" xmlns="http://www.w3.org/2000/svg">
<path d="M9.95444 34.1114C9.88052 34.1103 9.80713 34.1239 9.73854 34.1514C9.66994 34.1788 9.60751 34.2196 9.55487 34.2713C9.50223 34.323 9.46043 34.3846 9.4319 34.4525C9.40336 34.5204 9.38867 34.5933 9.38867 34.6669C9.38867 34.7406 9.40336 34.8134 9.4319 34.8814C9.46043 34.9493 9.50223 35.0109 9.55487 35.0626C9.60751 35.1143 9.66994 35.155 9.73854 35.1825C9.80713 35.2099 9.88052 35.2235 9.95444 35.2225H54.3776C54.4515 35.2235 54.5249 35.2099 54.5935 35.1825C54.6621 35.155 54.7245 35.1143 54.7771 35.0626C54.8298 35.0109 54.8716 34.9493 54.9001 34.8814C54.9286 34.8134 54.9433 34.7406 54.9433 34.6669C54.9433 34.5933 54.9286 34.5204 54.9001 34.4525C54.8716 34.3846 54.8298 34.323 54.7771 34.2713C54.7245 34.2196 54.6621 34.1788 54.5935 34.1514C54.5249 34.1239 54.4515 34.1103 54.3776 34.1114H9.95444Z" fill="#16162F"/>
<path d="M57.7145 34.1256C57.6427 34.1244 57.5713 34.1374 57.5046 34.1641C57.4378 34.1907 57.3771 34.2305 57.3258 34.2809C57.2746 34.3312 57.2339 34.3913 57.2061 34.4576C57.1784 34.5239 57.1641 34.595 57.1641 34.6669C57.1641 34.7387 57.1784 34.8099 57.2061 34.8761C57.2339 34.9424 57.2746 35.0025 57.3258 35.0529C57.3771 35.1033 57.4378 35.143 57.5046 35.1697C57.5713 35.1963 57.6427 35.2094 57.7145 35.2082H59.9497C60.0215 35.2094 60.0929 35.1963 60.1596 35.1697C60.2264 35.143 60.2871 35.1033 60.3383 35.0529C60.3896 35.0025 60.4303 34.9424 60.458 34.8761C60.4858 34.8099 60.5001 34.7387 60.5001 34.6669C60.5001 34.595 60.4858 34.5239 60.458 34.4576C60.4303 34.3913 60.3896 34.3312 60.3383 34.2809C60.2871 34.2305 60.2264 34.1907 60.1596 34.1641C60.0929 34.1374 60.0215 34.1244 59.9497 34.1256H57.7145Z" fill="#16162F"/>
<path d="M1.00328 34.1114C0.937529 34.1103 0.872245 34.1239 0.811227 34.1514C0.750208 34.1788 0.69467 34.2196 0.647843 34.2713C0.601015 34.323 0.563831 34.3846 0.53845 34.4525C0.51307 34.5204 0.5 34.5933 0.5 34.6669C0.5 34.7406 0.51307 34.8134 0.53845 34.8814C0.563831 34.9493 0.601015 35.0109 0.647843 35.0626C0.69467 35.1143 0.750208 35.155 0.811227 35.1825C0.872245 35.2099 0.937529 35.2235 1.00328 35.2225H6.66325C6.72901 35.2235 6.79429 35.2099 6.85531 35.1825C6.91633 35.155 6.97187 35.1143 7.01869 35.0626C7.06552 35.0109 7.10271 34.9493 7.12809 34.8814C7.15347 34.8134 7.16654 34.7406 7.16654 34.6669C7.16654 34.5933 7.15347 34.5204 7.12809 34.4525C7.10271 34.3846 7.06552 34.323 7.01869 34.2713C6.97187 34.2196 6.91633 34.1788 6.85531 34.1514C6.79429 34.1239 6.72901 34.1103 6.66325 34.1114H1.00328Z" fill="#16162F"/>
<path fill-rule="evenodd" clip-rule="evenodd" d="M19.9589 36.3254C19.8848 36.325 19.8114 36.3393 19.7428 36.3674C19.6742 36.3954 19.6118 36.4368 19.5592 36.489C19.5067 36.5413 19.465 36.6034 19.4365 36.6718C19.408 36.7403 19.3934 36.8137 19.3934 36.8878C19.3934 36.9619 19.408 37.0353 19.4365 37.1037C19.465 37.1721 19.5067 37.2343 19.5592 37.2865C19.6118 37.3388 19.6742 37.3801 19.7428 37.4082C19.8114 37.4363 19.8848 37.4505 19.9589 37.4501H42.1513C42.2254 37.4505 42.2988 37.4363 42.3674 37.4082C42.436 37.3801 42.4984 37.3388 42.551 37.2865C42.6035 37.2343 42.6453 37.1721 42.6737 37.1037C42.7022 37.0353 42.7168 36.9619 42.7168 36.8878C42.7168 36.8137 42.7022 36.7403 42.6737 36.6718C42.6453 36.6034 42.6035 36.5413 42.551 36.489C42.4984 36.4368 42.436 36.3954 42.3674 36.3674C42.2988 36.3393 42.2254 36.325 42.1513 36.3254H19.9589Z" fill="#0A855C"/>
<path fill-rule="evenodd" clip-rule="evenodd" d="M23.3501 38.5555C23.268 38.5544 23.1865 38.568 23.1103 38.5955C23.0341 38.6229 22.9648 38.6637 22.9063 38.7154C22.8478 38.7671 22.8014 38.8287 22.7697 38.8966C22.738 38.9645 22.7217 39.0374 22.7217 39.111C22.7217 39.1846 22.738 39.2575 22.7697 39.3255C22.8014 39.3934 22.8478 39.455 22.9063 39.5067C22.9648 39.5583 23.0341 39.5991 23.1103 39.6266C23.1865 39.654 23.268 39.6676 23.3501 39.6666H29.8708C29.953 39.6676 30.0345 39.654 30.1107 39.6266C30.1869 39.5991 30.2562 39.5583 30.3147 39.5067C30.3732 39.455 30.4196 39.3934 30.4513 39.3255C30.483 39.2575 30.4993 39.1846 30.4993 39.111C30.4993 39.0374 30.483 38.9645 30.4513 38.8966C30.4196 38.8287 30.3732 38.7671 30.3147 38.7154C30.2562 38.6637 30.1869 38.6229 30.1107 38.5955C30.0345 38.568 29.953 38.5544 29.8708 38.5555H23.3501Z" fill="#0A855C"/>
<path fill-rule="evenodd" clip-rule="evenodd" d="M33.2828 38.5599C33.2096 38.5585 33.1369 38.5717 33.0689 38.5987C33.0008 38.6257 32.9389 38.666 32.8866 38.7173C32.8343 38.7685 32.7928 38.8296 32.7644 38.8971C32.7361 38.9646 32.7215 39.037 32.7215 39.1102C32.7215 39.1834 32.7361 39.2559 32.7644 39.3234C32.7928 39.3909 32.8343 39.452 32.8866 39.5032C32.9389 39.5545 33.0008 39.5948 33.0689 39.6218C33.1369 39.6488 33.2096 39.6619 33.2828 39.6604H41.0553C41.1285 39.6619 41.2012 39.6488 41.2693 39.6218C41.3373 39.5948 41.3993 39.5545 41.4515 39.5032C41.5038 39.452 41.5453 39.3909 41.5737 39.3234C41.602 39.2559 41.6166 39.1834 41.6166 39.1102C41.6166 39.037 41.602 38.9646 41.5737 38.8971C41.5453 38.8296 41.5038 38.7685 41.4515 38.7173C41.3993 38.666 41.3373 38.6257 41.2693 38.5987C41.2012 38.5717 41.1285 38.5585 41.0553 38.5599H33.2828Z" fill="#0A855C"/>
<path fill-rule="evenodd" clip-rule="evenodd" d="M26.6985 40.7779C26.6145 40.7768 26.531 40.7904 26.453 40.8179C26.375 40.8454 26.304 40.8861 26.2441 40.9378C26.1842 40.9895 26.1367 41.0511 26.1042 41.119C26.0718 41.1869 26.0551 41.2598 26.0551 41.3334C26.0551 41.4071 26.0718 41.4799 26.1042 41.5479C26.1367 41.6158 26.1842 41.6774 26.2441 41.7291C26.304 41.7808 26.375 41.8215 26.453 41.849C26.531 41.8764 26.6145 41.89 26.6985 41.889H33.1892C33.2733 41.89 33.3567 41.8764 33.4348 41.849C33.5128 41.8215 33.5838 41.7808 33.6437 41.7291C33.7035 41.6774 33.7511 41.6158 33.7835 41.5479C33.816 41.4799 33.8327 41.4071 33.8327 41.3334C33.8327 41.2598 33.816 41.1869 33.7835 41.119C33.7511 41.0511 33.7035 40.9895 33.6437 40.9378C33.5838 40.8861 33.5128 40.8454 33.4348 40.8179C33.3567 40.7904 33.2733 40.7768 33.1892 40.7779H26.6985Z" fill="#0A855C"/>
<path fill-rule="evenodd" clip-rule="evenodd" d="M45.6858 0.111364C45.5402 0.111364 45.4242 0.233355 45.4265 0.378721C45.4265 0.561335 45.3481 0.644277 45.1672 0.644277C44.811 0.63585 44.811 1.17611 45.1672 1.17097C45.3417 1.17097 45.4265 1.21898 45.4265 1.4251C45.418 1.78132 45.9583 1.78132 45.9532 1.4251C45.9532 1.23819 46.0407 1.17097 46.2135 1.17097C46.5698 1.17939 46.5698 0.639053 46.2135 0.644277C45.9787 0.644277 45.9532 0.509846 45.9532 0.378721C45.9532 0.230068 45.8344 0.108921 45.6858 0.111364Z" fill="#16162F"/>
<path fill-rule="evenodd" clip-rule="evenodd" d="M15.3539 21.1556C15.1542 21.1556 14.9949 21.323 14.9981 21.5226C14.9981 21.7733 14.891 21.887 14.6423 21.887C14.1533 21.8785 14.1533 22.617 14.6423 22.61C14.8818 22.61 14.9981 22.6765 14.9981 22.9587C14.9896 23.4475 15.7279 23.4475 15.721 22.9587C15.721 22.7022 15.841 22.61 16.0783 22.61C16.5672 22.6185 16.5672 21.8801 16.0783 21.887C15.756 21.887 15.721 21.7025 15.721 21.5226C15.721 21.3186 15.558 21.1524 15.3539 21.1556Z" fill="#0A855C"/>
<path fill-rule="evenodd" clip-rule="evenodd" d="M10.7418 10.2793C10.6322 10.2793 10.5447 10.3712 10.5465 10.4809C10.5465 10.6185 10.4875 10.6809 10.3511 10.6809C10.0827 10.6724 10.0827 11.0817 10.3511 11.0778C10.4826 11.0778 10.5465 11.114 10.5465 11.2693C10.5381 11.5377 10.9472 11.5377 10.9434 11.2693C10.9434 11.1285 11.0091 11.0778 11.1395 11.0778C11.4079 11.0778 11.4079 10.6771 11.1395 10.6809C10.9625 10.6809 10.9434 10.5796 10.9434 10.4809C10.9434 10.3688 10.8538 10.2776 10.7418 10.2793Z" fill="#0A855C"/>
<path fill-rule="evenodd" clip-rule="evenodd" d="M20.4987 0.11136C20.3532 0.11136 20.2372 0.23342 20.2394 0.37887C20.2394 0.561484 20.1611 0.644324 19.9802 0.644324C19.6239 0.635897 19.6239 1.17626 19.9802 1.17112C20.1547 1.17112 20.2394 1.21913 20.2394 1.42525C20.231 1.78138 20.7713 1.78138 20.7662 1.42525C20.7662 1.23834 20.8537 1.17112 21.0265 1.17112C21.3827 1.17954 21.3827 0.639268 21.0265 0.644324C20.7917 0.644324 20.7662 0.509995 20.7662 0.37887C20.7662 0.230218 20.6474 0.109084 20.4987 0.11136Z" fill="#16162F"/>
<path fill-rule="evenodd" clip-rule="evenodd" d="M36.1621 0.938502C36.0524 0.938502 35.965 1.03037 35.9666 1.13992C35.9666 1.27753 35.9077 1.34 35.7713 1.34C35.5029 1.34 35.5029 1.74071 35.7713 1.73692C35.9028 1.73692 35.9666 1.77313 35.9666 1.92836C35.9582 2.19684 36.3674 2.19684 36.3636 1.92836C36.3636 1.78763 36.4293 1.73692 36.5597 1.73692C36.8281 1.74535 36.8281 1.33612 36.5597 1.34C36.3828 1.34 36.3636 1.23868 36.3636 1.13992C36.3636 1.02797 36.2741 0.936732 36.1621 0.938502Z" fill="#16162F"/>
<path d="M39.4061 15.1621H21.5942C20.9712 15.1621 20.4642 14.6516 20.4642 14.0244V7.7878C20.4642 7.16054 20.9711 6.65039 21.5942 6.65039H39.4061C40.029 6.65039 40.5357 7.16054 40.5357 7.7878V14.0244C40.5357 14.6516 40.029 15.1621 39.4061 15.1621ZM21.5942 7.32901C21.3452 7.32901 21.1429 7.53493 21.1429 7.7878V14.0244C21.1429 14.2775 21.3452 14.4834 21.5942 14.4834H39.4061C39.6546 14.4834 39.8571 14.2775 39.8571 14.0244V7.7878C39.8571 7.53493 39.6546 7.32901 39.4061 7.32901H21.5942Z" fill="#16162F"/>
<path d="M22.9474 13.1262H22.1177V12.3976H22.9474V13.1262ZM27.1067 13.1262H26.2865V11.4096H24.6073V13.1262H23.7775V8.9751H24.6073V10.7612H26.2865V8.9751H27.1067V13.1262ZM30.7222 9.62378H29.5565V13.1262H28.7268V9.62378H27.5709V8.9751H30.7221L30.7222 9.62378ZM32.2534 8.9751L33.3006 12.0386H33.3204L34.3775 8.9751H35.4544V13.1262H34.6346V11.8887L34.7135 10.0529H34.6937L33.5873 13.1262H33.0342L31.9375 10.0628L31.9277 10.0727L32.0066 11.8887V13.1262H31.1769V8.9751H32.2534ZM37.0448 12.4874H38.8826V13.1262H36.2249V8.9751H37.0448V12.4874ZM27.4225 27.679C27.3141 27.6792 27.2098 27.6376 27.1312 27.563L23.2708 23.9131C23.2679 23.91 23.2648 23.9074 23.262 23.9046C23.2266 23.8695 23.1975 23.8285 23.1762 23.7834C23.1498 23.7269 23.1359 23.665 23.1359 23.6026V23.6021C23.1359 23.5404 23.1493 23.4788 23.1764 23.4216C23.1967 23.3787 23.2245 23.3386 23.26 23.3028L23.2707 23.2927L27.1309 19.6332C27.1713 19.5949 27.2188 19.5649 27.2708 19.5449C27.3228 19.5249 27.3782 19.5154 27.4339 19.5169C27.4896 19.5184 27.5444 19.5309 27.5952 19.5536C27.6461 19.5763 27.6919 19.6088 27.7302 19.6493C27.7685 19.6897 27.7985 19.7372 27.8185 19.7892C27.8384 19.8412 27.8479 19.8966 27.8464 19.9523C27.8449 20.0079 27.8325 20.0627 27.8098 20.1136C27.7871 20.1644 27.7546 20.2103 27.7142 20.2486L24.1769 23.6023L27.7139 26.9469C27.7543 26.9852 27.7869 27.031 27.8096 27.0818C27.8323 27.1327 27.8449 27.1875 27.8464 27.2431C27.848 27.2988 27.8386 27.3542 27.8187 27.4062C27.7988 27.4582 27.7689 27.5058 27.7307 27.5463C27.6911 27.5883 27.6433 27.6217 27.5903 27.6446C27.5373 27.6674 27.4802 27.6791 27.4225 27.679ZM33.5873 27.679C33.5296 27.6791 33.4726 27.6674 33.4196 27.6446C33.3666 27.6219 33.3188 27.5885 33.2791 27.5466C33.202 27.4649 33.1603 27.3559 33.1634 27.2436C33.1665 27.1312 33.214 27.0246 33.2956 26.9473L36.8243 23.6024L33.2949 20.2483C33.2135 20.1708 33.1662 20.0642 33.1634 19.9518C33.1606 19.8394 33.2025 19.7305 33.2799 19.649C33.4412 19.4792 33.71 19.4727 33.8796 19.6337L37.7295 23.2928C37.7337 23.2969 37.7377 23.3005 37.7418 23.3047C37.7747 23.3377 37.8018 23.376 37.8221 23.4181C37.8504 23.4765 37.8644 23.5399 37.8644 23.6035C37.8644 23.6661 37.8501 23.729 37.8221 23.7872C37.8015 23.83 37.774 23.869 37.7405 23.9027C37.7368 23.9062 37.733 23.9095 37.7296 23.9129L33.8789 27.5628C33.8003 27.6376 33.6958 27.6792 33.5873 27.679Z" fill="#0A855C"/>
<path fill-rule="evenodd" clip-rule="evenodd" d="M40.6553 5.56128H20.5041C20.1727 5.56128 19.9041 5.82991 19.9041 6.16128V32.0947C19.9041 32.4261 20.1727 32.6947 20.5041 32.6947H40.6553C40.9867 32.6947 41.2553 32.4261 41.2553 32.0947V6.16128C41.2553 5.82991 40.9867 5.56128 40.6553 5.56128ZM20.5041 4.56128C19.6205 4.56128 18.9041 5.27762 18.9041 6.16128V32.0947C18.9041 32.9783 19.6205 33.6947 20.5041 33.6947H40.6553C41.539 33.6947 42.2553 32.9783 42.2553 32.0947V6.16128C42.2553 5.27762 41.539 4.56128 40.6553 4.56128H20.5041Z" fill="#16162F"/>
<path fill-rule="evenodd" clip-rule="evenodd" d="M48.4857 8.51127C48.3402 8.51127 48.2241 8.63331 48.2264 8.77867C48.2264 8.96129 48.148 9.04418 47.9672 9.04418C47.611 9.03575 47.611 9.57603 47.9672 9.57097C48.1417 9.57097 48.2264 9.61902 48.2264 9.82506C48.218 10.1813 48.7582 10.1813 48.7532 9.82506C48.7532 9.63815 48.8406 9.57097 49.0135 9.57097C49.3697 9.5794 49.3697 9.03896 49.0135 9.04418C48.7786 9.04418 48.7532 8.9098 48.7532 8.77867C48.7532 8.63002 48.6344 8.50882 48.4857 8.51127Z" fill="#0A855C"/>
<path fill-rule="evenodd" clip-rule="evenodd" d="M46.4316 16.659C46.322 16.659 46.2346 16.751 46.2362 16.8605C46.2362 16.9981 46.1772 17.0606 46.0409 17.0606C45.7725 17.0521 45.7725 17.4613 46.0409 17.4575C46.1724 17.4575 46.2362 17.4937 46.2362 17.649C46.2278 17.9174 46.6369 17.9174 46.6332 17.649C46.6332 17.5082 46.6989 17.4575 46.8292 17.4575C47.0977 17.4575 47.0977 17.0567 46.8292 17.0606C46.6524 17.0606 46.6332 16.9593 46.6332 16.8605C46.6332 16.7485 46.5437 16.6573 46.4316 16.659Z" fill="#0A855C"/>
<path fill-rule="evenodd" clip-rule="evenodd" d="M45.8333 22.0074C45.6336 22.0074 45.4743 22.1749 45.4775 22.3745C45.4775 22.6251 45.3703 22.7388 45.1216 22.7388C44.6327 22.7303 44.6327 23.4687 45.1216 23.4617C45.3611 23.4617 45.4775 23.5283 45.4775 23.8106C45.469 24.2994 46.2073 24.2994 46.2004 23.8106C46.2004 23.554 46.3204 23.4617 46.5576 23.4617C47.0466 23.4702 47.0466 22.7318 46.5576 22.7388C46.2353 22.7388 46.2004 22.5544 46.2004 22.3745C46.2004 22.1704 46.0373 22.0042 45.8333 22.0074Z" fill="#0A855C"/>
<path fill-rule="evenodd" clip-rule="evenodd" d="M10.0857 3.71146C9.94021 3.71146 9.82417 3.83347 9.82645 3.97892C9.82645 4.16153 9.74807 4.24437 9.56715 4.24437C9.21094 4.23595 9.21094 4.77622 9.56715 4.77117C9.74167 4.77117 9.82645 4.81918 9.82645 5.0253C9.81802 5.38143 10.3583 5.38143 10.3532 5.0253C10.3532 4.83839 10.4407 4.77117 10.6135 4.77117C10.9697 4.77959 10.9697 4.23932 10.6135 4.24437C10.3787 4.24437 10.3532 4.11004 10.3532 3.97892C10.3532 3.83027 10.2344 3.7091 10.0857 3.71146Z" fill="#16162F"/>
<path fill-rule="evenodd" clip-rule="evenodd" d="M26.0415 1.62918C25.9291 1.62918 25.8394 1.72348 25.8411 1.83589C25.8411 1.97705 25.7805 2.04101 25.6407 2.04101C25.3654 2.04101 25.3654 2.45208 25.6407 2.44812C25.7756 2.44812 25.8411 2.48519 25.8411 2.64455C25.8411 2.91986 26.2521 2.91986 26.2483 2.64455C26.2483 2.50011 26.3157 2.44812 26.4494 2.44812C26.7247 2.44812 26.7247 2.03714 26.4494 2.04101C26.2679 2.04101 26.2483 1.93719 26.2483 1.83589C26.2491 1.72095 26.1564 1.62732 26.0415 1.62918Z" fill="#0A855C"/>
</svg>
