<svg width="61" height="42" viewBox="0 0 61 42" fill="none" xmlns="http://www.w3.org/2000/svg">
<path d="M9.95444 34.1114C9.88052 34.1103 9.80713 34.1239 9.73854 34.1514C9.66994 34.1788 9.60751 34.2196 9.55487 34.2713C9.50223 34.323 9.46043 34.3846 9.4319 34.4525C9.40336 34.5204 9.38867 34.5933 9.38867 34.6669C9.38867 34.7406 9.40336 34.8134 9.4319 34.8814C9.46043 34.9493 9.50223 35.0109 9.55487 35.0626C9.60751 35.1143 9.66994 35.155 9.73854 35.1825C9.80713 35.2099 9.88052 35.2235 9.95444 35.2225H54.3776C54.4515 35.2235 54.5249 35.2099 54.5935 35.1825C54.6621 35.155 54.7245 35.1143 54.7771 35.0626C54.8298 35.0109 54.8716 34.9493 54.9001 34.8814C54.9286 34.8134 54.9433 34.7406 54.9433 34.6669C54.9433 34.5933 54.9286 34.5204 54.9001 34.4525C54.8716 34.3846 54.8298 34.323 54.7771 34.2713C54.7245 34.2196 54.6621 34.1788 54.5935 34.1514C54.5249 34.1239 54.4515 34.1103 54.3776 34.1114H9.95444Z" fill="#16162F"/>
<path d="M57.7145 34.1256C57.6427 34.1244 57.5713 34.1374 57.5046 34.1641C57.4378 34.1907 57.3771 34.2305 57.3258 34.2809C57.2746 34.3312 57.2339 34.3913 57.2061 34.4576C57.1784 34.5239 57.1641 34.595 57.1641 34.6669C57.1641 34.7387 57.1784 34.8099 57.2061 34.8761C57.2339 34.9424 57.2746 35.0025 57.3258 35.0529C57.3771 35.1033 57.4378 35.143 57.5046 35.1697C57.5713 35.1963 57.6427 35.2094 57.7145 35.2082H59.9497C60.0215 35.2094 60.0929 35.1963 60.1596 35.1697C60.2264 35.143 60.2871 35.1033 60.3383 35.0529C60.3896 35.0025 60.4303 34.9424 60.458 34.8761C60.4858 34.8099 60.5001 34.7387 60.5001 34.6669C60.5001 34.595 60.4858 34.5239 60.458 34.4576C60.4303 34.3913 60.3896 34.3312 60.3383 34.2809C60.2871 34.2305 60.2264 34.1907 60.1596 34.1641C60.0929 34.1374 60.0215 34.1244 59.9497 34.1256H57.7145Z" fill="#16162F"/>
<path d="M1.00328 34.1114C0.937529 34.1103 0.872245 34.1239 0.811227 34.1514C0.750208 34.1788 0.69467 34.2196 0.647843 34.2713C0.601015 34.323 0.563831 34.3846 0.53845 34.4525C0.51307 34.5204 0.5 34.5933 0.5 34.6669C0.5 34.7406 0.51307 34.8134 0.53845 34.8814C0.563831 34.9493 0.601015 35.0109 0.647843 35.0626C0.69467 35.1143 0.750208 35.155 0.811227 35.1825C0.872245 35.2099 0.937529 35.2235 1.00328 35.2225H6.66325C6.72901 35.2235 6.79429 35.2099 6.85531 35.1825C6.91633 35.155 6.97187 35.1143 7.01869 35.0626C7.06552 35.0109 7.10271 34.9493 7.12809 34.8814C7.15347 34.8134 7.16654 34.7406 7.16654 34.6669C7.16654 34.5933 7.15347 34.5204 7.12809 34.4525C7.10271 34.3846 7.06552 34.323 7.01869 34.2713C6.97187 34.2196 6.91633 34.1788 6.85531 34.1514C6.79429 34.1239 6.72901 34.1103 6.66325 34.1114H1.00328Z" fill="#16162F"/>
<path fill-rule="evenodd" clip-rule="evenodd" d="M19.9589 36.3254C19.8848 36.325 19.8114 36.3393 19.7428 36.3674C19.6742 36.3954 19.6118 36.4368 19.5592 36.489C19.5067 36.5413 19.465 36.6034 19.4365 36.6718C19.408 36.7403 19.3934 36.8137 19.3934 36.8878C19.3934 36.9619 19.408 37.0353 19.4365 37.1037C19.465 37.1721 19.5067 37.2343 19.5592 37.2865C19.6118 37.3388 19.6742 37.3801 19.7428 37.4082C19.8114 37.4363 19.8848 37.4505 19.9589 37.4501H42.1513C42.2254 37.4505 42.2988 37.4363 42.3674 37.4082C42.436 37.3801 42.4984 37.3388 42.551 37.2865C42.6035 37.2343 42.6453 37.1721 42.6737 37.1037C42.7022 37.0353 42.7168 36.9619 42.7168 36.8878C42.7168 36.8137 42.7022 36.7403 42.6737 36.6718C42.6453 36.6034 42.6035 36.5413 42.551 36.489C42.4984 36.4368 42.436 36.3954 42.3674 36.3674C42.2988 36.3393 42.2254 36.325 42.1513 36.3254H19.9589Z" fill="#0A855C"/>
<path fill-rule="evenodd" clip-rule="evenodd" d="M23.3501 38.5555C23.268 38.5544 23.1865 38.568 23.1103 38.5955C23.0341 38.6229 22.9648 38.6637 22.9063 38.7154C22.8478 38.7671 22.8014 38.8287 22.7697 38.8966C22.738 38.9645 22.7217 39.0374 22.7217 39.111C22.7217 39.1846 22.738 39.2575 22.7697 39.3255C22.8014 39.3934 22.8478 39.455 22.9063 39.5067C22.9648 39.5583 23.0341 39.5991 23.1103 39.6266C23.1865 39.654 23.268 39.6676 23.3501 39.6666H29.8708C29.953 39.6676 30.0345 39.654 30.1107 39.6266C30.1869 39.5991 30.2562 39.5583 30.3147 39.5067C30.3732 39.455 30.4196 39.3934 30.4513 39.3255C30.483 39.2575 30.4993 39.1846 30.4993 39.111C30.4993 39.0374 30.483 38.9645 30.4513 38.8966C30.4196 38.8287 30.3732 38.7671 30.3147 38.7154C30.2562 38.6637 30.1869 38.6229 30.1107 38.5955C30.0345 38.568 29.953 38.5544 29.8708 38.5555H23.3501Z" fill="#0A855C"/>
<path fill-rule="evenodd" clip-rule="evenodd" d="M33.2828 38.5599C33.2096 38.5585 33.1369 38.5717 33.0689 38.5987C33.0008 38.6257 32.9389 38.666 32.8866 38.7173C32.8343 38.7685 32.7928 38.8296 32.7644 38.8971C32.7361 38.9646 32.7215 39.037 32.7215 39.1102C32.7215 39.1834 32.7361 39.2559 32.7644 39.3234C32.7928 39.3909 32.8343 39.452 32.8866 39.5032C32.9389 39.5545 33.0008 39.5948 33.0689 39.6218C33.1369 39.6488 33.2096 39.6619 33.2828 39.6604H41.0553C41.1285 39.6619 41.2012 39.6488 41.2693 39.6218C41.3373 39.5948 41.3993 39.5545 41.4515 39.5032C41.5038 39.452 41.5453 39.3909 41.5737 39.3234C41.602 39.2559 41.6166 39.1834 41.6166 39.1102C41.6166 39.037 41.602 38.9646 41.5737 38.8971C41.5453 38.8296 41.5038 38.7685 41.4515 38.7173C41.3993 38.666 41.3373 38.6257 41.2693 38.5987C41.2012 38.5717 41.1285 38.5585 41.0553 38.5599H33.2828Z" fill="#0A855C"/>
<path fill-rule="evenodd" clip-rule="evenodd" d="M26.6985 40.7779C26.6145 40.7768 26.531 40.7904 26.453 40.8179C26.375 40.8454 26.304 40.8861 26.2441 40.9378C26.1842 40.9895 26.1367 41.0511 26.1042 41.119C26.0718 41.1869 26.0551 41.2598 26.0551 41.3334C26.0551 41.4071 26.0718 41.4799 26.1042 41.5479C26.1367 41.6158 26.1842 41.6774 26.2441 41.7291C26.304 41.7808 26.375 41.8215 26.453 41.849C26.531 41.8764 26.6145 41.89 26.6985 41.889H33.1892C33.2733 41.89 33.3567 41.8764 33.4348 41.849C33.5128 41.8215 33.5838 41.7808 33.6437 41.7291C33.7035 41.6774 33.7511 41.6158 33.7835 41.5479C33.816 41.4799 33.8327 41.4071 33.8327 41.3334C33.8327 41.2598 33.816 41.1869 33.7835 41.119C33.7511 41.0511 33.7035 40.9895 33.6437 40.9378C33.5838 40.8861 33.5128 40.8454 33.4348 40.8179C33.3567 40.7904 33.2733 40.7768 33.1892 40.7779H26.6985Z" fill="#0A855C"/>
<path fill-rule="evenodd" clip-rule="evenodd" d="M45.6858 0.111364C45.5402 0.111364 45.4242 0.233355 45.4265 0.378721C45.4265 0.561335 45.3481 0.644277 45.1672 0.644277C44.811 0.63585 44.811 1.17611 45.1672 1.17097C45.3417 1.17097 45.4265 1.21898 45.4265 1.4251C45.418 1.78132 45.9583 1.78132 45.9532 1.4251C45.9532 1.23819 46.0407 1.17097 46.2135 1.17097C46.5698 1.17939 46.5698 0.639053 46.2135 0.644277C45.9787 0.644277 45.9532 0.509846 45.9532 0.378721C45.9532 0.230068 45.8344 0.108921 45.6858 0.111364Z" fill="#16162F"/>
<path fill-rule="evenodd" clip-rule="evenodd" d="M10.3784 21.1556C10.1786 21.1556 10.0194 21.323 10.0225 21.5226C10.0225 21.7733 9.91537 21.887 9.66669 21.887C9.17775 21.8785 9.17775 22.617 9.66669 22.61C9.90619 22.61 10.0225 22.6765 10.0225 22.9587C10.0141 23.4475 10.7523 23.4475 10.7454 22.9587C10.7454 22.7022 10.8654 22.61 11.1027 22.61C11.5916 22.6185 11.5916 21.8801 11.1027 21.887C10.7804 21.887 10.7454 21.7025 10.7454 21.5226C10.7454 21.3186 10.5824 21.1524 10.3784 21.1556Z" fill="#0A855C"/>
<path fill-rule="evenodd" clip-rule="evenodd" d="M10.7418 10.2793C10.6322 10.2793 10.5447 10.3712 10.5465 10.4809C10.5465 10.6185 10.4875 10.6809 10.3511 10.6809C10.0827 10.6724 10.0827 11.0817 10.3511 11.0778C10.4826 11.0778 10.5465 11.114 10.5465 11.2693C10.5381 11.5377 10.9472 11.5377 10.9434 11.2693C10.9434 11.1285 11.0091 11.0778 11.1395 11.0778C11.4079 11.0778 11.4079 10.6771 11.1395 10.6809C10.9625 10.6809 10.9434 10.5796 10.9434 10.4809C10.9434 10.3688 10.8538 10.2776 10.7418 10.2793Z" fill="#0A855C"/>
<path fill-rule="evenodd" clip-rule="evenodd" d="M20.4987 0.11136C20.3532 0.11136 20.2372 0.23342 20.2394 0.37887C20.2394 0.561484 20.1611 0.644324 19.9802 0.644324C19.6239 0.635897 19.6239 1.17626 19.9802 1.17112C20.1547 1.17112 20.2394 1.21913 20.2394 1.42525C20.231 1.78138 20.7713 1.78138 20.7662 1.42525C20.7662 1.23834 20.8537 1.17112 21.0265 1.17112C21.3827 1.17954 21.3827 0.639268 21.0265 0.644324C20.7917 0.644324 20.7662 0.509995 20.7662 0.37887C20.7662 0.230218 20.6474 0.109084 20.4987 0.11136Z" fill="#16162F"/>
<path fill-rule="evenodd" clip-rule="evenodd" d="M36.1621 0.938502C36.0524 0.938502 35.965 1.03037 35.9666 1.13992C35.9666 1.27753 35.9077 1.34 35.7713 1.34C35.5029 1.34 35.5029 1.74071 35.7713 1.73692C35.9028 1.73692 35.9666 1.77313 35.9666 1.92836C35.9582 2.19684 36.3674 2.19684 36.3636 1.92836C36.3636 1.78763 36.4293 1.73692 36.5597 1.73692C36.8281 1.74535 36.8281 1.33612 36.5597 1.34C36.3828 1.34 36.3636 1.23868 36.3636 1.13992C36.3636 1.02797 36.2741 0.936732 36.1621 0.938502Z" fill="#16162F"/>
<path fill-rule="evenodd" clip-rule="evenodd" d="M49.5703 8.51127C49.4249 8.51127 49.3088 8.63331 49.311 8.77867C49.311 8.96129 49.2327 9.04418 49.0518 9.04418C48.6956 9.03575 48.6956 9.57603 49.0518 9.57097C49.2263 9.57097 49.311 9.61902 49.311 9.82506C49.3026 10.1813 49.8429 10.1813 49.8378 9.82506C49.8378 9.63815 49.9253 9.57097 50.0981 9.57097C50.4543 9.5794 50.4543 9.03896 50.0981 9.04418C49.8633 9.04418 49.8378 8.9098 49.8378 8.77867C49.8378 8.63002 49.7191 8.50882 49.5703 8.51127Z" fill="#0A855C"/>
<path fill-rule="evenodd" clip-rule="evenodd" d="M50.9573 16.659C50.8477 16.659 50.7602 16.751 50.7619 16.8605C50.7619 16.9981 50.7029 17.0606 50.5666 17.0606C50.2982 17.0521 50.2982 17.4613 50.5666 17.4575C50.6981 17.4575 50.7619 17.4937 50.7619 17.649C50.7535 17.9174 51.1626 17.9174 51.1588 17.649C51.1588 17.5082 51.2246 17.4575 51.3549 17.4575C51.6234 17.4575 51.6234 17.0567 51.3549 17.0606C51.1781 17.0606 51.1588 16.9593 51.1588 16.8605C51.1588 16.7485 51.0694 16.6573 50.9573 16.659Z" fill="#0A855C"/>
<path fill-rule="evenodd" clip-rule="evenodd" d="M50.359 22.0074C50.1593 22.0074 50 22.1749 50.0032 22.3745C50.0032 22.6251 49.896 22.7388 49.6473 22.7388C49.1584 22.7303 49.1584 23.4687 49.6473 23.4617C49.8868 23.4617 50.0032 23.5283 50.0032 23.8106C49.9947 24.2994 50.733 24.2994 50.7261 23.8106C50.7261 23.554 50.8461 23.4617 51.0833 23.4617C51.5723 23.4702 51.5723 22.7318 51.0833 22.7388C50.761 22.7388 50.7261 22.5544 50.7261 22.3745C50.7261 22.1704 50.563 22.0042 50.359 22.0074Z" fill="#0A855C"/>
<path fill-rule="evenodd" clip-rule="evenodd" d="M10.0857 3.71146C9.94021 3.71146 9.82417 3.83347 9.82645 3.97892C9.82645 4.16153 9.74807 4.24437 9.56715 4.24437C9.21094 4.23595 9.21094 4.77622 9.56715 4.77117C9.74167 4.77117 9.82645 4.81918 9.82645 5.0253C9.81802 5.38143 10.3583 5.38143 10.3532 5.0253C10.3532 4.83839 10.4407 4.77117 10.6135 4.77117C10.9697 4.77959 10.9697 4.23932 10.6135 4.24437C10.3787 4.24437 10.3532 4.11004 10.3532 3.97892C10.3532 3.83027 10.2344 3.7091 10.0857 3.71146Z" fill="#16162F"/>
<path fill-rule="evenodd" clip-rule="evenodd" d="M26.0415 1.62918C25.9291 1.62918 25.8394 1.72348 25.8411 1.83589C25.8411 1.97705 25.7805 2.04101 25.6407 2.04101C25.3654 2.04101 25.3654 2.45208 25.6407 2.44812C25.7756 2.44812 25.8411 2.48519 25.8411 2.64455C25.8411 2.91986 26.2521 2.91986 26.2483 2.64455C26.2483 2.50011 26.3157 2.44812 26.4494 2.44812C26.7247 2.44812 26.7247 2.03714 26.4494 2.04101C26.2679 2.04101 26.2483 1.93719 26.2483 1.83589C26.2491 1.72095 26.1564 1.62732 26.0415 1.62918Z" fill="#0A855C"/>
<path fill-rule="evenodd" clip-rule="evenodd" d="M12.6667 7.46904C12.6667 5.42559 14.3233 3.76904 16.3668 3.76904H44.0805C46.1106 3.76904 47.7615 5.40472 47.7804 7.43468L47.9883 29.8167C48.0074 31.8735 46.3453 33.5511 44.2884 33.5511H16.3667C14.3233 33.5511 12.6667 31.8945 12.6667 29.8511V7.46904ZM16.3668 4.76904C14.8756 4.76904 13.6667 5.97788 13.6667 7.46904V7.55602H46.7815L46.7804 7.44397C46.7667 5.96264 45.5619 4.76904 44.0805 4.76904H16.3668ZM46.7908 8.55602H13.6667V29.8511C13.6667 31.3422 14.8756 32.5511 16.3667 32.5511H44.2884C45.7894 32.5511 47.0023 31.3269 46.9883 29.826L46.7908 8.55602Z" fill="#16162F"/>
<path fill-rule="evenodd" clip-rule="evenodd" d="M30.5 31.0214C36.2216 31.0214 40.8599 26.3832 40.8599 20.6616C40.8599 14.94 36.2216 10.3018 30.5 10.3018C24.7785 10.3018 20.1402 14.94 20.1402 20.6616C20.1402 26.3832 24.7785 31.0214 30.5 31.0214ZM30.5 32.0214C36.7739 32.0214 41.8599 26.9355 41.8599 20.6616C41.8599 14.3877 36.7739 9.30176 30.5 9.30176C24.2262 9.30176 19.1402 14.3877 19.1402 20.6616C19.1402 26.9355 24.2262 32.0214 30.5 32.0214Z" fill="#16162F"/>
<path fill-rule="evenodd" clip-rule="evenodd" d="M26.727 14.9766C25.9228 14.9766 25.1604 15.3351 24.6475 15.9545L22.8072 18.1767H26.2403L28.0154 14.9766H26.727ZM29.1589 14.9766L27.3838 18.1767H30.1529V16.1172C30.1529 15.8411 30.3767 15.6172 30.6529 15.6172C30.929 15.6172 31.1529 15.8411 31.1529 16.1172V18.1767H33.9334L32.2084 14.9766H29.1589ZM33.3444 14.9766L35.0695 18.1767H38.0883L36.5718 16.0895C36.0638 15.3903 35.2518 14.9766 34.3875 14.9766H33.3444ZM37.9821 19.1767H35.1021L32.2881 25.8161L37.9821 19.1767ZM30.58 27.2835L34.016 19.1767H31.1529V23.6972C31.1529 23.9734 30.929 24.1972 30.6529 24.1972C30.3767 24.1972 30.1529 23.9734 30.1529 23.6972V19.1767H27.2782L30.58 27.2835ZM26.1985 19.1767L29.012 26.0847L22.8588 19.1767H26.1985ZM23.8773 15.3166C24.5802 14.4678 25.6249 13.9766 26.727 13.9766H34.3875C35.5719 13.9766 36.6847 14.5435 37.3808 15.5017L39.4741 18.3828C39.6103 18.5701 39.5999 18.8264 39.4492 19.0022L30.9504 28.912C30.8565 29.0215 30.7198 29.0851 30.5755 29.0865C30.4313 29.0878 30.2934 29.0268 30.1975 28.9191L21.3705 19.0093C21.2062 18.8248 21.2013 18.548 21.3588 18.3578L23.8773 15.3166Z" fill="#0A855C"/>
<path d="M15.4188 6.65057H15.9774C16.1255 6.65057 16.2676 6.59173 16.3723 6.48698C16.4771 6.38222 16.5359 6.24015 16.5359 6.09201C16.5359 5.94387 16.4771 5.8018 16.3723 5.69705C16.2676 5.5923 16.1255 5.53345 15.9774 5.53345H15.4188C15.2707 5.53345 15.1286 5.5923 15.0238 5.69705C14.9191 5.8018 14.8602 5.94387 14.8602 6.09201C14.8602 6.24015 14.9191 6.38222 15.0238 6.48698C15.1286 6.59173 15.2707 6.65057 15.4188 6.65057Z" fill="#16162F"/>
<path d="M17.653 6.65057H18.2116C18.3597 6.65057 18.5018 6.59173 18.6066 6.48698C18.7113 6.38222 18.7702 6.24015 18.7702 6.09201C18.7702 5.94387 18.7113 5.8018 18.6066 5.69705C18.5018 5.5923 18.3597 5.53345 18.2116 5.53345H17.653C17.5049 5.53345 17.3628 5.5923 17.2581 5.69705C17.1533 5.8018 17.0945 5.94387 17.0945 6.09201C17.0945 6.24015 17.1533 6.38222 17.2581 6.48698C17.3628 6.59173 17.5049 6.65057 17.653 6.65057Z" fill="#16162F"/>
<path d="M19.8873 6.65057H20.4459C20.594 6.65057 20.7361 6.59173 20.8408 6.48698C20.9456 6.38222 21.0044 6.24015 21.0044 6.09201C21.0044 5.94387 20.9456 5.8018 20.8408 5.69705C20.7361 5.5923 20.594 5.53345 20.4459 5.53345H19.8873C19.7392 5.53345 19.5971 5.5923 19.4923 5.69705C19.3876 5.8018 19.3287 5.94387 19.3287 6.09201C19.3287 6.24015 19.3876 6.38222 19.4923 6.48698C19.5971 6.59173 19.7392 6.65057 19.8873 6.65057Z" fill="#16162F"/>
</svg>
