<svg width="61" height="44" viewBox="0 0 61 44" fill="none" xmlns="http://www.w3.org/2000/svg">
<path d="M9.95444 35.7112C9.88052 35.7102 9.80713 35.7238 9.73854 35.7512C9.66994 35.7787 9.60751 35.8195 9.55487 35.8711C9.50223 35.9228 9.46043 35.9844 9.4319 36.0523C9.40336 36.1203 9.38867 36.1932 9.38867 36.2668C9.38867 36.3404 9.40336 36.4133 9.4319 36.4812C9.46043 36.5491 9.50223 36.6107 9.55487 36.6624C9.60751 36.7141 9.66994 36.7549 9.73854 36.7823C9.80713 36.8098 9.88052 36.8234 9.95444 36.8223H54.3776C54.4515 36.8234 54.5249 36.8098 54.5935 36.7823C54.6621 36.7549 54.7245 36.7141 54.7771 36.6624C54.8298 36.6107 54.8716 36.5491 54.9001 36.4812C54.9286 36.4133 54.9433 36.3404 54.9433 36.2668C54.9433 36.1932 54.9286 36.1203 54.9001 36.0523C54.8716 35.9844 54.8298 35.9228 54.7771 35.8711C54.7245 35.8195 54.6621 35.7787 54.5935 35.7512C54.5249 35.7238 54.4515 35.7102 54.3776 35.7112H9.95444Z" fill="#16162F"/>
<path d="M31.6142 15.8022C31.8572 15.8022 32.0789 15.9302 32.2019 16.1331L32.2548 16.2407L36.8939 28.1811H37.1218C37.5013 28.1811 37.8091 28.4887 37.8091 28.8684C37.8091 29.2058 37.5659 29.4864 37.2453 29.5446L37.1218 29.5558H34.3686C33.9889 29.5558 33.6813 29.2479 33.6813 28.8684C33.6813 28.5309 33.9244 28.2503 34.245 28.1921L34.3686 28.1811H35.4191L34.3522 25.4346H28.8763L27.8118 28.1746H28.8667C29.2463 28.1746 29.554 28.4824 29.554 28.8619C29.554 29.1993 29.3109 29.48 28.9902 29.5382L28.8667 29.5492H26.8992L26.8054 29.5558L26.7104 29.5492H26.1176C25.7381 29.5492 25.4304 29.2415 25.4304 28.8619C25.4304 28.5246 25.6735 28.2439 25.9941 28.1857L26.1176 28.1746H26.3371L30.9736 16.2407C31.0763 15.9764 31.3307 15.8022 31.6142 15.8022ZM31.6142 18.3874L29.4104 24.06H33.8181L31.6142 18.3874Z" fill="#16162F"/>
<path fill-rule="evenodd" clip-rule="evenodd" d="M25.0871 13.0532C25.3736 13.0532 25.63 13.231 25.7306 13.4992L28.1042 19.8303L27.3572 21.7531L26.9295 20.6123H23.2441L22.6375 22.2298C22.5042 22.5852 22.108 22.7653 21.7526 22.632C21.3972 22.4987 21.2172 22.1025 21.3505 21.7471L24.4436 13.4992C24.5442 13.2309 24.8006 13.0532 25.0871 13.0532ZM25.087 15.6979L23.7596 19.2375H26.4141L25.087 15.6979Z" fill="#0A855C"/>
<path fill-rule="evenodd" clip-rule="evenodd" d="M19.6904 25.2612C19.9665 25.2612 20.1904 25.4851 20.1904 25.7612V32.4388C20.1904 33.4881 21.041 34.3388 22.0904 34.3388H36.9599C37.2361 34.3388 37.4599 34.5626 37.4599 34.8388C37.4599 35.1149 37.2361 35.3388 36.9599 35.3388H22.0904C20.4887 35.3388 19.1904 34.0404 19.1904 32.4388V25.7612C19.1904 25.4851 19.4142 25.2612 19.6904 25.2612Z" fill="#16162F"/>
<path fill-rule="evenodd" clip-rule="evenodd" d="M19.1904 8.23472C19.1904 6.63309 20.4887 5.33472 22.0904 5.33472H34.3819C34.6581 5.33472 34.8819 5.55857 34.8819 5.83472C34.8819 6.11086 34.6581 6.33472 34.3819 6.33472H22.0904C21.041 6.33472 20.1904 7.18538 20.1904 8.23472V13.6392C20.1904 13.9153 19.9665 14.1392 19.6904 14.1392C19.4142 14.1392 19.1904 13.9153 19.1904 13.6392V8.23472Z" fill="#16162F"/>
<path d="M35.2641 12.2779C35.2641 12.2936 35.2582 12.3087 35.2477 12.3199C35.2372 12.331 35.2229 12.3373 35.208 12.3373C35.1932 12.3373 35.1789 12.331 35.1684 12.3199C35.1579 12.3087 35.1519 12.2936 35.1519 12.2779C35.1519 12.2621 35.1579 12.247 35.1684 12.2359C35.1789 12.2248 35.1932 12.2185 35.208 12.2185C35.2229 12.2185 35.2372 12.2248 35.2477 12.2359C35.2582 12.247 35.2641 12.2621 35.2641 12.2779ZM36.5025 13.6309C36.5025 13.6622 36.4907 13.6923 36.4698 13.7144C36.4489 13.7366 36.4205 13.749 36.3909 13.749C36.3613 13.749 36.3329 13.7366 36.312 13.7144C36.2911 13.6923 36.2793 13.6622 36.2793 13.6309C36.2793 13.5995 36.2911 13.5695 36.312 13.5473C36.3329 13.5252 36.3613 13.5127 36.3909 13.5127C36.4205 13.5127 36.4489 13.5252 36.4698 13.5473C36.4907 13.5695 36.5025 13.5995 36.5025 13.6309ZM38.1717 14.3273C38.1717 14.3744 38.154 14.4195 38.1226 14.4528C38.0911 14.4861 38.0485 14.5048 38.004 14.5048C37.9595 14.5048 37.9169 14.4861 37.8855 14.4528C37.854 14.4195 37.8363 14.3744 37.8363 14.3273C37.8363 14.304 37.8407 14.2809 37.8491 14.2593C37.8575 14.2378 37.8699 14.2182 37.8855 14.2017C37.901 14.1853 37.9195 14.1722 37.9398 14.1633C37.9602 14.1543 37.982 14.1497 38.004 14.1497C38.026 14.1497 38.0478 14.1543 38.0682 14.1633C38.0885 14.1722 38.107 14.1853 38.1226 14.2017C38.1381 14.2182 38.1505 14.2378 38.1589 14.2593C38.1673 14.2809 38.1717 14.304 38.1717 14.3273ZM39.9685 14.2339C39.9685 14.2966 39.9449 14.3567 39.9031 14.401C39.8613 14.4453 39.8045 14.4702 39.7453 14.4702C39.6861 14.4702 39.6294 14.4453 39.5875 14.401C39.5457 14.3567 39.5222 14.2966 39.5222 14.2339C39.5222 14.1713 39.5457 14.1112 39.5875 14.0669C39.6294 14.0226 39.6861 13.9977 39.7453 13.9977C39.8045 13.9977 39.8613 14.0226 39.9031 14.0669C39.9449 14.1112 39.9685 14.1713 39.9685 14.2339ZM41.5624 13.3678C41.5624 13.4067 41.5552 13.4451 41.5412 13.481C41.5272 13.5169 41.5066 13.5495 41.4807 13.5769C41.4547 13.6044 41.424 13.6261 41.3901 13.641C41.3562 13.6559 41.3199 13.6635 41.2832 13.6635C41.2466 13.6635 41.2102 13.6559 41.1764 13.641C41.1425 13.6261 41.1117 13.6044 41.0858 13.5769C41.0599 13.5495 41.0393 13.5169 41.0253 13.481C41.0112 13.4451 41.004 13.4067 41.004 13.3678C41.004 13.329 41.0112 13.2906 41.0253 13.2547C41.0393 13.2188 41.0599 13.1862 41.0858 13.1588C41.1117 13.1313 41.1425 13.1095 41.1764 13.0947C41.2102 13.0798 41.2466 13.0722 41.2832 13.0722C41.3199 13.0722 41.3562 13.0798 41.3901 13.0947C41.424 13.1095 41.4547 13.1313 41.4807 13.1588C41.5066 13.1862 41.5272 13.2188 41.5412 13.2547C41.5552 13.2906 41.5624 13.329 41.5624 13.3678ZM42.6664 11.8954C42.6664 11.9896 42.6311 12.0799 42.5682 12.1465C42.5053 12.2131 42.42 12.2505 42.3311 12.2505C42.2422 12.2505 42.1569 12.2131 42.094 12.1465C42.0311 12.0799 41.9958 11.9896 41.9958 11.8954C41.9958 11.8013 42.0311 11.7109 42.094 11.6444C42.1569 11.5778 42.2422 11.5404 42.3311 11.5404C42.42 11.5404 42.5053 11.5778 42.5682 11.6444C42.6311 11.7109 42.6664 11.8013 42.6664 11.8954ZM43.0806 10.0875C43.0806 10.1419 43.0705 10.1957 43.0509 10.2459C43.0312 10.2961 43.0025 10.3417 42.9662 10.3801C42.9299 10.4185 42.8868 10.449 42.8394 10.4698C42.792 10.4906 42.7412 10.5013 42.6898 10.5013C42.6385 10.5013 42.5877 10.4906 42.5403 10.4698C42.4929 10.449 42.4498 10.4185 42.4135 10.3801C42.3772 10.3417 42.3484 10.2961 42.3288 10.2459C42.3091 10.1957 42.299 10.1419 42.299 10.0875C42.299 9.97778 42.3402 9.87253 42.4135 9.79493C42.4868 9.71733 42.5862 9.67373 42.6898 9.67373C42.7935 9.67373 42.8929 9.71733 42.9662 9.79493C43.0395 9.87253 43.0806 9.97778 43.0806 10.0875ZM42.7398 8.29137C42.7398 8.35351 42.7282 8.41504 42.7057 8.47245C42.6833 8.52986 42.6504 8.58203 42.6089 8.62597C42.5674 8.66991 42.5181 8.70476 42.4639 8.72854C42.4097 8.75232 42.3516 8.76456 42.2929 8.76456C42.1744 8.76456 42.0607 8.71471 41.9769 8.62597C41.8931 8.53723 41.846 8.41687 41.846 8.29137C41.846 8.16588 41.8931 8.04552 41.9769 7.95678C42.0607 7.86804 42.1744 7.81819 42.2929 7.81819C42.4114 7.81819 42.5251 7.86804 42.6089 7.95678C42.6927 8.04552 42.7398 8.16588 42.7398 8.29137ZM41.7172 6.8431C41.7172 6.91304 41.7042 6.98229 41.6789 7.04691C41.6536 7.11152 41.6166 7.17023 41.5698 7.21969C41.5231 7.26914 41.4677 7.30837 41.4067 7.33514C41.3456 7.3619 41.2802 7.37568 41.2142 7.37568C41.1481 7.37568 41.0827 7.3619 41.0217 7.33514C40.9607 7.30837 40.9052 7.26914 40.8585 7.21969C40.8118 7.17023 40.7748 7.11152 40.7495 7.04691C40.7242 6.98229 40.7112 6.91304 40.7112 6.8431C40.7112 6.70185 40.7642 6.56638 40.8585 6.46651C40.9529 6.36663 41.0808 6.31052 41.2142 6.31052C41.3476 6.31052 41.4755 6.36663 41.5698 6.46651C41.6642 6.56638 41.7172 6.70185 41.7172 6.8431ZM40.2156 6.01355C40.2156 6.09121 40.2012 6.1681 40.1731 6.23984C40.1451 6.31158 40.1039 6.37677 40.0521 6.43168C40.0002 6.48659 39.9386 6.53014 39.8709 6.55986C39.8031 6.58958 39.7305 6.60487 39.6572 6.60487C39.5091 6.60487 39.367 6.54257 39.2623 6.43168C39.1576 6.32078 39.0987 6.17038 39.0987 6.01355C39.0987 5.85673 39.1576 5.70632 39.2623 5.59543C39.367 5.48453 39.5091 5.42223 39.6572 5.42223C39.8053 5.42223 39.9473 5.48453 40.0521 5.59543C40.1568 5.70632 40.2156 5.85673 40.2156 6.01355ZM38.5292 5.96199C38.5292 6.13457 38.4644 6.30008 38.3492 6.42212C38.2339 6.54415 38.0776 6.6127 37.9146 6.6127C37.7516 6.6127 37.5953 6.54415 37.4801 6.42212C37.3648 6.30008 37.3001 6.13457 37.3001 5.96199C37.3001 5.78941 37.3648 5.6239 37.4801 5.50187C37.5953 5.37984 37.7516 5.31128 37.9146 5.31128C38.0776 5.31128 38.2339 5.37984 38.3492 5.50187C38.4644 5.6239 38.5292 5.78941 38.5292 5.96199ZM36.9851 6.69755C36.9851 6.88571 36.9145 7.06616 36.7889 7.19921C36.6632 7.33226 36.4928 7.407 36.3151 7.407C36.1374 7.407 35.967 7.33226 35.8413 7.19921C35.7157 7.06616 35.6451 6.88571 35.6451 6.69755C35.6451 6.50939 35.7157 6.32894 35.8413 6.19589C35.967 6.06284 36.1374 5.9881 36.3151 5.9881C36.4928 5.9881 36.6632 6.06284 36.7889 6.19589C36.9145 6.32894 36.9851 6.50939 36.9851 6.69755ZM35.8879 8.07926C35.8879 8.18022 35.8691 8.2802 35.8327 8.37348C35.7962 8.46676 35.7427 8.55152 35.6753 8.62291C35.6078 8.69431 35.5278 8.75094 35.4397 8.78958C35.3516 8.82821 35.2572 8.8481 35.1618 8.8481C35.0665 8.8481 34.972 8.82821 34.8839 8.78958C34.7958 8.75094 34.7158 8.69431 34.6484 8.62291C34.5809 8.55152 34.5275 8.46676 34.491 8.37348C34.4545 8.2802 34.4357 8.18022 34.4357 8.07926C34.4357 7.97829 34.4545 7.87831 34.491 7.78503C34.5275 7.69175 34.5809 7.60699 34.6484 7.5356C34.7158 7.46421 34.7958 7.40757 34.8839 7.36893C34.972 7.3303 35.0665 7.31041 35.1618 7.31041C35.2572 7.31041 35.3516 7.3303 35.4397 7.36893C35.5278 7.40757 35.6078 7.46421 35.6753 7.5356C35.7427 7.60699 35.7962 7.69175 35.8327 7.78503C35.8691 7.87831 35.8879 7.97829 35.8879 8.07926ZM35.4515 9.86888C35.4515 9.97764 35.4313 10.0853 35.392 10.1858C35.3527 10.2863 35.295 10.3776 35.2224 10.4545C35.1498 10.5314 35.0636 10.5924 34.9686 10.6341C34.8737 10.6757 34.772 10.6971 34.6693 10.6971C34.4619 10.6971 34.2629 10.6099 34.1162 10.4545C33.9695 10.2992 33.8871 10.0885 33.8871 9.86888C33.8871 9.64922 33.9695 9.43855 34.1162 9.28322C34.2629 9.1279 34.4619 9.04064 34.6693 9.04064C34.8768 9.04064 35.0757 9.1279 35.2224 9.28322C35.3691 9.43855 35.4515 9.64922 35.4515 9.86888Z" fill="#0A855C"/>
<path d="M57.7145 35.7254C57.6427 35.7242 57.5713 35.7373 57.5046 35.7639C57.4378 35.7906 57.3771 35.8303 57.3258 35.8807C57.2746 35.9311 57.2339 35.9912 57.2061 36.0574C57.1784 36.1237 57.1641 36.1949 57.1641 36.2667C57.1641 36.3386 57.1784 36.4097 57.2061 36.476C57.2339 36.5423 57.2746 36.6023 57.3258 36.6527C57.3771 36.7031 57.4378 36.7428 57.5046 36.7695C57.5713 36.7962 57.6427 36.8092 57.7145 36.808H59.9497C60.0215 36.8092 60.0929 36.7962 60.1596 36.7695C60.2263 36.7428 60.2871 36.7031 60.3383 36.6527C60.3896 36.6023 60.4303 36.5423 60.458 36.476C60.4858 36.4097 60.5001 36.3386 60.5001 36.2667C60.5001 36.1949 60.4858 36.1237 60.458 36.0574C60.4303 35.9912 60.3896 35.9311 60.3383 35.8807C60.2871 35.8303 60.2263 35.7906 60.1596 35.7639C60.0929 35.7373 60.0215 35.7242 59.9497 35.7254H57.7145Z" fill="#16162F"/>
<path d="M1.00328 35.7112C0.937529 35.7102 0.872245 35.7238 0.811227 35.7512C0.750208 35.7787 0.69467 35.8195 0.647843 35.8711C0.601015 35.9228 0.563831 35.9844 0.53845 36.0523C0.51307 36.1203 0.5 36.1932 0.5 36.2668C0.5 36.3404 0.51307 36.4133 0.53845 36.4812C0.563831 36.5491 0.601015 36.6107 0.647843 36.6624C0.69467 36.7141 0.750208 36.7549 0.811227 36.7823C0.872245 36.8098 0.937529 36.8234 1.00328 36.8223H6.66325C6.72901 36.8234 6.79429 36.8098 6.85531 36.7823C6.91633 36.7549 6.97187 36.7141 7.01869 36.6624C7.06552 36.6107 7.10271 36.5491 7.12809 36.4812C7.15347 36.4133 7.16654 36.3404 7.16654 36.2668C7.16654 36.1932 7.15347 36.1203 7.12809 36.0523C7.10271 35.9844 7.06552 35.9228 7.01869 35.8711C6.97187 35.8195 6.91633 35.7787 6.85531 35.7512C6.79429 35.7238 6.72901 35.7102 6.66325 35.7112H1.00328Z" fill="#16162F"/>
<path fill-rule="evenodd" clip-rule="evenodd" d="M19.9589 37.9253C19.8848 37.9249 19.8114 37.9391 19.7428 37.9672C19.6742 37.9953 19.6118 38.0366 19.5592 38.0889C19.5067 38.1411 19.465 38.2033 19.4365 38.2717C19.408 38.3401 19.3934 38.4135 19.3934 38.4876C19.3934 38.5617 19.408 38.6351 19.4365 38.7036C19.465 38.772 19.5067 38.8341 19.5592 38.8864C19.6118 38.9386 19.6742 38.98 19.7428 39.008C19.8114 39.0361 19.8848 39.0504 19.9589 39.05H42.1513C42.2254 39.0504 42.2989 39.0361 42.3675 39.008C42.4361 38.98 42.4984 38.9386 42.551 38.8864C42.6035 38.8341 42.6453 38.772 42.6737 38.7036C42.7022 38.6351 42.7168 38.5617 42.7168 38.4876C42.7168 38.4135 42.7022 38.3401 42.6737 38.2717C42.6453 38.2033 42.6035 38.1411 42.551 38.0889C42.4984 38.0366 42.4361 37.9953 42.3675 37.9672C42.2989 37.9391 42.2254 37.9249 42.1513 37.9253H19.9589Z" fill="#0A855C"/>
<path fill-rule="evenodd" clip-rule="evenodd" d="M23.3501 40.1553C23.268 40.1543 23.1865 40.1679 23.1103 40.1953C23.0341 40.2228 22.9648 40.2635 22.9063 40.3152C22.8478 40.3669 22.8014 40.4285 22.7697 40.4964C22.738 40.5644 22.7217 40.6372 22.7217 40.7109C22.7217 40.7845 22.738 40.8574 22.7697 40.9253C22.8014 40.9932 22.8478 41.0548 22.9063 41.1065C22.9648 41.1582 23.0341 41.199 23.1103 41.2264C23.1865 41.2539 23.268 41.2675 23.3501 41.2664H29.8708C29.953 41.2675 30.0345 41.2539 30.1107 41.2264C30.1869 41.199 30.2562 41.1582 30.3147 41.1065C30.3732 41.0548 30.4196 40.9932 30.4513 40.9253C30.483 40.8574 30.4993 40.7845 30.4993 40.7109C30.4993 40.6372 30.483 40.5644 30.4513 40.4964C30.4196 40.4285 30.3732 40.3669 30.3147 40.3152C30.2562 40.2635 30.1869 40.2228 30.1107 40.1953C30.0345 40.1679 29.953 40.1543 29.8708 40.1553H23.3501Z" fill="#0A855C"/>
<path fill-rule="evenodd" clip-rule="evenodd" d="M33.2828 40.1598C33.2096 40.1583 33.1369 40.1716 33.0689 40.1986C33.0008 40.2256 32.9389 40.2659 32.8866 40.3171C32.8343 40.3683 32.7928 40.4295 32.7644 40.497C32.7361 40.5644 32.7215 40.6368 32.7215 40.71C32.7215 40.7832 32.7361 40.8558 32.7644 40.9232C32.7928 40.9907 32.8343 41.0519 32.8866 41.1031C32.9389 41.1543 33.0008 41.1946 33.0689 41.2216C33.1369 41.2486 33.2096 41.2618 33.2828 41.2603H41.0553C41.1285 41.2618 41.2012 41.2486 41.2693 41.2216C41.3373 41.1946 41.3993 41.1543 41.4515 41.1031C41.5038 41.0519 41.5453 40.9907 41.5737 40.9232C41.602 40.8558 41.6166 40.7832 41.6166 40.71C41.6166 40.6368 41.602 40.5644 41.5737 40.497C41.5453 40.4295 41.5038 40.3683 41.4515 40.3171C41.3993 40.2659 41.3373 40.2256 41.2693 40.1986C41.2012 40.1716 41.1285 40.1583 41.0553 40.1598H33.2828Z" fill="#0A855C"/>
<path fill-rule="evenodd" clip-rule="evenodd" d="M26.6985 42.3777C26.6145 42.3767 26.531 42.3903 26.453 42.4178C26.375 42.4452 26.304 42.486 26.2441 42.5377C26.1842 42.5893 26.1367 42.6509 26.1042 42.7189C26.0718 42.7868 26.0551 42.8597 26.0551 42.9333C26.0551 43.0069 26.0718 43.0798 26.1042 43.1477C26.1367 43.2156 26.1842 43.2772 26.2441 43.3289C26.304 43.3806 26.375 43.4214 26.453 43.4488C26.531 43.4763 26.6145 43.4899 26.6985 43.4888H33.1892C33.2733 43.4899 33.3567 43.4763 33.4348 43.4488C33.5128 43.4214 33.5838 43.3806 33.6437 43.3289C33.7035 43.2772 33.7511 43.2156 33.7835 43.1477C33.816 43.0798 33.8327 43.0069 33.8327 42.9333C33.8327 42.8597 33.816 42.7868 33.7835 42.7189C33.7511 42.6509 33.7035 42.5893 33.6437 42.5377C33.5838 42.486 33.5128 42.4452 33.4348 42.4178C33.3567 42.3903 33.2733 42.3767 33.1892 42.3777H26.6985Z" fill="#0A855C"/>
<path fill-rule="evenodd" clip-rule="evenodd" d="M42.2157 6.51127C42.0702 6.51127 41.9542 6.63326 41.9564 6.77862C41.9564 6.96124 41.8781 7.04418 41.6972 7.04418C41.3409 7.03575 41.3409 7.57601 41.6972 7.57087C41.8717 7.57087 41.9564 7.61888 41.9564 7.82501C41.948 8.18122 42.4883 8.18122 42.4832 7.82501C42.4832 7.6381 42.5707 7.57087 42.7435 7.57087C43.0997 7.5793 43.0997 7.03895 42.7435 7.04418C42.5087 7.04418 42.4832 6.90975 42.4832 6.77862C42.4832 6.62997 42.3644 6.50882 42.2157 6.51127Z" fill="#16162F"/>
<path fill-rule="evenodd" clip-rule="evenodd" d="M16.7784 22.1114C16.5787 22.1114 16.4194 22.2788 16.4225 22.4784C16.4225 22.7291 16.3154 22.8428 16.0667 22.8428C15.5778 22.8343 15.5778 23.5728 16.0667 23.5658C16.3062 23.5658 16.4225 23.6323 16.4225 23.9145C16.4141 24.4033 17.1524 24.4033 17.1455 23.9145C17.1455 23.658 17.2655 23.5658 17.5028 23.5658C17.9916 23.5743 17.9916 22.8359 17.5028 22.8428C17.1804 22.8428 17.1455 22.6583 17.1455 22.4784C17.1455 22.2744 16.9824 22.1082 16.7784 22.1114Z" fill="#0A855C"/>
<path fill-rule="evenodd" clip-rule="evenodd" d="M13.4921 11.7112C13.3825 11.7112 13.295 11.8031 13.2967 11.9128C13.2967 12.0504 13.2378 12.1128 13.1013 12.1128C12.8329 12.1043 12.8329 12.5136 13.1013 12.5097C13.2329 12.5097 13.2967 12.5459 13.2967 12.7012C13.2883 12.9695 13.6975 12.9695 13.6937 12.7012C13.6937 12.5604 13.7594 12.5097 13.8898 12.5097C14.1582 12.5097 14.1582 12.109 13.8898 12.1128C13.7128 12.1128 13.6937 12.0115 13.6937 11.9128C13.6937 11.8007 13.6041 11.7094 13.4921 11.7112Z" fill="#0A855C"/>
<path fill-rule="evenodd" clip-rule="evenodd" d="M32.0857 0.511262C31.9402 0.511262 31.8241 0.633322 31.8264 0.778773C31.8264 0.961387 31.7481 1.04423 31.5672 1.04423C31.2109 1.0358 31.2109 1.57616 31.5672 1.57102C31.7416 1.57102 31.8264 1.61903 31.8264 1.82516C31.818 2.18128 32.3583 2.18128 32.3532 1.82516C32.3532 1.63825 32.4407 1.57102 32.6135 1.57102C32.9697 1.57945 32.9697 1.03917 32.6135 1.04423C32.3786 1.04423 32.3532 0.909898 32.3532 0.778773C32.3532 0.63012 32.2344 0.508987 32.0857 0.511262Z" fill="#16162F"/>
<path fill-rule="evenodd" clip-rule="evenodd" d="M32.692 7.3384C32.5824 7.3384 32.4949 7.43027 32.4966 7.53982C32.4966 7.67744 32.4376 7.7399 32.3013 7.7399C32.0329 7.7399 32.0329 8.14061 32.3013 8.13682C32.4327 8.13682 32.4966 8.17304 32.4966 8.32826C32.4882 8.59675 32.8973 8.59675 32.8935 8.32826C32.8935 8.18753 32.9593 8.13682 33.0897 8.13682C33.3581 8.14525 33.3581 7.73603 33.0897 7.7399C32.9127 7.7399 32.8935 7.63859 32.8935 7.53982C32.8935 7.42787 32.804 7.33663 32.692 7.3384Z" fill="#16162F"/>
<path fill-rule="evenodd" clip-rule="evenodd" d="M46.8856 10.5113C46.7402 10.5113 46.6241 10.6333 46.6263 10.7787C46.6263 10.9613 46.548 11.0442 46.3671 11.0442C46.0109 11.0358 46.0109 11.576 46.3671 11.571C46.5417 11.571 46.6263 11.619 46.6263 11.8251C46.6179 12.1813 47.1582 12.1813 47.1531 11.8251C47.1531 11.6381 47.2406 11.571 47.4134 11.571C47.7696 11.5794 47.7696 11.039 47.4134 11.0442C47.1786 11.0442 47.1531 10.9098 47.1531 10.7787C47.1531 10.63 47.0344 10.5088 46.8856 10.5113Z" fill="#0A855C"/>
<path fill-rule="evenodd" clip-rule="evenodd" d="M46.4316 18.2588C46.322 18.2588 46.2346 18.3508 46.2362 18.4604C46.2362 18.598 46.1772 18.6604 46.0409 18.6604C45.7725 18.652 45.7725 19.0611 46.0409 19.0573C46.1724 19.0573 46.2362 19.0936 46.2362 19.2488C46.2278 19.5172 46.6369 19.5172 46.6332 19.2488C46.6332 19.108 46.6989 19.0573 46.8292 19.0573C47.0977 19.0573 47.0977 18.6565 46.8292 18.6604C46.6524 18.6604 46.6332 18.5591 46.6332 18.4604C46.6332 18.3484 46.5437 18.2571 46.4316 18.2588Z" fill="#0A855C"/>
<path fill-rule="evenodd" clip-rule="evenodd" d="M45.8333 23.6072C45.6336 23.6072 45.4743 23.7747 45.4775 23.9744C45.4775 24.225 45.3703 24.3386 45.1216 24.3386C44.6327 24.3302 44.6327 25.0686 45.1216 25.0616C45.3611 25.0616 45.4775 25.1282 45.4775 25.4104C45.469 25.8993 46.2073 25.8993 46.2004 25.4104C46.2004 25.1539 46.3204 25.0616 46.5576 25.0616C47.0466 25.07 47.0466 24.3316 46.5576 24.3386C46.2353 24.3386 46.2004 24.1543 46.2004 23.9744C46.2004 23.7703 46.0374 23.604 45.8333 23.6072Z" fill="#0A855C"/>
<path fill-rule="evenodd" clip-rule="evenodd" d="M18.4858 5.71122C18.3402 5.71122 18.2242 5.83322 18.2265 5.97868C18.2265 6.16129 18.1481 6.24413 17.9672 6.24413C17.611 6.2357 17.611 6.77598 17.9672 6.77092C18.1417 6.77092 18.2265 6.81893 18.2265 7.02506C18.218 7.38119 18.7583 7.38119 18.7532 7.02506C18.7532 6.83815 18.8407 6.77092 19.0136 6.77092C19.3698 6.77935 19.3698 6.23907 19.0136 6.24413C18.7787 6.24413 18.7532 6.1098 18.7532 5.97868C18.7532 5.83002 18.6344 5.70886 18.4858 5.71122Z" fill="#16162F"/>
<path fill-rule="evenodd" clip-rule="evenodd" d="M26.0415 3.22928C25.9291 3.22928 25.8394 3.32357 25.8411 3.43599C25.8411 3.57714 25.7805 3.64111 25.6407 3.64111C25.3654 3.64111 25.3654 4.05218 25.6407 4.04822C25.7756 4.04822 25.8411 4.08529 25.8411 4.24464C25.8411 4.51996 26.2521 4.51996 26.2483 4.24464C26.2483 4.10021 26.3157 4.04822 26.4494 4.04822C26.7247 4.04822 26.7247 3.63724 26.4494 3.64111C26.2679 3.64111 26.2483 3.53728 26.2483 3.43599C26.2491 3.32105 26.1564 3.22742 26.0415 3.22928Z" fill="#0A855C"/>
</svg>
