<svg width="49" height="48" viewBox="0 0 49 48" fill="none" xmlns="http://www.w3.org/2000/svg">
<circle cx="24.5786" cy="24" r="24" fill="#EBF9FC"/>
<path d="M34.4131 22.9057L32.0186 20.5112C31.0339 19.5265 31.6356 18.487 32.7087 18.4239C34.4762 18.3145 35.4693 16.4292 34.0259 14.8595C32.4562 13.4203 30.5794 14.4093 30.4699 16.1725C30.4026 17.2456 29.3548 17.8516 28.3742 16.8711L26.0302 14.5271C25.3275 13.8243 24.187 13.8243 23.4843 14.5271L21.1108 16.9005C20.1261 17.8853 19.0824 17.2751 19.0151 16.202C18.9057 14.4345 17.012 13.4287 15.4423 14.8722C13.9947 16.446 15.0004 18.3398 16.7679 18.4492C17.841 18.5165 18.4512 19.5644 17.4707 20.5491L15.1056 22.9099C14.4029 23.6127 14.4029 24.7531 15.1056 25.4559L17.4496 27.7999C18.4344 28.7804 17.8494 29.803 16.7763 29.8704C15.0088 29.9798 14.0199 31.8609 15.4633 33.4305C17.033 34.874 18.9057 33.8892 19.0151 32.1218C19.0824 31.0487 20.1092 30.4595 21.094 31.44L23.459 33.8051C24.1744 34.5205 25.3443 34.5205 26.0597 33.8093L27.7178 32.1512L28.4289 31.44C29.359 30.4679 28.7572 29.4453 27.6967 29.378C25.9292 29.2686 24.9277 27.3749 26.3711 25.8052C27.9408 24.3618 29.8345 25.3675 29.9439 27.135C30.0112 28.1955 31.0296 28.793 32.0017 27.863L32.6456 27.2192L34.3794 25.4854C34.3836 25.4812 34.3836 25.4812 34.3878 25.4769L34.4131 25.4517C35.1159 24.7489 35.1159 23.6085 34.4131 22.9057Z" fill="#00A0AC"/>
</svg>
