<svg width="16" height="16" viewBox="0 0 16 16" fill="none" xmlns="http://www.w3.org/2000/svg">
<path fill-rule="evenodd" clip-rule="evenodd" d="M8.80001 8.79998H7.20001V8.68158C7.20001 7.98078 7.44481 7.48238 8.00001 7.19998C8.30801 7.04398 8.80001 6.74558 8.80001 6.39998C8.80001 5.95918 8.44161 5.59998 8.00001 5.59998C7.55841 5.59998 7.20001 5.95918 7.20001 6.39998H5.60001C5.60001 5.07678 6.67681 3.99998 8.00001 3.99998C9.32321 3.99998 10.4 4.79998 10.4 6.39998C10.4 7.99998 8.80001 8.13198 8.80001 8.79998ZM7.20001 12H8.80001V10.4H7.20001V12ZM8.00001 1.59998C4.46561 1.59998 1.60001 4.46558 1.60001 7.99998C1.60001 11.5344 4.46561 14.4 8.00001 14.4C11.5344 14.4 14.4 11.5344 14.4 7.99998C14.4 4.46558 11.5344 1.59998 8.00001 1.59998Z" fill="#FFC453"/>
</svg>
