<svg width="127" height="75" viewBox="0 0 127 75" fill="none" xmlns="http://www.w3.org/2000/svg">
<g clip-path="url(#clip0_1_35386)">
<path d="M12.1908 34.4237L20.678 23.6181L18.9585 31.6892H44.1557L26.1451 28.4696L32.2295 0L0 40.5984V40.6204H31.987L23.4777 51.404L25.2192 43.3549L0 43.3328L18.0106 46.5745L11.8821 75L44.0455 34.5781L44.1557 34.4458H44.1337L44.1557 34.4237H12.1908Z" fill="#0033C7"/>
<path d="M50.681 47.2802L52.0698 44.8765C52.3784 44.3252 53.0397 44.3252 53.3925 44.6119C53.5909 44.7221 56.7212 47.0156 59.2564 47.0156C61.2625 47.0156 62.7835 45.6924 62.7835 44.0385C62.7835 42.0538 61.1081 40.7086 57.8676 39.3855C54.2302 37.908 50.5707 35.5925 50.5707 31.0056C50.5707 27.5434 53.1279 23.5519 59.3005 23.5519C63.2465 23.5519 66.2887 25.5807 67.0602 26.1541C67.457 26.3966 67.5673 27.0361 67.3027 27.4331L65.8257 29.6383C65.5171 30.1014 64.9439 30.4102 64.4589 30.1014C64.1503 29.903 61.1963 27.9623 59.08 27.9623C56.9637 27.9623 55.6631 29.4399 55.6631 30.6748C55.6631 32.5051 57.096 33.7401 60.2484 35.0191C64.0181 36.5407 68.3609 38.79 68.3609 43.7959C68.3609 47.7874 64.8998 51.4701 59.4327 51.4701C54.5388 51.4701 51.673 49.1767 50.9014 48.449C50.5487 48.0961 50.3503 47.8977 50.703 47.2802H50.681Z" fill="#231F20"/>
<path d="M69.0663 36.4525C68.8238 35.9453 69.1765 35.5704 69.7277 35.5704H72.5273C72.7698 35.5704 73.1446 35.7689 73.2328 36.0335L75.5695 42.98H75.6136L79.5596 35.5263C79.6478 35.3719 79.8242 35.1735 80.1769 35.1735H80.4855C80.8382 35.1735 80.9925 35.3278 81.1028 35.5263L85.0267 42.98H85.0708L87.4076 36.0335C87.5619 35.6145 87.8705 35.5704 88.2894 35.5704H90.8025C91.3536 35.5704 91.6843 35.9673 91.5079 36.4525L86.6581 51.0291C86.5919 51.2496 86.3494 51.4481 85.9526 51.4481H85.7983C85.4897 51.4481 85.2913 51.2937 85.181 51.0953L80.2871 42.0538H80.243L75.3932 51.0953C75.2829 51.2937 75.0845 51.4481 74.7759 51.4481H74.5775C74.2248 51.4481 74.0043 51.2496 73.9162 51.0291L69.0663 36.4525Z" fill="#231F20"/>
<path d="M93.7565 31.0276C93.7565 29.5501 94.9248 28.3593 96.4018 28.3593C97.8788 28.3593 99.1134 29.5501 99.1134 31.0276C99.1134 32.5051 97.9009 33.6959 96.4018 33.6959C94.9028 33.6959 93.7565 32.483 93.7565 31.0276ZM94.0871 36.2981C94.0871 35.8791 94.4399 35.5704 94.8146 35.5704H98.0332C98.43 35.5704 98.7606 35.8791 98.7606 36.2981V50.3454C98.7606 50.7424 98.4079 51.0732 98.0332 51.0732H94.8146C94.4178 51.0732 94.0871 50.7203 94.0871 50.3454V36.2981Z" fill="#231F20"/>
<path d="M103.522 39.628H102.2C101.781 39.628 101.472 39.2752 101.472 38.9003V36.2981C101.472 35.8791 101.781 35.5704 102.2 35.5704H103.522V31.3805C103.522 26.2643 106.653 23.5519 110.775 23.5519C112.825 23.5519 114.655 24.434 115.36 25.0735C115.603 25.272 115.669 25.691 115.515 25.9556L114.192 28.4475C114.038 28.7562 113.619 28.8444 113.266 28.646C112.759 28.3372 111.833 27.8741 110.973 27.8741C109.298 27.8741 108.372 29.1532 108.372 31.4025V35.5925H112.252C112.671 35.5925 112.98 35.9012 112.98 36.3202V38.9224C112.98 39.3193 112.671 39.6501 112.252 39.6501H108.372V50.3455C108.372 50.7424 108.019 51.0732 107.645 51.0732H104.272C103.875 51.0732 103.544 50.7204 103.544 50.3455V39.6501L103.522 39.628Z" fill="#231F20"/>
<path d="M117.587 39.6281H116.264C115.867 39.6281 115.559 39.2752 115.559 38.9004V36.2982C115.559 35.8792 115.867 35.5704 116.264 35.5704H117.587V31.2702C117.587 30.8733 117.94 30.5425 118.314 30.5425L121.489 30.4984C121.886 30.4984 122.194 30.8513 122.194 31.2261V35.5704H125.611C126.03 35.5704 126.339 35.8792 126.339 36.2982V38.9004C126.339 39.2973 126.03 39.6281 125.611 39.6281H122.194V45.8248C122.194 46.9054 122.767 47.0597 123.407 47.0597C124.068 47.0597 124.884 46.7951 125.303 46.6407C125.721 46.4864 126.03 46.6848 126.162 47.0597L126.934 49.5075C127.088 49.9045 126.89 50.2794 126.515 50.4337C126.317 50.544 123.803 51.4481 121.908 51.4481C118.932 51.4481 117.609 49.5957 117.609 46.4423V39.606L117.587 39.6281Z" fill="#231F20"/>
</g>
<defs>
<clipPath id="clip0_1_35386">
<rect width="127" height="75" fill="white"/>
</clipPath>
</defs>
</svg>
