<svg width="17" height="16" viewBox="0 0 17 16" fill="none" xmlns="http://www.w3.org/2000/svg">
<path fill-rule="evenodd" clip-rule="evenodd" d="M9.30001 8.79998H7.70001V8.68158C7.70001 7.98078 7.94481 7.48238 8.50001 7.19998C8.80801 7.04398 9.30001 6.74558 9.30001 6.39998C9.30001 5.95918 8.94161 5.59998 8.50001 5.59998C8.05841 5.59998 7.70001 5.95918 7.70001 6.39998H6.10001C6.10001 5.07678 7.17681 3.99998 8.50001 3.99998C9.82321 3.99998 10.9 4.79998 10.9 6.39998C10.9 7.99998 9.30001 8.13198 9.30001 8.79998ZM7.70001 12H9.30001V10.4H7.70001V12ZM8.50001 1.59998C4.96561 1.59998 2.10001 4.46558 2.10001 7.99998C2.10001 11.5344 4.96561 14.4 8.50001 14.4C12.0344 14.4 14.9 11.5344 14.9 7.99998C14.9 4.46558 12.0344 1.59998 8.50001 1.59998Z" fill="#95C9B4"/>
</svg>
