<svg width="49" height="48" viewBox="0 0 49 48" fill="none" xmlns="http://www.w3.org/2000/svg">
<circle cx="24.5786" cy="24" r="24" fill="#F1F8F5"/>
<path d="M17.197 27.7088L18.4939 29.0057L20.7087 26.7693C18.5806 24.2327 18.1278 20.8816 19.117 18.0441L22.0641 20.9912C22.039 23.9542 24.4513 26.5437 27.599 26.5437C29.4468 26.5437 31.0857 25.6334 32.0916 24.2379L28.7456 20.8919L26.4254 23.2123L17.7963 14.5833V16.5398H16.283L16.2831 12H20.8229V13.5132L18.8664 13.5133L26.4254 21.0723L28.7456 18.7518L32.8253 22.8315C33.4944 20.9186 33.0873 18.6692 31.5129 17.0948C29.4958 15.0778 26.3274 14.9486 24.1634 16.6684L21.7168 14.2217C25.2412 11.158 30.5888 11.2974 33.9495 14.6581C35.6457 16.3544 36.5799 18.6097 36.5799 21.0086C36.5799 25.9608 32.5511 29.9897 27.5989 29.9898C25.4398 29.9898 23.3972 29.2326 21.7737 27.8446L19.5639 30.0758L20.866 31.378L15.2477 36.9964L11.5786 33.3273L17.197 27.7088Z" fill="#008060"/>
<path d="M24.4469 32.4583H36.5525V33.9715H24.4469V32.4583Z" fill="#008060"/>
<path d="M19.9072 35.485H28.9864V36.9981H19.9072V35.485Z" fill="#008060"/>
</svg>
