<svg width="49" height="48" viewBox="0 0 49 48" fill="none" xmlns="http://www.w3.org/2000/svg">
<circle cx="24.5786" cy="24" r="24" fill="#FFF7EC"/>
<path d="M34.5223 23.6313L32.0223 29.2563C31.973 29.3659 31.8931 29.459 31.7923 29.5244C31.6914 29.5898 31.5738 29.6248 31.4535 29.625C31.4096 29.6239 31.3657 29.6198 31.3223 29.6125C31.1823 29.5824 31.0568 29.5052 30.967 29.3937C30.8771 29.2822 30.8282 29.1432 30.8285 29V25.25H28.9535C28.8493 25.2498 28.7468 25.2235 28.6553 25.1735C28.5638 25.1236 28.4862 25.0515 28.4297 24.9639C28.3732 24.8763 28.3395 24.776 28.3316 24.672C28.3238 24.5681 28.3421 24.4638 28.3848 24.3688L30.8848 18.7438C30.9423 18.6126 31.0435 18.5054 31.1711 18.4405C31.2987 18.3755 31.4449 18.3568 31.5848 18.3875C31.7248 18.4176 31.8503 18.4948 31.9401 18.6063C32.03 18.7178 32.0789 18.8568 32.0785 19V22.75H33.9535C34.0578 22.7502 34.1603 22.7765 34.2518 22.8265C34.3433 22.8764 34.4208 22.9485 34.4774 23.0361C34.5339 23.1237 34.5676 23.224 34.5755 23.328C34.5833 23.4319 34.565 23.5362 34.5223 23.6313Z" fill="#FFC453"/>
<path d="M31.4536 13.375H14.5786C14.2478 13.3775 13.9313 13.5099 13.6974 13.7438C13.4635 13.9777 13.331 14.2942 13.3286 14.625C13.3295 14.9562 13.4616 15.2736 13.6958 15.5078C13.93 15.742 14.2473 15.874 14.5786 15.875C14.7443 15.875 14.9033 15.9408 15.0205 16.0581C15.1377 16.1753 15.2036 16.3342 15.2036 16.5C15.2036 16.6658 15.1377 16.8247 15.0205 16.9419C14.9033 17.0592 14.7443 17.125 14.5786 17.125H10.8286C10.4978 17.1275 10.1813 17.2599 9.94738 17.4938C9.71349 17.7277 9.58101 18.0442 9.57855 18.375C9.57954 18.7062 9.71156 19.0236 9.94576 19.2578C10.18 19.492 10.4973 19.624 10.8286 19.625H20.8036C20.9071 19.6163 21.0111 19.6335 21.1063 19.6751C21.2015 19.7168 21.2848 19.7814 21.3487 19.8633C21.4126 19.9452 21.455 20.0417 21.4723 20.1442C21.4895 20.2466 21.4809 20.3517 21.4473 20.45C21.2362 21.0536 21.0794 21.6748 20.9786 22.3063C20.9528 22.4615 20.8698 22.6014 20.7461 22.6986C20.6223 22.7957 20.4667 22.8431 20.3098 22.8312C20.2199 22.8213 20.1328 22.7937 20.0536 22.75H15.8286C15.4978 22.7525 15.1813 22.8849 14.9474 23.1188C14.7135 23.3527 14.581 23.6692 14.5786 24C14.5795 24.3312 14.7116 24.6486 14.9458 24.8828C15.18 25.117 15.4973 25.249 15.8286 25.25H20.2098C20.2411 25.2437 20.2786 25.2375 20.3161 25.2313C20.47 25.215 20.6244 25.2575 20.7484 25.3502C20.8724 25.4429 20.9568 25.579 20.9848 25.7313C21.085 26.35 21.2398 26.9586 21.4473 27.55C21.4922 27.6759 21.4959 27.8129 21.4577 27.941C21.4194 28.0692 21.3414 28.1818 21.2348 28.2625C21.1667 28.3135 21.0888 28.3499 21.006 28.3692C20.9231 28.3886 20.8372 28.3906 20.7536 28.375H10.8286C10.4973 28.376 10.18 28.508 9.94576 28.7422C9.71156 28.9764 9.57954 29.2938 9.57855 29.625C9.58101 29.9558 9.71349 30.2723 9.94738 30.5062C10.1813 30.7401 10.4978 30.8725 10.8286 30.875H14.5786C14.7443 30.875 14.9033 30.9408 15.0205 31.0581C15.1377 31.1753 15.2036 31.3342 15.2036 31.5C15.2036 31.6658 15.1377 31.8247 15.0205 31.9419C14.9033 32.0592 14.7443 32.125 14.5786 32.125C14.2473 32.126 13.93 32.258 13.6958 32.4922C13.4616 32.7264 13.3295 33.0438 13.3286 33.375C13.331 33.7058 13.4635 34.0223 13.6974 34.2562C13.9313 34.4901 14.2478 34.6225 14.5786 34.625H31.4536C34.2715 34.625 36.974 33.5056 38.9666 31.513C40.9591 29.5204 42.0786 26.8179 42.0786 24C42.0786 21.1821 40.9591 18.4796 38.9666 16.487C36.974 14.4944 34.2715 13.375 31.4536 13.375ZM31.4536 32.125C29.8466 32.125 28.2757 31.6485 26.9395 30.7557C25.6034 29.8629 24.562 28.594 23.947 27.1093C23.3321 25.6247 23.1712 23.991 23.4847 22.4149C23.7982 20.8388 24.572 19.3911 25.7083 18.2548C26.8446 17.1185 28.2923 16.3446 29.8684 16.0311C31.4445 15.7176 33.0782 15.8785 34.5629 16.4935C36.0475 17.1084 37.3165 18.1498 38.2092 19.486C39.102 20.8221 39.5786 22.393 39.5786 24C39.5766 26.1543 38.7199 28.2197 37.1966 29.743C35.6733 31.2664 33.6078 32.123 31.4536 32.125Z" fill="#FFC453"/>
<path d="M9.57855 25.25C9.91007 25.25 10.228 25.1183 10.4624 24.8839C10.6969 24.6495 10.8286 24.3315 10.8286 24C10.8286 23.6685 10.6969 23.3505 10.4624 23.1161C10.228 22.8817 9.91007 22.75 9.57855 22.75H8.32855C7.99703 22.75 7.67909 22.8817 7.44467 23.1161C7.21025 23.3505 7.07855 23.6685 7.07855 24C7.07855 24.3315 7.21025 24.6495 7.44467 24.8839C7.67909 25.1183 7.99703 25.25 8.32855 25.25H9.57855Z" fill="#FFC453"/>
</svg>
